<?xml version="1.0" encoding="us-ascii" standalone="no"?><svg xmlns="http://www.w3.org/2000/svg" xmlns:xlink="http://www.w3.org/1999/xlink" contentStyleType="text/css" height="504px" preserveAspectRatio="none" style="width:176px;height:504px;background:#FFFFFF;" version="1.1" viewBox="0 0 176 504" width="176px" zoomAndPan="magnify"><defs/><g><text fill="#000000" font-family="sans-serif" font-size="14" font-weight="bold" lengthAdjust="spacing" textLength="146" x="10" y="25.6953">CHECKLIST CLUSTER</text><!--cluster Checklist Cluster--><g id="cluster_Checklist Cluster"><path d="M12,46.0791 L133,46.0791 A3.75,3.75 0 0 1 135.5,48.5791 L142.5,71.1582 L167,71.1582 A2.5,2.5 0 0 1 169.5,73.6582 L169.5,494.5791 A2.5,2.5 0 0 1 167,497.0791 L12,497.0791 A2.5,2.5 0 0 1 9.5,494.5791 L9.5,48.5791 A2.5,2.5 0 0 1 12,46.0791 " fill="none" style="stroke:#000000;stroke-width:1.5;"/><line style="stroke:#000000;stroke-width:1.5;" x1="9.5" x2="142.5" y1="71.1582" y2="71.1582"/><text fill="#000000" font-family="sans-serif" font-size="14" font-weight="bold" lengthAdjust="spacing" textLength="120" x="13.5" y="63.7744">Checklist Cluster</text></g><!--class checklists--><g id="elem_checklists"><rect codeLine="285" fill="#F1F1F1" height="105.2373" id="checklists" rx="2.5" ry="2.5" style="stroke:#181818;stroke-width:0.5;" width="93" x="43" y="192.0791"/><ellipse cx="58" cy="208.0791" fill="#C2C2C2" rx="11" ry="11" style="stroke:#181818;stroke-width:1.0;"/><path d="M56.8594,208.876 L56.8594,211.376 L61.1875,211.376 L61.1875,210.4541 Q61.1875,209.8447 61.4219,209.5791 Q61.6719,209.3135 62.0469,209.3135 Q62.4219,209.3135 62.6563,209.5791 Q62.8906,209.8447 62.8906,210.4541 L62.8906,213.0791 L54.8906,213.0791 Q54.2656,213.0791 54,212.8447 Q53.75,212.6104 53.75,212.2197 Q53.75,211.8447 54.0156,211.6104 Q54.2813,211.376 54.8906,211.376 L55.1563,211.376 L55.1563,204.7197 L54.8906,204.7197 Q54.2656,204.7197 54,204.4854 Q53.75,204.251 53.75,203.8604 Q53.75,203.4854 54,203.251 Q54.2656,203.0166 54.8906,203.0166 L62.5156,203.0166 L62.5156,205.6104 Q62.5156,206.2197 62.2813,206.4854 Q62.0625,206.7354 61.6719,206.7354 Q61.2969,206.7354 61.0625,206.4854 Q60.8281,206.2197 60.8281,205.6104 L60.8281,204.7197 L56.8594,204.7197 L56.8594,207.1729 L58.3438,207.1729 Q58.3438,206.5166 58.4688,206.3291 Q58.7344,205.9229 59.2031,205.9229 Q59.5781,205.9229 59.8125,206.1885 Q60.0469,206.4385 60.0469,207.0479 L60.0469,209.0166 Q60.0469,209.5635 59.9219,209.751 Q59.6563,210.1416 59.2031,210.1416 Q58.7344,210.1416 58.4688,209.7354 Q58.3438,209.5479 58.3438,208.876 L56.8594,208.876 Z " fill="#000000"/><text fill="#000000" font-family="sans-serif" font-size="14" lengthAdjust="spacing" textLength="61" x="72" y="214.2349">checklists</text><line style="stroke:#181818;stroke-width:0.5;" x1="44" x2="135" y1="224.0791" y2="224.0791"/><ellipse cx="54" cy="239.1187" fill="#000000" rx="3" ry="3" style="stroke:#000000;stroke-width:1.0;"/><text fill="#000000" font-family="sans-serif" font-size="14" lengthAdjust="spacing" textLength="11" x="63" y="243.7744">id</text><text fill="#000000" font-family="sans-serif" font-size="14" lengthAdjust="spacing" textLength="47" x="63" y="262.8535">user_id</text><text fill="#000000" font-family="sans-serif" font-size="14" lengthAdjust="spacing" textLength="64" x="63" y="281.9326">day_index</text><line style="stroke:#181818;stroke-width:0.5;" x1="44" x2="135" y1="289.3164" y2="289.3164"/></g><!--class checklist_items--><g id="elem_checklist_items"><rect codeLine="291" fill="#F1F1F1" height="124.3164" id="checklist_items" rx="2.5" ry="2.5" style="stroke:#181818;stroke-width:0.5;" width="127" x="26" y="357.0791"/><ellipse cx="41" cy="373.0791" fill="#C2C2C2" rx="11" ry="11" style="stroke:#181818;stroke-width:1.0;"/><path d="M39.8594,373.876 L39.8594,376.376 L44.1875,376.376 L44.1875,375.4541 Q44.1875,374.8447 44.4219,374.5791 Q44.6719,374.3135 45.0469,374.3135 Q45.4219,374.3135 45.6563,374.5791 Q45.8906,374.8447 45.8906,375.4541 L45.8906,378.0791 L37.8906,378.0791 Q37.2656,378.0791 37,377.8447 Q36.75,377.6104 36.75,377.2197 Q36.75,376.8447 37.0156,376.6104 Q37.2813,376.376 37.8906,376.376 L38.1563,376.376 L38.1563,369.7197 L37.8906,369.7197 Q37.2656,369.7197 37,369.4854 Q36.75,369.251 36.75,368.8604 Q36.75,368.4854 37,368.251 Q37.2656,368.0166 37.8906,368.0166 L45.5156,368.0166 L45.5156,370.6104 Q45.5156,371.2197 45.2813,371.4854 Q45.0625,371.7354 44.6719,371.7354 Q44.2969,371.7354 44.0625,371.4854 Q43.8281,371.2197 43.8281,370.6104 L43.8281,369.7197 L39.8594,369.7197 L39.8594,372.1729 L41.3438,372.1729 Q41.3438,371.5166 41.4688,371.3291 Q41.7344,370.9229 42.2031,370.9229 Q42.5781,370.9229 42.8125,371.1885 Q43.0469,371.4385 43.0469,372.0479 L43.0469,374.0166 Q43.0469,374.5635 42.9219,374.751 Q42.6563,375.1416 42.2031,375.1416 Q41.7344,375.1416 41.4688,374.7354 Q41.3438,374.5479 41.3438,373.876 L39.8594,373.876 Z " fill="#000000"/><text fill="#000000" font-family="sans-serif" font-size="14" lengthAdjust="spacing" textLength="95" x="55" y="379.2349">checklist_items</text><line style="stroke:#181818;stroke-width:0.5;" x1="27" x2="152" y1="389.0791" y2="389.0791"/><ellipse cx="37" cy="404.1187" fill="#000000" rx="3" ry="3" style="stroke:#000000;stroke-width:1.0;"/><text fill="#000000" font-family="sans-serif" font-size="14" lengthAdjust="spacing" textLength="11" x="46" y="408.7744">id</text><text fill="#000000" font-family="sans-serif" font-size="14" lengthAdjust="spacing" textLength="73" x="46" y="427.8535">checklist_id</text><text fill="#000000" font-family="sans-serif" font-size="14" lengthAdjust="spacing" textLength="55" x="46" y="446.9326">category</text><text fill="#000000" font-family="sans-serif" font-size="14" lengthAdjust="spacing" textLength="47" x="46" y="466.0117">content</text><line style="stroke:#181818;stroke-width:0.5;" x1="27" x2="152" y1="473.3955" y2="473.3955"/></g><!--class users--><g id="elem_users"><rect fill="#F1F1F1" height="48" id="users" rx="2.5" ry="2.5" style="stroke:#181818;stroke-width:0.5;" width="67" x="56" y="84.0791"/><ellipse cx="71" cy="100.0791" fill="#C2C2C2" rx="11" ry="11" style="stroke:#181818;stroke-width:1.0;"/><path d="M73.7656,95.9541 Q73.9219,95.7354 74.1094,95.626 Q74.2969,95.5166 74.5156,95.5166 Q74.8906,95.5166 75.125,95.7822 Q75.3594,96.0322 75.3594,96.6416 L75.3594,98.0947 Q75.3594,98.7041 75.125,98.9697 Q74.8906,99.2354 74.5156,99.2354 Q74.1719,99.2354 73.9688,99.0322 Q73.7656,98.8447 73.6563,98.3291 Q73.6094,97.9697 73.4219,97.7822 Q73.0938,97.4072 72.4844,97.1885 Q71.875,96.9697 71.25,96.9697 Q70.4844,96.9697 69.8438,97.2979 Q69.2188,97.626 68.7188,98.376 Q68.2344,99.126 68.2344,100.1572 L68.2344,101.251 Q68.2344,102.4854 69.125,103.3135 Q70.0156,104.126 71.6094,104.126 Q72.5469,104.126 73.2031,103.876 Q73.5938,103.7197 74.0156,103.2822 Q74.2813,103.0166 74.4219,102.9385 Q74.5781,102.8604 74.7813,102.8604 Q75.1094,102.8604 75.3594,103.126 Q75.625,103.376 75.625,103.7197 Q75.625,104.0635 75.2813,104.4697 Q74.7813,105.0479 73.9844,105.376 Q72.9063,105.8291 71.6094,105.8291 Q70.0938,105.8291 68.8906,105.2041 Q67.9063,104.7041 67.2188,103.6416 Q66.5313,102.5635 66.5313,101.2822 L66.5313,100.126 Q66.5313,98.7979 67.1406,97.6572 Q67.7656,96.501 68.8594,95.8916 Q69.9531,95.2666 71.1875,95.2666 Q71.9219,95.2666 72.5625,95.4385 Q73.2188,95.5947 73.7656,95.9541 Z " fill="#000000"/><text fill="#000000" font-family="sans-serif" font-size="14" lengthAdjust="spacing" textLength="35" x="85" y="106.2349">users</text><line style="stroke:#181818;stroke-width:0.5;" x1="57" x2="122" y1="116.0791" y2="116.0791"/><line style="stroke:#181818;stroke-width:0.5;" x1="57" x2="122" y1="124.0791" y2="124.0791"/></g><!--link users to checklists--><g id="link_users_checklists"><path codeLine="298" d="M89.5,140.1991 C89.5,156.6491 89.5,153.3991 89.5,174.0591 " fill="none" id="users-checklists" style="stroke:#181818;stroke-width:1.0;"/><line style="stroke:#181818;stroke-width:1.0;" x1="85.5" x2="93.5" y1="136.1991" y2="136.1991"/><line style="stroke:#181818;stroke-width:1.0;" x1="85.5" x2="93.5" y1="139.1991" y2="139.1991"/><line style="stroke:#181818;stroke-width:1.0;" x1="89.5" x2="89.5" y1="140.1991" y2="132.1991"/><line style="stroke:#181818;stroke-width:1.0;" x1="89.5" x2="95.5" y1="184.0591" y2="192.0591"/><line style="stroke:#181818;stroke-width:1.0;" x1="89.5" x2="83.5" y1="184.0591" y2="192.0591"/><line style="stroke:#181818;stroke-width:1.0;" x1="89.5" x2="89.5" y1="184.0591" y2="192.0591"/><ellipse cx="89.5" cy="178.0591" fill="none" rx="4" ry="4" style="stroke:#181818;stroke-width:1.0;"/></g><!--link checklists to checklist_items--><g id="link_checklists_checklist_items"><path codeLine="299" d="M89.5,305.3391 C89.5,324.0891 89.5,319.4491 89.5,338.9391 " fill="none" id="checklists-checklist_items" style="stroke:#181818;stroke-width:1.0;"/><line style="stroke:#181818;stroke-width:1.0;" x1="85.5" x2="93.5" y1="301.3391" y2="301.3391"/><line style="stroke:#181818;stroke-width:1.0;" x1="85.5" x2="93.5" y1="304.3391" y2="304.3391"/><line style="stroke:#181818;stroke-width:1.0;" x1="89.5" x2="89.5" y1="305.3391" y2="297.3391"/><line style="stroke:#181818;stroke-width:1.0;" x1="89.5" x2="95.5" y1="348.9391" y2="356.9391"/><line style="stroke:#181818;stroke-width:1.0;" x1="89.5" x2="83.5" y1="348.9391" y2="356.9391"/><line style="stroke:#181818;stroke-width:1.0;" x1="89.5" x2="89.5" y1="348.9391" y2="356.9391"/><ellipse cx="89.5" cy="342.9391" fill="none" rx="4" ry="4" style="stroke:#181818;stroke-width:1.0;"/></g><!--SRC=[jLZTSjig4BxNKp2zEUsPoGlapdNTnbEdwTXEpvmh3P6epOa46a1kD4tU_Im_aW1XDssSN3Y6NRvTThzTmFAUiWOBNAEQCrxi1Qy9Kg8bcHma9VcEsqfjoOEQLNJ7Qi8KAk23Y2nJL5K4VRnThT27sNRsVhPPeCNw0thxaR8INNTeGtXRlSkolz35I_vW_UrciTwW-UfsirsiNupNuE8UxmXwSok9a6XUjH8sz0Rzp122lL7LeTP8z0H2VzCINQ8xkgDCcGc0qF-ep76Xw86OKOMboYiEIZcsQWpNLaHgJ2lphH7yEwr8JckmdxV2pXQ2O4NAVbtRbEFmAGkTocbfHfJyoZsd7Sh0WGCWY0XPCfahVa_O7u6QILmKH3eKQqflSJ9B7XegYFGsPqFz-7XnmNzEjdY9zbZ6IfwtLlxqSeunyaCxx4YzNS- -BLRewshsvVoismfy81NwMc6Mv5u30YyFVjpDzxkst14RUQcmKBccYmqkA_k1drqD2FDT3AgC8xaHkodGog5woKCA0ZuA4eEO5GvFnowrK3BSo3rNftPrW0HJpdB6xSxSalm_oLc4MRH2m5TRVL4fH1ihI8yFoYskyeBBDFDCr67IHj-RD95p0Xj5NsXZqejTX9p2rC-KqJ4whydZ-MBpcapMkqvnESX40TJSSU7bg-0b2Nibd3iwP8EW8h0-ohyF6gU-u70u0K14IH1Ouvq7xVfjnNQkJT-HigHcPCmTSzubBtJZSh1m_ZIk5z-MYt_EdxyrEL3o8vauOKHv0-NoZBRXejuVYteLiHA78rLNkLBqCzbR0VRpV2TusyJ6F3zEBuyN6hJUFtFeziSj5wLkEuakv_3WIDahlFjpXnp0IPSSuytgeEVuaSzGc0YjylYO2fkdwGSpmZI1EWqQRdxKZO8I0lSRFZ_rPyjNOx-6dXJ0c4jCSxSxp73LINhgz9gm0kg0DUrmV07hMkMDdvA6J9KS8LplHCGVA4VEoDZKG4511osxT4kRc3n2rID6fzKS4ZautAO1J37lc68Y_1Dr6wzdAWySHTE87rS-Ew6NrxDFY_EJUQbV5CbERjyQoSDou51y5EAoX4kwZ5XZaIJ1ejZ3FwdlQwUAGjzxu4QdkeQSGYemAwc-jiPOWLPmcGi6G4z9AbBO8sVAmwJR6Ge3az8T7SlGaSt_OjdPsNDriuNxtFkRcy_BBv_Epw8hhk0-bso7UosACqGUG0ygBZVIIMigUCkKV-Kg02cYWbqfEAzZy01piAGr3QLI_IV4X1JagSTK03p16otrwvzlAMy4dPRP10YURTtuQZDhahXtdDz3ypvLOwVt4baE7cQuqx_cm6a10RALcewJSs8ewbedjGTph71buEMobxdCXWf3OaQjCLTfLHVPkBR3E6Ke3bp_pafizlp5ERzQp3-lbflj-GjplYV5VKMbIhRuefUUOignf_smEAUAJ8hGavR1Eogwzq_RxkXKXdmFOx4r-nhPc6tHzUBwPltlQ-G3AtHDQWX4kbqMe93NMc7wyqHmHkuqBuUE6RvD9W6UW7Vv0Gu-Bdx3XFzMczmFemnwUpWk77o07FuF]--></g></svg>