<?xml version="1.0" encoding="us-ascii" standalone="no"?><svg xmlns="http://www.w3.org/2000/svg" xmlns:xlink="http://www.w3.org/1999/xlink" contentStyleType="text/css" height="764px" preserveAspectRatio="none" style="width:262px;height:764px;background:#FFFFFF;" version="1.1" viewBox="0 0 262 764" width="262px" zoomAndPan="magnify"><defs/><g><text fill="#000000" font-family="sans-serif" font-size="14" font-weight="bold" lengthAdjust="spacing" textLength="139" x="54.5" y="25.6953">AI REVIEW CLUSTER</text><!--cluster AI Review Cluster--><g id="cluster_AI Review Cluster"><path d="M8.5,46.0791 L133.5,46.0791 A3.75,3.75 0 0 1 136,48.5791 L143,71.1582 L252.5,71.1582 A2.5,2.5 0 0 1 255,73.6582 L255,754.5791 A2.5,2.5 0 0 1 252.5,757.0791 L8.5,757.0791 A2.5,2.5 0 0 1 6,754.5791 L6,48.5791 A2.5,2.5 0 0 1 8.5,46.0791 " fill="none" style="stroke:#000000;stroke-width:1.5;"/><line style="stroke:#000000;stroke-width:1.5;" x1="6" x2="143" y1="71.1582" y2="71.1582"/><text fill="#000000" font-family="sans-serif" font-size="14" font-weight="bold" lengthAdjust="spacing" textLength="124" x="10" y="63.7744">AI Review Cluster</text></g><!--class ai_review_analysis--><g id="elem_ai_review_analysis"><rect codeLine="161" fill="#F1F1F1" height="143.3955" id="ai_review_analysis" rx="2.5" ry="2.5" style="stroke:#181818;stroke-width:0.5;" width="150" x="55" y="192.0791"/><ellipse cx="70" cy="208.0791" fill="#C2C2C2" rx="11" ry="11" style="stroke:#181818;stroke-width:1.0;"/><path d="M68.8594,208.876 L68.8594,211.376 L73.1875,211.376 L73.1875,210.4541 Q73.1875,209.8447 73.4219,209.5791 Q73.6719,209.3135 74.0469,209.3135 Q74.4219,209.3135 74.6563,209.5791 Q74.8906,209.8447 74.8906,210.4541 L74.8906,213.0791 L66.8906,213.0791 Q66.2656,213.0791 66,212.8447 Q65.75,212.6104 65.75,212.2197 Q65.75,211.8447 66.0156,211.6104 Q66.2813,211.376 66.8906,211.376 L67.1563,211.376 L67.1563,204.7197 L66.8906,204.7197 Q66.2656,204.7197 66,204.4854 Q65.75,204.251 65.75,203.8604 Q65.75,203.4854 66,203.251 Q66.2656,203.0166 66.8906,203.0166 L74.5156,203.0166 L74.5156,205.6104 Q74.5156,206.2197 74.2813,206.4854 Q74.0625,206.7354 73.6719,206.7354 Q73.2969,206.7354 73.0625,206.4854 Q72.8281,206.2197 72.8281,205.6104 L72.8281,204.7197 L68.8594,204.7197 L68.8594,207.1729 L70.3438,207.1729 Q70.3438,206.5166 70.4688,206.3291 Q70.7344,205.9229 71.2031,205.9229 Q71.5781,205.9229 71.8125,206.1885 Q72.0469,206.4385 72.0469,207.0479 L72.0469,209.0166 Q72.0469,209.5635 71.9219,209.751 Q71.6563,210.1416 71.2031,210.1416 Q70.7344,210.1416 70.4688,209.7354 Q70.3438,209.5479 70.3438,208.876 L68.8594,208.876 Z " fill="#000000"/><text fill="#000000" font-family="sans-serif" font-size="14" lengthAdjust="spacing" textLength="118" x="84" y="214.2349">ai_review_analysis</text><line style="stroke:#181818;stroke-width:0.5;" x1="56" x2="204" y1="224.0791" y2="224.0791"/><ellipse cx="66" cy="239.1187" fill="#000000" rx="3" ry="3" style="stroke:#000000;stroke-width:1.0;"/><text fill="#000000" font-family="sans-serif" font-size="14" lengthAdjust="spacing" textLength="11" x="75" y="243.7744">id</text><text fill="#000000" font-family="sans-serif" font-size="14" lengthAdjust="spacing" textLength="47" x="75" y="262.8535">user_id</text><text fill="#000000" font-family="sans-serif" font-size="14" lengthAdjust="spacing" textLength="94" x="75" y="281.9326">review_post_id</text><text fill="#000000" font-family="sans-serif" font-size="14" lengthAdjust="spacing" textLength="65" x="75" y="301.0117">input_json</text><text fill="#000000" font-family="sans-serif" font-size="14" lengthAdjust="spacing" textLength="74" x="75" y="320.0908">output_json</text><line style="stroke:#181818;stroke-width:0.5;" x1="56" x2="204" y1="327.4746" y2="327.4746"/></g><!--class ai_review_styles--><g id="elem_ai_review_styles"><rect codeLine="169" fill="#F1F1F1" height="162.4746" id="ai_review_styles" rx="2.5" ry="2.5" style="stroke:#181818;stroke-width:0.5;" width="144" x="25" y="395.0791"/><ellipse cx="44.05" cy="411.0791" fill="#C2C2C2" rx="11" ry="11" style="stroke:#181818;stroke-width:1.0;"/><path d="M42.9094,411.876 L42.9094,414.376 L47.2375,414.376 L47.2375,413.4541 Q47.2375,412.8447 47.4719,412.5791 Q47.7219,412.3135 48.0969,412.3135 Q48.4719,412.3135 48.7063,412.5791 Q48.9406,412.8447 48.9406,413.4541 L48.9406,416.0791 L40.9406,416.0791 Q40.3156,416.0791 40.05,415.8447 Q39.8,415.6104 39.8,415.2197 Q39.8,414.8447 40.0656,414.6104 Q40.3313,414.376 40.9406,414.376 L41.2063,414.376 L41.2063,407.7197 L40.9406,407.7197 Q40.3156,407.7197 40.05,407.4854 Q39.8,407.251 39.8,406.8604 Q39.8,406.4854 40.05,406.251 Q40.3156,406.0166 40.9406,406.0166 L48.5656,406.0166 L48.5656,408.6104 Q48.5656,409.2197 48.3313,409.4854 Q48.1125,409.7354 47.7219,409.7354 Q47.3469,409.7354 47.1125,409.4854 Q46.8781,409.2197 46.8781,408.6104 L46.8781,407.7197 L42.9094,407.7197 L42.9094,410.1729 L44.3938,410.1729 Q44.3938,409.5166 44.5188,409.3291 Q44.7844,408.9229 45.2531,408.9229 Q45.6281,408.9229 45.8625,409.1885 Q46.0969,409.4385 46.0969,410.0479 L46.0969,412.0166 Q46.0969,412.5635 45.9719,412.751 Q45.7063,413.1416 45.2531,413.1416 Q44.7844,413.1416 44.5188,412.7354 Q44.3938,412.5479 44.3938,411.876 L42.9094,411.876 Z " fill="#000000"/><text fill="#000000" font-family="sans-serif" font-size="14" lengthAdjust="spacing" textLength="103" x="58.95" y="417.2349">ai_review_styles</text><line style="stroke:#181818;stroke-width:0.5;" x1="26" x2="168" y1="427.0791" y2="427.0791"/><ellipse cx="36" cy="442.1187" fill="#000000" rx="3" ry="3" style="stroke:#000000;stroke-width:1.0;"/><text fill="#000000" font-family="sans-serif" font-size="14" lengthAdjust="spacing" textLength="11" x="45" y="446.7744">id</text><text fill="#000000" font-family="sans-serif" font-size="14" lengthAdjust="spacing" textLength="118" x="45" y="465.8535">review_analysis_id</text><text fill="#000000" font-family="sans-serif" font-size="14" lengthAdjust="spacing" textLength="35" x="45" y="484.9326">name</text><text fill="#000000" font-family="sans-serif" font-size="14" lengthAdjust="spacing" textLength="67" x="45" y="504.0117">tone_code</text><text fill="#000000" font-family="sans-serif" font-size="14" lengthAdjust="spacing" textLength="58" x="45" y="523.0908">is_trendy</text><text fill="#000000" font-family="sans-serif" font-size="14" lengthAdjust="spacing" textLength="70" x="45" y="542.1699">embedding</text><line style="stroke:#181818;stroke-width:0.5;" x1="26" x2="168" y1="549.5537" y2="549.5537"/></g><!--class ai_review_hashtags--><g id="elem_ai_review_hashtags"><rect codeLine="178" fill="#F1F1F1" height="124.3164" id="ai_review_hashtags" rx="2.5" ry="2.5" style="stroke:#181818;stroke-width:0.5;" width="157" x="51.5" y="617.0791"/><ellipse cx="66.5" cy="633.0791" fill="#C2C2C2" rx="11" ry="11" style="stroke:#181818;stroke-width:1.0;"/><path d="M65.3594,633.876 L65.3594,636.376 L69.6875,636.376 L69.6875,635.4541 Q69.6875,634.8447 69.9219,634.5791 Q70.1719,634.3135 70.5469,634.3135 Q70.9219,634.3135 71.1563,634.5791 Q71.3906,634.8447 71.3906,635.4541 L71.3906,638.0791 L63.3906,638.0791 Q62.7656,638.0791 62.5,637.8447 Q62.25,637.6104 62.25,637.2197 Q62.25,636.8447 62.5156,636.6104 Q62.7813,636.376 63.3906,636.376 L63.6563,636.376 L63.6563,629.7197 L63.3906,629.7197 Q62.7656,629.7197 62.5,629.4854 Q62.25,629.251 62.25,628.8604 Q62.25,628.4854 62.5,628.251 Q62.7656,628.0166 63.3906,628.0166 L71.0156,628.0166 L71.0156,630.6104 Q71.0156,631.2197 70.7813,631.4854 Q70.5625,631.7354 70.1719,631.7354 Q69.7969,631.7354 69.5625,631.4854 Q69.3281,631.2197 69.3281,630.6104 L69.3281,629.7197 L65.3594,629.7197 L65.3594,632.1729 L66.8438,632.1729 Q66.8438,631.5166 66.9688,631.3291 Q67.2344,630.9229 67.7031,630.9229 Q68.0781,630.9229 68.3125,631.1885 Q68.5469,631.4385 68.5469,632.0479 L68.5469,634.0166 Q68.5469,634.5635 68.4219,634.751 Q68.1563,635.1416 67.7031,635.1416 Q67.2344,635.1416 66.9688,634.7354 Q66.8438,634.5479 66.8438,633.876 L65.3594,633.876 Z " fill="#000000"/><text fill="#000000" font-family="sans-serif" font-size="14" lengthAdjust="spacing" textLength="125" x="80.5" y="639.2349">ai_review_hashtags</text><line style="stroke:#181818;stroke-width:0.5;" x1="52.5" x2="207.5" y1="649.0791" y2="649.0791"/><ellipse cx="62.5" cy="664.1187" fill="#000000" rx="3" ry="3" style="stroke:#000000;stroke-width:1.0;"/><text fill="#000000" font-family="sans-serif" font-size="14" lengthAdjust="spacing" textLength="11" x="71.5" y="668.7744">id</text><text fill="#000000" font-family="sans-serif" font-size="14" lengthAdjust="spacing" textLength="118" x="71.5" y="687.8535">review_analysis_id</text><text fill="#000000" font-family="sans-serif" font-size="14" lengthAdjust="spacing" textLength="96" x="71.5" y="706.9326">review_style_id</text><text fill="#000000" font-family="sans-serif" font-size="14" lengthAdjust="spacing" textLength="35" x="71.5" y="726.0117">name</text><line style="stroke:#181818;stroke-width:0.5;" x1="52.5" x2="207.5" y1="733.3955" y2="733.3955"/></g><!--class users--><g id="elem_users"><rect fill="#F1F1F1" height="48" id="users" rx="2.5" ry="2.5" style="stroke:#181818;stroke-width:0.5;" width="67" x="171.5" y="84.0791"/><ellipse cx="186.5" cy="100.0791" fill="#C2C2C2" rx="11" ry="11" style="stroke:#181818;stroke-width:1.0;"/><path d="M189.2656,95.9541 Q189.4219,95.7354 189.6094,95.626 Q189.7969,95.5166 190.0156,95.5166 Q190.3906,95.5166 190.625,95.7822 Q190.8594,96.0322 190.8594,96.6416 L190.8594,98.0947 Q190.8594,98.7041 190.625,98.9697 Q190.3906,99.2354 190.0156,99.2354 Q189.6719,99.2354 189.4688,99.0322 Q189.2656,98.8447 189.1563,98.3291 Q189.1094,97.9697 188.9219,97.7822 Q188.5938,97.4072 187.9844,97.1885 Q187.375,96.9697 186.75,96.9697 Q185.9844,96.9697 185.3438,97.2979 Q184.7188,97.626 184.2188,98.376 Q183.7344,99.126 183.7344,100.1572 L183.7344,101.251 Q183.7344,102.4854 184.625,103.3135 Q185.5156,104.126 187.1094,104.126 Q188.0469,104.126 188.7031,103.876 Q189.0938,103.7197 189.5156,103.2822 Q189.7813,103.0166 189.9219,102.9385 Q190.0781,102.8604 190.2813,102.8604 Q190.6094,102.8604 190.8594,103.126 Q191.125,103.376 191.125,103.7197 Q191.125,104.0635 190.7813,104.4697 Q190.2813,105.0479 189.4844,105.376 Q188.4063,105.8291 187.1094,105.8291 Q185.5938,105.8291 184.3906,105.2041 Q183.4063,104.7041 182.7188,103.6416 Q182.0313,102.5635 182.0313,101.2822 L182.0313,100.126 Q182.0313,98.7979 182.6406,97.6572 Q183.2656,96.501 184.3594,95.8916 Q185.4531,95.2666 186.6875,95.2666 Q187.4219,95.2666 188.0625,95.4385 Q188.7188,95.5947 189.2656,95.9541 Z " fill="#000000"/><text fill="#000000" font-family="sans-serif" font-size="14" lengthAdjust="spacing" textLength="35" x="200.5" y="106.2349">users</text><line style="stroke:#181818;stroke-width:0.5;" x1="172.5" x2="237.5" y1="116.0791" y2="116.0791"/><line style="stroke:#181818;stroke-width:0.5;" x1="172.5" x2="237.5" y1="124.0791" y2="124.0791"/></g><!--class review_posts--><g id="elem_review_posts"><rect fill="#F1F1F1" height="48" id="review_posts" rx="2.5" ry="2.5" style="stroke:#181818;stroke-width:0.5;" width="114" x="22" y="84.0791"/><ellipse cx="37" cy="100.0791" fill="#C2C2C2" rx="11" ry="11" style="stroke:#181818;stroke-width:1.0;"/><path d="M39.7656,95.9541 Q39.9219,95.7354 40.1094,95.626 Q40.2969,95.5166 40.5156,95.5166 Q40.8906,95.5166 41.125,95.7822 Q41.3594,96.0322 41.3594,96.6416 L41.3594,98.0947 Q41.3594,98.7041 41.125,98.9697 Q40.8906,99.2354 40.5156,99.2354 Q40.1719,99.2354 39.9688,99.0322 Q39.7656,98.8447 39.6563,98.3291 Q39.6094,97.9697 39.4219,97.7822 Q39.0938,97.4072 38.4844,97.1885 Q37.875,96.9697 37.25,96.9697 Q36.4844,96.9697 35.8438,97.2979 Q35.2188,97.626 34.7188,98.376 Q34.2344,99.126 34.2344,100.1572 L34.2344,101.251 Q34.2344,102.4854 35.125,103.3135 Q36.0156,104.126 37.6094,104.126 Q38.5469,104.126 39.2031,103.876 Q39.5938,103.7197 40.0156,103.2822 Q40.2813,103.0166 40.4219,102.9385 Q40.5781,102.8604 40.7813,102.8604 Q41.1094,102.8604 41.3594,103.126 Q41.625,103.376 41.625,103.7197 Q41.625,104.0635 41.2813,104.4697 Q40.7813,105.0479 39.9844,105.376 Q38.9063,105.8291 37.6094,105.8291 Q36.0938,105.8291 34.8906,105.2041 Q33.9063,104.7041 33.2188,103.6416 Q32.5313,102.5635 32.5313,101.2822 L32.5313,100.126 Q32.5313,98.7979 33.1406,97.6572 Q33.7656,96.501 34.8594,95.8916 Q35.9531,95.2666 37.1875,95.2666 Q37.9219,95.2666 38.5625,95.4385 Q39.2188,95.5947 39.7656,95.9541 Z " fill="#000000"/><text fill="#000000" font-family="sans-serif" font-size="14" lengthAdjust="spacing" textLength="82" x="51" y="106.2349">review_posts</text><line style="stroke:#181818;stroke-width:0.5;" x1="23" x2="135" y1="116.0791" y2="116.0791"/><line style="stroke:#181818;stroke-width:0.5;" x1="23" x2="135" y1="124.0791" y2="124.0791"/></g><!--link users to ai_review_analysis--><g id="link_users_ai_review_analysis"><path codeLine="185" d="M190.0974,139.5767 C182.3074,155.5167 182.9646,154.1876 172.4946,175.6076 " fill="none" id="users-ai_review_analysis" style="stroke:#181818;stroke-width:1.0;"/><line style="stroke:#181818;stroke-width:1.0;" x1="188.2599" x2="195.4475" y1="134.2266" y2="137.7392"/><line style="stroke:#181818;stroke-width:1.0;" x1="186.9427" x2="194.1302" y1="136.9219" y2="140.4346"/><line style="stroke:#181818;stroke-width:1.0;" x1="190.0974" x2="193.61" y1="139.5767" y2="132.3891"/><line style="stroke:#181818;stroke-width:1.0;" x1="168.1031" x2="169.9805" y1="184.5918" y2="194.414"/><line style="stroke:#181818;stroke-width:1.0;" x1="168.1031" x2="159.1995" y1="184.5918" y2="189.1442"/><line style="stroke:#181818;stroke-width:1.0;" x1="168.1031" x2="164.59" y1="184.5918" y2="191.7791"/><ellipse cx="170.738" cy="179.2013" fill="none" rx="4" ry="4" style="stroke:#181818;stroke-width:1.0;"/></g><!--link review_posts to ai_review_analysis--><g id="link_review_posts_ai_review_analysis"><path codeLine="186" d="M89.2698,139.9819 C94.5598,155.9219 93.6823,153.278 100.8023,174.698 " fill="none" id="review_posts-ai_review_analysis" style="stroke:#181818;stroke-width:1.0;"/><line style="stroke:#181818;stroke-width:1.0;" x1="84.2135" x2="91.8063" y1="137.4454" y2="134.9256"/><line style="stroke:#181818;stroke-width:1.0;" x1="85.1584" x2="92.7512" y1="140.2927" y2="137.7729"/><line style="stroke:#181818;stroke-width:1.0;" x1="89.2698" x2="86.75" y1="139.9819" y2="132.3891"/><line style="stroke:#181818;stroke-width:1.0;" x1="103.9566" x2="112.1737" y1="184.1875" y2="189.8865"/><line style="stroke:#181818;stroke-width:1.0;" x1="103.9566" x2="100.7863" y1="184.1875" y2="193.6717"/><line style="stroke:#181818;stroke-width:1.0;" x1="103.9566" x2="106.48" y1="184.1875" y2="191.7791"/><ellipse cx="102.064" cy="178.4938" fill="none" rx="4" ry="4" style="stroke:#181818;stroke-width:1.0;"/></g><!--link ai_review_analysis to ai_review_styles--><g id="link_ai_review_analysis_ai_review_styles"><path codeLine="187" d="M117.6793,343.1623 C114.6793,362.2723 115.4454,357.4059 112.3754,377.0059 " fill="none" id="ai_review_analysis-ai_review_styles" style="stroke:#181818;stroke-width:1.0;"/><line style="stroke:#181818;stroke-width:1.0;" x1="114.3481" x2="122.2513" y1="338.5904" y2="339.8311"/><line style="stroke:#181818;stroke-width:1.0;" x1="113.8828" x2="121.786" y1="341.5541" y2="342.7948"/><line style="stroke:#181818;stroke-width:1.0;" x1="117.6793" x2="118.92" y1="343.1623" y2="335.2591"/><line style="stroke:#181818;stroke-width:1.0;" x1="110.828" x2="115.5177" y1="386.8855" y2="395.7176"/><line style="stroke:#181818;stroke-width:1.0;" x1="110.828" x2="103.6623" y1="386.8855" y2="393.8606"/><line style="stroke:#181818;stroke-width:1.0;" x1="110.828" x2="109.59" y1="386.8855" y2="394.7891"/><ellipse cx="111.7564" cy="380.9577" fill="none" rx="4" ry="4" style="stroke:#181818;stroke-width:1.0;"/></g><!--link ai_review_analysis to ai_review_hashtags--><g id="link_ai_review_analysis_ai_review_hashtags"><path codeLine="188" d="M170.3362,342.6416 C178.5162,361.5516 182.8,374.9891 187,395.0791 C201.72,465.5591 202.72,486.8191 187,557.0791 C182.46,577.3591 181.9169,582.0206 172.9969,600.6106 " fill="none" id="ai_review_analysis-ai_review_hashtags" style="stroke:#181818;stroke-width:1.0;"/><line style="stroke:#181818;stroke-width:1.0;" x1="165.0768" x2="172.4193" y1="340.5584" y2="337.3823"/><line style="stroke:#181818;stroke-width:1.0;" x1="166.2679" x2="173.6104" y1="343.3119" y2="340.1357"/><line style="stroke:#181818;stroke-width:1.0;" x1="170.3362" x2="167.16" y1="342.6416" y2="335.2991"/><line style="stroke:#181818;stroke-width:1.0;" x1="168.6708" x2="170.6195" y1="609.6264" y2="619.4347"/><line style="stroke:#181818;stroke-width:1.0;" x1="168.6708" x2="159.8005" y1="609.6264" y2="614.2435"/><line style="stroke:#181818;stroke-width:1.0;" x1="168.6708" x2="165.21" y1="609.6264" y2="616.8391"/><ellipse cx="171.2665" cy="604.2169" fill="none" rx="4" ry="4" style="stroke:#181818;stroke-width:1.0;"/></g><!--link ai_review_styles to ai_review_hashtags--><g id="link_ai_review_styles_ai_review_hashtags"><path codeLine="189" d="M111.4359,564.9934 C114.7059,584.9134 113.939,580.3077 117.039,599.1577 " fill="none" id="ai_review_styles-ai_review_hashtags" style="stroke:#181818;stroke-width:1.0;"/><line style="stroke:#181818;stroke-width:1.0;" x1="106.8408" x2="114.7351" y1="561.6942" y2="560.3983"/><line style="stroke:#181818;stroke-width:1.0;" x1="107.3267" x2="115.2211" y1="564.6546" y2="563.3587"/><line style="stroke:#181818;stroke-width:1.0;" x1="111.4359" x2="110.14" y1="564.9934" y2="557.0991"/><line style="stroke:#181818;stroke-width:1.0;" x1="118.6618" x2="125.8805" y1="609.0251" y2="615.9454"/><line style="stroke:#181818;stroke-width:1.0;" x1="118.6618" x2="114.0395" y1="609.0251" y2="617.8928"/><line style="stroke:#181818;stroke-width:1.0;" x1="118.6618" x2="119.96" y1="609.0251" y2="616.9191"/><ellipse cx="117.6881" cy="603.1047" fill="none" rx="4" ry="4" style="stroke:#181818;stroke-width:1.0;"/></g><!--SRC=[jLZTSjig4BxNKp2zEUsPoGlapdNTnbEdwTXEpvmh3P6epOa46a1kD4tU_Im_aW1XDssSN3Y6NRvTThzTmFAUiWOBNAEQCrxi1Qy9Kg8bcHma9VcEsqfjoOEQLNJ7Qi8KAk23Y2nJL5K4VRnThT27sNRsVhPPeCNw0thxaR8INNTeGtXRlSkolz35I_vW_UrciTwW-UfsirsiNupNuE8UxmXwSok9a6XUjH8sz0Rzp122lL7LeTP8z0H2VzCINQ8xkgDCcGc0qF-ep76Xw86OKOMboYiEIZcsQWpNLaHgJ2lphH7yEwr8JckmdxV2pXQ2O4NAVbtRbEFmAGkTocbfHfJyoZsd7Sh0WGCWY0XPCfahVa_O7u6QILmKH3eKQqflSJ9B7XegYFGsPqFz-7XnmNzEjdY9zbZ6IfwtLlxqSeunyaCxx4YzNS- -BLRewshsvVoismfy81NwMc6Mv5u30YyFVjpDzxkst14RUQcmKBccYmqkA_k1drqD2FDT3AgC8xaHkodGog5woKCA0ZuA4eEO5GvFnowrK3BSo3rNftPrW0HJpdB6xSxSalm_oLc4MRH2m5TRVL4fH1ihI8yFoYskyeBBDFDCr67IHj-RD95p0Xj5NsXZqejTX9p2rC-KqJ4whydZ-MBpcapMkqvnESX40TJSSU7bg-0b2Nibd3iwP8EW8h0-ohyF6gU-u70u0K14IH1Ouvq7xVfjnNQkJT-HigHcPCmTSzubBtJZSh1m_ZIk5z-MYt_EdxyrEL3o8vauOKHv0-NoZBRXejuVYteLiHA78rLNkLBqCzbR0VRpV2TusyJ6F3zEBuyN6hJUFtFeziSj5wLkEuakv_3WIDahlFjpXnp0IPSSuytgeEVuaSzGc0YjylYO2fkdwGSpmZI1EWqQRdxKZO8I0lSRFZ_rPyjNOx-6dXJ0c4jCSxSxp73LINhgz9gm0kg0DUrmV07hMkMDdvA6J9KS8LplHCGVA4VEoDZKG4511osxT4kRc3n2rID6fzKS4ZautAO1J37lc68Y_1Dr6wzdAWySHTE87rS-Ew6NrxDFY_EJUQbV5CbERjyQoSDou51y5EAoX4kwZ5XZaIJ1ejZ3FwdlQwUAGjzxu4QdkeQSGYemAwc-jiPOWLPmcGi6G4z9AbBO8sVAmwJR6Ge3az8T7SlGaSt_OjdPsNDriuNxtFkRcy_BBv_Epw8hhk0-bso7UosACqGUG0ygBZVIIMigUCkKV-Kg02cYWbqfEAzZy01piAGr3QLI_IV4X1JagSTK03p16otrwvzlAMy4dPRP10YURTtuQZDhahXtdDz3ypvLOwVt4baE7cQuqx_cm6a10RALcewJSs8ewbedjGTph71buEMobxdCXWf3OaQjCLTfLHVPkBR3E6Ke3bp_pafizlp5ERzQp3-lbflj-GjplYV5VKMbIhRuefUUOignf_smEAUAJ8hGavR1Eogwzq_RxkXKXdmFOx4r-nhPc6tHzUBwPltlQ-G3AtHDQWX4kbqMe93NMc7wyqHmHkuqBuUE6RvD9W6UW7Vv0Gu-Bdx3XFzMczmFemnwUpWk77o07FuF]--></g></svg>