<?xml version="1.0" encoding="us-ascii" standalone="no"?><svg xmlns="http://www.w3.org/2000/svg" xmlns:xlink="http://www.w3.org/1999/xlink" contentStyleType="text/css" height="358px" preserveAspectRatio="none" style="width:380px;height:358px;background:#FFFFFF;" version="1.1" viewBox="0 0 380 358" width="380px" zoomAndPan="magnify"><defs/><g><text fill="#000000" font-family="sans-serif" font-size="14" font-weight="bold" lengthAdjust="spacing" textLength="175" x="95.5" y="25.6953">CHAT MEMORY CLUSTER</text><!--cluster Chat Memory Cluster--><g id="cluster_Chat Memory Cluster"><path d="M8.5,46.0791 L156.5,46.0791 A3.75,3.75 0 0 1 159,48.5791 L166,71.1582 L370.5,71.1582 A2.5,2.5 0 0 1 373,73.6582 L373,348.5791 A2.5,2.5 0 0 1 370.5,351.0791 L8.5,351.0791 A2.5,2.5 0 0 1 6,348.5791 L6,48.5791 A2.5,2.5 0 0 1 8.5,46.0791 " fill="none" style="stroke:#000000;stroke-width:1.5;"/><line style="stroke:#000000;stroke-width:1.5;" x1="6" x2="166" y1="71.1582" y2="71.1582"/><text fill="#000000" font-family="sans-serif" font-size="14" font-weight="bold" lengthAdjust="spacing" textLength="147" x="10" y="63.7744">Chat Memory Cluster</text></g><!--class chat_memories--><g id="elem_chat_memories"><rect codeLine="308" fill="#F1F1F1" height="143.3955" id="chat_memories" rx="2.5" ry="2.5" style="stroke:#181818;stroke-width:0.5;" width="128" x="22" y="192.0791"/><ellipse cx="37" cy="208.0791" fill="#C2C2C2" rx="11" ry="11" style="stroke:#181818;stroke-width:1.0;"/><path d="M35.8594,208.876 L35.8594,211.376 L40.1875,211.376 L40.1875,210.4541 Q40.1875,209.8447 40.4219,209.5791 Q40.6719,209.3135 41.0469,209.3135 Q41.4219,209.3135 41.6563,209.5791 Q41.8906,209.8447 41.8906,210.4541 L41.8906,213.0791 L33.8906,213.0791 Q33.2656,213.0791 33,212.8447 Q32.75,212.6104 32.75,212.2197 Q32.75,211.8447 33.0156,211.6104 Q33.2813,211.376 33.8906,211.376 L34.1563,211.376 L34.1563,204.7197 L33.8906,204.7197 Q33.2656,204.7197 33,204.4854 Q32.75,204.251 32.75,203.8604 Q32.75,203.4854 33,203.251 Q33.2656,203.0166 33.8906,203.0166 L41.5156,203.0166 L41.5156,205.6104 Q41.5156,206.2197 41.2813,206.4854 Q41.0625,206.7354 40.6719,206.7354 Q40.2969,206.7354 40.0625,206.4854 Q39.8281,206.2197 39.8281,205.6104 L39.8281,204.7197 L35.8594,204.7197 L35.8594,207.1729 L37.3438,207.1729 Q37.3438,206.5166 37.4688,206.3291 Q37.7344,205.9229 38.2031,205.9229 Q38.5781,205.9229 38.8125,206.1885 Q39.0469,206.4385 39.0469,207.0479 L39.0469,209.0166 Q39.0469,209.5635 38.9219,209.751 Q38.6563,210.1416 38.2031,210.1416 Q37.7344,210.1416 37.4688,209.7354 Q37.3438,209.5479 37.3438,208.876 L35.8594,208.876 Z " fill="#000000"/><text fill="#000000" font-family="sans-serif" font-size="14" lengthAdjust="spacing" textLength="96" x="51" y="214.2349">chat_memories</text><line style="stroke:#181818;stroke-width:0.5;" x1="23" x2="149" y1="224.0791" y2="224.0791"/><ellipse cx="33" cy="239.1187" fill="#000000" rx="3" ry="3" style="stroke:#000000;stroke-width:1.0;"/><text fill="#000000" font-family="sans-serif" font-size="14" lengthAdjust="spacing" textLength="11" x="42" y="243.7744">id</text><text fill="#000000" font-family="sans-serif" font-size="14" lengthAdjust="spacing" textLength="47" x="42" y="262.8535">user_id</text><text fill="#000000" font-family="sans-serif" font-size="14" lengthAdjust="spacing" textLength="79" x="42" y="281.9326">agent_name</text><text fill="#000000" font-family="sans-serif" font-size="14" lengthAdjust="spacing" textLength="75" x="42" y="301.0117">order_index</text><text fill="#000000" font-family="sans-serif" font-size="14" lengthAdjust="spacing" textLength="47" x="42" y="320.0908">content</text><line style="stroke:#181818;stroke-width:0.5;" x1="23" x2="149" y1="327.4746" y2="327.4746"/></g><!--class chat_memory_vectors--><g id="elem_chat_memory_vectors"><rect codeLine="316" fill="#F1F1F1" height="143.3955" id="chat_memory_vectors" rx="2.5" ry="2.5" style="stroke:#181818;stroke-width:0.5;" width="171" x="185.5" y="192.0791"/><ellipse cx="200.5" cy="208.0791" fill="#C2C2C2" rx="11" ry="11" style="stroke:#181818;stroke-width:1.0;"/><path d="M199.3594,208.876 L199.3594,211.376 L203.6875,211.376 L203.6875,210.4541 Q203.6875,209.8447 203.9219,209.5791 Q204.1719,209.3135 204.5469,209.3135 Q204.9219,209.3135 205.1563,209.5791 Q205.3906,209.8447 205.3906,210.4541 L205.3906,213.0791 L197.3906,213.0791 Q196.7656,213.0791 196.5,212.8447 Q196.25,212.6104 196.25,212.2197 Q196.25,211.8447 196.5156,211.6104 Q196.7813,211.376 197.3906,211.376 L197.6563,211.376 L197.6563,204.7197 L197.3906,204.7197 Q196.7656,204.7197 196.5,204.4854 Q196.25,204.251 196.25,203.8604 Q196.25,203.4854 196.5,203.251 Q196.7656,203.0166 197.3906,203.0166 L205.0156,203.0166 L205.0156,205.6104 Q205.0156,206.2197 204.7813,206.4854 Q204.5625,206.7354 204.1719,206.7354 Q203.7969,206.7354 203.5625,206.4854 Q203.3281,206.2197 203.3281,205.6104 L203.3281,204.7197 L199.3594,204.7197 L199.3594,207.1729 L200.8438,207.1729 Q200.8438,206.5166 200.9688,206.3291 Q201.2344,205.9229 201.7031,205.9229 Q202.0781,205.9229 202.3125,206.1885 Q202.5469,206.4385 202.5469,207.0479 L202.5469,209.0166 Q202.5469,209.5635 202.4219,209.751 Q202.1563,210.1416 201.7031,210.1416 Q201.2344,210.1416 200.9688,209.7354 Q200.8438,209.5479 200.8438,208.876 L199.3594,208.876 Z " fill="#000000"/><text fill="#000000" font-family="sans-serif" font-size="14" lengthAdjust="spacing" textLength="139" x="214.5" y="214.2349">chat_memory_vectors</text><line style="stroke:#181818;stroke-width:0.5;" x1="186.5" x2="355.5" y1="224.0791" y2="224.0791"/><ellipse cx="196.5" cy="239.1187" fill="#000000" rx="3" ry="3" style="stroke:#000000;stroke-width:1.0;"/><text fill="#000000" font-family="sans-serif" font-size="14" lengthAdjust="spacing" textLength="11" x="205.5" y="243.7744">id</text><text fill="#000000" font-family="sans-serif" font-size="14" lengthAdjust="spacing" textLength="47" x="205.5" y="262.8535">user_id</text><text fill="#000000" font-family="sans-serif" font-size="14" lengthAdjust="spacing" textLength="79" x="205.5" y="281.9326">agent_name</text><text fill="#000000" font-family="sans-serif" font-size="14" lengthAdjust="spacing" textLength="47" x="205.5" y="301.0117">content</text><text fill="#000000" font-family="sans-serif" font-size="14" lengthAdjust="spacing" textLength="70" x="205.5" y="320.0908">embedding</text><line style="stroke:#181818;stroke-width:0.5;" x1="186.5" x2="355.5" y1="327.4746" y2="327.4746"/></g><!--class users--><g id="elem_users"><rect fill="#F1F1F1" height="48" id="users" rx="2.5" ry="2.5" style="stroke:#181818;stroke-width:0.5;" width="67" x="144.5" y="84.0791"/><ellipse cx="159.5" cy="100.0791" fill="#C2C2C2" rx="11" ry="11" style="stroke:#181818;stroke-width:1.0;"/><path d="M162.2656,95.9541 Q162.4219,95.7354 162.6094,95.626 Q162.7969,95.5166 163.0156,95.5166 Q163.3906,95.5166 163.625,95.7822 Q163.8594,96.0322 163.8594,96.6416 L163.8594,98.0947 Q163.8594,98.7041 163.625,98.9697 Q163.3906,99.2354 163.0156,99.2354 Q162.6719,99.2354 162.4688,99.0322 Q162.2656,98.8447 162.1563,98.3291 Q162.1094,97.9697 161.9219,97.7822 Q161.5938,97.4072 160.9844,97.1885 Q160.375,96.9697 159.75,96.9697 Q158.9844,96.9697 158.3438,97.2979 Q157.7188,97.626 157.2188,98.376 Q156.7344,99.126 156.7344,100.1572 L156.7344,101.251 Q156.7344,102.4854 157.625,103.3135 Q158.5156,104.126 160.1094,104.126 Q161.0469,104.126 161.7031,103.876 Q162.0938,103.7197 162.5156,103.2822 Q162.7813,103.0166 162.9219,102.9385 Q163.0781,102.8604 163.2813,102.8604 Q163.6094,102.8604 163.8594,103.126 Q164.125,103.376 164.125,103.7197 Q164.125,104.0635 163.7813,104.4697 Q163.2813,105.0479 162.4844,105.376 Q161.4063,105.8291 160.1094,105.8291 Q158.5938,105.8291 157.3906,105.2041 Q156.4063,104.7041 155.7188,103.6416 Q155.0313,102.5635 155.0313,101.2822 L155.0313,100.126 Q155.0313,98.7979 155.6406,97.6572 Q156.2656,96.501 157.3594,95.8916 Q158.4531,95.2666 159.6875,95.2666 Q160.4219,95.2666 161.0625,95.4385 Q161.7188,95.5947 162.2656,95.9541 Z " fill="#000000"/><text fill="#000000" font-family="sans-serif" font-size="14" lengthAdjust="spacing" textLength="35" x="173.5" y="106.2349">users</text><line style="stroke:#181818;stroke-width:0.5;" x1="145.5" x2="210.5" y1="116.0791" y2="116.0791"/><line style="stroke:#181818;stroke-width:0.5;" x1="145.5" x2="210.5" y1="124.0791" y2="124.0791"/></g><!--link users to chat_memories--><g id="link_users_chat_memories"><path codeLine="324" d="M159.9185,139.2517 C150.3685,155.1917 150.5246,154.9204 137.6846,176.3404 " fill="none" id="users-chat_memories" style="stroke:#181818;stroke-width:1.0;"/><line style="stroke:#181818;stroke-width:1.0;" x1="158.5429" x2="165.4055" y1="133.7646" y2="137.8762"/><line style="stroke:#181818;stroke-width:1.0;" x1="157.0011" x2="163.8637" y1="136.3381" y2="140.4496"/><line style="stroke:#181818;stroke-width:1.0;" x1="159.9185" x2="164.03" y1="139.2517" y2="132.3891"/><line style="stroke:#181818;stroke-width:1.0;" x1="132.5431" x2="133.5762" y1="184.9175" y2="194.864"/><line style="stroke:#181818;stroke-width:1.0;" x1="132.5431" x2="123.2838" y1="184.9175" y2="188.6942"/><line style="stroke:#181818;stroke-width:1.0;" x1="132.5431" x2="128.43" y1="184.9175" y2="191.7791"/><ellipse cx="135.628" cy="179.7712" fill="none" rx="4" ry="4" style="stroke:#181818;stroke-width:1.0;"/></g><!--link users to chat_memory_vectors--><g id="link_users_chat_memory_vectors"><path codeLine="325" d="M196.2662,139.2308 C205.9262,155.1708 205.8068,154.9618 218.7768,176.3818 " fill="none" id="users-chat_memory_vectors" style="stroke:#181818;stroke-width:1.0;"/><line style="stroke:#181818;stroke-width:1.0;" x1="190.7723" x2="197.614" y1="137.8831" y2="133.7368"/><line style="stroke:#181818;stroke-width:1.0;" x1="192.3271" x2="199.1688" y1="140.4487" y2="136.3025"/><line style="stroke:#181818;stroke-width:1.0;" x1="196.2662" x2="192.12" y1="139.2308" y2="132.3891"/><line style="stroke:#181818;stroke-width:1.0;" x1="223.9563" x2="233.2324" y1="184.9358" y2="188.6714"/><line style="stroke:#181818;stroke-width:1.0;" x1="223.9563" x2="222.9676" y1="184.9358" y2="194.8868"/><line style="stroke:#181818;stroke-width:1.0;" x1="223.9563" x2="228.1" y1="184.9358" y2="191.7791"/><ellipse cx="220.8486" cy="179.8034" fill="none" rx="4" ry="4" style="stroke:#181818;stroke-width:1.0;"/></g><!--SRC=[jLZTSjig4BxNKp2zEUsPoGlapdNTnbEdwTXEpvmh3P6epOa46a1kD4tU_Im_aW1XDssSN3Y6NRvTThzTmFAUiWOBNAEQCrxi1Qy9Kg8bcHma9VcEsqfjoOEQLNJ7Qi8KAk23Y2nJL5K4VRnThT27sNRsVhPPeCNw0thxaR8INNTeGtXRlSkolz35I_vW_UrciTwW-UfsirsiNupNuE8UxmXwSok9a6XUjH8sz0Rzp122lL7LeTP8z0H2VzCINQ8xkgDCcGc0qF-ep76Xw86OKOMboYiEIZcsQWpNLaHgJ2lphH7yEwr8JckmdxV2pXQ2O4NAVbtRbEFmAGkTocbfHfJyoZsd7Sh0WGCWY0XPCfahVa_O7u6QILmKH3eKQqflSJ9B7XegYFGsPqFz-7XnmNzEjdY9zbZ6IfwtLlxqSeunyaCxx4YzNS- -BLRewshsvVoismfy81NwMc6Mv5u30YyFVjpDzxkst14RUQcmKBccYmqkA_k1drqD2FDT3AgC8xaHkodGog5woKCA0ZuA4eEO5GvFnowrK3BSo3rNftPrW0HJpdB6xSxSalm_oLc4MRH2m5TRVL4fH1ihI8yFoYskyeBBDFDCr67IHj-RD95p0Xj5NsXZqejTX9p2rC-KqJ4whydZ-MBpcapMkqvnESX40TJSSU7bg-0b2Nibd3iwP8EW8h0-ohyF6gU-u70u0K14IH1Ouvq7xVfjnNQkJT-HigHcPCmTSzubBtJZSh1m_ZIk5z-MYt_EdxyrEL3o8vauOKHv0-NoZBRXejuVYteLiHA78rLNkLBqCzbR0VRpV2TusyJ6F3zEBuyN6hJUFtFeziSj5wLkEuakv_3WIDahlFjpXnp0IPSSuytgeEVuaSzGc0YjylYO2fkdwGSpmZI1EWqQRdxKZO8I0lSRFZ_rPyjNOx-6dXJ0c4jCSxSxp73LINhgz9gm0kg0DUrmV07hMkMDdvA6J9KS8LplHCGVA4VEoDZKG4511osxT4kRc3n2rID6fzKS4ZautAO1J37lc68Y_1Dr6wzdAWySHTE87rS-Ew6NrxDFY_EJUQbV5CbERjyQoSDou51y5EAoX4kwZ5XZaIJ1ejZ3FwdlQwUAGjzxu4QdkeQSGYemAwc-jiPOWLPmcGi6G4z9AbBO8sVAmwJR6Ge3az8T7SlGaSt_OjdPsNDriuNxtFkRcy_BBv_Epw8hhk0-bso7UosACqGUG0ygBZVIIMigUCkKV-Kg02cYWbqfEAzZy01piAGr3QLI_IV4X1JagSTK03p16otrwvzlAMy4dPRP10YURTtuQZDhahXtdDz3ypvLOwVt4baE7cQuqx_cm6a10RALcewJSs8ewbedjGTph71buEMobxdCXWf3OaQjCLTfLHVPkBR3E6Ke3bp_pafizlp5ERzQp3-lbflj-GjplYV5VKMbIhRuefUUOignf_smEAUAJ8hGavR1Eogwzq_RxkXKXdmFOx4r-nhPc6tHzUBwPltlQ-G3AtHDQWX4kbqMe93NMc7wyqHmHkuqBuUE6RvD9W6UW7Vv0Gu-Bdx3XFzMczmFemnwUpWk77o07FuF]--></g></svg>