<?xml version="1.0" encoding="us-ascii" standalone="no"?><svg xmlns="http://www.w3.org/2000/svg" xmlns:xlink="http://www.w3.org/1999/xlink" contentStyleType="text/css" height="542px" preserveAspectRatio="none" style="width:384px;height:542px;background:#FFFFFF;" version="1.1" viewBox="0 0 384 542" width="384px" zoomAndPan="magnify"><defs/><g><text fill="#000000" font-family="sans-serif" font-size="14" font-weight="bold" lengthAdjust="spacing" textLength="114" x="128" y="25.6953">IMAGE CLUSTER</text><!--cluster Image Cluster--><g id="cluster_Image Cluster"><path d="M8.5,46.0791 L106.5,46.0791 A3.75,3.75 0 0 1 109,48.5791 L116,71.1582 L374.5,71.1582 A2.5,2.5 0 0 1 377,73.6582 L377,532.5791 A2.5,2.5 0 0 1 374.5,535.0791 L8.5,535.0791 A2.5,2.5 0 0 1 6,532.5791 L6,48.5791 A2.5,2.5 0 0 1 8.5,46.0791 " fill="none" style="stroke:#000000;stroke-width:1.5;"/><line style="stroke:#000000;stroke-width:1.5;" x1="6" x2="116" y1="71.1582" y2="71.1582"/><text fill="#000000" font-family="sans-serif" font-size="14" font-weight="bold" lengthAdjust="spacing" textLength="97" x="10" y="63.7744">Image Cluster</text></g><!--class image_places--><g id="elem_image_places"><rect codeLine="197" fill="#F1F1F1" height="143.3955" id="image_places" rx="2.5" ry="2.5" style="stroke:#181818;stroke-width:0.5;" width="119" x="241.5" y="192.0791"/><ellipse cx="256.5" cy="208.0791" fill="#C2C2C2" rx="11" ry="11" style="stroke:#181818;stroke-width:1.0;"/><path d="M255.3594,208.876 L255.3594,211.376 L259.6875,211.376 L259.6875,210.4541 Q259.6875,209.8447 259.9219,209.5791 Q260.1719,209.3135 260.5469,209.3135 Q260.9219,209.3135 261.1563,209.5791 Q261.3906,209.8447 261.3906,210.4541 L261.3906,213.0791 L253.3906,213.0791 Q252.7656,213.0791 252.5,212.8447 Q252.25,212.6104 252.25,212.2197 Q252.25,211.8447 252.5156,211.6104 Q252.7813,211.376 253.3906,211.376 L253.6563,211.376 L253.6563,204.7197 L253.3906,204.7197 Q252.7656,204.7197 252.5,204.4854 Q252.25,204.251 252.25,203.8604 Q252.25,203.4854 252.5,203.251 Q252.7656,203.0166 253.3906,203.0166 L261.0156,203.0166 L261.0156,205.6104 Q261.0156,206.2197 260.7813,206.4854 Q260.5625,206.7354 260.1719,206.7354 Q259.7969,206.7354 259.5625,206.4854 Q259.3281,206.2197 259.3281,205.6104 L259.3281,204.7197 L255.3594,204.7197 L255.3594,207.1729 L256.8438,207.1729 Q256.8438,206.5166 256.9688,206.3291 Q257.2344,205.9229 257.7031,205.9229 Q258.0781,205.9229 258.3125,206.1885 Q258.5469,206.4385 258.5469,207.0479 L258.5469,209.0166 Q258.5469,209.5635 258.4219,209.751 Q258.1563,210.1416 257.7031,210.1416 Q257.2344,210.1416 256.9688,209.7354 Q256.8438,209.5479 256.8438,208.876 L255.3594,208.876 Z " fill="#000000"/><text fill="#000000" font-family="sans-serif" font-size="14" lengthAdjust="spacing" textLength="87" x="270.5" y="214.2349">image_places</text><line style="stroke:#181818;stroke-width:0.5;" x1="242.5" x2="359.5" y1="224.0791" y2="224.0791"/><ellipse cx="252.5" cy="239.1187" fill="#000000" rx="3" ry="3" style="stroke:#000000;stroke-width:1.0;"/><text fill="#000000" font-family="sans-serif" font-size="14" lengthAdjust="spacing" textLength="11" x="261.5" y="243.7744">id</text><text fill="#000000" font-family="sans-serif" font-size="14" lengthAdjust="spacing" textLength="35" x="261.5" y="262.8535">name</text><text fill="#000000" font-family="sans-serif" font-size="14" lengthAdjust="spacing" textLength="15" x="261.5" y="281.9326">lat</text><text fill="#000000" font-family="sans-serif" font-size="14" lengthAdjust="spacing" textLength="19" x="261.5" y="301.0117">lng</text><text fill="#000000" font-family="sans-serif" font-size="14" lengthAdjust="spacing" textLength="51" x="261.5" y="320.0908">address</text><line style="stroke:#181818;stroke-width:0.5;" x1="242.5" x2="359.5" y1="327.4746" y2="327.4746"/></g><!--class image_search_sessions--><g id="elem_image_search_sessions"><rect codeLine="205" fill="#F1F1F1" height="105.2373" id="image_search_sessions" rx="2.5" ry="2.5" style="stroke:#181818;stroke-width:0.5;" width="184" x="22" y="211.0791"/><ellipse cx="37" cy="227.0791" fill="#C2C2C2" rx="11" ry="11" style="stroke:#181818;stroke-width:1.0;"/><path d="M35.8594,227.876 L35.8594,230.376 L40.1875,230.376 L40.1875,229.4541 Q40.1875,228.8447 40.4219,228.5791 Q40.6719,228.3135 41.0469,228.3135 Q41.4219,228.3135 41.6563,228.5791 Q41.8906,228.8447 41.8906,229.4541 L41.8906,232.0791 L33.8906,232.0791 Q33.2656,232.0791 33,231.8447 Q32.75,231.6104 32.75,231.2197 Q32.75,230.8447 33.0156,230.6104 Q33.2813,230.376 33.8906,230.376 L34.1563,230.376 L34.1563,223.7197 L33.8906,223.7197 Q33.2656,223.7197 33,223.4854 Q32.75,223.251 32.75,222.8604 Q32.75,222.4854 33,222.251 Q33.2656,222.0166 33.8906,222.0166 L41.5156,222.0166 L41.5156,224.6104 Q41.5156,225.2197 41.2813,225.4854 Q41.0625,225.7354 40.6719,225.7354 Q40.2969,225.7354 40.0625,225.4854 Q39.8281,225.2197 39.8281,224.6104 L39.8281,223.7197 L35.8594,223.7197 L35.8594,226.1729 L37.3438,226.1729 Q37.3438,225.5166 37.4688,225.3291 Q37.7344,224.9229 38.2031,224.9229 Q38.5781,224.9229 38.8125,225.1885 Q39.0469,225.4385 39.0469,226.0479 L39.0469,228.0166 Q39.0469,228.5635 38.9219,228.751 Q38.6563,229.1416 38.2031,229.1416 Q37.7344,229.1416 37.4688,228.7354 Q37.3438,228.5479 37.3438,227.876 L35.8594,227.876 Z " fill="#000000"/><text fill="#000000" font-family="sans-serif" font-size="14" lengthAdjust="spacing" textLength="152" x="51" y="233.2349">image_search_sessions</text><line style="stroke:#181818;stroke-width:0.5;" x1="23" x2="205" y1="243.0791" y2="243.0791"/><ellipse cx="33" cy="258.1187" fill="#000000" rx="3" ry="3" style="stroke:#000000;stroke-width:1.0;"/><text fill="#000000" font-family="sans-serif" font-size="14" lengthAdjust="spacing" textLength="11" x="42" y="262.7744">id</text><text fill="#000000" font-family="sans-serif" font-size="14" lengthAdjust="spacing" textLength="47" x="42" y="281.8535">user_id</text><text fill="#000000" font-family="sans-serif" font-size="14" lengthAdjust="spacing" textLength="73" x="42" y="300.9326">action_type</text><line style="stroke:#181818;stroke-width:0.5;" x1="23" x2="205" y1="308.3164" y2="308.3164"/></g><!--class image_search_candidates--><g id="elem_image_search_candidates"><rect codeLine="211" fill="#F1F1F1" height="124.3164" id="image_search_candidates" rx="2.5" ry="2.5" style="stroke:#181818;stroke-width:0.5;" width="198" x="92" y="395.0791"/><ellipse cx="107" cy="411.0791" fill="#C2C2C2" rx="11" ry="11" style="stroke:#181818;stroke-width:1.0;"/><path d="M105.8594,411.876 L105.8594,414.376 L110.1875,414.376 L110.1875,413.4541 Q110.1875,412.8447 110.4219,412.5791 Q110.6719,412.3135 111.0469,412.3135 Q111.4219,412.3135 111.6563,412.5791 Q111.8906,412.8447 111.8906,413.4541 L111.8906,416.0791 L103.8906,416.0791 Q103.2656,416.0791 103,415.8447 Q102.75,415.6104 102.75,415.2197 Q102.75,414.8447 103.0156,414.6104 Q103.2813,414.376 103.8906,414.376 L104.1563,414.376 L104.1563,407.7197 L103.8906,407.7197 Q103.2656,407.7197 103,407.4854 Q102.75,407.251 102.75,406.8604 Q102.75,406.4854 103,406.251 Q103.2656,406.0166 103.8906,406.0166 L111.5156,406.0166 L111.5156,408.6104 Q111.5156,409.2197 111.2813,409.4854 Q111.0625,409.7354 110.6719,409.7354 Q110.2969,409.7354 110.0625,409.4854 Q109.8281,409.2197 109.8281,408.6104 L109.8281,407.7197 L105.8594,407.7197 L105.8594,410.1729 L107.3438,410.1729 Q107.3438,409.5166 107.4688,409.3291 Q107.7344,408.9229 108.2031,408.9229 Q108.5781,408.9229 108.8125,409.1885 Q109.0469,409.4385 109.0469,410.0479 L109.0469,412.0166 Q109.0469,412.5635 108.9219,412.751 Q108.6563,413.1416 108.2031,413.1416 Q107.7344,413.1416 107.4688,412.7354 Q107.3438,412.5479 107.3438,411.876 L105.8594,411.876 Z " fill="#000000"/><text fill="#000000" font-family="sans-serif" font-size="14" lengthAdjust="spacing" textLength="166" x="121" y="417.2349">image_search_candidates</text><line style="stroke:#181818;stroke-width:0.5;" x1="93" x2="289" y1="427.0791" y2="427.0791"/><ellipse cx="103" cy="442.1187" fill="#000000" rx="3" ry="3" style="stroke:#000000;stroke-width:1.0;"/><text fill="#000000" font-family="sans-serif" font-size="14" lengthAdjust="spacing" textLength="11" x="112" y="446.7744">id</text><text fill="#000000" font-family="sans-serif" font-size="14" lengthAdjust="spacing" textLength="150" x="112" y="465.8535">image_search_place_id</text><text fill="#000000" font-family="sans-serif" font-size="14" lengthAdjust="spacing" textLength="53" x="112" y="484.9326">place_id</text><text fill="#000000" font-family="sans-serif" font-size="14" lengthAdjust="spacing" textLength="71" x="112" y="504.0117">is_selected</text><line style="stroke:#181818;stroke-width:0.5;" x1="93" x2="289" y1="511.3955" y2="511.3955"/></g><!--class users--><g id="elem_users"><rect fill="#F1F1F1" height="48" id="users" rx="2.5" ry="2.5" style="stroke:#181818;stroke-width:0.5;" width="67" x="80.5" y="84.0791"/><ellipse cx="95.5" cy="100.0791" fill="#C2C2C2" rx="11" ry="11" style="stroke:#181818;stroke-width:1.0;"/><path d="M98.2656,95.9541 Q98.4219,95.7354 98.6094,95.626 Q98.7969,95.5166 99.0156,95.5166 Q99.3906,95.5166 99.625,95.7822 Q99.8594,96.0322 99.8594,96.6416 L99.8594,98.0947 Q99.8594,98.7041 99.625,98.9697 Q99.3906,99.2354 99.0156,99.2354 Q98.6719,99.2354 98.4688,99.0322 Q98.2656,98.8447 98.1563,98.3291 Q98.1094,97.9697 97.9219,97.7822 Q97.5938,97.4072 96.9844,97.1885 Q96.375,96.9697 95.75,96.9697 Q94.9844,96.9697 94.3438,97.2979 Q93.7188,97.626 93.2188,98.376 Q92.7344,99.126 92.7344,100.1572 L92.7344,101.251 Q92.7344,102.4854 93.625,103.3135 Q94.5156,104.126 96.1094,104.126 Q97.0469,104.126 97.7031,103.876 Q98.0938,103.7197 98.5156,103.2822 Q98.7813,103.0166 98.9219,102.9385 Q99.0781,102.8604 99.2813,102.8604 Q99.6094,102.8604 99.8594,103.126 Q100.125,103.376 100.125,103.7197 Q100.125,104.0635 99.7813,104.4697 Q99.2813,105.0479 98.4844,105.376 Q97.4063,105.8291 96.1094,105.8291 Q94.5938,105.8291 93.3906,105.2041 Q92.4063,104.7041 91.7188,103.6416 Q91.0313,102.5635 91.0313,101.2822 L91.0313,100.126 Q91.0313,98.7979 91.6406,97.6572 Q92.2656,96.501 93.3594,95.8916 Q94.4531,95.2666 95.6875,95.2666 Q96.4219,95.2666 97.0625,95.4385 Q97.7188,95.5947 98.2656,95.9541 Z " fill="#000000"/><text fill="#000000" font-family="sans-serif" font-size="14" lengthAdjust="spacing" textLength="35" x="109.5" y="106.2349">users</text><line style="stroke:#181818;stroke-width:0.5;" x1="81.5" x2="146.5" y1="116.0791" y2="116.0791"/><line style="stroke:#181818;stroke-width:0.5;" x1="81.5" x2="146.5" y1="124.0791" y2="124.0791"/></g><!--link users to image_search_sessions--><g id="link_users_image_search_sessions"><path codeLine="218" d="M114,140.3891 C114,161.1891 114,166.3891 114,193.0291 " fill="none" id="users-image_search_sessions" style="stroke:#181818;stroke-width:1.0;"/><line style="stroke:#181818;stroke-width:1.0;" x1="110" x2="118" y1="136.3891" y2="136.3891"/><line style="stroke:#181818;stroke-width:1.0;" x1="110" x2="118" y1="139.3891" y2="139.3891"/><line style="stroke:#181818;stroke-width:1.0;" x1="114" x2="114" y1="140.3891" y2="132.3891"/><line style="stroke:#181818;stroke-width:1.0;" x1="114" x2="120" y1="203.0291" y2="211.0291"/><line style="stroke:#181818;stroke-width:1.0;" x1="114" x2="108" y1="203.0291" y2="211.0291"/><line style="stroke:#181818;stroke-width:1.0;" x1="114" x2="114" y1="203.0291" y2="211.0291"/><ellipse cx="114" cy="197.0291" fill="none" rx="4" ry="4" style="stroke:#181818;stroke-width:1.0;"/></g><!--link image_places to image_search_candidates--><g id="link_image_places_image_search_candidates"><path codeLine="219" d="M256.3664,342.2768 C245.1064,361.8868 245.9332,360.4395 235.0232,379.4395 " fill="none" id="image_places-image_search_candidates" style="stroke:#181818;stroke-width:1.0;"/><line style="stroke:#181818;stroke-width:1.0;" x1="254.8894" x2="261.827" y1="336.8161" y2="340.7997"/><line style="stroke:#181818;stroke-width:1.0;" x1="253.3955" x2="260.3332" y1="339.4178" y2="343.4013"/><line style="stroke:#181818;stroke-width:1.0;" x1="256.3664" x2="260.35" y1="342.2768" y2="335.3391"/><line style="stroke:#181818;stroke-width:1.0;" x1="230.0437" x2="231.2632" y1="388.1115" y2="398.0368"/><line style="stroke:#181818;stroke-width:1.0;" x1="230.0437" x2="220.8568" y1="388.1115" y2="392.0614"/><line style="stroke:#181818;stroke-width:1.0;" x1="230.0437" x2="226.06" y1="388.1115" y2="395.0491"/><ellipse cx="233.0314" cy="382.9083" fill="none" rx="4" ry="4" style="stroke:#181818;stroke-width:1.0;"/></g><!--link image_search_sessions to image_search_candidates--><g id="link_image_search_sessions_image_search_candidates"><path codeLine="220" d="M137.7233,323.5721 C147.4733,347.8321 149.4698,352.8206 159.6798,378.1906 " fill="none" id="image_search_sessions-image_search_candidates" style="stroke:#181818;stroke-width:1.0;"/><line style="stroke:#181818;stroke-width:1.0;" x1="132.5202" x2="139.9431" y1="321.3522" y2="318.3689"/><line style="stroke:#181818;stroke-width:1.0;" x1="133.6389" x2="141.0618" y1="324.1358" y2="321.1526"/><line style="stroke:#181818;stroke-width:1.0;" x1="137.7233" x2="134.74" y1="323.5721" y2="316.1491"/><line style="stroke:#181818;stroke-width:1.0;" x1="163.4132" x2="171.9662" y1="387.4676" y2="392.649"/><line style="stroke:#181818;stroke-width:1.0;" x1="163.4132" x2="160.8338" y1="387.4676" y2="397.1292"/><line style="stroke:#181818;stroke-width:1.0;" x1="163.4132" x2="166.4" y1="387.4676" y2="394.8891"/><ellipse cx="161.1732" cy="381.9014" fill="none" rx="4" ry="4" style="stroke:#181818;stroke-width:1.0;"/></g><!--SRC=[jLZTSjig4BxNKp2zEUsPoGlapdNTnbEdwTXEpvmh3P6epOa46a1kD4tU_Im_aW1XDssSN3Y6NRvTThzTmFAUiWOBNAEQCrxi1Qy9Kg8bcHma9VcEsqfjoOEQLNJ7Qi8KAk23Y2nJL5K4VRnThT27sNRsVhPPeCNw0thxaR8INNTeGtXRlSkolz35I_vW_UrciTwW-UfsirsiNupNuE8UxmXwSok9a6XUjH8sz0Rzp122lL7LeTP8z0H2VzCINQ8xkgDCcGc0qF-ep76Xw86OKOMboYiEIZcsQWpNLaHgJ2lphH7yEwr8JckmdxV2pXQ2O4NAVbtRbEFmAGkTocbfHfJyoZsd7Sh0WGCWY0XPCfahVa_O7u6QILmKH3eKQqflSJ9B7XegYFGsPqFz-7XnmNzEjdY9zbZ6IfwtLlxqSeunyaCxx4YzNS- -BLRewshsvVoismfy81NwMc6Mv5u30YyFVjpDzxkst14RUQcmKBccYmqkA_k1drqD2FDT3AgC8xaHkodGog5woKCA0ZuA4eEO5GvFnowrK3BSo3rNftPrW0HJpdB6xSxSalm_oLc4MRH2m5TRVL4fH1ihI8yFoYskyeBBDFDCr67IHj-RD95p0Xj5NsXZqejTX9p2rC-KqJ4whydZ-MBpcapMkqvnESX40TJSSU7bg-0b2Nibd3iwP8EW8h0-ohyF6gU-u70u0K14IH1Ouvq7xVfjnNQkJT-HigHcPCmTSzubBtJZSh1m_ZIk5z-MYt_EdxyrEL3o8vauOKHv0-NoZBRXejuVYteLiHA78rLNkLBqCzbR0VRpV2TusyJ6F3zEBuyN6hJUFtFeziSj5wLkEuakv_3WIDahlFjpXnp0IPSSuytgeEVuaSzGc0YjylYO2fkdwGSpmZI1EWqQRdxKZO8I0lSRFZ_rPyjNOx-6dXJ0c4jCSxSxp73LINhgz9gm0kg0DUrmV07hMkMDdvA6J9KS8LplHCGVA4VEoDZKG4511osxT4kRc3n2rID6fzKS4ZautAO1J37lc68Y_1Dr6wzdAWySHTE87rS-Ew6NrxDFY_EJUQbV5CbERjyQoSDou51y5EAoX4kwZ5XZaIJ1ejZ3FwdlQwUAGjzxu4QdkeQSGYemAwc-jiPOWLPmcGi6G4z9AbBO8sVAmwJR6Ge3az8T7SlGaSt_OjdPsNDriuNxtFkRcy_BBv_Epw8hhk0-bso7UosACqGUG0ygBZVIIMigUCkKV-Kg02cYWbqfEAzZy01piAGr3QLI_IV4X1JagSTK03p16otrwvzlAMy4dPRP10YURTtuQZDhahXtdDz3ypvLOwVt4baE7cQuqx_cm6a10RALcewJSs8ewbedjGTph71buEMobxdCXWf3OaQjCLTfLHVPkBR3E6Ke3bp_pafizlp5ERzQp3-lbflj-GjplYV5VKMbIhRuefUUOignf_smEAUAJ8hGavR1Eogwzq_RxkXKXdmFOx4r-nhPc6tHzUBwPltlQ-G3AtHDQWX4kbqMe93NMc7wyqHmHkuqBuUE6RvD9W6UW7Vv0Gu-Bdx3XFzMczmFemnwUpWk77o07FuF]--></g></svg>