<?xml version="1.0" encoding="us-ascii" standalone="no"?><svg xmlns="http://www.w3.org/2000/svg" xmlns:xlink="http://www.w3.org/1999/xlink" contentStyleType="text/css" height="530px" preserveAspectRatio="none" style="width:344px;height:530px;background:#FFFFFF;" version="1.1" viewBox="0 0 344 530" width="344px" zoomAndPan="magnify"><defs/><g><text fill="#000000" font-family="sans-serif" font-size="14" font-weight="bold" lengthAdjust="spacing" textLength="258" x="36" y="25.6953">FULL DATABASE ERD (Find My Seoul)</text><!--cluster Users Cluster--><g id="cluster_Users Cluster"><path d="M8.5,46.0791 L105.5,46.0791 A3.75,3.75 0 0 1 108,48.5791 L115,71.1582 L334.5,71.1582 A2.5,2.5 0 0 1 337,73.6582 L337,520.5791 A2.5,2.5 0 0 1 334.5,523.0791 L8.5,523.0791 A2.5,2.5 0 0 1 6,520.5791 L6,48.5791 A2.5,2.5 0 0 1 8.5,46.0791 " fill="none" style="stroke:#000000;stroke-width:1.5;"/><line style="stroke:#000000;stroke-width:1.5;" x1="6" x2="115" y1="71.1582" y2="71.1582"/><text fill="#000000" font-family="sans-serif" font-size="14" font-weight="bold" lengthAdjust="spacing" textLength="96" x="10" y="63.7744">Users Cluster</text></g><!--class users--><g id="elem_users"><rect codeLine="10" fill="#F1F1F1" height="200.6328" id="users" rx="2.5" ry="2.5" style="stroke:#181818;stroke-width:0.5;" width="121" x="80.5" y="84.0791"/><ellipse cx="119.8" cy="100.0791" fill="#C2C2C2" rx="11" ry="11" style="stroke:#181818;stroke-width:1.0;"/><path d="M118.6594,100.876 L118.6594,103.376 L122.9875,103.376 L122.9875,102.4541 Q122.9875,101.8447 123.2219,101.5791 Q123.4719,101.3135 123.8469,101.3135 Q124.2219,101.3135 124.4563,101.5791 Q124.6906,101.8447 124.6906,102.4541 L124.6906,105.0791 L116.6906,105.0791 Q116.0656,105.0791 115.8,104.8447 Q115.55,104.6104 115.55,104.2197 Q115.55,103.8447 115.8156,103.6104 Q116.0813,103.376 116.6906,103.376 L116.9563,103.376 L116.9563,96.7197 L116.6906,96.7197 Q116.0656,96.7197 115.8,96.4854 Q115.55,96.251 115.55,95.8604 Q115.55,95.4854 115.8,95.251 Q116.0656,95.0166 116.6906,95.0166 L124.3156,95.0166 L124.3156,97.6104 Q124.3156,98.2197 124.0813,98.4854 Q123.8625,98.7354 123.4719,98.7354 Q123.0969,98.7354 122.8625,98.4854 Q122.6281,98.2197 122.6281,97.6104 L122.6281,96.7197 L118.6594,96.7197 L118.6594,99.1729 L120.1438,99.1729 Q120.1438,98.5166 120.2688,98.3291 Q120.5344,97.9229 121.0031,97.9229 Q121.3781,97.9229 121.6125,98.1885 Q121.8469,98.4385 121.8469,99.0479 L121.8469,101.0166 Q121.8469,101.5635 121.7219,101.751 Q121.4563,102.1416 121.0031,102.1416 Q120.5344,102.1416 120.2688,101.7354 Q120.1438,101.5479 120.1438,100.876 L118.6594,100.876 Z " fill="#000000"/><text fill="#000000" font-family="sans-serif" font-size="14" lengthAdjust="spacing" textLength="35" x="139.2" y="106.2349">users</text><line style="stroke:#181818;stroke-width:0.5;" x1="81.5" x2="200.5" y1="116.0791" y2="116.0791"/><ellipse cx="110.5" cy="131.1187" fill="#000000" rx="3" ry="3" style="stroke:#000000;stroke-width:1.0;"/><text fill="#000000" font-family="sans-serif" font-size="14" lengthAdjust="spacing" textLength="57" x="119.5" y="135.7744">id : bigint</text><line style="stroke:#181818;stroke-width:1.0;" x1="81.5" x2="200.5" y1="143.1582" y2="143.1582"/><text fill="#000000" font-family="sans-serif" font-size="14" lengthAdjust="spacing" textLength="55" x="113.5" y="162.8535">is_active</text><text fill="#000000" font-family="sans-serif" font-size="14" lengthAdjust="spacing" textLength="80" x="101" y="181.9326">last_login_at</text><text fill="#000000" font-family="sans-serif" font-size="14" lengthAdjust="spacing" textLength="35" x="123.5" y="201.0117">name</text><text fill="#000000" font-family="sans-serif" font-size="14" lengthAdjust="spacing" textLength="33" x="124.5" y="220.0908">email</text><text fill="#000000" font-family="sans-serif" font-size="14" lengthAdjust="spacing" textLength="109" x="86.5" y="239.1699">profile_image_url</text><text fill="#000000" font-family="sans-serif" font-size="14" lengthAdjust="spacing" textLength="68" x="107" y="258.249">created_at</text><text fill="#000000" font-family="sans-serif" font-size="14" lengthAdjust="spacing" textLength="72" x="105" y="277.3281">updated_at</text></g><!--class user_identities--><g id="elem_user_identities"><rect codeLine="22" fill="#F1F1F1" height="105.2373" id="user_identities" rx="2.5" ry="2.5" style="stroke:#181818;stroke-width:0.5;" width="124" x="22" y="383.0791"/><ellipse cx="37" cy="399.0791" fill="#C2C2C2" rx="11" ry="11" style="stroke:#181818;stroke-width:1.0;"/><path d="M35.8594,399.876 L35.8594,402.376 L40.1875,402.376 L40.1875,401.4541 Q40.1875,400.8447 40.4219,400.5791 Q40.6719,400.3135 41.0469,400.3135 Q41.4219,400.3135 41.6563,400.5791 Q41.8906,400.8447 41.8906,401.4541 L41.8906,404.0791 L33.8906,404.0791 Q33.2656,404.0791 33,403.8447 Q32.75,403.6104 32.75,403.2197 Q32.75,402.8447 33.0156,402.6104 Q33.2813,402.376 33.8906,402.376 L34.1563,402.376 L34.1563,395.7197 L33.8906,395.7197 Q33.2656,395.7197 33,395.4854 Q32.75,395.251 32.75,394.8604 Q32.75,394.4854 33,394.251 Q33.2656,394.0166 33.8906,394.0166 L41.5156,394.0166 L41.5156,396.6104 Q41.5156,397.2197 41.2813,397.4854 Q41.0625,397.7354 40.6719,397.7354 Q40.2969,397.7354 40.0625,397.4854 Q39.8281,397.2197 39.8281,396.6104 L39.8281,395.7197 L35.8594,395.7197 L35.8594,398.1729 L37.3438,398.1729 Q37.3438,397.5166 37.4688,397.3291 Q37.7344,396.9229 38.2031,396.9229 Q38.5781,396.9229 38.8125,397.1885 Q39.0469,397.4385 39.0469,398.0479 L39.0469,400.0166 Q39.0469,400.5635 38.9219,400.751 Q38.6563,401.1416 38.2031,401.1416 Q37.7344,401.1416 37.4688,400.7354 Q37.3438,400.5479 37.3438,399.876 L35.8594,399.876 Z " fill="#000000"/><text fill="#000000" font-family="sans-serif" font-size="14" lengthAdjust="spacing" textLength="92" x="51" y="405.2349">user_identities</text><line style="stroke:#181818;stroke-width:0.5;" x1="23" x2="145" y1="415.0791" y2="415.0791"/><ellipse cx="44" cy="430.1187" fill="#000000" rx="3" ry="3" style="stroke:#000000;stroke-width:1.0;"/><text fill="#000000" font-family="sans-serif" font-size="14" lengthAdjust="spacing" textLength="57" x="53" y="434.7744">id : bigint</text><line style="stroke:#181818;stroke-width:1.0;" x1="23" x2="145" y1="442.1582" y2="442.1582"/><text fill="#000000" font-family="sans-serif" font-size="14" lengthAdjust="spacing" textLength="93" x="28" y="461.8535">user_id : bigint</text><text fill="#000000" font-family="sans-serif" font-size="14" lengthAdjust="spacing" textLength="52" x="48.5" y="480.9326">provider</text></g><!--class sns_tokens--><g id="elem_sns_tokens"><rect codeLine="29" fill="#F1F1F1" height="143.3955" id="sns_tokens" rx="2.5" ry="2.5" style="stroke:#181818;stroke-width:0.5;" width="139" x="181.5" y="364.0791"/><ellipse cx="212.25" cy="380.0791" fill="#C2C2C2" rx="11" ry="11" style="stroke:#181818;stroke-width:1.0;"/><path d="M211.1094,380.876 L211.1094,383.376 L215.4375,383.376 L215.4375,382.4541 Q215.4375,381.8447 215.6719,381.5791 Q215.9219,381.3135 216.2969,381.3135 Q216.6719,381.3135 216.9063,381.5791 Q217.1406,381.8447 217.1406,382.4541 L217.1406,385.0791 L209.1406,385.0791 Q208.5156,385.0791 208.25,384.8447 Q208,384.6104 208,384.2197 Q208,383.8447 208.2656,383.6104 Q208.5313,383.376 209.1406,383.376 L209.4063,383.376 L209.4063,376.7197 L209.1406,376.7197 Q208.5156,376.7197 208.25,376.4854 Q208,376.251 208,375.8604 Q208,375.4854 208.25,375.251 Q208.5156,375.0166 209.1406,375.0166 L216.7656,375.0166 L216.7656,377.6104 Q216.7656,378.2197 216.5313,378.4854 Q216.3125,378.7354 215.9219,378.7354 Q215.5469,378.7354 215.3125,378.4854 Q215.0781,378.2197 215.0781,377.6104 L215.0781,376.7197 L211.1094,376.7197 L211.1094,379.1729 L212.5938,379.1729 Q212.5938,378.5166 212.7188,378.3291 Q212.9844,377.9229 213.4531,377.9229 Q213.8281,377.9229 214.0625,378.1885 Q214.2969,378.4385 214.2969,379.0479 L214.2969,381.0166 Q214.2969,381.5635 214.1719,381.751 Q213.9063,382.1416 213.4531,382.1416 Q212.9844,382.1416 212.7188,381.7354 Q212.5938,381.5479 212.5938,380.876 L211.1094,380.876 Z " fill="#000000"/><text fill="#000000" font-family="sans-serif" font-size="14" lengthAdjust="spacing" textLength="72" x="229.75" y="386.2349">sns_tokens</text><line style="stroke:#181818;stroke-width:0.5;" x1="182.5" x2="319.5" y1="396.0791" y2="396.0791"/><ellipse cx="220.5" cy="411.1187" fill="#000000" rx="3" ry="3" style="stroke:#000000;stroke-width:1.0;"/><text fill="#000000" font-family="sans-serif" font-size="14" lengthAdjust="spacing" textLength="57" x="229.5" y="415.7744">id : bigint</text><line style="stroke:#181818;stroke-width:1.0;" x1="182.5" x2="319.5" y1="423.1582" y2="423.1582"/><text fill="#000000" font-family="sans-serif" font-size="14" lengthAdjust="spacing" textLength="93" x="204.5" y="442.8535">user_id : bigint</text><text fill="#000000" font-family="sans-serif" font-size="14" lengthAdjust="spacing" textLength="123" x="189.5" y="461.9326">user_access_token</text><text fill="#000000" font-family="sans-serif" font-size="14" lengthAdjust="spacing" textLength="127" x="187.5" y="481.0117">page_access_token</text><text fill="#000000" font-family="sans-serif" font-size="14" lengthAdjust="spacing" textLength="65" x="218.5" y="500.0908">expires_at</text></g><!--link users to user_identities--><g id="link_users_user_identities"><path codeLine="38" d="M116.3549,293.2174 C108.7049,326.6374 106.2993,337.1836 99.8393,365.3836 " fill="none" id="users-user_identities" style="stroke:#181818;stroke-width:1.0;"/><line style="stroke:#181818;stroke-width:1.0;" x1="113.3483" x2="121.1466" y1="288.4257" y2="290.2108"/><line style="stroke:#181818;stroke-width:1.0;" x1="112.6789" x2="120.4772" y1="291.3501" y2="293.1352"/><line style="stroke:#181818;stroke-width:1.0;" x1="116.3549" x2="118.14" y1="293.2174" y2="285.4191"/><line style="stroke:#181818;stroke-width:1.0;" x1="97.6064" x2="101.6685" y1="375.1311" y2="384.2689"/><line style="stroke:#181818;stroke-width:1.0;" x1="97.6064" x2="89.9715" y1="375.1311" y2="381.5893"/><line style="stroke:#181818;stroke-width:1.0;" x1="97.6064" x2="95.82" y1="375.1311" y2="382.9291"/><ellipse cx="98.9461" cy="369.2826" fill="none" rx="4" ry="4" style="stroke:#181818;stroke-width:1.0;"/><text fill="#000000" font-family="sans-serif" font-size="13" lengthAdjust="spacing" textLength="21" x="111" y="330.6533">has</text></g><!--link users to sns_tokens--><g id="link_users_sns_tokens"><path codeLine="39" d="M188.3412,292.7375 C199.9312,318.9875 201.694,322.9752 212.464,347.3452 " fill="none" id="users-sns_tokens" style="stroke:#181818;stroke-width:1.0;"/><line style="stroke:#181818;stroke-width:1.0;" x1="183.0664" x2="190.3848" y1="290.6939" y2="287.4627"/><line style="stroke:#181818;stroke-width:1.0;" x1="184.2781" x2="191.5965" y1="293.4383" y2="290.2071"/><line style="stroke:#181818;stroke-width:1.0;" x1="188.3412" x2="185.11" y1="292.7375" y2="285.4191"/><line style="stroke:#181818;stroke-width:1.0;" x1="216.5062" x2="225.228" y1="356.4918" y2="361.3838"/><line style="stroke:#181818;stroke-width:1.0;" x1="216.5062" x2="214.252" y1="356.4918" y2="366.2344"/><line style="stroke:#181818;stroke-width:1.0;" x1="216.5062" x2="219.74" y1="356.4918" y2="363.8091"/><ellipse cx="214.0809" cy="351.0039" fill="none" rx="4" ry="4" style="stroke:#181818;stroke-width:1.0;"/><text fill="#000000" font-family="sans-serif" font-size="13" lengthAdjust="spacing" textLength="21" x="206" y="330.6533">has</text></g><!--SRC=[jLZTSjig4BxNKp2zEUsPoGlapdNTnbEdwTXEpvmh3P6epOa46a1kD4tU_Im_aW1XDssSN3Y6NRvTThzTmFAUiWOBNAEQCrxi1Qy9Kg8bcHma9VcEsqfjoOEQLNJ7Qi8KAk23Y2nJL5K4VRnThT27sNRsVhPPeCNw0thxaR8INNTeGtXRlSkolz35I_vW_UrciTwW-UfsirsiNupNuE8UxmXwSok9a6XUjH8sz0Rzp122lL7LeTP8z0H2VzCINQ8xkgDCcGc0qF-ep76Xw86OKOMboYiEIZcsQWpNLaHgJ2lphH7yEwr8JckmdxV2pXQ2O4NAVbtRbEFmAGkTocbfHfJyoZsd7Sh0WGCWY0XPCfahVa_O7u6QILmKH3eKQqflSJ9B7XegYFGsPqFz-7XnmNzEjdY9zbZ6IfwtLlxqSeunyaCxx4YzNS- -BLRewshsvVoismfy81NwMc6Mv5u30YyFVjpDzxkst14RUQcmKBccYmqkA_k1drqD2FDT3AgC8xaHkodGog5woKCA0ZuA4eEO5GvFnowrK3BSo3rNftPrW0HJpdB6xSxSalm_oLc4MRH2m5TRVL4fH1ihI8yFoYskyeBBDFDCr67IHj-RD95p0Xj5NsXZqejTX9p2rC-KqJ4whydZ-MBpcapMkqvnESX40TJSSU7bg-0b2Nibd3iwP8EW8h0-ohyF6gU-u70u0K14IH1Ouvq7xVfjnNQkJT-HigHcPCmTSzubBtJZSh1m_ZIk5z-MYt_EdxyrEL3o8vauOKHv0-NoZBRXejuVYteLiHA78rLNkLBqCzbR0VRpV2TusyJ6F3zEBuyN6hJUFtFeziSj5wLkEuakv_3WIDahlFjpXnp0IPSSuytgeEVuaSzGc0YjylYO2fkdwGSpmZI1EWqQRdxKZO8I0lSRFZ_rPyjNOx-6dXJ0c4jCSxSxp73LINhgz9gm0kg0DUrmV07hMkMDdvA6J9KS8LplHCGVA4VEoDZKG4511osxT4kRc3n2rID6fzKS4ZautAO1J37lc68Y_1Dr6wzdAWySHTE87rS-Ew6NrxDFY_EJUQbV5CbERjyQoSDou51y5EAoX4kwZ5XZaIJ1ejZ3FwdlQwUAGjzxu4QdkeQSGYemAwc-jiPOWLPmcGi6G4z9AbBO8sVAmwJR6Ge3az8T7SlGaSt_OjdPsNDriuNxtFkRcy_BBv_Epw8hhk0-bso7UosACqGUG0ygBZVIIMigUCkKV-Kg02cYWbqfEAzZy01piAGr3QLI_IV4X1JagSTK03p16otrwvzlAMy4dPRP10YURTtuQZDhahXtdDz3ypvLOwVt4baE7cQuqx_cm6a10RALcewJSs8ewbedjGTph71buEMobxdCXWf3OaQjCLTfLHVPkBR3E6Ke3bp_pafizlp5ERzQp3-lbflj-GjplYV5VKMbIhRuefUUOignf_smEAUAJ8hGavR1Eogwzq_RxkXKXdmFOx4r-nhPc6tHzUBwPltlQ-G3AtHDQWX4kbqMe93NMc7wyqHmHkuqBuUE6RvD9W6UW7Vv0Gu-Bdx3XFzMczmFemnwUpWk77o07FuF]--></g></svg>