<?xml version="1.0" encoding="us-ascii" standalone="no"?><svg xmlns="http://www.w3.org/2000/svg" xmlns:xlink="http://www.w3.org/1999/xlink" contentStyleType="text/css" height="840px" preserveAspectRatio="none" style="width:415px;height:840px;background:#FFFFFF;" version="1.1" viewBox="0 0 415 840" width="415px" zoomAndPan="magnify"><defs/><g><text fill="#000000" font-family="sans-serif" font-size="14" font-weight="bold" lengthAdjust="spacing" textLength="185" x="108" y="25.6953">HOTEL BOOKING CLUSTER</text><!--cluster Hotel Cluster--><g id="cluster_Hotel Cluster"><path d="M8.5,46.0791 L101.5,46.0791 A3.75,3.75 0 0 1 104,48.5791 L111,71.1582 L405.5,71.1582 A2.5,2.5 0 0 1 408,73.6582 L408,830.5791 A2.5,2.5 0 0 1 405.5,833.0791 L8.5,833.0791 A2.5,2.5 0 0 1 6,830.5791 L6,48.5791 A2.5,2.5 0 0 1 8.5,46.0791 " fill="none" style="stroke:#000000;stroke-width:1.5;"/><line style="stroke:#000000;stroke-width:1.5;" x1="6" x2="111" y1="71.1582" y2="71.1582"/><text fill="#000000" font-family="sans-serif" font-size="14" font-weight="bold" lengthAdjust="spacing" textLength="92" x="10" y="63.7744">Hotel Cluster</text></g><!--class hotels--><g id="elem_hotels"><rect codeLine="229" fill="#F1F1F1" height="143.3955" id="hotels" rx="2.5" ry="2.5" style="stroke:#181818;stroke-width:0.5;" width="134" x="240" y="84.0791"/><ellipse cx="283.8" cy="100.0791" fill="#C2C2C2" rx="11" ry="11" style="stroke:#181818;stroke-width:1.0;"/><path d="M282.6594,100.876 L282.6594,103.376 L286.9875,103.376 L286.9875,102.4541 Q286.9875,101.8447 287.2219,101.5791 Q287.4719,101.3135 287.8469,101.3135 Q288.2219,101.3135 288.4563,101.5791 Q288.6906,101.8447 288.6906,102.4541 L288.6906,105.0791 L280.6906,105.0791 Q280.0656,105.0791 279.8,104.8447 Q279.55,104.6104 279.55,104.2197 Q279.55,103.8447 279.8156,103.6104 Q280.0813,103.376 280.6906,103.376 L280.9563,103.376 L280.9563,96.7197 L280.6906,96.7197 Q280.0656,96.7197 279.8,96.4854 Q279.55,96.251 279.55,95.8604 Q279.55,95.4854 279.8,95.251 Q280.0656,95.0166 280.6906,95.0166 L288.3156,95.0166 L288.3156,97.6104 Q288.3156,98.2197 288.0813,98.4854 Q287.8625,98.7354 287.4719,98.7354 Q287.0969,98.7354 286.8625,98.4854 Q286.6281,98.2197 286.6281,97.6104 L286.6281,96.7197 L282.6594,96.7197 L282.6594,99.1729 L284.1438,99.1729 Q284.1438,98.5166 284.2688,98.3291 Q284.5344,97.9229 285.0031,97.9229 Q285.3781,97.9229 285.6125,98.1885 Q285.8469,98.4385 285.8469,99.0479 L285.8469,101.0166 Q285.8469,101.5635 285.7219,101.751 Q285.4563,102.1416 285.0031,102.1416 Q284.5344,102.1416 284.2688,101.7354 Q284.1438,101.5479 284.1438,100.876 L282.6594,100.876 Z " fill="#000000"/><text fill="#000000" font-family="sans-serif" font-size="14" lengthAdjust="spacing" textLength="38" x="304.2" y="106.2349">hotels</text><line style="stroke:#181818;stroke-width:0.5;" x1="241" x2="373" y1="116.0791" y2="116.0791"/><ellipse cx="251" cy="131.1187" fill="#000000" rx="3" ry="3" style="stroke:#000000;stroke-width:1.0;"/><text fill="#000000" font-family="sans-serif" font-size="14" lengthAdjust="spacing" textLength="11" x="260" y="135.7744">id</text><text fill="#000000" font-family="sans-serif" font-size="14" lengthAdjust="spacing" textLength="108" x="260" y="154.8535">external_hotel_id</text><text fill="#000000" font-family="sans-serif" font-size="14" lengthAdjust="spacing" textLength="35" x="260" y="173.9326">name</text><text fill="#000000" font-family="sans-serif" font-size="14" lengthAdjust="spacing" textLength="86" x="260" y="193.0117">country_code</text><text fill="#000000" font-family="sans-serif" font-size="14" lengthAdjust="spacing" textLength="21" x="260" y="212.0908">city</text><line style="stroke:#181818;stroke-width:0.5;" x1="241" x2="373" y1="219.4746" y2="219.4746"/></g><!--class hotel_rooms--><g id="elem_hotel_rooms"><rect codeLine="237" fill="#F1F1F1" height="124.3164" id="hotel_rooms" rx="2.5" ry="2.5" style="stroke:#181818;stroke-width:0.5;" width="170" x="222" y="296.5791"/><ellipse cx="264" cy="312.5791" fill="#C2C2C2" rx="11" ry="11" style="stroke:#181818;stroke-width:1.0;"/><path d="M262.8594,313.376 L262.8594,315.876 L267.1875,315.876 L267.1875,314.9541 Q267.1875,314.3447 267.4219,314.0791 Q267.6719,313.8135 268.0469,313.8135 Q268.4219,313.8135 268.6563,314.0791 Q268.8906,314.3447 268.8906,314.9541 L268.8906,317.5791 L260.8906,317.5791 Q260.2656,317.5791 260,317.3447 Q259.75,317.1104 259.75,316.7197 Q259.75,316.3447 260.0156,316.1104 Q260.2813,315.876 260.8906,315.876 L261.1563,315.876 L261.1563,309.2197 L260.8906,309.2197 Q260.2656,309.2197 260,308.9854 Q259.75,308.751 259.75,308.3604 Q259.75,307.9854 260,307.751 Q260.2656,307.5166 260.8906,307.5166 L268.5156,307.5166 L268.5156,310.1104 Q268.5156,310.7197 268.2813,310.9854 Q268.0625,311.2354 267.6719,311.2354 Q267.2969,311.2354 267.0625,310.9854 Q266.8281,310.7197 266.8281,310.1104 L266.8281,309.2197 L262.8594,309.2197 L262.8594,311.6729 L264.3438,311.6729 Q264.3438,311.0166 264.4688,310.8291 Q264.7344,310.4229 265.2031,310.4229 Q265.5781,310.4229 265.8125,310.6885 Q266.0469,310.9385 266.0469,311.5479 L266.0469,313.5166 Q266.0469,314.0635 265.9219,314.251 Q265.6563,314.6416 265.2031,314.6416 Q264.7344,314.6416 264.4688,314.2354 Q264.3438,314.0479 264.3438,313.376 L262.8594,313.376 Z " fill="#000000"/><text fill="#000000" font-family="sans-serif" font-size="14" lengthAdjust="spacing" textLength="78" x="284" y="318.7349">hotel_rooms</text><line style="stroke:#181818;stroke-width:0.5;" x1="223" x2="391" y1="328.5791" y2="328.5791"/><ellipse cx="233" cy="343.6187" fill="#000000" rx="3" ry="3" style="stroke:#000000;stroke-width:1.0;"/><text fill="#000000" font-family="sans-serif" font-size="14" lengthAdjust="spacing" textLength="11" x="242" y="348.2744">id</text><text fill="#000000" font-family="sans-serif" font-size="14" lengthAdjust="spacing" textLength="50" x="242" y="367.3535">hotel_id</text><text fill="#000000" font-family="sans-serif" font-size="14" lengthAdjust="spacing" textLength="144" x="242" y="386.4326">external_room_type_id</text><text fill="#000000" font-family="sans-serif" font-size="14" lengthAdjust="spacing" textLength="35" x="242" y="405.5117">name</text><line style="stroke:#181818;stroke-width:0.5;" x1="223" x2="391" y1="412.8955" y2="412.8955"/></g><!--class hotel_rate_plans--><g id="elem_hotel_rate_plans"><rect codeLine="244" fill="#F1F1F1" height="143.3955" id="hotel_rate_plans" rx="2.5" ry="2.5" style="stroke:#181818;stroke-width:0.5;" width="163" x="228.5" y="490.0791"/><ellipse cx="254.75" cy="506.0791" fill="#C2C2C2" rx="11" ry="11" style="stroke:#181818;stroke-width:1.0;"/><path d="M253.6094,506.876 L253.6094,509.376 L257.9375,509.376 L257.9375,508.4541 Q257.9375,507.8447 258.1719,507.5791 Q258.4219,507.3135 258.7969,507.3135 Q259.1719,507.3135 259.4063,507.5791 Q259.6406,507.8447 259.6406,508.4541 L259.6406,511.0791 L251.6406,511.0791 Q251.0156,511.0791 250.75,510.8447 Q250.5,510.6104 250.5,510.2197 Q250.5,509.8447 250.7656,509.6104 Q251.0313,509.376 251.6406,509.376 L251.9063,509.376 L251.9063,502.7197 L251.6406,502.7197 Q251.0156,502.7197 250.75,502.4854 Q250.5,502.251 250.5,501.8604 Q250.5,501.4854 250.75,501.251 Q251.0156,501.0166 251.6406,501.0166 L259.2656,501.0166 L259.2656,503.6104 Q259.2656,504.2197 259.0313,504.4854 Q258.8125,504.7354 258.4219,504.7354 Q258.0469,504.7354 257.8125,504.4854 Q257.5781,504.2197 257.5781,503.6104 L257.5781,502.7197 L253.6094,502.7197 L253.6094,505.1729 L255.0938,505.1729 Q255.0938,504.5166 255.2188,504.3291 Q255.4844,503.9229 255.9531,503.9229 Q256.3281,503.9229 256.5625,504.1885 Q256.7969,504.4385 256.7969,505.0479 L256.7969,507.0166 Q256.7969,507.5635 256.6719,507.751 Q256.4063,508.1416 255.9531,508.1416 Q255.4844,508.1416 255.2188,507.7354 Q255.0938,507.5479 255.0938,506.876 L253.6094,506.876 Z " fill="#000000"/><text fill="#000000" font-family="sans-serif" font-size="14" lengthAdjust="spacing" textLength="106" x="271.25" y="512.2349">hotel_rate_plans</text><line style="stroke:#181818;stroke-width:0.5;" x1="229.5" x2="390.5" y1="522.0791" y2="522.0791"/><ellipse cx="239.5" cy="537.1187" fill="#000000" rx="3" ry="3" style="stroke:#000000;stroke-width:1.0;"/><text fill="#000000" font-family="sans-serif" font-size="14" lengthAdjust="spacing" textLength="11" x="248.5" y="541.7744">id</text><text fill="#000000" font-family="sans-serif" font-size="14" lengthAdjust="spacing" textLength="50" x="248.5" y="560.8535">hotel_id</text><text fill="#000000" font-family="sans-serif" font-size="14" lengthAdjust="spacing" textLength="86" x="248.5" y="579.9326">room_type_id</text><text fill="#000000" font-family="sans-serif" font-size="14" lengthAdjust="spacing" textLength="137" x="248.5" y="599.0117">external_rate_plan_id</text><text fill="#000000" font-family="sans-serif" font-size="14" lengthAdjust="spacing" textLength="35" x="248.5" y="618.0908">name</text><line style="stroke:#181818;stroke-width:0.5;" x1="229.5" x2="390.5" y1="625.4746" y2="625.4746"/></g><!--class hotel_rate_plan_prices--><g id="elem_hotel_rate_plan_prices"><rect codeLine="252" fill="#F1F1F1" height="124.3164" id="hotel_rate_plan_prices" rx="2.5" ry="2.5" style="stroke:#181818;stroke-width:0.5;" width="177" x="214.5" y="693.0791"/><ellipse cx="229.5" cy="709.0791" fill="#C2C2C2" rx="11" ry="11" style="stroke:#181818;stroke-width:1.0;"/><path d="M228.3594,709.876 L228.3594,712.376 L232.6875,712.376 L232.6875,711.4541 Q232.6875,710.8447 232.9219,710.5791 Q233.1719,710.3135 233.5469,710.3135 Q233.9219,710.3135 234.1563,710.5791 Q234.3906,710.8447 234.3906,711.4541 L234.3906,714.0791 L226.3906,714.0791 Q225.7656,714.0791 225.5,713.8447 Q225.25,713.6104 225.25,713.2197 Q225.25,712.8447 225.5156,712.6104 Q225.7813,712.376 226.3906,712.376 L226.6563,712.376 L226.6563,705.7197 L226.3906,705.7197 Q225.7656,705.7197 225.5,705.4854 Q225.25,705.251 225.25,704.8604 Q225.25,704.4854 225.5,704.251 Q225.7656,704.0166 226.3906,704.0166 L234.0156,704.0166 L234.0156,706.6104 Q234.0156,707.2197 233.7813,707.4854 Q233.5625,707.7354 233.1719,707.7354 Q232.7969,707.7354 232.5625,707.4854 Q232.3281,707.2197 232.3281,706.6104 L232.3281,705.7197 L228.3594,705.7197 L228.3594,708.1729 L229.8438,708.1729 Q229.8438,707.5166 229.9688,707.3291 Q230.2344,706.9229 230.7031,706.9229 Q231.0781,706.9229 231.3125,707.1885 Q231.5469,707.4385 231.5469,708.0479 L231.5469,710.0166 Q231.5469,710.5635 231.4219,710.751 Q231.1563,711.1416 230.7031,711.1416 Q230.2344,711.1416 229.9688,710.7354 Q229.8438,710.5479 229.8438,709.876 L228.3594,709.876 Z " fill="#000000"/><text fill="#000000" font-family="sans-serif" font-size="14" lengthAdjust="spacing" textLength="145" x="243.5" y="715.2349">hotel_rate_plan_prices</text><line style="stroke:#181818;stroke-width:0.5;" x1="215.5" x2="390.5" y1="725.0791" y2="725.0791"/><ellipse cx="225.5" cy="740.1187" fill="#000000" rx="3" ry="3" style="stroke:#000000;stroke-width:1.0;"/><text fill="#000000" font-family="sans-serif" font-size="14" lengthAdjust="spacing" textLength="11" x="234.5" y="744.7744">id</text><text fill="#000000" font-family="sans-serif" font-size="14" lengthAdjust="spacing" textLength="79" x="234.5" y="763.8535">rate_plan_id</text><text fill="#000000" font-family="sans-serif" font-size="14" lengthAdjust="spacing" textLength="62" x="234.5" y="782.9326">stay_date</text><text fill="#000000" font-family="sans-serif" font-size="14" lengthAdjust="spacing" textLength="31" x="234.5" y="802.0117">price</text><line style="stroke:#181818;stroke-width:0.5;" x1="215.5" x2="390.5" y1="809.3955" y2="809.3955"/></g><!--class hotel_bookings--><g id="elem_hotel_bookings"><rect codeLine="259" fill="#F1F1F1" height="143.3955" id="hotel_bookings" rx="2.5" ry="2.5" style="stroke:#181818;stroke-width:0.5;" width="128" x="44" y="287.0791"/><ellipse cx="59" cy="303.0791" fill="#C2C2C2" rx="11" ry="11" style="stroke:#181818;stroke-width:1.0;"/><path d="M57.8594,303.876 L57.8594,306.376 L62.1875,306.376 L62.1875,305.4541 Q62.1875,304.8447 62.4219,304.5791 Q62.6719,304.3135 63.0469,304.3135 Q63.4219,304.3135 63.6563,304.5791 Q63.8906,304.8447 63.8906,305.4541 L63.8906,308.0791 L55.8906,308.0791 Q55.2656,308.0791 55,307.8447 Q54.75,307.6104 54.75,307.2197 Q54.75,306.8447 55.0156,306.6104 Q55.2813,306.376 55.8906,306.376 L56.1563,306.376 L56.1563,299.7197 L55.8906,299.7197 Q55.2656,299.7197 55,299.4854 Q54.75,299.251 54.75,298.8604 Q54.75,298.4854 55,298.251 Q55.2656,298.0166 55.8906,298.0166 L63.5156,298.0166 L63.5156,300.6104 Q63.5156,301.2197 63.2813,301.4854 Q63.0625,301.7354 62.6719,301.7354 Q62.2969,301.7354 62.0625,301.4854 Q61.8281,301.2197 61.8281,300.6104 L61.8281,299.7197 L57.8594,299.7197 L57.8594,302.1729 L59.3438,302.1729 Q59.3438,301.5166 59.4688,301.3291 Q59.7344,300.9229 60.2031,300.9229 Q60.5781,300.9229 60.8125,301.1885 Q61.0469,301.4385 61.0469,302.0479 L61.0469,304.0166 Q61.0469,304.5635 60.9219,304.751 Q60.6563,305.1416 60.2031,305.1416 Q59.7344,305.1416 59.4688,304.7354 Q59.3438,304.5479 59.3438,303.876 L57.8594,303.876 Z " fill="#000000"/><text fill="#000000" font-family="sans-serif" font-size="14" lengthAdjust="spacing" textLength="96" x="73" y="309.2349">hotel_bookings</text><line style="stroke:#181818;stroke-width:0.5;" x1="45" x2="171" y1="319.0791" y2="319.0791"/><ellipse cx="55" cy="334.1187" fill="#000000" rx="3" ry="3" style="stroke:#000000;stroke-width:1.0;"/><text fill="#000000" font-family="sans-serif" font-size="14" lengthAdjust="spacing" textLength="11" x="64" y="338.7744">id</text><text fill="#000000" font-family="sans-serif" font-size="14" lengthAdjust="spacing" textLength="47" x="64" y="357.8535">user_id</text><text fill="#000000" font-family="sans-serif" font-size="14" lengthAdjust="spacing" textLength="50" x="64" y="376.9326">hotel_id</text><text fill="#000000" font-family="sans-serif" font-size="14" lengthAdjust="spacing" textLength="86" x="64" y="396.0117">room_type_id</text><text fill="#000000" font-family="sans-serif" font-size="14" lengthAdjust="spacing" textLength="79" x="64" y="415.0908">rate_plan_id</text><line style="stroke:#181818;stroke-width:0.5;" x1="45" x2="171" y1="422.4746" y2="422.4746"/></g><!--class payment_transactions--><g id="elem_payment_transactions"><rect codeLine="267" fill="#F1F1F1" height="105.2373" id="payment_transactions" rx="2.5" ry="2.5" style="stroke:#181818;stroke-width:0.5;" width="171" x="22.5" y="509.0791"/><ellipse cx="37.5" cy="525.0791" fill="#C2C2C2" rx="11" ry="11" style="stroke:#181818;stroke-width:1.0;"/><path d="M36.3594,525.876 L36.3594,528.376 L40.6875,528.376 L40.6875,527.4541 Q40.6875,526.8447 40.9219,526.5791 Q41.1719,526.3135 41.5469,526.3135 Q41.9219,526.3135 42.1563,526.5791 Q42.3906,526.8447 42.3906,527.4541 L42.3906,530.0791 L34.3906,530.0791 Q33.7656,530.0791 33.5,529.8447 Q33.25,529.6104 33.25,529.2197 Q33.25,528.8447 33.5156,528.6104 Q33.7813,528.376 34.3906,528.376 L34.6563,528.376 L34.6563,521.7197 L34.3906,521.7197 Q33.7656,521.7197 33.5,521.4854 Q33.25,521.251 33.25,520.8604 Q33.25,520.4854 33.5,520.251 Q33.7656,520.0166 34.3906,520.0166 L42.0156,520.0166 L42.0156,522.6104 Q42.0156,523.2197 41.7813,523.4854 Q41.5625,523.7354 41.1719,523.7354 Q40.7969,523.7354 40.5625,523.4854 Q40.3281,523.2197 40.3281,522.6104 L40.3281,521.7197 L36.3594,521.7197 L36.3594,524.1729 L37.8438,524.1729 Q37.8438,523.5166 37.9688,523.3291 Q38.2344,522.9229 38.7031,522.9229 Q39.0781,522.9229 39.3125,523.1885 Q39.5469,523.4385 39.5469,524.0479 L39.5469,526.0166 Q39.5469,526.5635 39.4219,526.751 Q39.1563,527.1416 38.7031,527.1416 Q38.2344,527.1416 37.9688,526.7354 Q37.8438,526.5479 37.8438,525.876 L36.3594,525.876 Z " fill="#000000"/><text fill="#000000" font-family="sans-serif" font-size="14" lengthAdjust="spacing" textLength="139" x="51.5" y="531.2349">payment_transactions</text><line style="stroke:#181818;stroke-width:0.5;" x1="23.5" x2="192.5" y1="541.0791" y2="541.0791"/><ellipse cx="33.5" cy="556.1187" fill="#000000" rx="3" ry="3" style="stroke:#000000;stroke-width:1.0;"/><text fill="#000000" font-family="sans-serif" font-size="14" lengthAdjust="spacing" textLength="11" x="42.5" y="560.7744">id</text><text fill="#000000" font-family="sans-serif" font-size="14" lengthAdjust="spacing" textLength="108" x="42.5" y="579.8535">hotel_booking_id</text><text fill="#000000" font-family="sans-serif" font-size="14" lengthAdjust="spacing" textLength="47" x="42.5" y="598.9326">amount</text><line style="stroke:#181818;stroke-width:0.5;" x1="23.5" x2="192.5" y1="606.3164" y2="606.3164"/></g><!--class users--><g id="elem_users"><rect fill="#F1F1F1" height="48" id="users" rx="2.5" ry="2.5" style="stroke:#181818;stroke-width:0.5;" width="67" x="74.5" y="131.5791"/><ellipse cx="89.5" cy="147.5791" fill="#C2C2C2" rx="11" ry="11" style="stroke:#181818;stroke-width:1.0;"/><path d="M92.2656,143.4541 Q92.4219,143.2354 92.6094,143.126 Q92.7969,143.0166 93.0156,143.0166 Q93.3906,143.0166 93.625,143.2822 Q93.8594,143.5322 93.8594,144.1416 L93.8594,145.5947 Q93.8594,146.2041 93.625,146.4697 Q93.3906,146.7354 93.0156,146.7354 Q92.6719,146.7354 92.4688,146.5322 Q92.2656,146.3447 92.1563,145.8291 Q92.1094,145.4697 91.9219,145.2822 Q91.5938,144.9072 90.9844,144.6885 Q90.375,144.4697 89.75,144.4697 Q88.9844,144.4697 88.3438,144.7979 Q87.7188,145.126 87.2188,145.876 Q86.7344,146.626 86.7344,147.6572 L86.7344,148.751 Q86.7344,149.9854 87.625,150.8135 Q88.5156,151.626 90.1094,151.626 Q91.0469,151.626 91.7031,151.376 Q92.0938,151.2197 92.5156,150.7822 Q92.7813,150.5166 92.9219,150.4385 Q93.0781,150.3604 93.2813,150.3604 Q93.6094,150.3604 93.8594,150.626 Q94.125,150.876 94.125,151.2197 Q94.125,151.5635 93.7813,151.9697 Q93.2813,152.5479 92.4844,152.876 Q91.4063,153.3291 90.1094,153.3291 Q88.5938,153.3291 87.3906,152.7041 Q86.4063,152.2041 85.7188,151.1416 Q85.0313,150.0635 85.0313,148.7822 L85.0313,147.626 Q85.0313,146.2979 85.6406,145.1572 Q86.2656,144.001 87.3594,143.3916 Q88.4531,142.7666 89.6875,142.7666 Q90.4219,142.7666 91.0625,142.9385 Q91.7188,143.0947 92.2656,143.4541 Z " fill="#000000"/><text fill="#000000" font-family="sans-serif" font-size="14" lengthAdjust="spacing" textLength="35" x="103.5" y="153.7349">users</text><line style="stroke:#181818;stroke-width:0.5;" x1="75.5" x2="140.5" y1="163.5791" y2="163.5791"/><line style="stroke:#181818;stroke-width:0.5;" x1="75.5" x2="140.5" y1="171.5791" y2="171.5791"/></g><!--link hotels to hotel_rooms--><g id="link_hotels_hotel_rooms"><path codeLine="273" d="M307,235.1591 C307,257.7891 307,256.6291 307,278.5191 " fill="none" id="hotels-hotel_rooms" style="stroke:#181818;stroke-width:1.0;"/><line style="stroke:#181818;stroke-width:1.0;" x1="303" x2="311" y1="231.1591" y2="231.1591"/><line style="stroke:#181818;stroke-width:1.0;" x1="303" x2="311" y1="234.1591" y2="234.1591"/><line style="stroke:#181818;stroke-width:1.0;" x1="307" x2="307" y1="235.1591" y2="227.1591"/><line style="stroke:#181818;stroke-width:1.0;" x1="307" x2="313" y1="288.5191" y2="296.5191"/><line style="stroke:#181818;stroke-width:1.0;" x1="307" x2="301" y1="288.5191" y2="296.5191"/><line style="stroke:#181818;stroke-width:1.0;" x1="307" x2="307" y1="288.5191" y2="296.5191"/><ellipse cx="307" cy="282.5191" fill="none" rx="4" ry="4" style="stroke:#181818;stroke-width:1.0;"/></g><!--link hotel_rooms to hotel_rate_plans--><g id="link_hotel_rooms_hotel_rate_plans"><path codeLine="274" d="M308.031,428.7082 C308.361,450.5282 308.3468,449.311 308.6768,471.881 " fill="none" id="hotel_rooms-hotel_rate_plans" style="stroke:#181818;stroke-width:1.0;"/><line style="stroke:#181818;stroke-width:1.0;" x1="303.9709" x2="311.97" y1="424.7691" y2="424.6482"/><line style="stroke:#181818;stroke-width:1.0;" x1="304.0163" x2="312.0154" y1="427.7688" y2="427.6478"/><line style="stroke:#181818;stroke-width:1.0;" x1="308.031" x2="307.91" y1="428.7082" y2="420.7091"/><line style="stroke:#181818;stroke-width:1.0;" x1="308.823" x2="314.9394" y1="481.88" y2="489.7914"/><line style="stroke:#181818;stroke-width:1.0;" x1="308.823" x2="302.9406" y1="481.88" y2="489.9668"/><line style="stroke:#181818;stroke-width:1.0;" x1="308.823" x2="308.94" y1="481.88" y2="489.8791"/><ellipse cx="308.7353" cy="475.8806" fill="none" rx="4" ry="4" style="stroke:#181818;stroke-width:1.0;"/></g><!--link hotel_rate_plans to hotel_rate_plan_prices--><g id="link_hotel_rate_plans_hotel_rate_plan_prices"><path codeLine="275" d="M307.1205,641.3339 C306.4105,660.9439 306.5927,656.0613 305.8927,675.0613 " fill="none" id="hotel_rate_plans-hotel_rate_plan_prices" style="stroke:#181818;stroke-width:1.0;"/><line style="stroke:#181818;stroke-width:1.0;" x1="303.2679" x2="311.2627" y1="637.1918" y2="637.4812"/><line style="stroke:#181818;stroke-width:1.0;" x1="303.1593" x2="311.1541" y1="640.1898" y2="640.4792"/><line style="stroke:#181818;stroke-width:1.0;" x1="307.1205" x2="307.41" y1="641.3339" y2="633.3391"/><line style="stroke:#181818;stroke-width:1.0;" x1="305.5245" x2="311.2259" y1="685.0545" y2="693.27"/><line style="stroke:#181818;stroke-width:1.0;" x1="305.5245" x2="299.2341" y1="685.0545" y2="692.8282"/><line style="stroke:#181818;stroke-width:1.0;" x1="305.5245" x2="305.23" y1="685.0545" y2="693.0491"/><ellipse cx="305.7454" cy="679.0586" fill="none" rx="4" ry="4" style="stroke:#181818;stroke-width:1.0;"/></g><!--link users to hotel_bookings--><g id="link_users_hotel_bookings"><path codeLine="276" d="M108,187.6391 C108,213.7291 108,231.4791 108,269.0691 " fill="none" id="users-hotel_bookings" style="stroke:#181818;stroke-width:1.0;"/><line style="stroke:#181818;stroke-width:1.0;" x1="104" x2="112" y1="183.6391" y2="183.6391"/><line style="stroke:#181818;stroke-width:1.0;" x1="104" x2="112" y1="186.6391" y2="186.6391"/><line style="stroke:#181818;stroke-width:1.0;" x1="108" x2="108" y1="187.6391" y2="179.6391"/><line style="stroke:#181818;stroke-width:1.0;" x1="108" x2="114" y1="279.0691" y2="287.0691"/><line style="stroke:#181818;stroke-width:1.0;" x1="108" x2="102" y1="279.0691" y2="287.0691"/><line style="stroke:#181818;stroke-width:1.0;" x1="108" x2="108" y1="279.0691" y2="287.0691"/><ellipse cx="108" cy="273.0691" fill="none" rx="4" ry="4" style="stroke:#181818;stroke-width:1.0;"/></g><!--link hotel_bookings to payment_transactions--><g id="link_hotel_bookings_payment_transactions"><path codeLine="277" d="M108,438.1591 C108,464.0691 108,466.8891 108,490.8391 " fill="none" id="hotel_bookings-payment_transactions" style="stroke:#181818;stroke-width:1.0;"/><line style="stroke:#181818;stroke-width:1.0;" x1="104" x2="112" y1="434.1591" y2="434.1591"/><line style="stroke:#181818;stroke-width:1.0;" x1="104" x2="112" y1="437.1591" y2="437.1591"/><line style="stroke:#181818;stroke-width:1.0;" x1="108" x2="108" y1="438.1591" y2="430.1591"/><line style="stroke:#181818;stroke-width:1.0;" x1="108" x2="114" y1="500.8391" y2="508.8391"/><line style="stroke:#181818;stroke-width:1.0;" x1="108" x2="102" y1="500.8391" y2="508.8391"/><line style="stroke:#181818;stroke-width:1.0;" x1="108" x2="108" y1="500.8391" y2="508.8391"/><ellipse cx="108" cy="494.8391" fill="none" rx="4" ry="4" style="stroke:#181818;stroke-width:1.0;"/></g><!--SRC=[jLZTSjig4BxNKp2zEUsPoGlapdNTnbEdwTXEpvmh3P6epOa46a1kD4tU_Im_aW1XDssSN3Y6NRvTThzTmFAUiWOBNAEQCrxi1Qy9Kg8bcHma9VcEsqfjoOEQLNJ7Qi8KAk23Y2nJL5K4VRnThT27sNRsVhPPeCNw0thxaR8INNTeGtXRlSkolz35I_vW_UrciTwW-UfsirsiNupNuE8UxmXwSok9a6XUjH8sz0Rzp122lL7LeTP8z0H2VzCINQ8xkgDCcGc0qF-ep76Xw86OKOMboYiEIZcsQWpNLaHgJ2lphH7yEwr8JckmdxV2pXQ2O4NAVbtRbEFmAGkTocbfHfJyoZsd7Sh0WGCWY0XPCfahVa_O7u6QILmKH3eKQqflSJ9B7XegYFGsPqFz-7XnmNzEjdY9zbZ6IfwtLlxqSeunyaCxx4YzNS- -BLRewshsvVoismfy81NwMc6Mv5u30YyFVjpDzxkst14RUQcmKBccYmqkA_k1drqD2FDT3AgC8xaHkodGog5woKCA0ZuA4eEO5GvFnowrK3BSo3rNftPrW0HJpdB6xSxSalm_oLc4MRH2m5TRVL4fH1ihI8yFoYskyeBBDFDCr67IHj-RD95p0Xj5NsXZqejTX9p2rC-KqJ4whydZ-MBpcapMkqvnESX40TJSSU7bg-0b2Nibd3iwP8EW8h0-ohyF6gU-u70u0K14IH1Ouvq7xVfjnNQkJT-HigHcPCmTSzubBtJZSh1m_ZIk5z-MYt_EdxyrEL3o8vauOKHv0-NoZBRXejuVYteLiHA78rLNkLBqCzbR0VRpV2TusyJ6F3zEBuyN6hJUFtFeziSj5wLkEuakv_3WIDahlFjpXnp0IPSSuytgeEVuaSzGc0YjylYO2fkdwGSpmZI1EWqQRdxKZO8I0lSRFZ_rPyjNOx-6dXJ0c4jCSxSxp73LINhgz9gm0kg0DUrmV07hMkMDdvA6J9KS8LplHCGVA4VEoDZKG4511osxT4kRc3n2rID6fzKS4ZautAO1J37lc68Y_1Dr6wzdAWySHTE87rS-Ew6NrxDFY_EJUQbV5CbERjyQoSDou51y5EAoX4kwZ5XZaIJ1ejZ3FwdlQwUAGjzxu4QdkeQSGYemAwc-jiPOWLPmcGi6G4z9AbBO8sVAmwJR6Ge3az8T7SlGaSt_OjdPsNDriuNxtFkRcy_BBv_Epw8hhk0-bso7UosACqGUG0ygBZVIIMigUCkKV-Kg02cYWbqfEAzZy01piAGr3QLI_IV4X1JagSTK03p16otrwvzlAMy4dPRP10YURTtuQZDhahXtdDz3ypvLOwVt4baE7cQuqx_cm6a10RALcewJSs8ewbedjGTph71buEMobxdCXWf3OaQjCLTfLHVPkBR3E6Ke3bp_pafizlp5ERzQp3-lbflj-GjplYV5VKMbIhRuefUUOignf_smEAUAJ8hGavR1Eogwzq_RxkXKXdmFOx4r-nhPc6tHzUBwPltlQ-G3AtHDQWX4kbqMe93NMc7wyqHmHkuqBuUE6RvD9W6UW7Vv0Gu-Bdx3XFzMczmFemnwUpWk77o07FuF]--></g></svg>