<?xml version="1.0" encoding="us-ascii" standalone="no"?><svg xmlns="http://www.w3.org/2000/svg" xmlns:xlink="http://www.w3.org/1999/xlink" contentStyleType="text/css" height="492px" preserveAspectRatio="none" style="width:229px;height:492px;background:#FFFFFF;" version="1.1" viewBox="0 0 229 492" width="229px" zoomAndPan="magnify"><defs/><g><text fill="#000000" font-family="sans-serif" font-size="14" font-weight="bold" lengthAdjust="spacing" textLength="179" x="18" y="25.6953">TRAVEL PLACES CLUSTER</text><!--cluster Travel Places Cluster--><g id="cluster_Travel Places Cluster"><path d="M8.5,46.0791 L158.5,46.0791 A3.75,3.75 0 0 1 161,48.5791 L168,71.1582 L219.5,71.1582 A2.5,2.5 0 0 1 222,73.6582 L222,482.5791 A2.5,2.5 0 0 1 219.5,485.0791 L8.5,485.0791 A2.5,2.5 0 0 1 6,482.5791 L6,48.5791 A2.5,2.5 0 0 1 8.5,46.0791 " fill="none" style="stroke:#000000;stroke-width:1.5;"/><line style="stroke:#000000;stroke-width:1.5;" x1="6" x2="168" y1="71.1582" y2="71.1582"/><text fill="#000000" font-family="sans-serif" font-size="14" font-weight="bold" lengthAdjust="spacing" textLength="149" x="10" y="63.7744">Travel Places Cluster</text></g><!--class travel_place_categories--><g id="elem_travel_place_categories"><rect codeLine="92" fill="#F1F1F1" height="124.3164" id="travel_place_categories" rx="2.5" ry="2.5" style="stroke:#181818;stroke-width:0.5;" width="183" x="22.5" y="84.0791"/><ellipse cx="37.5" cy="100.0791" fill="#C2C2C2" rx="11" ry="11" style="stroke:#181818;stroke-width:1.0;"/><path d="M36.3594,100.876 L36.3594,103.376 L40.6875,103.376 L40.6875,102.4541 Q40.6875,101.8447 40.9219,101.5791 Q41.1719,101.3135 41.5469,101.3135 Q41.9219,101.3135 42.1563,101.5791 Q42.3906,101.8447 42.3906,102.4541 L42.3906,105.0791 L34.3906,105.0791 Q33.7656,105.0791 33.5,104.8447 Q33.25,104.6104 33.25,104.2197 Q33.25,103.8447 33.5156,103.6104 Q33.7813,103.376 34.3906,103.376 L34.6563,103.376 L34.6563,96.7197 L34.3906,96.7197 Q33.7656,96.7197 33.5,96.4854 Q33.25,96.251 33.25,95.8604 Q33.25,95.4854 33.5,95.251 Q33.7656,95.0166 34.3906,95.0166 L42.0156,95.0166 L42.0156,97.6104 Q42.0156,98.2197 41.7813,98.4854 Q41.5625,98.7354 41.1719,98.7354 Q40.7969,98.7354 40.5625,98.4854 Q40.3281,98.2197 40.3281,97.6104 L40.3281,96.7197 L36.3594,96.7197 L36.3594,99.1729 L37.8438,99.1729 Q37.8438,98.5166 37.9688,98.3291 Q38.2344,97.9229 38.7031,97.9229 Q39.0781,97.9229 39.3125,98.1885 Q39.5469,98.4385 39.5469,99.0479 L39.5469,101.0166 Q39.5469,101.5635 39.4219,101.751 Q39.1563,102.1416 38.7031,102.1416 Q38.2344,102.1416 37.9688,101.7354 Q37.8438,101.5479 37.8438,100.876 L36.3594,100.876 Z " fill="#000000"/><text fill="#000000" font-family="sans-serif" font-size="14" lengthAdjust="spacing" textLength="151" x="51.5" y="106.2349">travel_place_categories</text><line style="stroke:#181818;stroke-width:0.5;" x1="23.5" x2="204.5" y1="116.0791" y2="116.0791"/><ellipse cx="33.5" cy="131.1187" fill="#000000" rx="3" ry="3" style="stroke:#000000;stroke-width:1.0;"/><text fill="#000000" font-family="sans-serif" font-size="14" lengthAdjust="spacing" textLength="31" x="42.5" y="135.7744">code</text><text fill="#000000" font-family="sans-serif" font-size="14" lengthAdjust="spacing" textLength="35" x="42.5" y="154.8535">name</text><text fill="#000000" font-family="sans-serif" font-size="14" lengthAdjust="spacing" textLength="80" x="42.5" y="173.9326">parent_code</text><text fill="#000000" font-family="sans-serif" font-size="14" lengthAdjust="spacing" textLength="29" x="42.5" y="193.0117">level</text><line style="stroke:#181818;stroke-width:0.5;" x1="23.5" x2="204.5" y1="200.3955" y2="200.3955"/></g><!--class travel_places--><g id="elem_travel_places"><rect codeLine="99" fill="#F1F1F1" height="181.5537" id="travel_places" rx="2.5" ry="2.5" style="stroke:#181818;stroke-width:0.5;" width="120" x="54" y="287.0791"/><ellipse cx="70.8" cy="303.0791" fill="#C2C2C2" rx="11" ry="11" style="stroke:#181818;stroke-width:1.0;"/><path d="M69.6594,303.876 L69.6594,306.376 L73.9875,306.376 L73.9875,305.4541 Q73.9875,304.8447 74.2219,304.5791 Q74.4719,304.3135 74.8469,304.3135 Q75.2219,304.3135 75.4563,304.5791 Q75.6906,304.8447 75.6906,305.4541 L75.6906,308.0791 L67.6906,308.0791 Q67.0656,308.0791 66.8,307.8447 Q66.55,307.6104 66.55,307.2197 Q66.55,306.8447 66.8156,306.6104 Q67.0813,306.376 67.6906,306.376 L67.9563,306.376 L67.9563,299.7197 L67.6906,299.7197 Q67.0656,299.7197 66.8,299.4854 Q66.55,299.251 66.55,298.8604 Q66.55,298.4854 66.8,298.251 Q67.0656,298.0166 67.6906,298.0166 L75.3156,298.0166 L75.3156,300.6104 Q75.3156,301.2197 75.0813,301.4854 Q74.8625,301.7354 74.4719,301.7354 Q74.0969,301.7354 73.8625,301.4854 Q73.6281,301.2197 73.6281,300.6104 L73.6281,299.7197 L69.6594,299.7197 L69.6594,302.1729 L71.1438,302.1729 Q71.1438,301.5166 71.2688,301.3291 Q71.5344,300.9229 72.0031,300.9229 Q72.3781,300.9229 72.6125,301.1885 Q72.8469,301.4385 72.8469,302.0479 L72.8469,304.0166 Q72.8469,304.5635 72.7219,304.751 Q72.4563,305.1416 72.0031,305.1416 Q71.5344,305.1416 71.2688,304.7354 Q71.1438,304.5479 71.1438,303.876 L69.6594,303.876 Z " fill="#000000"/><text fill="#000000" font-family="sans-serif" font-size="14" lengthAdjust="spacing" textLength="84" x="85.2" y="309.2349">travel_places</text><line style="stroke:#181818;stroke-width:0.5;" x1="55" x2="173" y1="319.0791" y2="319.0791"/><ellipse cx="65" cy="334.1187" fill="#000000" rx="3" ry="3" style="stroke:#000000;stroke-width:1.0;"/><text fill="#000000" font-family="sans-serif" font-size="14" lengthAdjust="spacing" textLength="11" x="74" y="338.7744">id</text><text fill="#000000" font-family="sans-serif" font-size="14" lengthAdjust="spacing" textLength="66" x="74" y="357.8535">content_id</text><text fill="#000000" font-family="sans-serif" font-size="14" lengthAdjust="spacing" textLength="22" x="74" y="376.9326">title</text><text fill="#000000" font-family="sans-serif" font-size="14" lengthAdjust="spacing" textLength="94" x="74" y="396.0117">category_code</text><text fill="#000000" font-family="sans-serif" font-size="14" lengthAdjust="spacing" textLength="15" x="74" y="415.0908">lat</text><text fill="#000000" font-family="sans-serif" font-size="14" lengthAdjust="spacing" textLength="19" x="74" y="434.1699">lng</text><text fill="#000000" font-family="sans-serif" font-size="14" lengthAdjust="spacing" textLength="70" x="74" y="453.249">embedding</text><line style="stroke:#181818;stroke-width:0.5;" x1="55" x2="173" y1="460.6328" y2="460.6328"/></g><!--link travel_place_categories to travel_places--><g id="link_travel_place_categories_travel_places"><path codeLine="109" d="M114,216.1091 C114,240.1991 114,242.3691 114,268.7291 " fill="none" id="travel_place_categories-travel_places" style="stroke:#181818;stroke-width:1.0;"/><line style="stroke:#181818;stroke-width:1.0;" x1="110" x2="118" y1="212.1091" y2="212.1091"/><line style="stroke:#181818;stroke-width:1.0;" x1="110" x2="118" y1="215.1091" y2="215.1091"/><line style="stroke:#181818;stroke-width:1.0;" x1="114" x2="114" y1="216.1091" y2="208.1091"/><line style="stroke:#181818;stroke-width:1.0;" x1="114" x2="120" y1="278.7291" y2="286.7291"/><line style="stroke:#181818;stroke-width:1.0;" x1="114" x2="108" y1="278.7291" y2="286.7291"/><line style="stroke:#181818;stroke-width:1.0;" x1="114" x2="114" y1="278.7291" y2="286.7291"/><ellipse cx="114" cy="272.7291" fill="none" rx="4" ry="4" style="stroke:#181818;stroke-width:1.0;"/><text fill="#000000" font-family="sans-serif" font-size="13" lengthAdjust="spacing" textLength="50" x="115" y="253.6533">category</text></g><!--SRC=[jLZTSjig4BxNKp2zEUsPoGlapdNTnbEdwTXEpvmh3P6epOa46a1kD4tU_Im_aW1XDssSN3Y6NRvTThzTmFAUiWOBNAEQCrxi1Qy9Kg8bcHma9VcEsqfjoOEQLNJ7Qi8KAk23Y2nJL5K4VRnThT27sNRsVhPPeCNw0thxaR8INNTeGtXRlSkolz35I_vW_UrciTwW-UfsirsiNupNuE8UxmXwSok9a6XUjH8sz0Rzp122lL7LeTP8z0H2VzCINQ8xkgDCcGc0qF-ep76Xw86OKOMboYiEIZcsQWpNLaHgJ2lphH7yEwr8JckmdxV2pXQ2O4NAVbtRbEFmAGkTocbfHfJyoZsd7Sh0WGCWY0XPCfahVa_O7u6QILmKH3eKQqflSJ9B7XegYFGsPqFz-7XnmNzEjdY9zbZ6IfwtLlxqSeunyaCxx4YzNS- -BLRewshsvVoismfy81NwMc6Mv5u30YyFVjpDzxkst14RUQcmKBccYmqkA_k1drqD2FDT3AgC8xaHkodGog5woKCA0ZuA4eEO5GvFnowrK3BSo3rNftPrW0HJpdB6xSxSalm_oLc4MRH2m5TRVL4fH1ihI8yFoYskyeBBDFDCr67IHj-RD95p0Xj5NsXZqejTX9p2rC-KqJ4whydZ-MBpcapMkqvnESX40TJSSU7bg-0b2Nibd3iwP8EW8h0-ohyF6gU-u70u0K14IH1Ouvq7xVfjnNQkJT-HigHcPCmTSzubBtJZSh1m_ZIk5z-MYt_EdxyrEL3o8vauOKHv0-NoZBRXejuVYteLiHA78rLNkLBqCzbR0VRpV2TusyJ6F3zEBuyN6hJUFtFeziSj5wLkEuakv_3WIDahlFjpXnp0IPSSuytgeEVuaSzGc0YjylYO2fkdwGSpmZI1EWqQRdxKZO8I0lSRFZ_rPyjNOx-6dXJ0c4jCSxSxp73LINhgz9gm0kg0DUrmV07hMkMDdvA6J9KS8LplHCGVA4VEoDZKG4511osxT4kRc3n2rID6fzKS4ZautAO1J37lc68Y_1Dr6wzdAWySHTE87rS-Ew6NrxDFY_EJUQbV5CbERjyQoSDou51y5EAoX4kwZ5XZaIJ1ejZ3FwdlQwUAGjzxu4QdkeQSGYemAwc-jiPOWLPmcGi6G4z9AbBO8sVAmwJR6Ge3az8T7SlGaSt_OjdPsNDriuNxtFkRcy_BBv_Epw8hhk0-bso7UosACqGUG0ygBZVIIMigUCkKV-Kg02cYWbqfEAzZy01piAGr3QLI_IV4X1JagSTK03p16otrwvzlAMy4dPRP10YURTtuQZDhahXtdDz3ypvLOwVt4baE7cQuqx_cm6a10RALcewJSs8ewbedjGTph71buEMobxdCXWf3OaQjCLTfLHVPkBR3E6Ke3bp_pafizlp5ERzQp3-lbflj-GjplYV5VKMbIhRuefUUOignf_smEAUAJ8hGavR1Eogwzq_RxkXKXdmFOx4r-nhPc6tHzUBwPltlQ-G3AtHDQWX4kbqMe93NMc7wyqHmHkuqBuUE6RvD9W6UW7Vv0Gu-Bdx3XFzMczmFemnwUpWk77o07FuF]--></g></svg>