<?xml version="1.0" encoding="us-ascii" standalone="no"?><svg xmlns="http://www.w3.org/2000/svg" xmlns:xlink="http://www.w3.org/1999/xlink" contentStyleType="text/css" height="688px" preserveAspectRatio="none" style="width:432px;height:688px;background:#FFFFFF;" version="1.1" viewBox="0 0 432 688" width="432px" zoomAndPan="magnify"><defs/><g><text fill="#000000" font-family="sans-serif" font-size="14" font-weight="bold" lengthAdjust="spacing" textLength="122" x="148" y="25.6953">REVIEW CLUSTER</text><!--cluster Review Cluster--><g id="cluster_Review Cluster"><path d="M8.5,46.0791 L116.5,46.0791 A3.75,3.75 0 0 1 119,48.5791 L126,71.1582 L422.5,71.1582 A2.5,2.5 0 0 1 425,73.6582 L425,678.5791 A2.5,2.5 0 0 1 422.5,681.0791 L8.5,681.0791 A2.5,2.5 0 0 1 6,678.5791 L6,48.5791 A2.5,2.5 0 0 1 8.5,46.0791 " fill="none" style="stroke:#000000;stroke-width:1.5;"/><line style="stroke:#000000;stroke-width:1.5;" x1="6" x2="126" y1="71.1582" y2="71.1582"/><text fill="#000000" font-family="sans-serif" font-size="14" font-weight="bold" lengthAdjust="spacing" textLength="107" x="10" y="63.7744">Review Cluster</text></g><!--class review_posts--><g id="elem_review_posts"><rect codeLine="117" fill="#F1F1F1" height="143.3955" id="review_posts" rx="2.5" ry="2.5" style="stroke:#181818;stroke-width:0.5;" width="122" x="150" y="192.0791"/><ellipse cx="168.6" cy="208.0791" fill="#C2C2C2" rx="11" ry="11" style="stroke:#181818;stroke-width:1.0;"/><path d="M167.4594,208.876 L167.4594,211.376 L171.7875,211.376 L171.7875,210.4541 Q171.7875,209.8447 172.0219,209.5791 Q172.2719,209.3135 172.6469,209.3135 Q173.0219,209.3135 173.2563,209.5791 Q173.4906,209.8447 173.4906,210.4541 L173.4906,213.0791 L165.4906,213.0791 Q164.8656,213.0791 164.6,212.8447 Q164.35,212.6104 164.35,212.2197 Q164.35,211.8447 164.6156,211.6104 Q164.8813,211.376 165.4906,211.376 L165.7563,211.376 L165.7563,204.7197 L165.4906,204.7197 Q164.8656,204.7197 164.6,204.4854 Q164.35,204.251 164.35,203.8604 Q164.35,203.4854 164.6,203.251 Q164.8656,203.0166 165.4906,203.0166 L173.1156,203.0166 L173.1156,205.6104 Q173.1156,206.2197 172.8813,206.4854 Q172.6625,206.7354 172.2719,206.7354 Q171.8969,206.7354 171.6625,206.4854 Q171.4281,206.2197 171.4281,205.6104 L171.4281,204.7197 L167.4594,204.7197 L167.4594,207.1729 L168.9438,207.1729 Q168.9438,206.5166 169.0688,206.3291 Q169.3344,205.9229 169.8031,205.9229 Q170.1781,205.9229 170.4125,206.1885 Q170.6469,206.4385 170.6469,207.0479 L170.6469,209.0166 Q170.6469,209.5635 170.5219,209.751 Q170.2563,210.1416 169.8031,210.1416 Q169.3344,210.1416 169.0688,209.7354 Q168.9438,209.5479 168.9438,208.876 L167.4594,208.876 Z " fill="#000000"/><text fill="#000000" font-family="sans-serif" font-size="14" lengthAdjust="spacing" textLength="82" x="183.4" y="214.2349">review_posts</text><line style="stroke:#181818;stroke-width:0.5;" x1="151" x2="271" y1="224.0791" y2="224.0791"/><ellipse cx="161" cy="239.1187" fill="#000000" rx="3" ry="3" style="stroke:#000000;stroke-width:1.0;"/><text fill="#000000" font-family="sans-serif" font-size="14" lengthAdjust="spacing" textLength="11" x="170" y="243.7744">id</text><text fill="#000000" font-family="sans-serif" font-size="14" lengthAdjust="spacing" textLength="89" x="170" y="262.8535">travel_plan_id</text><text fill="#000000" font-family="sans-serif" font-size="14" lengthAdjust="spacing" textLength="47" x="170" y="281.9326">content</text><text fill="#000000" font-family="sans-serif" font-size="14" lengthAdjust="spacing" textLength="61" x="170" y="301.0117">is_posted</text><text fill="#000000" font-family="sans-serif" font-size="14" lengthAdjust="spacing" textLength="96" x="170" y="320.0908">review_style_id</text><line style="stroke:#181818;stroke-width:0.5;" x1="151" x2="271" y1="327.4746" y2="327.4746"/></g><!--class review_photo_groups--><g id="elem_review_photo_groups"><rect codeLine="125" fill="#F1F1F1" height="86.1582" id="review_photo_groups" rx="2.5" ry="2.5" style="stroke:#181818;stroke-width:0.5;" width="168" x="22" y="395.0791"/><ellipse cx="37" cy="411.0791" fill="#C2C2C2" rx="11" ry="11" style="stroke:#181818;stroke-width:1.0;"/><path d="M35.8594,411.876 L35.8594,414.376 L40.1875,414.376 L40.1875,413.4541 Q40.1875,412.8447 40.4219,412.5791 Q40.6719,412.3135 41.0469,412.3135 Q41.4219,412.3135 41.6563,412.5791 Q41.8906,412.8447 41.8906,413.4541 L41.8906,416.0791 L33.8906,416.0791 Q33.2656,416.0791 33,415.8447 Q32.75,415.6104 32.75,415.2197 Q32.75,414.8447 33.0156,414.6104 Q33.2813,414.376 33.8906,414.376 L34.1563,414.376 L34.1563,407.7197 L33.8906,407.7197 Q33.2656,407.7197 33,407.4854 Q32.75,407.251 32.75,406.8604 Q32.75,406.4854 33,406.251 Q33.2656,406.0166 33.8906,406.0166 L41.5156,406.0166 L41.5156,408.6104 Q41.5156,409.2197 41.2813,409.4854 Q41.0625,409.7354 40.6719,409.7354 Q40.2969,409.7354 40.0625,409.4854 Q39.8281,409.2197 39.8281,408.6104 L39.8281,407.7197 L35.8594,407.7197 L35.8594,410.1729 L37.3438,410.1729 Q37.3438,409.5166 37.4688,409.3291 Q37.7344,408.9229 38.2031,408.9229 Q38.5781,408.9229 38.8125,409.1885 Q39.0469,409.4385 39.0469,410.0479 L39.0469,412.0166 Q39.0469,412.5635 38.9219,412.751 Q38.6563,413.1416 38.2031,413.1416 Q37.7344,413.1416 37.4688,412.7354 Q37.3438,412.5479 37.3438,411.876 L35.8594,411.876 Z " fill="#000000"/><text fill="#000000" font-family="sans-serif" font-size="14" lengthAdjust="spacing" textLength="136" x="51" y="417.2349">review_photo_groups</text><line style="stroke:#181818;stroke-width:0.5;" x1="23" x2="189" y1="427.0791" y2="427.0791"/><ellipse cx="33" cy="442.1187" fill="#000000" rx="3" ry="3" style="stroke:#000000;stroke-width:1.0;"/><text fill="#000000" font-family="sans-serif" font-size="14" lengthAdjust="spacing" textLength="11" x="42" y="446.7744">id</text><text fill="#000000" font-family="sans-serif" font-size="14" lengthAdjust="spacing" textLength="94" x="42" y="465.8535">review_post_id</text><line style="stroke:#181818;stroke-width:0.5;" x1="23" x2="189" y1="473.2373" y2="473.2373"/></g><!--class review_photos--><g id="elem_review_photos"><rect codeLine="130" fill="#F1F1F1" height="124.3164" id="review_photos" rx="2.5" ry="2.5" style="stroke:#181818;stroke-width:0.5;" width="123" x="44.5" y="541.0791"/><ellipse cx="59.5" cy="557.0791" fill="#C2C2C2" rx="11" ry="11" style="stroke:#181818;stroke-width:1.0;"/><path d="M58.3594,557.876 L58.3594,560.376 L62.6875,560.376 L62.6875,559.4541 Q62.6875,558.8447 62.9219,558.5791 Q63.1719,558.3135 63.5469,558.3135 Q63.9219,558.3135 64.1563,558.5791 Q64.3906,558.8447 64.3906,559.4541 L64.3906,562.0791 L56.3906,562.0791 Q55.7656,562.0791 55.5,561.8447 Q55.25,561.6104 55.25,561.2197 Q55.25,560.8447 55.5156,560.6104 Q55.7813,560.376 56.3906,560.376 L56.6563,560.376 L56.6563,553.7197 L56.3906,553.7197 Q55.7656,553.7197 55.5,553.4854 Q55.25,553.251 55.25,552.8604 Q55.25,552.4854 55.5,552.251 Q55.7656,552.0166 56.3906,552.0166 L64.0156,552.0166 L64.0156,554.6104 Q64.0156,555.2197 63.7813,555.4854 Q63.5625,555.7354 63.1719,555.7354 Q62.7969,555.7354 62.5625,555.4854 Q62.3281,555.2197 62.3281,554.6104 L62.3281,553.7197 L58.3594,553.7197 L58.3594,556.1729 L59.8438,556.1729 Q59.8438,555.5166 59.9688,555.3291 Q60.2344,554.9229 60.7031,554.9229 Q61.0781,554.9229 61.3125,555.1885 Q61.5469,555.4385 61.5469,556.0479 L61.5469,558.0166 Q61.5469,558.5635 61.4219,558.751 Q61.1563,559.1416 60.7031,559.1416 Q60.2344,559.1416 59.9688,558.7354 Q59.8438,558.5479 59.8438,557.876 L58.3594,557.876 Z " fill="#000000"/><text fill="#000000" font-family="sans-serif" font-size="14" lengthAdjust="spacing" textLength="91" x="73.5" y="563.2349">review_photos</text><line style="stroke:#181818;stroke-width:0.5;" x1="45.5" x2="166.5" y1="573.0791" y2="573.0791"/><ellipse cx="55.5" cy="588.1187" fill="#000000" rx="3" ry="3" style="stroke:#000000;stroke-width:1.0;"/><text fill="#000000" font-family="sans-serif" font-size="14" lengthAdjust="spacing" textLength="11" x="64.5" y="592.7744">id</text><text fill="#000000" font-family="sans-serif" font-size="14" lengthAdjust="spacing" textLength="56" x="64.5" y="611.8535">group_id</text><text fill="#000000" font-family="sans-serif" font-size="14" lengthAdjust="spacing" textLength="42" x="64.5" y="630.9326">file_url</text><text fill="#000000" font-family="sans-serif" font-size="14" lengthAdjust="spacing" textLength="75" x="64.5" y="650.0117">order_index</text><line style="stroke:#181818;stroke-width:0.5;" x1="45.5" x2="166.5" y1="657.3955" y2="657.3955"/></g><!--class review_hashtag_groups--><g id="elem_review_hashtag_groups"><rect codeLine="137" fill="#F1F1F1" height="86.1582" id="review_hashtag_groups" rx="2.5" ry="2.5" style="stroke:#181818;stroke-width:0.5;" width="183" x="225.5" y="395.0791"/><ellipse cx="240.5" cy="411.0791" fill="#C2C2C2" rx="11" ry="11" style="stroke:#181818;stroke-width:1.0;"/><path d="M239.3594,411.876 L239.3594,414.376 L243.6875,414.376 L243.6875,413.4541 Q243.6875,412.8447 243.9219,412.5791 Q244.1719,412.3135 244.5469,412.3135 Q244.9219,412.3135 245.1563,412.5791 Q245.3906,412.8447 245.3906,413.4541 L245.3906,416.0791 L237.3906,416.0791 Q236.7656,416.0791 236.5,415.8447 Q236.25,415.6104 236.25,415.2197 Q236.25,414.8447 236.5156,414.6104 Q236.7813,414.376 237.3906,414.376 L237.6563,414.376 L237.6563,407.7197 L237.3906,407.7197 Q236.7656,407.7197 236.5,407.4854 Q236.25,407.251 236.25,406.8604 Q236.25,406.4854 236.5,406.251 Q236.7656,406.0166 237.3906,406.0166 L245.0156,406.0166 L245.0156,408.6104 Q245.0156,409.2197 244.7813,409.4854 Q244.5625,409.7354 244.1719,409.7354 Q243.7969,409.7354 243.5625,409.4854 Q243.3281,409.2197 243.3281,408.6104 L243.3281,407.7197 L239.3594,407.7197 L239.3594,410.1729 L240.8438,410.1729 Q240.8438,409.5166 240.9688,409.3291 Q241.2344,408.9229 241.7031,408.9229 Q242.0781,408.9229 242.3125,409.1885 Q242.5469,409.4385 242.5469,410.0479 L242.5469,412.0166 Q242.5469,412.5635 242.4219,412.751 Q242.1563,413.1416 241.7031,413.1416 Q241.2344,413.1416 240.9688,412.7354 Q240.8438,412.5479 240.8438,411.876 L239.3594,411.876 Z " fill="#000000"/><text fill="#000000" font-family="sans-serif" font-size="14" lengthAdjust="spacing" textLength="151" x="254.5" y="417.2349">review_hashtag_groups</text><line style="stroke:#181818;stroke-width:0.5;" x1="226.5" x2="407.5" y1="427.0791" y2="427.0791"/><ellipse cx="236.5" cy="442.1187" fill="#000000" rx="3" ry="3" style="stroke:#000000;stroke-width:1.0;"/><text fill="#000000" font-family="sans-serif" font-size="14" lengthAdjust="spacing" textLength="11" x="245.5" y="446.7744">id</text><text fill="#000000" font-family="sans-serif" font-size="14" lengthAdjust="spacing" textLength="94" x="245.5" y="465.8535">review_post_id</text><line style="stroke:#181818;stroke-width:0.5;" x1="226.5" x2="407.5" y1="473.2373" y2="473.2373"/></g><!--class review_hashtags--><g id="elem_review_hashtags"><rect codeLine="142" fill="#F1F1F1" height="105.2373" id="review_hashtags" rx="2.5" ry="2.5" style="stroke:#181818;stroke-width:0.5;" width="138" x="248" y="550.5791"/><ellipse cx="263" cy="566.5791" fill="#C2C2C2" rx="11" ry="11" style="stroke:#181818;stroke-width:1.0;"/><path d="M261.8594,567.376 L261.8594,569.876 L266.1875,569.876 L266.1875,568.9541 Q266.1875,568.3447 266.4219,568.0791 Q266.6719,567.8135 267.0469,567.8135 Q267.4219,567.8135 267.6563,568.0791 Q267.8906,568.3447 267.8906,568.9541 L267.8906,571.5791 L259.8906,571.5791 Q259.2656,571.5791 259,571.3447 Q258.75,571.1104 258.75,570.7197 Q258.75,570.3447 259.0156,570.1104 Q259.2813,569.876 259.8906,569.876 L260.1563,569.876 L260.1563,563.2197 L259.8906,563.2197 Q259.2656,563.2197 259,562.9854 Q258.75,562.751 258.75,562.3604 Q258.75,561.9854 259,561.751 Q259.2656,561.5166 259.8906,561.5166 L267.5156,561.5166 L267.5156,564.1104 Q267.5156,564.7197 267.2813,564.9854 Q267.0625,565.2354 266.6719,565.2354 Q266.2969,565.2354 266.0625,564.9854 Q265.8281,564.7197 265.8281,564.1104 L265.8281,563.2197 L261.8594,563.2197 L261.8594,565.6729 L263.3438,565.6729 Q263.3438,565.0166 263.4688,564.8291 Q263.7344,564.4229 264.2031,564.4229 Q264.5781,564.4229 264.8125,564.6885 Q265.0469,564.9385 265.0469,565.5479 L265.0469,567.5166 Q265.0469,568.0635 264.9219,568.251 Q264.6563,568.6416 264.2031,568.6416 Q263.7344,568.6416 263.4688,568.2354 Q263.3438,568.0479 263.3438,567.376 L261.8594,567.376 Z " fill="#000000"/><text fill="#000000" font-family="sans-serif" font-size="14" lengthAdjust="spacing" textLength="106" x="277" y="572.7349">review_hashtags</text><line style="stroke:#181818;stroke-width:0.5;" x1="249" x2="385" y1="582.5791" y2="582.5791"/><ellipse cx="259" cy="597.6187" fill="#000000" rx="3" ry="3" style="stroke:#000000;stroke-width:1.0;"/><text fill="#000000" font-family="sans-serif" font-size="14" lengthAdjust="spacing" textLength="11" x="268" y="602.2744">id</text><text fill="#000000" font-family="sans-serif" font-size="14" lengthAdjust="spacing" textLength="56" x="268" y="621.3535">group_id</text><text fill="#000000" font-family="sans-serif" font-size="14" lengthAdjust="spacing" textLength="35" x="268" y="640.4326">name</text><line style="stroke:#181818;stroke-width:0.5;" x1="249" x2="385" y1="647.8164" y2="647.8164"/></g><!--class plans--><g id="elem_plans"><rect fill="#F1F1F1" height="48" id="plans" rx="2.5" ry="2.5" style="stroke:#181818;stroke-width:0.5;" width="66" x="178" y="84.0791"/><ellipse cx="193" cy="100.0791" fill="#C2C2C2" rx="11" ry="11" style="stroke:#181818;stroke-width:1.0;"/><path d="M195.7656,95.9541 Q195.9219,95.7354 196.1094,95.626 Q196.2969,95.5166 196.5156,95.5166 Q196.8906,95.5166 197.125,95.7822 Q197.3594,96.0322 197.3594,96.6416 L197.3594,98.0947 Q197.3594,98.7041 197.125,98.9697 Q196.8906,99.2354 196.5156,99.2354 Q196.1719,99.2354 195.9688,99.0322 Q195.7656,98.8447 195.6563,98.3291 Q195.6094,97.9697 195.4219,97.7822 Q195.0938,97.4072 194.4844,97.1885 Q193.875,96.9697 193.25,96.9697 Q192.4844,96.9697 191.8438,97.2979 Q191.2188,97.626 190.7188,98.376 Q190.2344,99.126 190.2344,100.1572 L190.2344,101.251 Q190.2344,102.4854 191.125,103.3135 Q192.0156,104.126 193.6094,104.126 Q194.5469,104.126 195.2031,103.876 Q195.5938,103.7197 196.0156,103.2822 Q196.2813,103.0166 196.4219,102.9385 Q196.5781,102.8604 196.7813,102.8604 Q197.1094,102.8604 197.3594,103.126 Q197.625,103.376 197.625,103.7197 Q197.625,104.0635 197.2813,104.4697 Q196.7813,105.0479 195.9844,105.376 Q194.9063,105.8291 193.6094,105.8291 Q192.0938,105.8291 190.8906,105.2041 Q189.9063,104.7041 189.2188,103.6416 Q188.5313,102.5635 188.5313,101.2822 L188.5313,100.126 Q188.5313,98.7979 189.1406,97.6572 Q189.7656,96.501 190.8594,95.8916 Q191.9531,95.2666 193.1875,95.2666 Q193.9219,95.2666 194.5625,95.4385 Q195.2188,95.5947 195.7656,95.9541 Z " fill="#000000"/><text fill="#000000" font-family="sans-serif" font-size="14" lengthAdjust="spacing" textLength="34" x="207" y="106.2349">plans</text><line style="stroke:#181818;stroke-width:0.5;" x1="179" x2="243" y1="116.0791" y2="116.0791"/><line style="stroke:#181818;stroke-width:0.5;" x1="179" x2="243" y1="124.0791" y2="124.0791"/></g><!--link plans to review_posts--><g id="link_plans_review_posts"><path codeLine="148" d="M211,140.3891 C211,156.3291 211,152.3591 211,173.7791 " fill="none" id="plans-review_posts" style="stroke:#181818;stroke-width:1.0;"/><line style="stroke:#181818;stroke-width:1.0;" x1="207" x2="215" y1="136.3891" y2="136.3891"/><line style="stroke:#181818;stroke-width:1.0;" x1="207" x2="215" y1="139.3891" y2="139.3891"/><line style="stroke:#181818;stroke-width:1.0;" x1="211" x2="211" y1="140.3891" y2="132.3891"/><line style="stroke:#181818;stroke-width:1.0;" x1="211" x2="217" y1="183.7791" y2="191.7791"/><line style="stroke:#181818;stroke-width:1.0;" x1="211" x2="205" y1="183.7791" y2="191.7791"/><line style="stroke:#181818;stroke-width:1.0;" x1="211" x2="211" y1="183.7791" y2="191.7791"/><ellipse cx="211" cy="177.7791" fill="none" rx="4" ry="4" style="stroke:#181818;stroke-width:1.0;"/></g><!--link review_posts to review_photo_groups--><g id="link_review_posts_review_photo_groups"><path codeLine="149" d="M163.829,342.0718 C151.479,362.3518 146.7301,370.1658 135.7901,388.1358 " fill="none" id="review_posts-review_photo_groups" style="stroke:#181818;stroke-width:1.0;"/><line style="stroke:#181818;stroke-width:1.0;" x1="162.4931" x2="169.3259" y1="336.575" y2="340.736"/><line style="stroke:#181818;stroke-width:1.0;" x1="160.9328" x2="167.7655" y1="339.1373" y2="343.2982"/><line style="stroke:#181818;stroke-width:1.0;" x1="163.829" x2="167.99" y1="342.0718" y2="335.2391"/><line style="stroke:#181818;stroke-width:1.0;" x1="137.1267" x2="130.2934" y1="393.6325" y2="389.4724"/><line style="stroke:#181818;stroke-width:1.0;" x1="138.6867" x2="131.8534" y1="391.07" y2="386.9099"/><line style="stroke:#181818;stroke-width:1.0;" x1="135.7901" x2="131.63" y1="388.1358" y2="394.9691"/></g><!--link review_photo_groups to review_photos--><g id="link_review_photo_groups_review_photos"><path codeLine="150" d="M106,489.4791 C106,507.5891 106,503.0791 106,522.8591 " fill="none" id="review_photo_groups-review_photos" style="stroke:#181818;stroke-width:1.0;"/><line style="stroke:#181818;stroke-width:1.0;" x1="102" x2="110" y1="485.4791" y2="485.4791"/><line style="stroke:#181818;stroke-width:1.0;" x1="102" x2="110" y1="488.4791" y2="488.4791"/><line style="stroke:#181818;stroke-width:1.0;" x1="106" x2="106" y1="489.4791" y2="481.4791"/><line style="stroke:#181818;stroke-width:1.0;" x1="106" x2="112" y1="532.8591" y2="540.8591"/><line style="stroke:#181818;stroke-width:1.0;" x1="106" x2="100" y1="532.8591" y2="540.8591"/><line style="stroke:#181818;stroke-width:1.0;" x1="106" x2="106" y1="532.8591" y2="540.8591"/><ellipse cx="106" cy="526.8591" fill="none" rx="4" ry="4" style="stroke:#181818;stroke-width:1.0;"/></g><!--link review_posts to review_hashtag_groups--><g id="link_review_posts_review_hashtag_groups"><path codeLine="151" d="M258.6079,342.0554 C271.0679,362.3354 275.8923,370.1827 286.9323,388.1527 " fill="none" id="review_posts-review_hashtag_groups" style="stroke:#181818;stroke-width:1.0;"/><line style="stroke:#181818;stroke-width:1.0;" x1="253.1058" x2="259.9221" y1="340.7412" y2="336.5533"/><line style="stroke:#181818;stroke-width:1.0;" x1="254.6763" x2="261.4925" y1="343.2973" y2="339.1094"/><line style="stroke:#181818;stroke-width:1.0;" x1="258.6079" x2="254.42" y1="342.0554" y2="335.2391"/><line style="stroke:#181818;stroke-width:1.0;" x1="292.4343" x2="285.618" y1="389.4671" y2="393.6548"/><line style="stroke:#181818;stroke-width:1.0;" x1="290.864" x2="284.0476" y1="386.9109" y2="391.0986"/><line style="stroke:#181818;stroke-width:1.0;" x1="286.9323" x2="291.12" y1="388.1527" y2="394.9691"/></g><!--link review_hashtag_groups to review_hashtags--><g id="link_review_hashtag_groups_review_hashtags"><path codeLine="152" d="M317,489.4791 C317,510.5191 317,510.1091 317,532.2891 " fill="none" id="review_hashtag_groups-review_hashtags" style="stroke:#181818;stroke-width:1.0;"/><line style="stroke:#181818;stroke-width:1.0;" x1="313" x2="321" y1="485.4791" y2="485.4791"/><line style="stroke:#181818;stroke-width:1.0;" x1="313" x2="321" y1="488.4791" y2="488.4791"/><line style="stroke:#181818;stroke-width:1.0;" x1="317" x2="317" y1="489.4791" y2="481.4791"/><line style="stroke:#181818;stroke-width:1.0;" x1="317" x2="323" y1="542.2891" y2="550.2891"/><line style="stroke:#181818;stroke-width:1.0;" x1="317" x2="311" y1="542.2891" y2="550.2891"/><line style="stroke:#181818;stroke-width:1.0;" x1="317" x2="317" y1="542.2891" y2="550.2891"/><ellipse cx="317" cy="536.2891" fill="none" rx="4" ry="4" style="stroke:#181818;stroke-width:1.0;"/></g><!--SRC=[jLZTSjig4BxNKp2zEUsPoGlapdNTnbEdwTXEpvmh3P6epOa46a1kD4tU_Im_aW1XDssSN3Y6NRvTThzTmFAUiWOBNAEQCrxi1Qy9Kg8bcHma9VcEsqfjoOEQLNJ7Qi8KAk23Y2nJL5K4VRnThT27sNRsVhPPeCNw0thxaR8INNTeGtXRlSkolz35I_vW_UrciTwW-UfsirsiNupNuE8UxmXwSok9a6XUjH8sz0Rzp122lL7LeTP8z0H2VzCINQ8xkgDCcGc0qF-ep76Xw86OKOMboYiEIZcsQWpNLaHgJ2lphH7yEwr8JckmdxV2pXQ2O4NAVbtRbEFmAGkTocbfHfJyoZsd7Sh0WGCWY0XPCfahVa_O7u6QILmKH3eKQqflSJ9B7XegYFGsPqFz-7XnmNzEjdY9zbZ6IfwtLlxqSeunyaCxx4YzNS- -BLRewshsvVoismfy81NwMc6Mv5u30YyFVjpDzxkst14RUQcmKBccYmqkA_k1drqD2FDT3AgC8xaHkodGog5woKCA0ZuA4eEO5GvFnowrK3BSo3rNftPrW0HJpdB6xSxSalm_oLc4MRH2m5TRVL4fH1ihI8yFoYskyeBBDFDCr67IHj-RD95p0Xj5NsXZqejTX9p2rC-KqJ4whydZ-MBpcapMkqvnESX40TJSSU7bg-0b2Nibd3iwP8EW8h0-ohyF6gU-u70u0K14IH1Ouvq7xVfjnNQkJT-HigHcPCmTSzubBtJZSh1m_ZIk5z-MYt_EdxyrEL3o8vauOKHv0-NoZBRXejuVYteLiHA78rLNkLBqCzbR0VRpV2TusyJ6F3zEBuyN6hJUFtFeziSj5wLkEuakv_3WIDahlFjpXnp0IPSSuytgeEVuaSzGc0YjylYO2fkdwGSpmZI1EWqQRdxKZO8I0lSRFZ_rPyjNOx-6dXJ0c4jCSxSxp73LINhgz9gm0kg0DUrmV07hMkMDdvA6J9KS8LplHCGVA4VEoDZKG4511osxT4kRc3n2rID6fzKS4ZautAO1J37lc68Y_1Dr6wzdAWySHTE87rS-Ew6NrxDFY_EJUQbV5CbERjyQoSDou51y5EAoX4kwZ5XZaIJ1ejZ3FwdlQwUAGjzxu4QdkeQSGYemAwc-jiPOWLPmcGi6G4z9AbBO8sVAmwJR6Ge3az8T7SlGaSt_OjdPsNDriuNxtFkRcy_BBv_Epw8hhk0-bso7UosACqGUG0ygBZVIIMigUCkKV-Kg02cYWbqfEAzZy01piAGr3QLI_IV4X1JagSTK03p16otrwvzlAMy4dPRP10YURTtuQZDhahXtdDz3ypvLOwVt4baE7cQuqx_cm6a10RALcewJSs8ewbedjGTph71buEMobxdCXWf3OaQjCLTfLHVPkBR3E6Ke3bp_pafizlp5ERzQp3-lbflj-GjplYV5VKMbIhRuefUUOignf_smEAUAJ8hGavR1Eogwzq_RxkXKXdmFOx4r-nhPc6tHzUBwPltlQ-G3AtHDQWX4kbqMe93NMc7wyqHmHkuqBuUE6RvD9W6UW7Vv0Gu-Bdx3XFzMczmFemnwUpWk77o07FuF]--></g></svg>