<?xml version="1.0" encoding="us-ascii" standalone="no"?><svg xmlns="http://www.w3.org/2000/svg" xmlns:xlink="http://www.w3.org/1999/xlink" contentStyleType="text/css" height="853px" preserveAspectRatio="none" style="width:302px;height:853px;background:#FFFFFF;" version="1.1" viewBox="0 0 302 853" width="302px" zoomAndPan="magnify"><defs/><g><text fill="#000000" font-family="sans-serif" font-size="14" font-weight="bold" lengthAdjust="spacing" textLength="161" x="63.5" y="25.6953">TRAVEL PLAN CLUSTER</text><!--cluster Travel Plan Cluster--><g id="cluster_Travel Plan Cluster"><path d="M8.5,46.0791 L142.5,46.0791 A3.75,3.75 0 0 1 145,48.5791 L152,71.1582 L292.5,71.1582 A2.5,2.5 0 0 1 295,73.6582 L295,843.5791 A2.5,2.5 0 0 1 292.5,846.0791 L8.5,846.0791 A2.5,2.5 0 0 1 6,843.5791 L6,48.5791 A2.5,2.5 0 0 1 8.5,46.0791 " fill="none" style="stroke:#000000;stroke-width:1.5;"/><line style="stroke:#000000;stroke-width:1.5;" x1="6" x2="152" y1="71.1582" y2="71.1582"/><text fill="#000000" font-family="sans-serif" font-size="14" font-weight="bold" lengthAdjust="spacing" textLength="133" x="10" y="63.7744">Travel Plan Cluster</text></g><!--class plans--><g id="elem_plans"><rect codeLine="47" fill="#F1F1F1" height="143.3955" id="plans" rx="2.5" ry="2.5" style="stroke:#181818;stroke-width:0.5;" width="90" x="22" y="192.0791"/><ellipse cx="47.8" cy="208.0791" fill="#C2C2C2" rx="11" ry="11" style="stroke:#181818;stroke-width:1.0;"/><path d="M46.6594,208.876 L46.6594,211.376 L50.9875,211.376 L50.9875,210.4541 Q50.9875,209.8447 51.2219,209.5791 Q51.4719,209.3135 51.8469,209.3135 Q52.2219,209.3135 52.4563,209.5791 Q52.6906,209.8447 52.6906,210.4541 L52.6906,213.0791 L44.6906,213.0791 Q44.0656,213.0791 43.8,212.8447 Q43.55,212.6104 43.55,212.2197 Q43.55,211.8447 43.8156,211.6104 Q44.0813,211.376 44.6906,211.376 L44.9563,211.376 L44.9563,204.7197 L44.6906,204.7197 Q44.0656,204.7197 43.8,204.4854 Q43.55,204.251 43.55,203.8604 Q43.55,203.4854 43.8,203.251 Q44.0656,203.0166 44.6906,203.0166 L52.3156,203.0166 L52.3156,205.6104 Q52.3156,206.2197 52.0813,206.4854 Q51.8625,206.7354 51.4719,206.7354 Q51.0969,206.7354 50.8625,206.4854 Q50.6281,206.2197 50.6281,205.6104 L50.6281,204.7197 L46.6594,204.7197 L46.6594,207.1729 L48.1438,207.1729 Q48.1438,206.5166 48.2688,206.3291 Q48.5344,205.9229 49.0031,205.9229 Q49.3781,205.9229 49.6125,206.1885 Q49.8469,206.4385 49.8469,207.0479 L49.8469,209.0166 Q49.8469,209.5635 49.7219,209.751 Q49.4563,210.1416 49.0031,210.1416 Q48.5344,210.1416 48.2688,209.7354 Q48.1438,209.5479 48.1438,208.876 L46.6594,208.876 Z " fill="#000000"/><text fill="#000000" font-family="sans-serif" font-size="14" lengthAdjust="spacing" textLength="34" x="64.2" y="214.2349">plans</text><line style="stroke:#181818;stroke-width:0.5;" x1="23" x2="111" y1="224.0791" y2="224.0791"/><ellipse cx="33" cy="239.1187" fill="#000000" rx="3" ry="3" style="stroke:#000000;stroke-width:1.0;"/><text fill="#000000" font-family="sans-serif" font-size="14" lengthAdjust="spacing" textLength="11" x="42" y="243.7744">id</text><text fill="#000000" font-family="sans-serif" font-size="14" lengthAdjust="spacing" textLength="47" x="42" y="262.8535">user_id</text><text fill="#000000" font-family="sans-serif" font-size="14" lengthAdjust="spacing" textLength="44" x="42" y="281.9326">budget</text><text fill="#000000" font-family="sans-serif" font-size="14" lengthAdjust="spacing" textLength="64" x="42" y="301.0117">start_date</text><text fill="#000000" font-family="sans-serif" font-size="14" lengthAdjust="spacing" textLength="60" x="42" y="320.0908">end_date</text><line style="stroke:#181818;stroke-width:0.5;" x1="23" x2="111" y1="327.4746" y2="327.4746"/></g><!--class plan_days--><g id="elem_plan_days"><rect codeLine="55" fill="#F1F1F1" height="105.2373" id="plan_days" rx="2.5" ry="2.5" style="stroke:#181818;stroke-width:0.5;" width="115" x="28.5" y="395.0791"/><ellipse cx="51.6" cy="411.0791" fill="#C2C2C2" rx="11" ry="11" style="stroke:#181818;stroke-width:1.0;"/><path d="M50.4594,411.876 L50.4594,414.376 L54.7875,414.376 L54.7875,413.4541 Q54.7875,412.8447 55.0219,412.5791 Q55.2719,412.3135 55.6469,412.3135 Q56.0219,412.3135 56.2563,412.5791 Q56.4906,412.8447 56.4906,413.4541 L56.4906,416.0791 L48.4906,416.0791 Q47.8656,416.0791 47.6,415.8447 Q47.35,415.6104 47.35,415.2197 Q47.35,414.8447 47.6156,414.6104 Q47.8813,414.376 48.4906,414.376 L48.7563,414.376 L48.7563,407.7197 L48.4906,407.7197 Q47.8656,407.7197 47.6,407.4854 Q47.35,407.251 47.35,406.8604 Q47.35,406.4854 47.6,406.251 Q47.8656,406.0166 48.4906,406.0166 L56.1156,406.0166 L56.1156,408.6104 Q56.1156,409.2197 55.8813,409.4854 Q55.6625,409.7354 55.2719,409.7354 Q54.8969,409.7354 54.6625,409.4854 Q54.4281,409.2197 54.4281,408.6104 L54.4281,407.7197 L50.4594,407.7197 L50.4594,410.1729 L51.9438,410.1729 Q51.9438,409.5166 52.0688,409.3291 Q52.3344,408.9229 52.8031,408.9229 Q53.1781,408.9229 53.4125,409.1885 Q53.6469,409.4385 53.6469,410.0479 L53.6469,412.0166 Q53.6469,412.5635 53.5219,412.751 Q53.2563,413.1416 52.8031,413.1416 Q52.3344,413.1416 52.0688,412.7354 Q51.9438,412.5479 51.9438,411.876 L50.4594,411.876 Z " fill="#000000"/><text fill="#000000" font-family="sans-serif" font-size="14" lengthAdjust="spacing" textLength="65" x="67.4" y="417.2349">plan_days</text><line style="stroke:#181818;stroke-width:0.5;" x1="29.5" x2="142.5" y1="427.0791" y2="427.0791"/><ellipse cx="39.5" cy="442.1187" fill="#000000" rx="3" ry="3" style="stroke:#000000;stroke-width:1.0;"/><text fill="#000000" font-family="sans-serif" font-size="14" lengthAdjust="spacing" textLength="11" x="48.5" y="446.7744">id</text><text fill="#000000" font-family="sans-serif" font-size="14" lengthAdjust="spacing" textLength="89" x="48.5" y="465.8535">travel_plan_id</text><text fill="#000000" font-family="sans-serif" font-size="14" lengthAdjust="spacing" textLength="64" x="48.5" y="484.9326">day_index</text><line style="stroke:#181818;stroke-width:0.5;" x1="29.5" x2="142.5" y1="492.3164" y2="492.3164"/></g><!--class plan_places--><g id="elem_plan_places"><rect codeLine="61" fill="#F1F1F1" height="105.2373" id="plan_places" rx="2.5" ry="2.5" style="stroke:#181818;stroke-width:0.5;" width="108" x="35" y="560.0791"/><ellipse cx="50" cy="576.0791" fill="#C2C2C2" rx="11" ry="11" style="stroke:#181818;stroke-width:1.0;"/><path d="M48.8594,576.876 L48.8594,579.376 L53.1875,579.376 L53.1875,578.4541 Q53.1875,577.8447 53.4219,577.5791 Q53.6719,577.3135 54.0469,577.3135 Q54.4219,577.3135 54.6563,577.5791 Q54.8906,577.8447 54.8906,578.4541 L54.8906,581.0791 L46.8906,581.0791 Q46.2656,581.0791 46,580.8447 Q45.75,580.6104 45.75,580.2197 Q45.75,579.8447 46.0156,579.6104 Q46.2813,579.376 46.8906,579.376 L47.1563,579.376 L47.1563,572.7197 L46.8906,572.7197 Q46.2656,572.7197 46,572.4854 Q45.75,572.251 45.75,571.8604 Q45.75,571.4854 46,571.251 Q46.2656,571.0166 46.8906,571.0166 L54.5156,571.0166 L54.5156,573.6104 Q54.5156,574.2197 54.2813,574.4854 Q54.0625,574.7354 53.6719,574.7354 Q53.2969,574.7354 53.0625,574.4854 Q52.8281,574.2197 52.8281,573.6104 L52.8281,572.7197 L48.8594,572.7197 L48.8594,575.1729 L50.3438,575.1729 Q50.3438,574.5166 50.4688,574.3291 Q50.7344,573.9229 51.2031,573.9229 Q51.5781,573.9229 51.8125,574.1885 Q52.0469,574.4385 52.0469,575.0479 L52.0469,577.0166 Q52.0469,577.5635 51.9219,577.751 Q51.6563,578.1416 51.2031,578.1416 Q50.7344,578.1416 50.4688,577.7354 Q50.3438,577.5479 50.3438,576.876 L48.8594,576.876 Z " fill="#000000"/><text fill="#000000" font-family="sans-serif" font-size="14" lengthAdjust="spacing" textLength="76" x="64" y="582.2349">plan_places</text><line style="stroke:#181818;stroke-width:0.5;" x1="36" x2="142" y1="592.0791" y2="592.0791"/><ellipse cx="46" cy="607.1187" fill="#000000" rx="3" ry="3" style="stroke:#000000;stroke-width:1.0;"/><text fill="#000000" font-family="sans-serif" font-size="14" lengthAdjust="spacing" textLength="11" x="55" y="611.7744">id</text><text fill="#000000" font-family="sans-serif" font-size="14" lengthAdjust="spacing" textLength="42" x="55" y="630.8535">day_id</text><text fill="#000000" font-family="sans-serif" font-size="14" lengthAdjust="spacing" textLength="22" x="55" y="649.9326">title</text><line style="stroke:#181818;stroke-width:0.5;" x1="36" x2="142" y1="657.3164" y2="657.3164"/></g><!--class plan_snapshots--><g id="elem_plan_snapshots"><rect codeLine="67" fill="#F1F1F1" height="124.3164" id="plan_snapshots" rx="2.5" ry="2.5" style="stroke:#181818;stroke-width:0.5;" width="132" x="147" y="201.5791"/><ellipse cx="162" cy="217.5791" fill="#C2C2C2" rx="11" ry="11" style="stroke:#181818;stroke-width:1.0;"/><path d="M160.8594,218.376 L160.8594,220.876 L165.1875,220.876 L165.1875,219.9541 Q165.1875,219.3447 165.4219,219.0791 Q165.6719,218.8135 166.0469,218.8135 Q166.4219,218.8135 166.6563,219.0791 Q166.8906,219.3447 166.8906,219.9541 L166.8906,222.5791 L158.8906,222.5791 Q158.2656,222.5791 158,222.3447 Q157.75,222.1104 157.75,221.7197 Q157.75,221.3447 158.0156,221.1104 Q158.2813,220.876 158.8906,220.876 L159.1563,220.876 L159.1563,214.2197 L158.8906,214.2197 Q158.2656,214.2197 158,213.9854 Q157.75,213.751 157.75,213.3604 Q157.75,212.9854 158,212.751 Q158.2656,212.5166 158.8906,212.5166 L166.5156,212.5166 L166.5156,215.1104 Q166.5156,215.7197 166.2813,215.9854 Q166.0625,216.2354 165.6719,216.2354 Q165.2969,216.2354 165.0625,215.9854 Q164.8281,215.7197 164.8281,215.1104 L164.8281,214.2197 L160.8594,214.2197 L160.8594,216.6729 L162.3438,216.6729 Q162.3438,216.0166 162.4688,215.8291 Q162.7344,215.4229 163.2031,215.4229 Q163.5781,215.4229 163.8125,215.6885 Q164.0469,215.9385 164.0469,216.5479 L164.0469,218.5166 Q164.0469,219.0635 163.9219,219.251 Q163.6563,219.6416 163.2031,219.6416 Q162.7344,219.6416 162.4688,219.2354 Q162.3438,219.0479 162.3438,218.376 L160.8594,218.376 Z " fill="#000000"/><text fill="#000000" font-family="sans-serif" font-size="14" lengthAdjust="spacing" textLength="100" x="176" y="223.7349">plan_snapshots</text><line style="stroke:#181818;stroke-width:0.5;" x1="148" x2="278" y1="233.5791" y2="233.5791"/><ellipse cx="158" cy="248.6187" fill="#000000" rx="3" ry="3" style="stroke:#000000;stroke-width:1.0;"/><text fill="#000000" font-family="sans-serif" font-size="14" lengthAdjust="spacing" textLength="11" x="167" y="253.2744">id</text><text fill="#000000" font-family="sans-serif" font-size="14" lengthAdjust="spacing" textLength="47" x="167" y="272.3535">user_id</text><text fill="#000000" font-family="sans-serif" font-size="14" lengthAdjust="spacing" textLength="70" x="167" y="291.4326">version_no</text><text fill="#000000" font-family="sans-serif" font-size="14" lengthAdjust="spacing" textLength="92" x="167" y="310.5117">snapshot_json</text><line style="stroke:#181818;stroke-width:0.5;" x1="148" x2="278" y1="317.8955" y2="317.8955"/></g><!--class current_activities--><g id="elem_current_activities"><rect codeLine="74" fill="#F1F1F1" height="105.2373" id="current_activities" rx="2.5" ry="2.5" style="stroke:#181818;stroke-width:0.5;" width="139" x="22.5" y="725.0791"/><ellipse cx="37.5" cy="741.0791" fill="#C2C2C2" rx="11" ry="11" style="stroke:#181818;stroke-width:1.0;"/><path d="M36.3594,741.876 L36.3594,744.376 L40.6875,744.376 L40.6875,743.4541 Q40.6875,742.8447 40.9219,742.5791 Q41.1719,742.3135 41.5469,742.3135 Q41.9219,742.3135 42.1563,742.5791 Q42.3906,742.8447 42.3906,743.4541 L42.3906,746.0791 L34.3906,746.0791 Q33.7656,746.0791 33.5,745.8447 Q33.25,745.6104 33.25,745.2197 Q33.25,744.8447 33.5156,744.6104 Q33.7813,744.376 34.3906,744.376 L34.6563,744.376 L34.6563,737.7197 L34.3906,737.7197 Q33.7656,737.7197 33.5,737.4854 Q33.25,737.251 33.25,736.8604 Q33.25,736.4854 33.5,736.251 Q33.7656,736.0166 34.3906,736.0166 L42.0156,736.0166 L42.0156,738.6104 Q42.0156,739.2197 41.7813,739.4854 Q41.5625,739.7354 41.1719,739.7354 Q40.7969,739.7354 40.5625,739.4854 Q40.3281,739.2197 40.3281,738.6104 L40.3281,737.7197 L36.3594,737.7197 L36.3594,740.1729 L37.8438,740.1729 Q37.8438,739.5166 37.9688,739.3291 Q38.2344,738.9229 38.7031,738.9229 Q39.0781,738.9229 39.3125,739.1885 Q39.5469,739.4385 39.5469,740.0479 L39.5469,742.0166 Q39.5469,742.5635 39.4219,742.751 Q39.1563,743.1416 38.7031,743.1416 Q38.2344,743.1416 37.9688,742.7354 Q37.8438,742.5479 37.8438,741.876 L36.3594,741.876 Z " fill="#000000"/><text fill="#000000" font-family="sans-serif" font-size="14" lengthAdjust="spacing" textLength="107" x="51.5" y="747.2349">current_activities</text><line style="stroke:#181818;stroke-width:0.5;" x1="23.5" x2="160.5" y1="757.0791" y2="757.0791"/><ellipse cx="33.5" cy="772.1187" fill="#000000" rx="3" ry="3" style="stroke:#000000;stroke-width:1.0;"/><text fill="#000000" font-family="sans-serif" font-size="14" lengthAdjust="spacing" textLength="11" x="42.5" y="776.7744">id</text><text fill="#000000" font-family="sans-serif" font-size="14" lengthAdjust="spacing" textLength="96" x="42.5" y="795.8535">travel_place_id</text><text fill="#000000" font-family="sans-serif" font-size="14" lengthAdjust="spacing" textLength="72" x="42.5" y="814.9326">actual_cost</text><line style="stroke:#181818;stroke-width:0.5;" x1="23.5" x2="160.5" y1="822.3164" y2="822.3164"/></g><!--class users--><g id="elem_users"><rect fill="#F1F1F1" height="48" id="users" rx="2.5" ry="2.5" style="stroke:#181818;stroke-width:0.5;" width="67" x="106.5" y="84.0791"/><ellipse cx="121.5" cy="100.0791" fill="#C2C2C2" rx="11" ry="11" style="stroke:#181818;stroke-width:1.0;"/><path d="M124.2656,95.9541 Q124.4219,95.7354 124.6094,95.626 Q124.7969,95.5166 125.0156,95.5166 Q125.3906,95.5166 125.625,95.7822 Q125.8594,96.0322 125.8594,96.6416 L125.8594,98.0947 Q125.8594,98.7041 125.625,98.9697 Q125.3906,99.2354 125.0156,99.2354 Q124.6719,99.2354 124.4688,99.0322 Q124.2656,98.8447 124.1563,98.3291 Q124.1094,97.9697 123.9219,97.7822 Q123.5938,97.4072 122.9844,97.1885 Q122.375,96.9697 121.75,96.9697 Q120.9844,96.9697 120.3438,97.2979 Q119.7188,97.626 119.2188,98.376 Q118.7344,99.126 118.7344,100.1572 L118.7344,101.251 Q118.7344,102.4854 119.625,103.3135 Q120.5156,104.126 122.1094,104.126 Q123.0469,104.126 123.7031,103.876 Q124.0938,103.7197 124.5156,103.2822 Q124.7813,103.0166 124.9219,102.9385 Q125.0781,102.8604 125.2813,102.8604 Q125.6094,102.8604 125.8594,103.126 Q126.125,103.376 126.125,103.7197 Q126.125,104.0635 125.7813,104.4697 Q125.2813,105.0479 124.4844,105.376 Q123.4063,105.8291 122.1094,105.8291 Q120.5938,105.8291 119.3906,105.2041 Q118.4063,104.7041 117.7188,103.6416 Q117.0313,102.5635 117.0313,101.2822 L117.0313,100.126 Q117.0313,98.7979 117.6406,97.6572 Q118.2656,96.501 119.3594,95.8916 Q120.4531,95.2666 121.6875,95.2666 Q122.4219,95.2666 123.0625,95.4385 Q123.7188,95.5947 124.2656,95.9541 Z " fill="#000000"/><text fill="#000000" font-family="sans-serif" font-size="14" lengthAdjust="spacing" textLength="35" x="135.5" y="106.2349">users</text><line style="stroke:#181818;stroke-width:0.5;" x1="107.5" x2="172.5" y1="116.0791" y2="116.0791"/><line style="stroke:#181818;stroke-width:0.5;" x1="107.5" x2="172.5" y1="124.0791" y2="124.0791"/></g><!--link users to plans--><g id="link_users_plans"><path codeLine="80" d="M125.4744,139.6138 C117.8944,155.5538 118.5764,154.1017 108.3964,175.5217 " fill="none" id="users-plans" style="stroke:#181818;stroke-width:1.0;"/><line style="stroke:#181818;stroke-width:1.0;" x1="123.5798" x2="130.8046" y1="134.2837" y2="137.7193"/><line style="stroke:#181818;stroke-width:1.0;" x1="122.2915" x2="129.5162" y1="136.9929" y2="140.4285"/><line style="stroke:#181818;stroke-width:1.0;" x1="125.4744" x2="128.91" y1="139.6138" y2="132.3891"/><line style="stroke:#181818;stroke-width:1.0;" x1="104.104" x2="106.0891" y1="184.5536" y2="194.3546"/><line style="stroke:#181818;stroke-width:1.0;" x1="104.104" x2="95.2509" y1="184.5536" y2="189.2036"/><line style="stroke:#181818;stroke-width:1.0;" x1="104.104" x2="100.67" y1="184.5536" y2="191.7791"/><ellipse cx="106.6794" cy="179.1345" fill="none" rx="4" ry="4" style="stroke:#181818;stroke-width:1.0;"/></g><!--link plans to plan_days--><g id="link_plans_plan_days"><path codeLine="81" d="M75.2025,343.1657 C77.2825,363.0457 76.8083,358.4356 78.7383,376.9956 " fill="none" id="plans-plan_days" style="stroke:#181818;stroke-width:1.0;"/><line style="stroke:#181818;stroke-width:1.0;" x1="70.808" x2="78.7645" y1="339.6036" y2="338.7711"/><line style="stroke:#181818;stroke-width:1.0;" x1="71.1201" x2="79.0767" y1="342.5873" y2="341.7549"/><line style="stroke:#181818;stroke-width:1.0;" x1="75.2025" x2="74.37" y1="343.1657" y2="335.2091"/><line style="stroke:#181818;stroke-width:1.0;" x1="79.7726" x2="86.5678" y1="386.942" y2="394.2785"/><line style="stroke:#181818;stroke-width:1.0;" x1="79.7726" x2="74.6322" y1="386.942" y2="395.5197"/><line style="stroke:#181818;stroke-width:1.0;" x1="79.7726" x2="80.6" y1="386.942" y2="394.8991"/><ellipse cx="79.152" cy="380.9742" fill="none" rx="4" ry="4" style="stroke:#181818;stroke-width:1.0;"/></g><!--link plan_days to plan_places--><g id="link_plan_days_plan_places"><path codeLine="82" d="M87.0964,508.1478 C87.4464,527.2678 87.3704,522.9521 87.7204,542.0621 " fill="none" id="plan_days-plan_places" style="stroke:#181818;stroke-width:1.0;"/><line style="stroke:#181818;stroke-width:1.0;" x1="83.0239" x2="91.0225" y1="504.2216" y2="504.0752"/><line style="stroke:#181818;stroke-width:1.0;" x1="83.0788" x2="91.0774" y1="507.2211" y2="507.0747"/><line style="stroke:#181818;stroke-width:1.0;" x1="87.0964" x2="86.95" y1="508.1478" y2="500.1491"/><line style="stroke:#181818;stroke-width:1.0;" x1="87.9035" x2="94.049" y1="552.0604" y2="559.9492"/><line style="stroke:#181818;stroke-width:1.0;" x1="87.9035" x2="82.051" y1="552.0604" y2="560.169"/><line style="stroke:#181818;stroke-width:1.0;" x1="87.9035" x2="88.05" y1="552.0604" y2="560.0591"/><ellipse cx="87.7936" cy="546.0614" fill="none" rx="4" ry="4" style="stroke:#181818;stroke-width:1.0;"/></g><!--link plan_places to current_activities--><g id="link_plan_places_current_activities"><path codeLine="83" d="M90.0964,673.1478 C90.4464,692.2678 90.3704,687.9521 90.7204,707.0621 " fill="none" id="plan_places-current_activities" style="stroke:#181818;stroke-width:1.0;"/><line style="stroke:#181818;stroke-width:1.0;" x1="86.0239" x2="94.0225" y1="669.2216" y2="669.0752"/><line style="stroke:#181818;stroke-width:1.0;" x1="86.0788" x2="94.0774" y1="672.2211" y2="672.0747"/><line style="stroke:#181818;stroke-width:1.0;" x1="90.0964" x2="89.95" y1="673.1478" y2="665.1491"/><line style="stroke:#181818;stroke-width:1.0;" x1="90.9035" x2="97.049" y1="717.0604" y2="724.9492"/><line style="stroke:#181818;stroke-width:1.0;" x1="90.9035" x2="85.051" y1="717.0604" y2="725.169"/><line style="stroke:#181818;stroke-width:1.0;" x1="90.9035" x2="91.05" y1="717.0604" y2="725.0591"/><ellipse cx="90.7936" cy="711.0614" fill="none" rx="4" ry="4" style="stroke:#181818;stroke-width:1.0;"/></g><!--link users to plan_snapshots--><g id="link_users_plan_snapshots"><path codeLine="84" d="M154.5238,139.6147 C163.2538,157.9847 164.6803,160.9733 176.2303,185.2633 " fill="none" id="users-plan_snapshots" style="stroke:#181818;stroke-width:1.0;"/><line style="stroke:#181818;stroke-width:1.0;" x1="149.1941" x2="156.4197" y1="137.7188" y2="134.285"/><line style="stroke:#181818;stroke-width:1.0;" x1="150.4818" x2="157.7074" y1="140.4284" y2="136.9946"/><line style="stroke:#181818;stroke-width:1.0;" x1="154.5238" x2="151.09" y1="139.6147" y2="132.3891"/><line style="stroke:#181818;stroke-width:1.0;" x1="180.5246" x2="189.3786" y1="194.2943" y2="198.9425"/><line style="stroke:#181818;stroke-width:1.0;" x1="180.5246" x2="178.5414" y1="194.2943" y2="204.0957"/><line style="stroke:#181818;stroke-width:1.0;" x1="180.5246" x2="183.96" y1="194.2943" y2="201.5191"/><ellipse cx="177.948" cy="188.8757" fill="none" rx="4" ry="4" style="stroke:#181818;stroke-width:1.0;"/></g><!--SRC=[jLZTSjig4BxNKp2zEUsPoGlapdNTnbEdwTXEpvmh3P6epOa46a1kD4tU_Im_aW1XDssSN3Y6NRvTThzTmFAUiWOBNAEQCrxi1Qy9Kg8bcHma9VcEsqfjoOEQLNJ7Qi8KAk23Y2nJL5K4VRnThT27sNRsVhPPeCNw0thxaR8INNTeGtXRlSkolz35I_vW_UrciTwW-UfsirsiNupNuE8UxmXwSok9a6XUjH8sz0Rzp122lL7LeTP8z0H2VzCINQ8xkgDCcGc0qF-ep76Xw86OKOMboYiEIZcsQWpNLaHgJ2lphH7yEwr8JckmdxV2pXQ2O4NAVbtRbEFmAGkTocbfHfJyoZsd7Sh0WGCWY0XPCfahVa_O7u6QILmKH3eKQqflSJ9B7XegYFGsPqFz-7XnmNzEjdY9zbZ6IfwtLlxqSeunyaCxx4YzNS- -BLRewshsvVoismfy81NwMc6Mv5u30YyFVjpDzxkst14RUQcmKBccYmqkA_k1drqD2FDT3AgC8xaHkodGog5woKCA0ZuA4eEO5GvFnowrK3BSo3rNftPrW0HJpdB6xSxSalm_oLc4MRH2m5TRVL4fH1ihI8yFoYskyeBBDFDCr67IHj-RD95p0Xj5NsXZqejTX9p2rC-KqJ4whydZ-MBpcapMkqvnESX40TJSSU7bg-0b2Nibd3iwP8EW8h0-ohyF6gU-u70u0K14IH1Ouvq7xVfjnNQkJT-HigHcPCmTSzubBtJZSh1m_ZIk5z-MYt_EdxyrEL3o8vauOKHv0-NoZBRXejuVYteLiHA78rLNkLBqCzbR0VRpV2TusyJ6F3zEBuyN6hJUFtFeziSj5wLkEuakv_3WIDahlFjpXnp0IPSSuytgeEVuaSzGc0YjylYO2fkdwGSpmZI1EWqQRdxKZO8I0lSRFZ_rPyjNOx-6dXJ0c4jCSxSxp73LINhgz9gm0kg0DUrmV07hMkMDdvA6J9KS8LplHCGVA4VEoDZKG4511osxT4kRc3n2rID6fzKS4ZautAO1J37lc68Y_1Dr6wzdAWySHTE87rS-Ew6NrxDFY_EJUQbV5CbERjyQoSDou51y5EAoX4kwZ5XZaIJ1ejZ3FwdlQwUAGjzxu4QdkeQSGYemAwc-jiPOWLPmcGi6G4z9AbBO8sVAmwJR6Ge3az8T7SlGaSt_OjdPsNDriuNxtFkRcy_BBv_Epw8hhk0-bso7UosACqGUG0ygBZVIIMigUCkKV-Kg02cYWbqfEAzZy01piAGr3QLI_IV4X1JagSTK03p16otrwvzlAMy4dPRP10YURTtuQZDhahXtdDz3ypvLOwVt4baE7cQuqx_cm6a10RALcewJSs8ewbedjGTph71buEMobxdCXWf3OaQjCLTfLHVPkBR3E6Ke3bp_pafizlp5ERzQp3-lbflj-GjplYV5VKMbIhRuefUUOignf_smEAUAJ8hGavR1Eogwzq_RxkXKXdmFOx4r-nhPc6tHzUBwPltlQ-G3AtHDQWX4kbqMe93NMc7wyqHmHkuqBuUE6RvD9W6UW7Vv0Gu-Bdx3XFzMczmFemnwUpWk77o07FuF]--></g></svg>