<?xml version="1.0" encoding="us-ascii" standalone="no"?><svg xmlns="http://www.w3.org/2000/svg" xmlns:xlink="http://www.w3.org/1999/xlink" contentStyleType="text/css" height="572px" preserveAspectRatio="none" style="width:668px;height:572px;background:#FFFFFF;" version="1.1" viewBox="0 0 668 572" width="668px" zoomAndPan="magnify"><defs/><g><text fill="#000000" font-family="sans-serif" font-size="14" font-weight="bold" lengthAdjust="spacing" textLength="231" x="211.5" y="25.6953">Cluster 1: User &amp; Travel Planning</text><!--cluster User Domain--><g id="cluster_User Domain"><path d="M8.5,46.0791 L98.5,46.0791 A3.75,3.75 0 0 1 101,48.5791 L108,71.1582 L290.5,71.1582 A2.5,2.5 0 0 1 293,73.6582 L293,247.5791 A2.5,2.5 0 0 1 290.5,250.0791 L8.5,250.0791 A2.5,2.5 0 0 1 6,247.5791 L6,48.5791 A2.5,2.5 0 0 1 8.5,46.0791 " fill="none" style="stroke:#000000;stroke-width:1.5;"/><line style="stroke:#000000;stroke-width:1.5;" x1="6" x2="108" y1="71.1582" y2="71.1582"/><text fill="#000000" font-family="sans-serif" font-size="14" font-weight="bold" lengthAdjust="spacing" textLength="89" x="10" y="63.7744">User Domain</text></g><!--cluster Travel Planning Domain--><g id="cluster_Travel Planning Domain"><path d="M319.5,151.0791 L485.5,151.0791 A3.75,3.75 0 0 1 488,153.5791 L495,176.1582 L658.5,176.1582 A2.5,2.5 0 0 1 661,178.6582 L661,562.5791 A2.5,2.5 0 0 1 658.5,565.0791 L319.5,565.0791 A2.5,2.5 0 0 1 317,562.5791 L317,153.5791 A2.5,2.5 0 0 1 319.5,151.0791 " fill="none" style="stroke:#000000;stroke-width:1.5;"/><line style="stroke:#000000;stroke-width:1.5;" x1="317" x2="495" y1="176.1582" y2="176.1582"/><text fill="#000000" font-family="sans-serif" font-size="14" font-weight="bold" lengthAdjust="spacing" textLength="165" x="321" y="168.7744">Travel Planning Domain</text></g><!--class users--><g id="elem_users"><rect codeLine="309" fill="#F1F1F1" height="45.0791" id="users" rx="2.5" ry="2.5" style="stroke:#181818;stroke-width:0.5;" width="63" x="204.5" y="84.0791"/><ellipse cx="217.5" cy="98.6187" fill="#ADD1B2" rx="9" ry="9" style="stroke:#181818;stroke-width:1.0;"/><path d="M213.2344,104.6187 L213.2344,92.4468 L222.2656,92.4468 L222.2656,94.5093 L215.6875,94.5093 L215.6875,97.2124 L221.7969,97.2124 L221.7969,99.2593 L215.6875,99.2593 L215.6875,102.5718 L222.5,102.5718 L222.5,104.6187 L213.2344,104.6187 Z " fill="#000000"/><text fill="#000000" font-family="sans-serif" font-size="14" lengthAdjust="spacing" textLength="35" x="229.5" y="104.7744">users</text><line style="stroke:#181818;stroke-width:0.5;" x1="205.5" x2="266.5" y1="113.1582" y2="113.1582"/><line style="stroke:#181818;stroke-width:0.5;" x1="205.5" x2="266.5" y1="121.1582" y2="121.1582"/></g><!--class user_identities--><g id="elem_user_identities"><rect codeLine="310" fill="#F1F1F1" height="45.0791" id="user_identities" rx="2.5" ry="2.5" style="stroke:#181818;stroke-width:0.5;" width="120" x="22" y="189.0791"/><ellipse cx="35" cy="203.6187" fill="#ADD1B2" rx="9" ry="9" style="stroke:#181818;stroke-width:1.0;"/><path d="M30.7344,209.6187 L30.7344,197.4468 L39.7656,197.4468 L39.7656,199.5093 L33.1875,199.5093 L33.1875,202.2124 L39.2969,202.2124 L39.2969,204.2593 L33.1875,204.2593 L33.1875,207.5718 L40,207.5718 L40,209.6187 L30.7344,209.6187 Z " fill="#000000"/><text fill="#000000" font-family="sans-serif" font-size="14" lengthAdjust="spacing" textLength="92" x="47" y="209.7744">user_identities</text><line style="stroke:#181818;stroke-width:0.5;" x1="23" x2="141" y1="218.1582" y2="218.1582"/><line style="stroke:#181818;stroke-width:0.5;" x1="23" x2="141" y1="226.1582" y2="226.1582"/></g><!--class sns_tokens--><g id="elem_sns_tokens"><rect codeLine="311" fill="#F1F1F1" height="45.0791" id="sns_tokens" rx="2.5" ry="2.5" style="stroke:#181818;stroke-width:0.5;" width="100" x="177" y="189.0791"/><ellipse cx="190" cy="203.6187" fill="#ADD1B2" rx="9" ry="9" style="stroke:#181818;stroke-width:1.0;"/><path d="M185.7344,209.6187 L185.7344,197.4468 L194.7656,197.4468 L194.7656,199.5093 L188.1875,199.5093 L188.1875,202.2124 L194.2969,202.2124 L194.2969,204.2593 L188.1875,204.2593 L188.1875,207.5718 L195,207.5718 L195,209.6187 L185.7344,209.6187 Z " fill="#000000"/><text fill="#000000" font-family="sans-serif" font-size="14" lengthAdjust="spacing" textLength="72" x="202" y="209.7744">sns_tokens</text><line style="stroke:#181818;stroke-width:0.5;" x1="178" x2="276" y1="218.1582" y2="218.1582"/><line style="stroke:#181818;stroke-width:0.5;" x1="178" x2="276" y1="226.1582" y2="226.1582"/></g><!--class travel_plans--><g id="elem_travel_plans"><rect codeLine="315" fill="#F1F1F1" height="45.0791" id="travel_plans" rx="2.5" ry="2.5" style="stroke:#181818;stroke-width:0.5;" width="105" x="539.5" y="189.0791"/><ellipse cx="552.5" cy="203.6187" fill="#ADD1B2" rx="9" ry="9" style="stroke:#181818;stroke-width:1.0;"/><path d="M548.2344,209.6187 L548.2344,197.4468 L557.2656,197.4468 L557.2656,199.5093 L550.6875,199.5093 L550.6875,202.2124 L556.7969,202.2124 L556.7969,204.2593 L550.6875,204.2593 L550.6875,207.5718 L557.5,207.5718 L557.5,209.6187 L548.2344,209.6187 Z " fill="#000000"/><text fill="#000000" font-family="sans-serif" font-size="14" lengthAdjust="spacing" textLength="77" x="564.5" y="209.7744">travel_plans</text><line style="stroke:#181818;stroke-width:0.5;" x1="540.5" x2="643.5" y1="218.1582" y2="218.1582"/><line style="stroke:#181818;stroke-width:0.5;" x1="540.5" x2="643.5" y1="226.1582" y2="226.1582"/></g><!--class travel_days--><g id="elem_travel_days"><rect codeLine="316" fill="#F1F1F1" height="45.0791" id="travel_days" rx="2.5" ry="2.5" style="stroke:#181818;stroke-width:0.5;" width="101" x="536.5" y="294.0791"/><ellipse cx="549.5" cy="308.6187" fill="#ADD1B2" rx="9" ry="9" style="stroke:#181818;stroke-width:1.0;"/><path d="M545.2344,314.6187 L545.2344,302.4468 L554.2656,302.4468 L554.2656,304.5093 L547.6875,304.5093 L547.6875,307.2124 L553.7969,307.2124 L553.7969,309.2593 L547.6875,309.2593 L547.6875,312.5718 L554.5,312.5718 L554.5,314.6187 L545.2344,314.6187 Z " fill="#000000"/><text fill="#000000" font-family="sans-serif" font-size="14" lengthAdjust="spacing" textLength="73" x="561.5" y="314.7744">travel_days</text><line style="stroke:#181818;stroke-width:0.5;" x1="537.5" x2="636.5" y1="323.1582" y2="323.1582"/><line style="stroke:#181818;stroke-width:0.5;" x1="537.5" x2="636.5" y1="331.1582" y2="331.1582"/></g><!--class travel_places--><g id="elem_travel_places"><rect codeLine="317" fill="#F1F1F1" height="45.0791" id="travel_places" rx="2.5" ry="2.5" style="stroke:#181818;stroke-width:0.5;" width="112" x="527" y="399.0791"/><ellipse cx="540" cy="413.6187" fill="#ADD1B2" rx="9" ry="9" style="stroke:#181818;stroke-width:1.0;"/><path d="M535.7344,419.6187 L535.7344,407.4468 L544.7656,407.4468 L544.7656,409.5093 L538.1875,409.5093 L538.1875,412.2124 L544.2969,412.2124 L544.2969,414.2593 L538.1875,414.2593 L538.1875,417.5718 L545,417.5718 L545,419.6187 L535.7344,419.6187 Z " fill="#000000"/><text fill="#000000" font-family="sans-serif" font-size="14" lengthAdjust="spacing" textLength="84" x="552" y="419.7744">travel_places</text><line style="stroke:#181818;stroke-width:0.5;" x1="528" x2="638" y1="428.1582" y2="428.1582"/><line style="stroke:#181818;stroke-width:0.5;" x1="528" x2="638" y1="436.1582" y2="436.1582"/></g><!--class current_activities--><g id="elem_current_activities"><rect codeLine="318" fill="#F1F1F1" height="45.0791" id="current_activities" rx="2.5" ry="2.5" style="stroke:#181818;stroke-width:0.5;" width="135" x="509.5" y="504.0791"/><ellipse cx="522.5" cy="518.6187" fill="#ADD1B2" rx="9" ry="9" style="stroke:#181818;stroke-width:1.0;"/><path d="M518.2344,524.6187 L518.2344,512.4468 L527.2656,512.4468 L527.2656,514.5093 L520.6875,514.5093 L520.6875,517.2124 L526.7969,517.2124 L526.7969,519.2593 L520.6875,519.2593 L520.6875,522.5718 L527.5,522.5718 L527.5,524.6187 L518.2344,524.6187 Z " fill="#000000"/><text fill="#000000" font-family="sans-serif" font-size="14" lengthAdjust="spacing" textLength="107" x="534.5" y="524.7744">current_activities</text><line style="stroke:#181818;stroke-width:0.5;" x1="510.5" x2="643.5" y1="533.1582" y2="533.1582"/><line style="stroke:#181818;stroke-width:0.5;" x1="510.5" x2="643.5" y1="541.1582" y2="541.1582"/></g><!--class travel_plan_snapshots--><g id="elem_travel_plan_snapshots"><rect codeLine="319" fill="#F1F1F1" height="45.0791" id="travel_plan_snapshots" rx="2.5" ry="2.5" style="stroke:#181818;stroke-width:0.5;" width="171" x="333.5" y="189.0791"/><ellipse cx="346.5" cy="203.6187" fill="#ADD1B2" rx="9" ry="9" style="stroke:#181818;stroke-width:1.0;"/><path d="M342.2344,209.6187 L342.2344,197.4468 L351.2656,197.4468 L351.2656,199.5093 L344.6875,199.5093 L344.6875,202.2124 L350.7969,202.2124 L350.7969,204.2593 L344.6875,204.2593 L344.6875,207.5718 L351.5,207.5718 L351.5,209.6187 L342.2344,209.6187 Z " fill="#000000"/><text fill="#000000" font-family="sans-serif" font-size="14" lengthAdjust="spacing" textLength="143" x="358.5" y="209.7744">travel_plan_snapshots</text><line style="stroke:#181818;stroke-width:0.5;" x1="334.5" x2="503.5" y1="218.1582" y2="218.1582"/><line style="stroke:#181818;stroke-width:0.5;" x1="334.5" x2="503.5" y1="226.1582" y2="226.1582"/></g><!--link users to user_identities--><g id="link_users_user_identities"><path codeLine="322" d="M196.46,107.0791 C151.41,107.0791 82,107.0791 82,107.0791 C82,107.0791 82,140.1691 82,170.9091 " fill="none" id="users-user_identities" style="stroke:#181818;stroke-width:1.0;stroke-dasharray:7.0,7.0;"/><line style="stroke:#181818;stroke-width:1.0;" x1="200.46" x2="200.46" y1="103.0791" y2="111.0791"/><line style="stroke:#181818;stroke-width:1.0;" x1="197.46" x2="197.46" y1="103.0791" y2="111.0791"/><line style="stroke:#181818;stroke-width:1.0;" x1="196.46" x2="204.46" y1="107.0791" y2="107.0791"/><line style="stroke:#181818;stroke-width:1.0;" x1="82" x2="88" y1="180.9091" y2="188.9091"/><line style="stroke:#181818;stroke-width:1.0;" x1="82" x2="76" y1="180.9091" y2="188.9091"/><line style="stroke:#181818;stroke-width:1.0;" x1="82" x2="82" y1="180.9091" y2="188.9091"/><ellipse cx="82" cy="174.9091" fill="none" rx="4" ry="4" style="stroke:#181818;stroke-width:1.0;"/></g><!--link users to sns_tokens--><g id="link_users_sns_tokens"><path codeLine="323" d="M236,137.1091 C236,154.6991 236,153.0491 236,170.7291 " fill="none" id="users-sns_tokens" style="stroke:#181818;stroke-width:1.0;stroke-dasharray:7.0,7.0;"/><line style="stroke:#181818;stroke-width:1.0;" x1="232" x2="240" y1="133.1091" y2="133.1091"/><line style="stroke:#181818;stroke-width:1.0;" x1="232" x2="240" y1="136.1091" y2="136.1091"/><line style="stroke:#181818;stroke-width:1.0;" x1="236" x2="236" y1="137.1091" y2="129.1091"/><line style="stroke:#181818;stroke-width:1.0;" x1="236" x2="242" y1="180.7291" y2="188.7291"/><line style="stroke:#181818;stroke-width:1.0;" x1="236" x2="230" y1="180.7291" y2="188.7291"/><line style="stroke:#181818;stroke-width:1.0;" x1="236" x2="236" y1="180.7291" y2="188.7291"/><ellipse cx="236" cy="174.7291" fill="none" rx="4" ry="4" style="stroke:#181818;stroke-width:1.0;"/></g><!--link users to travel_plans--><g id="link_users_travel_plans"><path codeLine="324" d="M275.59,99.0791 C362.72,99.0791 592,99.0791 592,99.0791 C592,99.0791 592,137.9391 592,170.8091 " fill="none" id="users-travel_plans" style="stroke:#181818;stroke-width:1.0;stroke-dasharray:7.0,7.0;"/><line style="stroke:#181818;stroke-width:1.0;" x1="271.59" x2="271.59" y1="103.0791" y2="95.0791"/><line style="stroke:#181818;stroke-width:1.0;" x1="274.59" x2="274.59" y1="103.0791" y2="95.0791"/><line style="stroke:#181818;stroke-width:1.0;" x1="275.59" x2="267.59" y1="99.0791" y2="99.0791"/><line style="stroke:#181818;stroke-width:1.0;" x1="592" x2="598" y1="180.8091" y2="188.8091"/><line style="stroke:#181818;stroke-width:1.0;" x1="592" x2="586" y1="180.8091" y2="188.8091"/><line style="stroke:#181818;stroke-width:1.0;" x1="592" x2="592" y1="180.8091" y2="188.8091"/><ellipse cx="592" cy="174.8091" fill="none" rx="4" ry="4" style="stroke:#181818;stroke-width:1.0;"/></g><!--link users to travel_plan_snapshots--><g id="link_users_travel_plan_snapshots"><path codeLine="325" d="M275.88,114.0791 C328.31,114.0791 419,114.0791 419,114.0791 C419,114.0791 419,142.1591 419,170.9691 " fill="none" id="users-travel_plan_snapshots" style="stroke:#181818;stroke-width:1.0;stroke-dasharray:7.0,7.0;"/><line style="stroke:#181818;stroke-width:1.0;" x1="271.88" x2="271.88" y1="118.0791" y2="110.0791"/><line style="stroke:#181818;stroke-width:1.0;" x1="274.88" x2="274.88" y1="118.0791" y2="110.0791"/><line style="stroke:#181818;stroke-width:1.0;" x1="275.88" x2="267.88" y1="114.0791" y2="114.0791"/><line style="stroke:#181818;stroke-width:1.0;" x1="419" x2="425" y1="180.9691" y2="188.9691"/><line style="stroke:#181818;stroke-width:1.0;" x1="419" x2="413" y1="180.9691" y2="188.9691"/><line style="stroke:#181818;stroke-width:1.0;" x1="419" x2="419" y1="180.9691" y2="188.9691"/><ellipse cx="419" cy="174.9691" fill="none" rx="4" ry="4" style="stroke:#181818;stroke-width:1.0;"/></g><!--link travel_plans to travel_days--><g id="link_travel_plans_travel_days"><path codeLine="327" d="M588.5,242.1091 C588.5,259.6991 588.5,258.0491 588.5,275.7291 " fill="none" id="travel_plans-travel_days" style="stroke:#181818;stroke-width:1.0;stroke-dasharray:7.0,7.0;"/><line style="stroke:#181818;stroke-width:1.0;" x1="584.5" x2="592.5" y1="238.1091" y2="238.1091"/><line style="stroke:#181818;stroke-width:1.0;" x1="584.5" x2="592.5" y1="241.1091" y2="241.1091"/><line style="stroke:#181818;stroke-width:1.0;" x1="588.5" x2="588.5" y1="242.1091" y2="234.1091"/><line style="stroke:#181818;stroke-width:1.0;" x1="588.5" x2="594.5" y1="285.7291" y2="293.7291"/><line style="stroke:#181818;stroke-width:1.0;" x1="588.5" x2="582.5" y1="285.7291" y2="293.7291"/><line style="stroke:#181818;stroke-width:1.0;" x1="588.5" x2="588.5" y1="285.7291" y2="293.7291"/><ellipse cx="588.5" cy="279.7291" fill="none" rx="4" ry="4" style="stroke:#181818;stroke-width:1.0;"/></g><!--link travel_days to travel_places--><g id="link_travel_days_travel_places"><path codeLine="328" d="M587,347.1091 C587,364.6991 587,363.0491 587,380.7291 " fill="none" id="travel_days-travel_places" style="stroke:#181818;stroke-width:1.0;stroke-dasharray:7.0,7.0;"/><line style="stroke:#181818;stroke-width:1.0;" x1="583" x2="591" y1="343.1091" y2="343.1091"/><line style="stroke:#181818;stroke-width:1.0;" x1="583" x2="591" y1="346.1091" y2="346.1091"/><line style="stroke:#181818;stroke-width:1.0;" x1="587" x2="587" y1="347.1091" y2="339.1091"/><line style="stroke:#181818;stroke-width:1.0;" x1="587" x2="593" y1="390.7291" y2="398.7291"/><line style="stroke:#181818;stroke-width:1.0;" x1="587" x2="581" y1="390.7291" y2="398.7291"/><line style="stroke:#181818;stroke-width:1.0;" x1="587" x2="587" y1="390.7291" y2="398.7291"/><ellipse cx="587" cy="384.7291" fill="none" rx="4" ry="4" style="stroke:#181818;stroke-width:1.0;"/></g><!--link travel_places to current_activities--><g id="link_travel_places_current_activities"><path codeLine="329" d="M583,452.1091 C583,469.6991 583,468.0491 583,485.7291 " fill="none" id="travel_places-current_activities" style="stroke:#181818;stroke-width:1.0;stroke-dasharray:7.0,7.0;"/><line style="stroke:#181818;stroke-width:1.0;" x1="579" x2="587" y1="448.1091" y2="448.1091"/><line style="stroke:#181818;stroke-width:1.0;" x1="579" x2="587" y1="451.1091" y2="451.1091"/><line style="stroke:#181818;stroke-width:1.0;" x1="583" x2="583" y1="452.1091" y2="444.1091"/><line style="stroke:#181818;stroke-width:1.0;" x1="583" x2="589" y1="495.7291" y2="503.7291"/><line style="stroke:#181818;stroke-width:1.0;" x1="583" x2="577" y1="495.7291" y2="503.7291"/><line style="stroke:#181818;stroke-width:1.0;" x1="583" x2="583" y1="495.7291" y2="503.7291"/><ellipse cx="583" cy="489.7291" fill="none" rx="4" ry="4" style="stroke:#181818;stroke-width:1.0;"/></g><!--SRC=[rLXBRziu4BxhLt1pI6CZDV9eUmYw1HH7JRHrRCDMWkrU14Rcsjpe1P5AQxJzxpka99kKATTAl0Ks5oiSSlXnE8zl-1jVa8YWDCGqjXPqHb10io0a5dkaSOep7A6GneGlKuAIZ2yIotg5Vj_r3-QUzf0plBj5XyZxF7QchLQJE8yGZV2S-3ZWD8bzYUERXT3KldVyqN3m6RwTAzVpNSyTEXDx8WOcpdXWznthXrMe21OaU0mfutw0EPadsLBg6DlzJ-xm6hxwWv5t0-0GkXhrxswTeIVKUdsXeTrnpyHnFG3ZJD6HPryEd6cdbGehnS4Zd1WTt36IWTdid2yE95uISygNA8Tn9WSGwj8Pka2NxlNKcRZs0Br_F_xquOCKlNujVs8Crtk1xkr9_yQU7BqzwSXX4c4QAkEd9oUb9CsI9_23pB2er-l1BzX4m-B3RF4V9RkZwfOBYsdkq8Cv7wivZGZKdLdCV9uyadXFcqeP3WB2IhqmotF-zBI3_r2knylm4mdHECHnJEEvTaLSodo8gdt1UyXdSy91TENqtLjx80SPnndtP-3JGc1xJd6ryMnZZ38VXedKFHeD77jOCwU2s6SnJjaYuNk2_WJkAc8tJa3i3WkBLdlu_x14cFgFwQW1qWmlMm1Hpz601nJw58pn5QHJCEMWmYGNwPOpcoXeu-bokmP75whyMeI-UrC4MuZ5TKFg1CtzOYIUrqR8rvG4dCpy865cvv1AFFVMcNhsxTZxQ-KX1e5ws23FClYKUVUfPMohXcewEkZDSMZ27P4eKMDF-gqPhXgE4_94oHV8bzCae3ZKmZ6JCZ-5pVRhIjrIC-FBiF6eGH9p0AAU2S9HWDaIZnLa2974dsT9dhP0hfpN3AfffnPxI4nDH_wRWZdoB5JF_7D_Dg1QOBRWUFvBB53kjIyRrCBwjAglSFUCX39iQxUlkhFj8Zl6uP9Hfhaofdu95vVY_IJfdrjCrkKevJudNtLdZjDSo-ENSZZ9kM5SjVlwB39-sbzlPO9Ths2JHQmXjB_zPu8uAK6ejpqkQWeaBuApGATxBUjDRRkpjsyxIgsH_5cbLIUTPmHdGScPnDgw7cxpGfNbNyY-OTlE6M5vs2QZ6t0tniFMwjKSmmfTI209yfTVt2vNe_fIVm4B3j4jbD5igNbI019VbDTiRrGTTWIIqD1ZR1G-ZM2im2pz9x1aalqAI2Hw8BCPbGQyT_hUI6I5ytSTWnNBbh5cmN9qJrWRgAXkfwftfPn4BVPL5ZRmageNNaMQT6ovRcjjkaauD3w7Q8oN4Q3KBBGGClyXIHx1o7koKg5J4SfHdd0Wa6b60rAB3s2-F6VhswzPD2rW-y3lObPad1P0jGCs-c2KvB61a6_2Qlt0SDv34sTWU-veEBrnnrDqT3qONTg3JaizudM1MSLRmlVllLxohTxCwy9rloqG5yslFaDjUXibw-RIqffaVQRe-Ior_zjG1AdRqXkoSifcuoBmbjt16DYDSL-rGx2qTg4sGU7ZbecZ6wPlLQWJNCjCUurBvBc09W9faEn9D_acJpIYC4mpCCoDoGLVssdg2kqh83TboPJBqSTFrWO3D5m71Cm1qrOUM5APgE8Y2nNEe9tUKEWj4sanJIzPXRN3580Xggs-jrPbcqIhcbVeA3DrVNPLR2obxjI5HLaGQcHQrbNesTYg9UToaYaVMXRa0BYZRlSwJ1vmY9p95Jgomn1v-04kgjFjjarSO_lQGMSNg7pMh3sVjL8MaoyfN4VzhVGgYJ2D3yfShhwMrWVKBAU8b1otvQNFl8-M_JR7PKOpJWzq38RyPTv5oQG0zbc9_4Nf-nVcxyeN-s7EE5pqQPCNFTChpo_A0d5SlXw9PtVtXIvfV90oFacPnjKwqo0s2Mhbf742s_xOiEMvmImj2u9HfcwvgiGkj0OPgFoV5Ti9WNOC4kIEnLJKBfxH-HoYwQ15PHNhe8qX6L3q7HUktY_qfQko2w3HHq9c3t3fEzTT6ML5yMMhsbkFnZDZzAmywfan-UQYBF77QFKwSiTfMAI4buMcAugvzjQoxMcZKLpH04LUhb23QmKQ7GcoS8m6KBMFYshTgUskSmUZOCqSDF6AAfX6IuwWY6h4G3s1YGtyM3Ek_un7LHoe1TTv3f-flFPyct-1p_uB]--></g></svg>