<?xml version="1.0" encoding="us-ascii" standalone="no"?><svg xmlns="http://www.w3.org/2000/svg" xmlns:xlink="http://www.w3.org/1999/xlink" contentStyleType="text/css" height="590px" preserveAspectRatio="none" style="width:424px;height:590px;background:#FFFFFF;" version="1.1" viewBox="0 0 424 590" width="424px" zoomAndPan="magnify"><defs/><g><text fill="#000000" font-family="sans-serif" font-size="14" font-weight="bold" lengthAdjust="spacing" textLength="265" x="72.5" y="25.6953">Cluster 2: Review, Social &amp; AI Analysis</text><!--cluster Review & Social--><g id="cluster_Review &amp; Social"><path d="M8.5,274.0791 L121.5,274.0791 A3.75,3.75 0 0 1 124,276.5791 L131,299.1582 L414.5,299.1582 A2.5,2.5 0 0 1 417,301.6582 L417,580.5791 A2.5,2.5 0 0 1 414.5,583.0791 L8.5,583.0791 A2.5,2.5 0 0 1 6,580.5791 L6,276.5791 A2.5,2.5 0 0 1 8.5,274.0791 " fill="none" style="stroke:#000000;stroke-width:1.5;"/><line style="stroke:#000000;stroke-width:1.5;" x1="6" x2="131" y1="299.1582" y2="299.1582"/><text fill="#000000" font-family="sans-serif" font-size="14" font-weight="bold" lengthAdjust="spacing" textLength="112" x="10" y="291.7744">Review &amp; Social</text></g><!--cluster AI Analysis--><g id="cluster_AI Analysis"><path d="M41.5,46.0791 L116.5,46.0791 A3.75,3.75 0 0 1 119,48.5791 L126,71.1582 L388.5,71.1582 A2.5,2.5 0 0 1 391,73.6582 L391,247.5791 A2.5,2.5 0 0 1 388.5,250.0791 L41.5,250.0791 A2.5,2.5 0 0 1 39,247.5791 L39,48.5791 A2.5,2.5 0 0 1 41.5,46.0791 " fill="none" style="stroke:#000000;stroke-width:1.5;"/><line style="stroke:#000000;stroke-width:1.5;" x1="39" x2="126" y1="71.1582" y2="71.1582"/><text fill="#000000" font-family="sans-serif" font-size="14" font-weight="bold" lengthAdjust="spacing" textLength="74" x="43" y="63.7744">AI Analysis</text></g><!--class review_posts--><g id="elem_review_posts"><rect codeLine="339" fill="#F1F1F1" height="45.0791" id="review_posts" rx="2.5" ry="2.5" style="stroke:#181818;stroke-width:0.5;" width="110" x="74" y="312.0791"/><ellipse cx="87" cy="326.6187" fill="#ADD1B2" rx="9" ry="9" style="stroke:#181818;stroke-width:1.0;"/><path d="M82.7344,332.6187 L82.7344,320.4468 L91.7656,320.4468 L91.7656,322.5093 L85.1875,322.5093 L85.1875,325.2124 L91.2969,325.2124 L91.2969,327.2593 L85.1875,327.2593 L85.1875,330.5718 L92,330.5718 L92,332.6187 L82.7344,332.6187 Z " fill="#000000"/><text fill="#000000" font-family="sans-serif" font-size="14" lengthAdjust="spacing" textLength="82" x="99" y="332.7744">review_posts</text><line style="stroke:#181818;stroke-width:0.5;" x1="75" x2="183" y1="341.1582" y2="341.1582"/><line style="stroke:#181818;stroke-width:0.5;" x1="75" x2="183" y1="349.1582" y2="349.1582"/></g><!--class review_photo_groups--><g id="elem_review_photo_groups"><rect codeLine="340" fill="#F1F1F1" height="45.0791" id="review_photo_groups" rx="2.5" ry="2.5" style="stroke:#181818;stroke-width:0.5;" width="164" x="22" y="417.0791"/><ellipse cx="35" cy="431.6187" fill="#ADD1B2" rx="9" ry="9" style="stroke:#181818;stroke-width:1.0;"/><path d="M30.7344,437.6187 L30.7344,425.4468 L39.7656,425.4468 L39.7656,427.5093 L33.1875,427.5093 L33.1875,430.2124 L39.2969,430.2124 L39.2969,432.2593 L33.1875,432.2593 L33.1875,435.5718 L40,435.5718 L40,437.6187 L30.7344,437.6187 Z " fill="#000000"/><text fill="#000000" font-family="sans-serif" font-size="14" lengthAdjust="spacing" textLength="136" x="47" y="437.7744">review_photo_groups</text><line style="stroke:#181818;stroke-width:0.5;" x1="23" x2="185" y1="446.1582" y2="446.1582"/><line style="stroke:#181818;stroke-width:0.5;" x1="23" x2="185" y1="454.1582" y2="454.1582"/></g><!--class review_photos--><g id="elem_review_photos"><rect codeLine="341" fill="#F1F1F1" height="45.0791" id="review_photos" rx="2.5" ry="2.5" style="stroke:#181818;stroke-width:0.5;" width="119" x="44.5" y="522.0791"/><ellipse cx="57.5" cy="536.6187" fill="#ADD1B2" rx="9" ry="9" style="stroke:#181818;stroke-width:1.0;"/><path d="M53.2344,542.6187 L53.2344,530.4468 L62.2656,530.4468 L62.2656,532.5093 L55.6875,532.5093 L55.6875,535.2124 L61.7969,535.2124 L61.7969,537.2593 L55.6875,537.2593 L55.6875,540.5718 L62.5,540.5718 L62.5,542.6187 L53.2344,542.6187 Z " fill="#000000"/><text fill="#000000" font-family="sans-serif" font-size="14" lengthAdjust="spacing" textLength="91" x="69.5" y="542.7744">review_photos</text><line style="stroke:#181818;stroke-width:0.5;" x1="45.5" x2="162.5" y1="551.1582" y2="551.1582"/><line style="stroke:#181818;stroke-width:0.5;" x1="45.5" x2="162.5" y1="559.1582" y2="559.1582"/></g><!--class review_hashtag_groups--><g id="elem_review_hashtag_groups"><rect codeLine="342" fill="#F1F1F1" height="45.0791" id="review_hashtag_groups" rx="2.5" ry="2.5" style="stroke:#181818;stroke-width:0.5;" width="179" x="221.5" y="417.0791"/><ellipse cx="234.5" cy="431.6187" fill="#ADD1B2" rx="9" ry="9" style="stroke:#181818;stroke-width:1.0;"/><path d="M230.2344,437.6187 L230.2344,425.4468 L239.2656,425.4468 L239.2656,427.5093 L232.6875,427.5093 L232.6875,430.2124 L238.7969,430.2124 L238.7969,432.2593 L232.6875,432.2593 L232.6875,435.5718 L239.5,435.5718 L239.5,437.6187 L230.2344,437.6187 Z " fill="#000000"/><text fill="#000000" font-family="sans-serif" font-size="14" lengthAdjust="spacing" textLength="151" x="246.5" y="437.7744">review_hashtag_groups</text><line style="stroke:#181818;stroke-width:0.5;" x1="222.5" x2="399.5" y1="446.1582" y2="446.1582"/><line style="stroke:#181818;stroke-width:0.5;" x1="222.5" x2="399.5" y1="454.1582" y2="454.1582"/></g><!--class review_hashtags--><g id="elem_review_hashtags"><rect codeLine="343" fill="#F1F1F1" height="45.0791" id="review_hashtags" rx="2.5" ry="2.5" style="stroke:#181818;stroke-width:0.5;" width="134" x="244" y="522.0791"/><ellipse cx="257" cy="536.6187" fill="#ADD1B2" rx="9" ry="9" style="stroke:#181818;stroke-width:1.0;"/><path d="M252.7344,542.6187 L252.7344,530.4468 L261.7656,530.4468 L261.7656,532.5093 L255.1875,532.5093 L255.1875,535.2124 L261.2969,535.2124 L261.2969,537.2593 L255.1875,537.2593 L255.1875,540.5718 L262,540.5718 L262,542.6187 L252.7344,542.6187 Z " fill="#000000"/><text fill="#000000" font-family="sans-serif" font-size="14" lengthAdjust="spacing" textLength="106" x="269" y="542.7744">review_hashtags</text><line style="stroke:#181818;stroke-width:0.5;" x1="245" x2="377" y1="551.1582" y2="551.1582"/><line style="stroke:#181818;stroke-width:0.5;" x1="245" x2="377" y1="559.1582" y2="559.1582"/></g><!--class ai_review_analysis--><g id="elem_ai_review_analysis"><rect codeLine="347" fill="#F1F1F1" height="45.0791" id="ai_review_analysis" rx="2.5" ry="2.5" style="stroke:#181818;stroke-width:0.5;" width="146" x="225" y="84.0791"/><ellipse cx="238" cy="98.6187" fill="#ADD1B2" rx="9" ry="9" style="stroke:#181818;stroke-width:1.0;"/><path d="M233.7344,104.6187 L233.7344,92.4468 L242.7656,92.4468 L242.7656,94.5093 L236.1875,94.5093 L236.1875,97.2124 L242.2969,97.2124 L242.2969,99.2593 L236.1875,99.2593 L236.1875,102.5718 L243,102.5718 L243,104.6187 L233.7344,104.6187 Z " fill="#000000"/><text fill="#000000" font-family="sans-serif" font-size="14" lengthAdjust="spacing" textLength="118" x="250" y="104.7744">ai_review_analysis</text><line style="stroke:#181818;stroke-width:0.5;" x1="226" x2="370" y1="113.1582" y2="113.1582"/><line style="stroke:#181818;stroke-width:0.5;" x1="226" x2="370" y1="121.1582" y2="121.1582"/></g><!--class ai_review_styles--><g id="elem_ai_review_styles"><rect codeLine="348" fill="#F1F1F1" height="45.0791" id="ai_review_styles" rx="2.5" ry="2.5" style="stroke:#181818;stroke-width:0.5;" width="131" x="55.5" y="189.0791"/><ellipse cx="68.5" cy="203.6187" fill="#ADD1B2" rx="9" ry="9" style="stroke:#181818;stroke-width:1.0;"/><path d="M64.2344,209.6187 L64.2344,197.4468 L73.2656,197.4468 L73.2656,199.5093 L66.6875,199.5093 L66.6875,202.2124 L72.7969,202.2124 L72.7969,204.2593 L66.6875,204.2593 L66.6875,207.5718 L73.5,207.5718 L73.5,209.6187 L64.2344,209.6187 Z " fill="#000000"/><text fill="#000000" font-family="sans-serif" font-size="14" lengthAdjust="spacing" textLength="103" x="80.5" y="209.7744">ai_review_styles</text><line style="stroke:#181818;stroke-width:0.5;" x1="56.5" x2="185.5" y1="218.1582" y2="218.1582"/><line style="stroke:#181818;stroke-width:0.5;" x1="56.5" x2="185.5" y1="226.1582" y2="226.1582"/></g><!--class ai_review_hashtags--><g id="elem_ai_review_hashtags"><rect codeLine="349" fill="#F1F1F1" height="45.0791" id="ai_review_hashtags" rx="2.5" ry="2.5" style="stroke:#181818;stroke-width:0.5;" width="153" x="221.5" y="189.0791"/><ellipse cx="234.5" cy="203.6187" fill="#ADD1B2" rx="9" ry="9" style="stroke:#181818;stroke-width:1.0;"/><path d="M230.2344,209.6187 L230.2344,197.4468 L239.2656,197.4468 L239.2656,199.5093 L232.6875,199.5093 L232.6875,202.2124 L238.7969,202.2124 L238.7969,204.2593 L232.6875,204.2593 L232.6875,207.5718 L239.5,207.5718 L239.5,209.6187 L230.2344,209.6187 Z " fill="#000000"/><text fill="#000000" font-family="sans-serif" font-size="14" lengthAdjust="spacing" textLength="125" x="246.5" y="209.7744">ai_review_hashtags</text><line style="stroke:#181818;stroke-width:0.5;" x1="222.5" x2="373.5" y1="218.1582" y2="218.1582"/><line style="stroke:#181818;stroke-width:0.5;" x1="222.5" x2="373.5" y1="226.1582" y2="226.1582"/></g><!--link review_posts to review_photo_groups--><g id="link_review_posts_review_photo_groups"><path codeLine="353" d="M129,365.1091 C129,382.6991 129,381.0491 129,398.7291 " fill="none" id="review_posts-review_photo_groups" style="stroke:#181818;stroke-width:1.0;stroke-dasharray:7.0,7.0;"/><line style="stroke:#181818;stroke-width:1.0;" x1="125" x2="133" y1="361.1091" y2="361.1091"/><line style="stroke:#181818;stroke-width:1.0;" x1="125" x2="133" y1="364.1091" y2="364.1091"/><line style="stroke:#181818;stroke-width:1.0;" x1="129" x2="129" y1="365.1091" y2="357.1091"/><line style="stroke:#181818;stroke-width:1.0;" x1="129" x2="135" y1="408.7291" y2="416.7291"/><line style="stroke:#181818;stroke-width:1.0;" x1="129" x2="123" y1="408.7291" y2="416.7291"/><line style="stroke:#181818;stroke-width:1.0;" x1="129" x2="129" y1="408.7291" y2="416.7291"/><ellipse cx="129" cy="402.7291" fill="none" rx="4" ry="4" style="stroke:#181818;stroke-width:1.0;"/></g><!--link review_photo_groups to review_photos--><g id="link_review_photo_groups_review_photos"><path codeLine="354" d="M104,470.1091 C104,487.6991 104,486.0491 104,503.7291 " fill="none" id="review_photo_groups-review_photos" style="stroke:#181818;stroke-width:1.0;stroke-dasharray:7.0,7.0;"/><line style="stroke:#181818;stroke-width:1.0;" x1="100" x2="108" y1="466.1091" y2="466.1091"/><line style="stroke:#181818;stroke-width:1.0;" x1="100" x2="108" y1="469.1091" y2="469.1091"/><line style="stroke:#181818;stroke-width:1.0;" x1="104" x2="104" y1="470.1091" y2="462.1091"/><line style="stroke:#181818;stroke-width:1.0;" x1="104" x2="110" y1="513.7291" y2="521.7291"/><line style="stroke:#181818;stroke-width:1.0;" x1="104" x2="98" y1="513.7291" y2="521.7291"/><line style="stroke:#181818;stroke-width:1.0;" x1="104" x2="104" y1="513.7291" y2="521.7291"/><ellipse cx="104" cy="507.7291" fill="none" rx="4" ry="4" style="stroke:#181818;stroke-width:1.0;"/></g><!--link review_posts to review_hashtag_groups--><g id="link_review_posts_review_hashtag_groups"><path codeLine="355" d="M192.34,342.0791 C241.62,342.0791 298,342.0791 298,342.0791 C298,342.0791 298,370.1591 298,398.9691 " fill="none" id="review_posts-review_hashtag_groups" style="stroke:#181818;stroke-width:1.0;stroke-dasharray:7.0,7.0;"/><line style="stroke:#181818;stroke-width:1.0;" x1="188.34" x2="188.34" y1="346.0791" y2="338.0791"/><line style="stroke:#181818;stroke-width:1.0;" x1="191.34" x2="191.34" y1="346.0791" y2="338.0791"/><line style="stroke:#181818;stroke-width:1.0;" x1="192.34" x2="184.34" y1="342.0791" y2="342.0791"/><line style="stroke:#181818;stroke-width:1.0;" x1="298" x2="304" y1="408.9691" y2="416.9691"/><line style="stroke:#181818;stroke-width:1.0;" x1="298" x2="292" y1="408.9691" y2="416.9691"/><line style="stroke:#181818;stroke-width:1.0;" x1="298" x2="298" y1="408.9691" y2="416.9691"/><ellipse cx="298" cy="402.9691" fill="none" rx="4" ry="4" style="stroke:#181818;stroke-width:1.0;"/></g><!--link review_hashtag_groups to review_hashtags--><g id="link_review_hashtag_groups_review_hashtags"><path codeLine="356" d="M311,470.1091 C311,487.6991 311,486.0491 311,503.7291 " fill="none" id="review_hashtag_groups-review_hashtags" style="stroke:#181818;stroke-width:1.0;stroke-dasharray:7.0,7.0;"/><line style="stroke:#181818;stroke-width:1.0;" x1="307" x2="315" y1="466.1091" y2="466.1091"/><line style="stroke:#181818;stroke-width:1.0;" x1="307" x2="315" y1="469.1091" y2="469.1091"/><line style="stroke:#181818;stroke-width:1.0;" x1="311" x2="311" y1="470.1091" y2="462.1091"/><line style="stroke:#181818;stroke-width:1.0;" x1="311" x2="317" y1="513.7291" y2="521.7291"/><line style="stroke:#181818;stroke-width:1.0;" x1="311" x2="305" y1="513.7291" y2="521.7291"/><line style="stroke:#181818;stroke-width:1.0;" x1="311" x2="311" y1="513.7291" y2="521.7291"/><ellipse cx="311" cy="507.7291" fill="none" rx="4" ry="4" style="stroke:#181818;stroke-width:1.0;"/></g><!--link review_posts to ai_review_analysis--><g id="link_review_posts_ai_review_analysis"><path codeLine="359" d="M192.29,327.0791 C203.54,327.0791 204,327.0791 204,327.0791 C204,327.0791 204,114.0791 204,114.0791 C204,114.0791 194.73,114.0791 206.86,114.0791 " fill="none" id="review_posts-ai_review_analysis" style="stroke:#181818;stroke-width:1.0;stroke-dasharray:7.0,7.0;"/><line style="stroke:#181818;stroke-width:1.0;" x1="188.29" x2="188.29" y1="331.0791" y2="323.0791"/><line style="stroke:#181818;stroke-width:1.0;" x1="191.29" x2="191.29" y1="331.0791" y2="323.0791"/><line style="stroke:#181818;stroke-width:1.0;" x1="192.29" x2="184.29" y1="327.0791" y2="327.0791"/><line style="stroke:#181818;stroke-width:1.0;" x1="216.86" x2="224.86" y1="114.0791" y2="108.0791"/><line style="stroke:#181818;stroke-width:1.0;" x1="216.86" x2="224.86" y1="114.0791" y2="120.0791"/><line style="stroke:#181818;stroke-width:1.0;" x1="216.86" x2="224.86" y1="114.0791" y2="114.0791"/><ellipse cx="210.86" cy="114.0791" fill="none" rx="4" ry="4" style="stroke:#181818;stroke-width:1.0;"/><text fill="#000000" font-family="sans-serif" font-size="13" lengthAdjust="spacing" textLength="43" x="182.5" y="235.5733">triggers</text></g><!--link ai_review_analysis to ai_review_styles--><g id="link_ai_review_analysis_ai_review_styles"><path codeLine="360" d="M216.99,99.0791 C168.23,99.0791 121,99.0791 121,99.0791 C121,99.0791 121,137.9391 121,170.8091 " fill="none" id="ai_review_analysis-ai_review_styles" style="stroke:#181818;stroke-width:1.0;stroke-dasharray:7.0,7.0;"/><line style="stroke:#181818;stroke-width:1.0;" x1="220.99" x2="220.99" y1="95.0791" y2="103.0791"/><line style="stroke:#181818;stroke-width:1.0;" x1="217.99" x2="217.99" y1="95.0791" y2="103.0791"/><line style="stroke:#181818;stroke-width:1.0;" x1="216.99" x2="224.99" y1="99.0791" y2="99.0791"/><line style="stroke:#181818;stroke-width:1.0;" x1="121" x2="127" y1="180.8091" y2="188.8091"/><line style="stroke:#181818;stroke-width:1.0;" x1="121" x2="115" y1="180.8091" y2="188.8091"/><line style="stroke:#181818;stroke-width:1.0;" x1="121" x2="121" y1="180.8091" y2="188.8091"/><ellipse cx="121" cy="174.8091" fill="none" rx="4" ry="4" style="stroke:#181818;stroke-width:1.0;"/><text fill="#000000" font-family="sans-serif" font-size="13" lengthAdjust="spacing" textLength="57" x="70.13" y="95.6533">generates</text></g><!--link ai_review_analysis to ai_review_hashtags--><g id="link_ai_review_analysis_ai_review_hashtags"><path codeLine="361" d="M298,137.1091 C298,154.6991 298,153.0491 298,170.7291 " fill="none" id="ai_review_analysis-ai_review_hashtags" style="stroke:#181818;stroke-width:1.0;stroke-dasharray:7.0,7.0;"/><line style="stroke:#181818;stroke-width:1.0;" x1="294" x2="302" y1="133.1091" y2="133.1091"/><line style="stroke:#181818;stroke-width:1.0;" x1="294" x2="302" y1="136.1091" y2="136.1091"/><line style="stroke:#181818;stroke-width:1.0;" x1="298" x2="298" y1="137.1091" y2="129.1091"/><line style="stroke:#181818;stroke-width:1.0;" x1="298" x2="304" y1="180.7291" y2="188.7291"/><line style="stroke:#181818;stroke-width:1.0;" x1="298" x2="292" y1="180.7291" y2="188.7291"/><line style="stroke:#181818;stroke-width:1.0;" x1="298" x2="298" y1="180.7291" y2="188.7291"/><ellipse cx="298" cy="174.7291" fill="none" rx="4" ry="4" style="stroke:#181818;stroke-width:1.0;"/><text fill="#000000" font-family="sans-serif" font-size="13" lengthAdjust="spacing" textLength="57" x="240" y="155.4933">generates</text></g><!--link ai_review_styles to review_posts--><g id="link_ai_review_styles_review_posts"><path codeLine="364" d="M129,242.1391 C129,264.1891 129,271.5991 129,293.7491 " fill="none" id="ai_review_styles-review_posts" style="stroke:#181818;stroke-width:1.0;stroke-dasharray:7.0,7.0;"/><line style="stroke:#181818;stroke-width:1.0;" x1="125" x2="133" y1="238.1391" y2="238.1391"/><line style="stroke:#181818;stroke-width:1.0;" x1="125" x2="133" y1="241.1391" y2="241.1391"/><line style="stroke:#181818;stroke-width:1.0;" x1="129" x2="129" y1="242.1391" y2="234.1391"/><line style="stroke:#181818;stroke-width:1.0;" x1="129" x2="135" y1="303.7491" y2="311.7491"/><line style="stroke:#181818;stroke-width:1.0;" x1="129" x2="123" y1="303.7491" y2="311.7491"/><line style="stroke:#181818;stroke-width:1.0;" x1="129" x2="129" y1="303.7491" y2="311.7491"/><ellipse cx="129" cy="297.7491" fill="none" rx="4" ry="4" style="stroke:#181818;stroke-width:1.0;"/><text fill="#000000" font-family="sans-serif" font-size="13" lengthAdjust="spacing" textLength="105" x="23" y="269.5133">User selects style</text></g><!--SRC=[rLXBRziu4BxhLt1pI6CZDV9eUmYw1HH7JRHrRCDMWkrU14Rcsjpe1P5AQxJzxpka99kKATTAl0Ks5oiSSlXnE8zl-1jVa8YWDCGqjXPqHb10io0a5dkaSOep7A6GneGlKuAIZ2yIotg5Vj_r3-QUzf0plBj5XyZxF7QchLQJE8yGZV2S-3ZWD8bzYUERXT3KldVyqN3m6RwTAzVpNSyTEXDx8WOcpdXWznthXrMe21OaU0mfutw0EPadsLBg6DlzJ-xm6hxwWv5t0-0GkXhrxswTeIVKUdsXeTrnpyHnFG3ZJD6HPryEd6cdbGehnS4Zd1WTt36IWTdid2yE95uISygNA8Tn9WSGwj8Pka2NxlNKcRZs0Br_F_xquOCKlNujVs8Crtk1xkr9_yQU7BqzwSXX4c4QAkEd9oUb9CsI9_23pB2er-l1BzX4m-B3RF4V9RkZwfOBYsdkq8Cv7wivZGZKdLdCV9uyadXFcqeP3WB2IhqmotF-zBI3_r2knylm4mdHECHnJEEvTaLSodo8gdt1UyXdSy91TENqtLjx80SPnndtP-3JGc1xJd6ryMnZZ38VXedKFHeD77jOCwU2s6SnJjaYuNk2_WJkAc8tJa3i3WkBLdlu_x14cFgFwQW1qWmlMm1Hpz601nJw58pn5QHJCEMWmYGNwPOpcoXeu-bokmP75whyMeI-UrC4MuZ5TKFg1CtzOYIUrqR8rvG4dCpy865cvv1AFFVMcNhsxTZxQ-KX1e5ws23FClYKUVUfPMohXcewEkZDSMZ27P4eKMDF-gqPhXgE4_94oHV8bzCae3ZKmZ6JCZ-5pVRhIjrIC-FBiF6eGH9p0AAU2S9HWDaIZnLa2974dsT9dhP0hfpN3AfffnPxI4nDH_wRWZdoB5JF_7D_Dg1QOBRWUFvBB53kjIyRrCBwjAglSFUCX39iQxUlkhFj8Zl6uP9Hfhaofdu95vVY_IJfdrjCrkKevJudNtLdZjDSo-ENSZZ9kM5SjVlwB39-sbzlPO9Ths2JHQmXjB_zPu8uAK6ejpqkQWeaBuApGATxBUjDRRkpjsyxIgsH_5cbLIUTPmHdGScPnDgw7cxpGfNbNyY-OTlE6M5vs2QZ6t0tniFMwjKSmmfTI209yfTVt2vNe_fIVm4B3j4jbD5igNbI019VbDTiRrGTTWIIqD1ZR1G-ZM2im2pz9x1aalqAI2Hw8BCPbGQyT_hUI6I5ytSTWnNBbh5cmN9qJrWRgAXkfwftfPn4BVPL5ZRmageNNaMQT6ovRcjjkaauD3w7Q8oN4Q3KBBGGClyXIHx1o7koKg5J4SfHdd0Wa6b60rAB3s2-F6VhswzPD2rW-y3lObPad1P0jGCs-c2KvB61a6_2Qlt0SDv34sTWU-veEBrnnrDqT3qONTg3JaizudM1MSLRmlVllLxohTxCwy9rloqG5yslFaDjUXibw-RIqffaVQRe-Ior_zjG1AdRqXkoSifcuoBmbjt16DYDSL-rGx2qTg4sGU7ZbecZ6wPlLQWJNCjCUurBvBc09W9faEn9D_acJpIYC4mpCCoDoGLVssdg2kqh83TboPJBqSTFrWO3D5m71Cm1qrOUM5APgE8Y2nNEe9tUKEWj4sanJIzPXRN3580Xggs-jrPbcqIhcbVeA3DrVNPLR2obxjI5HLaGQcHQrbNesTYg9UToaYaVMXRa0BYZRlSwJ1vmY9p95Jgomn1v-04kgjFjjarSO_lQGMSNg7pMh3sVjL8MaoyfN4VzhVGgYJ2D3yfShhwMrWVKBAU8b1otvQNFl8-M_JR7PKOpJWzq38RyPTv5oQG0zbc9_4Nf-nVcxyeN-s7EE5pqQPCNFTChpo_A0d5SlXw9PtVtXIvfV90oFacPnjKwqo0s2Mhbf742s_xOiEMvmImj2u9HfcwvgiGkj0OPgFoV5Ti9WNOC4kIEnLJKBfxH-HoYwQ15PHNhe8qX6L3q7HUktY_qfQko2w3HHq9c3t3fEzTT6ML5yMMhsbkFnZDZzAmywfan-UQYBF77QFKwSiTfMAI4buMcAugvzjQoxMcZKLpH04LUhb23QmKQ7GcoS8m6KBMFYshTgUskSmUZOCqSDF6AAfX6IuwWY6h4G3s1YGtyM3Ek_un7LHoe1TTv3f-flFPyct-1p_uB]--></g></svg>