<?xml version="1.0" encoding="us-ascii" standalone="no"?><svg xmlns="http://www.w3.org/2000/svg" xmlns:xlink="http://www.w3.org/1999/xlink" contentStyleType="text/css" height="257px" preserveAspectRatio="none" style="width:982px;height:257px;background:#FFFFFF;" version="1.1" viewBox="0 0 982 257" width="982px" zoomAndPan="magnify"><defs/><g><text fill="#000000" font-family="sans-serif" font-size="14" font-weight="bold" lengthAdjust="spacing" textLength="245" x="361.5" y="25.6953">Cluster 3: Search, Places &amp; Utilities</text><!--cluster Image Search--><g id="cluster_Image Search"><path d="M8.5,46.0791 L104.5,46.0791 A3.75,3.75 0 0 1 107,48.5791 L114,71.1582 L306.5,71.1582 A2.5,2.5 0 0 1 309,73.6582 L309,247.5791 A2.5,2.5 0 0 1 306.5,250.0791 L8.5,250.0791 A2.5,2.5 0 0 1 6,247.5791 L6,48.5791 A2.5,2.5 0 0 1 8.5,46.0791 " fill="none" style="stroke:#000000;stroke-width:1.5;"/><line style="stroke:#000000;stroke-width:1.5;" x1="6" x2="114" y1="71.1582" y2="71.1582"/><text fill="#000000" font-family="sans-serif" font-size="14" font-weight="bold" lengthAdjust="spacing" textLength="95" x="10" y="63.7744">Image Search</text></g><!--cluster Utilities (Chat, List, Hotel)--><g id="cluster_Utilities (Chat, List, Hotel)"><path d="M335.5,46.0791 L513.5,46.0791 A3.75,3.75 0 0 1 516,48.5791 L523,71.1582 L972.5,71.1582 A2.5,2.5 0 0 1 975,73.6582 L975,247.5791 A2.5,2.5 0 0 1 972.5,250.0791 L335.5,250.0791 A2.5,2.5 0 0 1 333,247.5791 L333,48.5791 A2.5,2.5 0 0 1 335.5,46.0791 " fill="none" style="stroke:#000000;stroke-width:1.5;"/><line style="stroke:#000000;stroke-width:1.5;" x1="333" x2="523" y1="71.1582" y2="71.1582"/><text fill="#000000" font-family="sans-serif" font-size="14" font-weight="bold" lengthAdjust="spacing" textLength="177" x="337" y="63.7744">Utilities (Chat, List, Hotel)</text></g><!--class image_search_places--><g id="elem_image_search_places"><rect codeLine="374" fill="#F1F1F1" height="45.0791" id="image_search_places" rx="2.5" ry="2.5" style="stroke:#181818;stroke-width:0.5;" width="166" x="127" y="84.0791"/><ellipse cx="140" cy="98.6187" fill="#ADD1B2" rx="9" ry="9" style="stroke:#181818;stroke-width:1.0;"/><path d="M135.7344,104.6187 L135.7344,92.4468 L144.7656,92.4468 L144.7656,94.5093 L138.1875,94.5093 L138.1875,97.2124 L144.2969,97.2124 L144.2969,99.2593 L138.1875,99.2593 L138.1875,102.5718 L145,102.5718 L145,104.6187 L135.7344,104.6187 Z " fill="#000000"/><text fill="#000000" font-family="sans-serif" font-size="14" lengthAdjust="spacing" textLength="138" x="152" y="104.7744">image_search_places</text><line style="stroke:#181818;stroke-width:0.5;" x1="128" x2="292" y1="113.1582" y2="113.1582"/><line style="stroke:#181818;stroke-width:0.5;" x1="128" x2="292" y1="121.1582" y2="121.1582"/></g><!--class image_search_results--><g id="elem_image_search_results"><rect codeLine="375" fill="#F1F1F1" height="45.0791" id="image_search_results" rx="2.5" ry="2.5" style="stroke:#181818;stroke-width:0.5;" width="167" x="73.5" y="189.0791"/><ellipse cx="86.5" cy="203.6187" fill="#ADD1B2" rx="9" ry="9" style="stroke:#181818;stroke-width:1.0;"/><path d="M82.2344,209.6187 L82.2344,197.4468 L91.2656,197.4468 L91.2656,199.5093 L84.6875,199.5093 L84.6875,202.2124 L90.7969,202.2124 L90.7969,204.2593 L84.6875,204.2593 L84.6875,207.5718 L91.5,207.5718 L91.5,209.6187 L82.2344,209.6187 Z " fill="#000000"/><text fill="#000000" font-family="sans-serif" font-size="14" lengthAdjust="spacing" textLength="139" x="98.5" y="209.7744">image_search_results</text><line style="stroke:#181818;stroke-width:0.5;" x1="74.5" x2="239.5" y1="218.1582" y2="218.1582"/><line style="stroke:#181818;stroke-width:0.5;" x1="74.5" x2="239.5" y1="226.1582" y2="226.1582"/></g><!--class places--><g id="elem_places"><rect codeLine="376" fill="#F1F1F1" height="45.0791" id="places" rx="2.5" ry="2.5" style="stroke:#181818;stroke-width:0.5;" width="69" x="22.5" y="84.0791"/><ellipse cx="35.5" cy="98.6187" fill="#ADD1B2" rx="9" ry="9" style="stroke:#181818;stroke-width:1.0;"/><path d="M31.2344,104.6187 L31.2344,92.4468 L40.2656,92.4468 L40.2656,94.5093 L33.6875,94.5093 L33.6875,97.2124 L39.7969,97.2124 L39.7969,99.2593 L33.6875,99.2593 L33.6875,102.5718 L40.5,102.5718 L40.5,104.6187 L31.2344,104.6187 Z " fill="#000000"/><text fill="#000000" font-family="sans-serif" font-size="14" lengthAdjust="spacing" textLength="41" x="47.5" y="104.7744">places</text><line style="stroke:#181818;stroke-width:0.5;" x1="23.5" x2="90.5" y1="113.1582" y2="113.1582"/><line style="stroke:#181818;stroke-width:0.5;" x1="23.5" x2="90.5" y1="121.1582" y2="121.1582"/></g><!--class chat_memories--><g id="elem_chat_memories"><rect codeLine="380" fill="#F1F1F1" height="45.0791" id="chat_memories" rx="2.5" ry="2.5" style="stroke:#181818;stroke-width:0.5;" width="124" x="835" y="84.0791"/><ellipse cx="848" cy="98.6187" fill="#ADD1B2" rx="9" ry="9" style="stroke:#181818;stroke-width:1.0;"/><path d="M843.7344,104.6187 L843.7344,92.4468 L852.7656,92.4468 L852.7656,94.5093 L846.1875,94.5093 L846.1875,97.2124 L852.2969,97.2124 L852.2969,99.2593 L846.1875,99.2593 L846.1875,102.5718 L853,102.5718 L853,104.6187 L843.7344,104.6187 Z " fill="#000000"/><text fill="#000000" font-family="sans-serif" font-size="14" lengthAdjust="spacing" textLength="96" x="860" y="104.7744">chat_memories</text><line style="stroke:#181818;stroke-width:0.5;" x1="836" x2="958" y1="113.1582" y2="113.1582"/><line style="stroke:#181818;stroke-width:0.5;" x1="836" x2="958" y1="121.1582" y2="121.1582"/></g><!--class chat_memory_vectors--><g id="elem_chat_memory_vectors"><rect codeLine="381" fill="#F1F1F1" height="45.0791" id="chat_memory_vectors" rx="2.5" ry="2.5" style="stroke:#181818;stroke-width:0.5;" width="167" x="632.5" y="84.0791"/><ellipse cx="645.5" cy="98.6187" fill="#ADD1B2" rx="9" ry="9" style="stroke:#181818;stroke-width:1.0;"/><path d="M641.2344,104.6187 L641.2344,92.4468 L650.2656,92.4468 L650.2656,94.5093 L643.6875,94.5093 L643.6875,97.2124 L649.7969,97.2124 L649.7969,99.2593 L643.6875,99.2593 L643.6875,102.5718 L650.5,102.5718 L650.5,104.6187 L641.2344,104.6187 Z " fill="#000000"/><text fill="#000000" font-family="sans-serif" font-size="14" lengthAdjust="spacing" textLength="139" x="657.5" y="104.7744">chat_memory_vectors</text><line style="stroke:#181818;stroke-width:0.5;" x1="633.5" x2="798.5" y1="113.1582" y2="113.1582"/><line style="stroke:#181818;stroke-width:0.5;" x1="633.5" x2="798.5" y1="121.1582" y2="121.1582"/></g><!--class checklists--><g id="elem_checklists"><rect codeLine="382" fill="#F1F1F1" height="45.0791" id="checklists" rx="2.5" ry="2.5" style="stroke:#181818;stroke-width:0.5;" width="89" x="508.5" y="84.0791"/><ellipse cx="521.5" cy="98.6187" fill="#ADD1B2" rx="9" ry="9" style="stroke:#181818;stroke-width:1.0;"/><path d="M517.2344,104.6187 L517.2344,92.4468 L526.2656,92.4468 L526.2656,94.5093 L519.6875,94.5093 L519.6875,97.2124 L525.7969,97.2124 L525.7969,99.2593 L519.6875,99.2593 L519.6875,102.5718 L526.5,102.5718 L526.5,104.6187 L517.2344,104.6187 Z " fill="#000000"/><text fill="#000000" font-family="sans-serif" font-size="14" lengthAdjust="spacing" textLength="61" x="533.5" y="104.7744">checklists</text><line style="stroke:#181818;stroke-width:0.5;" x1="509.5" x2="596.5" y1="113.1582" y2="113.1582"/><line style="stroke:#181818;stroke-width:0.5;" x1="509.5" x2="596.5" y1="121.1582" y2="121.1582"/></g><!--class checklist_items--><g id="elem_checklist_items"><rect codeLine="383" fill="#F1F1F1" height="45.0791" id="checklist_items" rx="2.5" ry="2.5" style="stroke:#181818;stroke-width:0.5;" width="123" x="551.5" y="189.0791"/><ellipse cx="564.5" cy="203.6187" fill="#ADD1B2" rx="9" ry="9" style="stroke:#181818;stroke-width:1.0;"/><path d="M560.2344,209.6187 L560.2344,197.4468 L569.2656,197.4468 L569.2656,199.5093 L562.6875,199.5093 L562.6875,202.2124 L568.7969,202.2124 L568.7969,204.2593 L562.6875,204.2593 L562.6875,207.5718 L569.5,207.5718 L569.5,209.6187 L560.2344,209.6187 Z " fill="#000000"/><text fill="#000000" font-family="sans-serif" font-size="14" lengthAdjust="spacing" textLength="95" x="576.5" y="209.7744">checklist_items</text><line style="stroke:#181818;stroke-width:0.5;" x1="552.5" x2="673.5" y1="218.1582" y2="218.1582"/><line style="stroke:#181818;stroke-width:0.5;" x1="552.5" x2="673.5" y1="226.1582" y2="226.1582"/></g><!--class hotel_bookings--><g id="elem_hotel_bookings"><rect codeLine="384" fill="#F1F1F1" height="45.0791" id="hotel_bookings" rx="2.5" ry="2.5" style="stroke:#181818;stroke-width:0.5;" width="124" x="349" y="84.0791"/><ellipse cx="362" cy="98.6187" fill="#ADD1B2" rx="9" ry="9" style="stroke:#181818;stroke-width:1.0;"/><path d="M357.7344,104.6187 L357.7344,92.4468 L366.7656,92.4468 L366.7656,94.5093 L360.1875,94.5093 L360.1875,97.2124 L366.2969,97.2124 L366.2969,99.2593 L360.1875,99.2593 L360.1875,102.5718 L367,102.5718 L367,104.6187 L357.7344,104.6187 Z " fill="#000000"/><text fill="#000000" font-family="sans-serif" font-size="14" lengthAdjust="spacing" textLength="96" x="374" y="104.7744">hotel_bookings</text><line style="stroke:#181818;stroke-width:0.5;" x1="350" x2="472" y1="113.1582" y2="113.1582"/><line style="stroke:#181818;stroke-width:0.5;" x1="350" x2="472" y1="121.1582" y2="121.1582"/></g><!--class payment_transactions--><g id="elem_payment_transactions"><rect codeLine="385" fill="#F1F1F1" height="45.0791" id="payment_transactions" rx="2.5" ry="2.5" style="stroke:#181818;stroke-width:0.5;" width="167" x="349.5" y="189.0791"/><ellipse cx="362.5" cy="203.6187" fill="#ADD1B2" rx="9" ry="9" style="stroke:#181818;stroke-width:1.0;"/><path d="M358.2344,209.6187 L358.2344,197.4468 L367.2656,197.4468 L367.2656,199.5093 L360.6875,199.5093 L360.6875,202.2124 L366.7969,202.2124 L366.7969,204.2593 L360.6875,204.2593 L360.6875,207.5718 L367.5,207.5718 L367.5,209.6187 L358.2344,209.6187 Z " fill="#000000"/><text fill="#000000" font-family="sans-serif" font-size="14" lengthAdjust="spacing" textLength="139" x="374.5" y="209.7744">payment_transactions</text><line style="stroke:#181818;stroke-width:0.5;" x1="350.5" x2="515.5" y1="218.1582" y2="218.1582"/><line style="stroke:#181818;stroke-width:0.5;" x1="350.5" x2="515.5" y1="226.1582" y2="226.1582"/></g><!--link image_search_places to image_search_results--><g id="link_image_search_places_image_search_results"><path codeLine="389" d="M183.75,137.1091 C183.75,154.6991 183.75,153.0491 183.75,170.7291 " fill="none" id="image_search_places-image_search_results" style="stroke:#181818;stroke-width:1.0;stroke-dasharray:7.0,7.0;"/><line style="stroke:#181818;stroke-width:1.0;" x1="179.75" x2="187.75" y1="133.1091" y2="133.1091"/><line style="stroke:#181818;stroke-width:1.0;" x1="179.75" x2="187.75" y1="136.1091" y2="136.1091"/><line style="stroke:#181818;stroke-width:1.0;" x1="183.75" x2="183.75" y1="137.1091" y2="129.1091"/><line style="stroke:#181818;stroke-width:1.0;" x1="183.75" x2="189.75" y1="180.7291" y2="188.7291"/><line style="stroke:#181818;stroke-width:1.0;" x1="183.75" x2="177.75" y1="180.7291" y2="188.7291"/><line style="stroke:#181818;stroke-width:1.0;" x1="183.75" x2="183.75" y1="180.7291" y2="188.7291"/><ellipse cx="183.75" cy="174.7291" fill="none" rx="4" ry="4" style="stroke:#181818;stroke-width:1.0;"/></g><!--link places to image_search_results--><g id="link_places_image_search_results"><path codeLine="390" d="M82.5,137.1091 C82.5,154.6991 82.5,153.0491 82.5,170.7291 " fill="none" id="places-image_search_results" style="stroke:#181818;stroke-width:1.0;stroke-dasharray:7.0,7.0;"/><line style="stroke:#181818;stroke-width:1.0;" x1="78.5" x2="86.5" y1="133.1091" y2="133.1091"/><line style="stroke:#181818;stroke-width:1.0;" x1="78.5" x2="86.5" y1="136.1091" y2="136.1091"/><line style="stroke:#181818;stroke-width:1.0;" x1="82.5" x2="82.5" y1="137.1091" y2="129.1091"/><line style="stroke:#181818;stroke-width:1.0;" x1="82.5" x2="88.5" y1="180.7291" y2="188.7291"/><line style="stroke:#181818;stroke-width:1.0;" x1="82.5" x2="76.5" y1="180.7291" y2="188.7291"/><line style="stroke:#181818;stroke-width:1.0;" x1="82.5" x2="82.5" y1="180.7291" y2="188.7291"/><ellipse cx="82.5" cy="174.7291" fill="none" rx="4" ry="4" style="stroke:#181818;stroke-width:1.0;"/></g><!--link checklists to checklist_items--><g id="link_checklists_checklist_items"><path codeLine="393" d="M574.5,137.1091 C574.5,154.6991 574.5,153.0491 574.5,170.7291 " fill="none" id="checklists-checklist_items" style="stroke:#181818;stroke-width:1.0;stroke-dasharray:7.0,7.0;"/><line style="stroke:#181818;stroke-width:1.0;" x1="570.5" x2="578.5" y1="133.1091" y2="133.1091"/><line style="stroke:#181818;stroke-width:1.0;" x1="570.5" x2="578.5" y1="136.1091" y2="136.1091"/><line style="stroke:#181818;stroke-width:1.0;" x1="574.5" x2="574.5" y1="137.1091" y2="129.1091"/><line style="stroke:#181818;stroke-width:1.0;" x1="574.5" x2="580.5" y1="180.7291" y2="188.7291"/><line style="stroke:#181818;stroke-width:1.0;" x1="574.5" x2="568.5" y1="180.7291" y2="188.7291"/><line style="stroke:#181818;stroke-width:1.0;" x1="574.5" x2="574.5" y1="180.7291" y2="188.7291"/><ellipse cx="574.5" cy="174.7291" fill="none" rx="4" ry="4" style="stroke:#181818;stroke-width:1.0;"/></g><!--link hotel_bookings to payment_transactions--><g id="link_hotel_bookings_payment_transactions"><path codeLine="396" d="M411.25,137.1091 C411.25,154.6991 411.25,153.0491 411.25,170.7291 " fill="none" id="hotel_bookings-payment_transactions" style="stroke:#181818;stroke-width:1.0;stroke-dasharray:7.0,7.0;"/><line style="stroke:#181818;stroke-width:1.0;" x1="407.25" x2="415.25" y1="133.1091" y2="133.1091"/><line style="stroke:#181818;stroke-width:1.0;" x1="407.25" x2="415.25" y1="136.1091" y2="136.1091"/><line style="stroke:#181818;stroke-width:1.0;" x1="411.25" x2="411.25" y1="137.1091" y2="129.1091"/><line style="stroke:#181818;stroke-width:1.0;" x1="411.25" x2="417.25" y1="180.7291" y2="188.7291"/><line style="stroke:#181818;stroke-width:1.0;" x1="411.25" x2="405.25" y1="180.7291" y2="188.7291"/><line style="stroke:#181818;stroke-width:1.0;" x1="411.25" x2="411.25" y1="180.7291" y2="188.7291"/><ellipse cx="411.25" cy="174.7291" fill="none" rx="4" ry="4" style="stroke:#181818;stroke-width:1.0;"/></g><!--SRC=[rLXBRziu4BxhLt1pI6CZDV9eUmYw1HH7JRHrRCDMWkrU14Rcsjpe1P5AQxJzxpka99kKATTAl0Ks5oiSSlXnE8zl-1jVa8YWDCGqjXPqHb10io0a5dkaSOep7A6GneGlKuAIZ2yIotg5Vj_r3-QUzf0plBj5XyZxF7QchLQJE8yGZV2S-3ZWD8bzYUERXT3KldVyqN3m6RwTAzVpNSyTEXDx8WOcpdXWznthXrMe21OaU0mfutw0EPadsLBg6DlzJ-xm6hxwWv5t0-0GkXhrxswTeIVKUdsXeTrnpyHnFG3ZJD6HPryEd6cdbGehnS4Zd1WTt36IWTdid2yE95uISygNA8Tn9WSGwj8Pka2NxlNKcRZs0Br_F_xquOCKlNujVs8Crtk1xkr9_yQU7BqzwSXX4c4QAkEd9oUb9CsI9_23pB2er-l1BzX4m-B3RF4V9RkZwfOBYsdkq8Cv7wivZGZKdLdCV9uyadXFcqeP3WB2IhqmotF-zBI3_r2knylm4mdHECHnJEEvTaLSodo8gdt1UyXdSy91TENqtLjx80SPnndtP-3JGc1xJd6ryMnZZ38VXedKFHeD77jOCwU2s6SnJjaYuNk2_WJkAc8tJa3i3WkBLdlu_x14cFgFwQW1qWmlMm1Hpz601nJw58pn5QHJCEMWmYGNwPOpcoXeu-bokmP75whyMeI-UrC4MuZ5TKFg1CtzOYIUrqR8rvG4dCpy865cvv1AFFVMcNhsxTZxQ-KX1e5ws23FClYKUVUfPMohXcewEkZDSMZ27P4eKMDF-gqPhXgE4_94oHV8bzCae3ZKmZ6JCZ-5pVRhIjrIC-FBiF6eGH9p0AAU2S9HWDaIZnLa2974dsT9dhP0hfpN3AfffnPxI4nDH_wRWZdoB5JF_7D_Dg1QOBRWUFvBB53kjIyRrCBwjAglSFUCX39iQxUlkhFj8Zl6uP9Hfhaofdu95vVY_IJfdrjCrkKevJudNtLdZjDSo-ENSZZ9kM5SjVlwB39-sbzlPO9Ths2JHQmXjB_zPu8uAK6ejpqkQWeaBuApGATxBUjDRRkpjsyxIgsH_5cbLIUTPmHdGScPnDgw7cxpGfNbNyY-OTlE6M5vs2QZ6t0tniFMwjKSmmfTI209yfTVt2vNe_fIVm4B3j4jbD5igNbI019VbDTiRrGTTWIIqD1ZR1G-ZM2im2pz9x1aalqAI2Hw8BCPbGQyT_hUI6I5ytSTWnNBbh5cmN9qJrWRgAXkfwftfPn4BVPL5ZRmageNNaMQT6ovRcjjkaauD3w7Q8oN4Q3KBBGGClyXIHx1o7koKg5J4SfHdd0Wa6b60rAB3s2-F6VhswzPD2rW-y3lObPad1P0jGCs-c2KvB61a6_2Qlt0SDv34sTWU-veEBrnnrDqT3qONTg3JaizudM1MSLRmlVllLxohTxCwy9rloqG5yslFaDjUXibw-RIqffaVQRe-Ior_zjG1AdRqXkoSifcuoBmbjt16DYDSL-rGx2qTg4sGU7ZbecZ6wPlLQWJNCjCUurBvBc09W9faEn9D_acJpIYC4mpCCoDoGLVssdg2kqh83TboPJBqSTFrWO3D5m71Cm1qrOUM5APgE8Y2nNEe9tUKEWj4sanJIzPXRN3580Xggs-jrPbcqIhcbVeA3DrVNPLR2obxjI5HLaGQcHQrbNesTYg9UToaYaVMXRa0BYZRlSwJ1vmY9p95Jgomn1v-04kgjFjjarSO_lQGMSNg7pMh3sVjL8MaoyfN4VzhVGgYJ2D3yfShhwMrWVKBAU8b1otvQNFl8-M_JR7PKOpJWzq38RyPTv5oQG0zbc9_4Nf-nVcxyeN-s7EE5pqQPCNFTChpo_A0d5SlXw9PtVtXIvfV90oFacPnjKwqo0s2Mhbf742s_xOiEMvmImj2u9HfcwvgiGkj0OPgFoV5Ti9WNOC4kIEnLJKBfxH-HoYwQ15PHNhe8qX6L3q7HUktY_qfQko2w3HHq9c3t3fEzTT6ML5yMMhsbkFnZDZzAmywfan-UQYBF77QFKwSiTfMAI4buMcAugvzjQoxMcZKLpH04LUhb23QmKQ7GcoS8m6KBMFYshTgUskSmUZOCqSDF6AAfX6IuwWY6h4G3s1YGtyM3Ek_un7LHoe1TTv3f-flFPyct-1p_uB]--></g></svg>