<?xml version="1.0" encoding="us-ascii" standalone="no"?><svg xmlns="http://www.w3.org/2000/svg" xmlns:xlink="http://www.w3.org/1999/xlink" contentStyleType="text/css" height="432px" preserveAspectRatio="none" style="width:246px;height:432px;background:#FFFFFF;" version="1.1" viewBox="0 0 246 432" width="246px" zoomAndPan="magnify"><defs/><g><text fill="#000000" font-family="sans-serif" font-size="14" font-weight="bold" lengthAdjust="spacing" textLength="65" x="83.75" y="25.6953">Checklist</text><!--class checklists--><g id="elem_checklists"><rect codeLine="171" fill="#F1F1F1" height="86.1582" id="checklists" rx="2.5" ry="2.5" style="stroke:#181818;stroke-width:0.5;" width="93" x="24" y="174.0791"/><ellipse cx="39" cy="190.0791" fill="#ADD1B2" rx="11" ry="11" style="stroke:#181818;stroke-width:1.0;"/><path d="M37.8594,190.876 L37.8594,193.376 L42.1875,193.376 L42.1875,192.4541 Q42.1875,191.8447 42.4219,191.5791 Q42.6719,191.3135 43.0469,191.3135 Q43.4219,191.3135 43.6563,191.5791 Q43.8906,191.8447 43.8906,192.4541 L43.8906,195.0791 L35.8906,195.0791 Q35.2656,195.0791 35,194.8447 Q34.75,194.6104 34.75,194.2197 Q34.75,193.8447 35.0156,193.6104 Q35.2813,193.376 35.8906,193.376 L36.1563,193.376 L36.1563,186.7197 L35.8906,186.7197 Q35.2656,186.7197 35,186.4854 Q34.75,186.251 34.75,185.8604 Q34.75,185.4854 35,185.251 Q35.2656,185.0166 35.8906,185.0166 L43.5156,185.0166 L43.5156,187.6104 Q43.5156,188.2197 43.2813,188.4854 Q43.0625,188.7354 42.6719,188.7354 Q42.2969,188.7354 42.0625,188.4854 Q41.8281,188.2197 41.8281,187.6104 L41.8281,186.7197 L37.8594,186.7197 L37.8594,189.1729 L39.3438,189.1729 Q39.3438,188.5166 39.4688,188.3291 Q39.7344,187.9229 40.2031,187.9229 Q40.5781,187.9229 40.8125,188.1885 Q41.0469,188.4385 41.0469,189.0479 L41.0469,191.0166 Q41.0469,191.5635 40.9219,191.751 Q40.6563,192.1416 40.2031,192.1416 Q39.7344,192.1416 39.4688,191.7354 Q39.3438,191.5479 39.3438,190.876 L37.8594,190.876 Z " fill="#000000"/><text fill="#000000" font-family="sans-serif" font-size="14" lengthAdjust="spacing" textLength="61" x="53" y="196.2349">checklists</text><line style="stroke:#181818;stroke-width:0.5;" x1="25" x2="116" y1="206.0791" y2="206.0791"/><ellipse cx="35" cy="221.1187" fill="#000000" rx="3" ry="3" style="stroke:#000000;stroke-width:1.0;"/><text fill="#000000" font-family="sans-serif" font-size="14" lengthAdjust="spacing" textLength="11" x="44" y="225.7744">id</text><text fill="#000000" font-family="sans-serif" font-size="14" lengthAdjust="spacing" textLength="47" x="44" y="244.8535">user_id</text><line style="stroke:#181818;stroke-width:0.5;" x1="25" x2="116" y1="252.2373" y2="252.2373"/></g><!--class checklist_items--><g id="elem_checklist_items"><rect codeLine="176" fill="#F1F1F1" height="86.1582" id="checklist_items" rx="2.5" ry="2.5" style="stroke:#181818;stroke-width:0.5;" width="127" x="7" y="339.0791"/><ellipse cx="22" cy="355.0791" fill="#ADD1B2" rx="11" ry="11" style="stroke:#181818;stroke-width:1.0;"/><path d="M20.8594,355.876 L20.8594,358.376 L25.1875,358.376 L25.1875,357.4541 Q25.1875,356.8447 25.4219,356.5791 Q25.6719,356.3135 26.0469,356.3135 Q26.4219,356.3135 26.6563,356.5791 Q26.8906,356.8447 26.8906,357.4541 L26.8906,360.0791 L18.8906,360.0791 Q18.2656,360.0791 18,359.8447 Q17.75,359.6104 17.75,359.2197 Q17.75,358.8447 18.0156,358.6104 Q18.2813,358.376 18.8906,358.376 L19.1563,358.376 L19.1563,351.7197 L18.8906,351.7197 Q18.2656,351.7197 18,351.4854 Q17.75,351.251 17.75,350.8604 Q17.75,350.4854 18,350.251 Q18.2656,350.0166 18.8906,350.0166 L26.5156,350.0166 L26.5156,352.6104 Q26.5156,353.2197 26.2813,353.4854 Q26.0625,353.7354 25.6719,353.7354 Q25.2969,353.7354 25.0625,353.4854 Q24.8281,353.2197 24.8281,352.6104 L24.8281,351.7197 L20.8594,351.7197 L20.8594,354.1729 L22.3438,354.1729 Q22.3438,353.5166 22.4688,353.3291 Q22.7344,352.9229 23.2031,352.9229 Q23.5781,352.9229 23.8125,353.1885 Q24.0469,353.4385 24.0469,354.0479 L24.0469,356.0166 Q24.0469,356.5635 23.9219,356.751 Q23.6563,357.1416 23.2031,357.1416 Q22.7344,357.1416 22.4688,356.7354 Q22.3438,356.5479 22.3438,355.876 L20.8594,355.876 Z " fill="#000000"/><text fill="#000000" font-family="sans-serif" font-size="14" lengthAdjust="spacing" textLength="95" x="36" y="361.2349">checklist_items</text><line style="stroke:#181818;stroke-width:0.5;" x1="8" x2="133" y1="371.0791" y2="371.0791"/><ellipse cx="18" cy="386.1187" fill="#000000" rx="3" ry="3" style="stroke:#000000;stroke-width:1.0;"/><text fill="#000000" font-family="sans-serif" font-size="14" lengthAdjust="spacing" textLength="11" x="27" y="390.7744">id</text><text fill="#000000" font-family="sans-serif" font-size="14" lengthAdjust="spacing" textLength="73" x="27" y="409.8535">checklist_id</text><line style="stroke:#181818;stroke-width:0.5;" x1="8" x2="133" y1="417.2373" y2="417.2373"/></g><!--class users--><g id="elem_users"><rect fill="#F1F1F1" height="48" id="users" rx="2.5" ry="2.5" style="stroke:#181818;stroke-width:0.5;" width="67" x="37" y="47.0791"/><ellipse cx="52" cy="63.0791" fill="#ADD1B2" rx="11" ry="11" style="stroke:#181818;stroke-width:1.0;"/><path d="M54.7656,58.9541 Q54.9219,58.7354 55.1094,58.626 Q55.2969,58.5166 55.5156,58.5166 Q55.8906,58.5166 56.125,58.7822 Q56.3594,59.0322 56.3594,59.6416 L56.3594,61.0947 Q56.3594,61.7041 56.125,61.9697 Q55.8906,62.2354 55.5156,62.2354 Q55.1719,62.2354 54.9688,62.0322 Q54.7656,61.8447 54.6563,61.3291 Q54.6094,60.9697 54.4219,60.7822 Q54.0938,60.4072 53.4844,60.1885 Q52.875,59.9697 52.25,59.9697 Q51.4844,59.9697 50.8438,60.2979 Q50.2188,60.626 49.7188,61.376 Q49.2344,62.126 49.2344,63.1572 L49.2344,64.251 Q49.2344,65.4854 50.125,66.3135 Q51.0156,67.126 52.6094,67.126 Q53.5469,67.126 54.2031,66.876 Q54.5938,66.7197 55.0156,66.2822 Q55.2813,66.0166 55.4219,65.9385 Q55.5781,65.8604 55.7813,65.8604 Q56.1094,65.8604 56.3594,66.126 Q56.625,66.376 56.625,66.7197 Q56.625,67.0635 56.2813,67.4697 Q55.7813,68.0479 54.9844,68.376 Q53.9063,68.8291 52.6094,68.8291 Q51.0938,68.8291 49.8906,68.2041 Q48.9063,67.7041 48.2188,66.6416 Q47.5313,65.5635 47.5313,64.2822 L47.5313,63.126 Q47.5313,61.7979 48.1406,60.6572 Q48.7656,59.501 49.8594,58.8916 Q50.9531,58.2666 52.1875,58.2666 Q52.9219,58.2666 53.5625,58.4385 Q54.2188,58.5947 54.7656,58.9541 Z " fill="#000000"/><text fill="#000000" font-family="sans-serif" font-size="14" lengthAdjust="spacing" textLength="35" x="66" y="69.2349">users</text><line style="stroke:#181818;stroke-width:0.5;" x1="38" x2="103" y1="79.0791" y2="79.0791"/><line style="stroke:#181818;stroke-width:0.5;" x1="38" x2="103" y1="87.0791" y2="87.0791"/></g><!--link users to checklists--><g id="link_users_checklists"><path codeLine="181" d="M70.5,103.2191 C70.5,124.3591 70.5,130.1591 70.5,155.8291 " fill="none" id="users-checklists" style="stroke:#181818;stroke-width:1.0;"/><line style="stroke:#181818;stroke-width:1.0;" x1="66.5" x2="74.5" y1="99.2191" y2="99.2191"/><line style="stroke:#181818;stroke-width:1.0;" x1="66.5" x2="74.5" y1="102.2191" y2="102.2191"/><line style="stroke:#181818;stroke-width:1.0;" x1="70.5" x2="70.5" y1="103.2191" y2="95.2191"/><line style="stroke:#181818;stroke-width:1.0;" x1="70.5" x2="76.5" y1="165.8291" y2="173.8291"/><line style="stroke:#181818;stroke-width:1.0;" x1="70.5" x2="64.5" y1="165.8291" y2="173.8291"/><line style="stroke:#181818;stroke-width:1.0;" x1="70.5" x2="70.5" y1="165.8291" y2="173.8291"/><ellipse cx="70.5" cy="159.8291" fill="none" rx="4" ry="4" style="stroke:#181818;stroke-width:1.0;"/><text fill="#000000" font-family="sans-serif" font-size="13" lengthAdjust="spacing" textLength="108" x="71.5" y="140.6533">fk_checklists_user</text></g><!--link checklists to checklist_items--><g id="link_checklists_checklist_items"><path codeLine="182" d="M70.5,268.4791 C70.5,292.6291 70.5,296.7791 70.5,320.8891 " fill="none" id="checklists-checklist_items" style="stroke:#181818;stroke-width:1.0;"/><line style="stroke:#181818;stroke-width:1.0;" x1="66.5" x2="74.5" y1="264.4791" y2="264.4791"/><line style="stroke:#181818;stroke-width:1.0;" x1="66.5" x2="74.5" y1="267.4791" y2="267.4791"/><line style="stroke:#181818;stroke-width:1.0;" x1="70.5" x2="70.5" y1="268.4791" y2="260.4791"/><line style="stroke:#181818;stroke-width:1.0;" x1="70.5" x2="76.5" y1="330.8891" y2="338.8891"/><line style="stroke:#181818;stroke-width:1.0;" x1="70.5" x2="64.5" y1="330.8891" y2="338.8891"/><line style="stroke:#181818;stroke-width:1.0;" x1="70.5" x2="70.5" y1="330.8891" y2="338.8891"/><ellipse cx="70.5" cy="324.8891" fill="none" rx="4" ry="4" style="stroke:#181818;stroke-width:1.0;"/><text fill="#000000" font-family="sans-serif" font-size="13" lengthAdjust="spacing" textLength="167" x="71.5" y="305.6533">fk_checklist_items_checklist</text></g><!--SRC=[hLXTRvim57tthx3sq8z9_GELzi0wrg8bQHJefZuXZtY9LGCHTZ9bxVxxZ0t4nYR0IbvQZkyvrxxtsbnp2J-zumSkuLFehq9u0Rsdw04klNjVOE-Iv8HJ39yOBbWfk-TR070cq2FSI_0LGF7x2CaQtiBFmRsOGE3D97Xp8_yG5gE4amEMJnGn7jDyGx8OSObaA5L3E4M4olzsHVwBK1oJ56rml2ye-6kuZSbQFX5yTWALgSA3HLHh7mIzq2HPncAUl-1id9eGK35uUxkvoL-jcTt23xzUuXOgdp-OHCs_ufo0oXna-FTEn0AyDv-NC5fvt_qPNCwynI9Ot4zO9L613fZ29KLPHh9D4rukyNWdS3t0Ub2rP5JMQtIqZ3KX9qSC9DXY2INJEjaNXVXNLMMxY5gE4jpbAHDPGZkspVcvHHbvDW9n2qMYTKIc6XWs9a-6HAULWBG4keNbBC6MDm6Lni0qgfYE-4YwZIjYvoAr2BLNUnfIovwmm5V-zy3_0PUFOHHEMDqhV23ujpW4bpdZh2c8GiBnhWHxwhM4AdF6ZxHLMRMGY4aURufylxFqD5_TN8ibjPpsMyIs76t-qrl5FklFLSr6n6HTw8YgPyEcnTC3PD2r0Sa4BeP3p273bFcvURI2fqkOGyPSMYodf5Eidj646yKBeBVmPizXCEK-ALKpH8-Cd3O98lLgK3NKTMIUBRoJZDm_NHLR- -WYTnMkWzwnPOq3px4ucJyRLqUTgwP6QCXgSjXRIbMCMZeARMY3bCowj76NMkLzl9OaTWhr71wAFE4U4MtIdJ_bzbYgL-q53ChU5eOO5ScffxOxc5C1gsQOIK97gsDtKmQfm6nFxTUKBLoNlju06JNlcelCXcD0LRsBuHAhvsYhLIE61dYNafAOi5hk7loxRxCWZ2OicBijJbue4Pk-wLzhP43-6zkOS9nQ16tOJhBcH_L_pRDAgJRUPbJUJ9e2Jy_JHjwBuDoVFwwU9uqzud2EqxmuQX55F4vBZE112QZDZ_419pml1byNJ4zLB3L8PQ63SlBM8ZO3apVU3u-Hk5YA1jbxdlkBAVV0Gyx5nL8eesCguje4TrlYySyyVn7tpG79s2b-UH79M7cDoUqRgQ7fIalBgGolYQd8jkmgjdCAKiCrKjEdJDFNfzaCXkAecdiJfaYgVl4YxxCN-hNybKSfZD1FAjzuAqoHNDLrkOeL9bb2zsiCaJ1gFffSiNsQeeBymUlhyzzNkhwXTD-v1rnK-rgxtjTWrn5wPcltRk5pzGVwlXZqVXiO-X6W_pOtzDes-68s_Furwdu51lRW8zhiGGthg6PxH2yDndPN0zecqFzw1oEEEF0F]--></g></svg>