<?xml version="1.0" encoding="us-ascii" standalone="no"?><svg xmlns="http://www.w3.org/2000/svg" xmlns:xlink="http://www.w3.org/1999/xlink" contentStyleType="text/css" height="762px" preserveAspectRatio="none" style="width:407px;height:762px;background:#FFFFFF;" version="1.1" viewBox="0 0 407 762" width="407px" zoomAndPan="magnify"><defs/><g><text fill="#000000" font-family="sans-serif" font-size="14" font-weight="bold" lengthAdjust="spacing" textLength="109" x="142.25" y="25.6953">Travel Planning</text><!--class travel_plans--><g id="elem_travel_plans"><rect codeLine="37" fill="#F1F1F1" height="86.1582" id="travel_plans" rx="2.5" ry="2.5" style="stroke:#181818;stroke-width:0.5;" width="109" x="22" y="174.0791"/><ellipse cx="37" cy="190.0791" fill="#ADD1B2" rx="11" ry="11" style="stroke:#181818;stroke-width:1.0;"/><path d="M35.8594,190.876 L35.8594,193.376 L40.1875,193.376 L40.1875,192.4541 Q40.1875,191.8447 40.4219,191.5791 Q40.6719,191.3135 41.0469,191.3135 Q41.4219,191.3135 41.6563,191.5791 Q41.8906,191.8447 41.8906,192.4541 L41.8906,195.0791 L33.8906,195.0791 Q33.2656,195.0791 33,194.8447 Q32.75,194.6104 32.75,194.2197 Q32.75,193.8447 33.0156,193.6104 Q33.2813,193.376 33.8906,193.376 L34.1563,193.376 L34.1563,186.7197 L33.8906,186.7197 Q33.2656,186.7197 33,186.4854 Q32.75,186.251 32.75,185.8604 Q32.75,185.4854 33,185.251 Q33.2656,185.0166 33.8906,185.0166 L41.5156,185.0166 L41.5156,187.6104 Q41.5156,188.2197 41.2813,188.4854 Q41.0625,188.7354 40.6719,188.7354 Q40.2969,188.7354 40.0625,188.4854 Q39.8281,188.2197 39.8281,187.6104 L39.8281,186.7197 L35.8594,186.7197 L35.8594,189.1729 L37.3438,189.1729 Q37.3438,188.5166 37.4688,188.3291 Q37.7344,187.9229 38.2031,187.9229 Q38.5781,187.9229 38.8125,188.1885 Q39.0469,188.4385 39.0469,189.0479 L39.0469,191.0166 Q39.0469,191.5635 38.9219,191.751 Q38.6563,192.1416 38.2031,192.1416 Q37.7344,192.1416 37.4688,191.7354 Q37.3438,191.5479 37.3438,190.876 L35.8594,190.876 Z " fill="#000000"/><text fill="#000000" font-family="sans-serif" font-size="14" lengthAdjust="spacing" textLength="77" x="51" y="196.2349">travel_plans</text><line style="stroke:#181818;stroke-width:0.5;" x1="23" x2="130" y1="206.0791" y2="206.0791"/><ellipse cx="33" cy="221.1187" fill="#000000" rx="3" ry="3" style="stroke:#000000;stroke-width:1.0;"/><text fill="#000000" font-family="sans-serif" font-size="14" lengthAdjust="spacing" textLength="11" x="42" y="225.7744">id</text><text fill="#000000" font-family="sans-serif" font-size="14" lengthAdjust="spacing" textLength="47" x="42" y="244.8535">user_id</text><line style="stroke:#181818;stroke-width:0.5;" x1="23" x2="130" y1="252.2373" y2="252.2373"/></g><!--class travel_days--><g id="elem_travel_days"><rect codeLine="42" fill="#F1F1F1" height="86.1582" id="travel_days" rx="2.5" ry="2.5" style="stroke:#181818;stroke-width:0.5;" width="115" x="19" y="339.0791"/><ellipse cx="38.5" cy="355.0791" fill="#ADD1B2" rx="11" ry="11" style="stroke:#181818;stroke-width:1.0;"/><path d="M37.3594,355.876 L37.3594,358.376 L41.6875,358.376 L41.6875,357.4541 Q41.6875,356.8447 41.9219,356.5791 Q42.1719,356.3135 42.5469,356.3135 Q42.9219,356.3135 43.1563,356.5791 Q43.3906,356.8447 43.3906,357.4541 L43.3906,360.0791 L35.3906,360.0791 Q34.7656,360.0791 34.5,359.8447 Q34.25,359.6104 34.25,359.2197 Q34.25,358.8447 34.5156,358.6104 Q34.7813,358.376 35.3906,358.376 L35.6563,358.376 L35.6563,351.7197 L35.3906,351.7197 Q34.7656,351.7197 34.5,351.4854 Q34.25,351.251 34.25,350.8604 Q34.25,350.4854 34.5,350.251 Q34.7656,350.0166 35.3906,350.0166 L43.0156,350.0166 L43.0156,352.6104 Q43.0156,353.2197 42.7813,353.4854 Q42.5625,353.7354 42.1719,353.7354 Q41.7969,353.7354 41.5625,353.4854 Q41.3281,353.2197 41.3281,352.6104 L41.3281,351.7197 L37.3594,351.7197 L37.3594,354.1729 L38.8438,354.1729 Q38.8438,353.5166 38.9688,353.3291 Q39.2344,352.9229 39.7031,352.9229 Q40.0781,352.9229 40.3125,353.1885 Q40.5469,353.4385 40.5469,354.0479 L40.5469,356.0166 Q40.5469,356.5635 40.4219,356.751 Q40.1563,357.1416 39.7031,357.1416 Q39.2344,357.1416 38.9688,356.7354 Q38.8438,356.5479 38.8438,355.876 L37.3594,355.876 Z " fill="#000000"/><text fill="#000000" font-family="sans-serif" font-size="14" lengthAdjust="spacing" textLength="73" x="53.5" y="361.2349">travel_days</text><line style="stroke:#181818;stroke-width:0.5;" x1="20" x2="133" y1="371.0791" y2="371.0791"/><ellipse cx="30" cy="386.1187" fill="#000000" rx="3" ry="3" style="stroke:#000000;stroke-width:1.0;"/><text fill="#000000" font-family="sans-serif" font-size="14" lengthAdjust="spacing" textLength="11" x="39" y="390.7744">id</text><text fill="#000000" font-family="sans-serif" font-size="14" lengthAdjust="spacing" textLength="89" x="39" y="409.8535">travel_plan_id</text><line style="stroke:#181818;stroke-width:0.5;" x1="20" x2="133" y1="417.2373" y2="417.2373"/></g><!--class travel_places--><g id="elem_travel_places"><rect codeLine="47" fill="#F1F1F1" height="86.1582" id="travel_places" rx="2.5" ry="2.5" style="stroke:#181818;stroke-width:0.5;" width="116" x="18.5" y="504.0791"/><ellipse cx="33.5" cy="520.0791" fill="#ADD1B2" rx="11" ry="11" style="stroke:#181818;stroke-width:1.0;"/><path d="M32.3594,520.876 L32.3594,523.376 L36.6875,523.376 L36.6875,522.4541 Q36.6875,521.8447 36.9219,521.5791 Q37.1719,521.3135 37.5469,521.3135 Q37.9219,521.3135 38.1563,521.5791 Q38.3906,521.8447 38.3906,522.4541 L38.3906,525.0791 L30.3906,525.0791 Q29.7656,525.0791 29.5,524.8447 Q29.25,524.6104 29.25,524.2197 Q29.25,523.8447 29.5156,523.6104 Q29.7813,523.376 30.3906,523.376 L30.6563,523.376 L30.6563,516.7197 L30.3906,516.7197 Q29.7656,516.7197 29.5,516.4854 Q29.25,516.251 29.25,515.8604 Q29.25,515.4854 29.5,515.251 Q29.7656,515.0166 30.3906,515.0166 L38.0156,515.0166 L38.0156,517.6104 Q38.0156,518.2197 37.7813,518.4854 Q37.5625,518.7354 37.1719,518.7354 Q36.7969,518.7354 36.5625,518.4854 Q36.3281,518.2197 36.3281,517.6104 L36.3281,516.7197 L32.3594,516.7197 L32.3594,519.1729 L33.8438,519.1729 Q33.8438,518.5166 33.9688,518.3291 Q34.2344,517.9229 34.7031,517.9229 Q35.0781,517.9229 35.3125,518.1885 Q35.5469,518.4385 35.5469,519.0479 L35.5469,521.0166 Q35.5469,521.5635 35.4219,521.751 Q35.1563,522.1416 34.7031,522.1416 Q34.2344,522.1416 33.9688,521.7354 Q33.8438,521.5479 33.8438,520.876 L32.3594,520.876 Z " fill="#000000"/><text fill="#000000" font-family="sans-serif" font-size="14" lengthAdjust="spacing" textLength="84" x="47.5" y="526.2349">travel_places</text><line style="stroke:#181818;stroke-width:0.5;" x1="19.5" x2="133.5" y1="536.0791" y2="536.0791"/><ellipse cx="29.5" cy="551.1187" fill="#000000" rx="3" ry="3" style="stroke:#000000;stroke-width:1.0;"/><text fill="#000000" font-family="sans-serif" font-size="14" lengthAdjust="spacing" textLength="11" x="38.5" y="555.7744">id</text><text fill="#000000" font-family="sans-serif" font-size="14" lengthAdjust="spacing" textLength="42" x="38.5" y="574.8535">day_id</text><line style="stroke:#181818;stroke-width:0.5;" x1="19.5" x2="133.5" y1="582.2373" y2="582.2373"/></g><!--class current_activities--><g id="elem_current_activities"><rect codeLine="52" fill="#F1F1F1" height="86.1582" id="current_activities" rx="2.5" ry="2.5" style="stroke:#181818;stroke-width:0.5;" width="139" x="7" y="669.0791"/><ellipse cx="22" cy="685.0791" fill="#ADD1B2" rx="11" ry="11" style="stroke:#181818;stroke-width:1.0;"/><path d="M20.8594,685.876 L20.8594,688.376 L25.1875,688.376 L25.1875,687.4541 Q25.1875,686.8447 25.4219,686.5791 Q25.6719,686.3135 26.0469,686.3135 Q26.4219,686.3135 26.6563,686.5791 Q26.8906,686.8447 26.8906,687.4541 L26.8906,690.0791 L18.8906,690.0791 Q18.2656,690.0791 18,689.8447 Q17.75,689.6104 17.75,689.2197 Q17.75,688.8447 18.0156,688.6104 Q18.2813,688.376 18.8906,688.376 L19.1563,688.376 L19.1563,681.7197 L18.8906,681.7197 Q18.2656,681.7197 18,681.4854 Q17.75,681.251 17.75,680.8604 Q17.75,680.4854 18,680.251 Q18.2656,680.0166 18.8906,680.0166 L26.5156,680.0166 L26.5156,682.6104 Q26.5156,683.2197 26.2813,683.4854 Q26.0625,683.7354 25.6719,683.7354 Q25.2969,683.7354 25.0625,683.4854 Q24.8281,683.2197 24.8281,682.6104 L24.8281,681.7197 L20.8594,681.7197 L20.8594,684.1729 L22.3438,684.1729 Q22.3438,683.5166 22.4688,683.3291 Q22.7344,682.9229 23.2031,682.9229 Q23.5781,682.9229 23.8125,683.1885 Q24.0469,683.4385 24.0469,684.0479 L24.0469,686.0166 Q24.0469,686.5635 23.9219,686.751 Q23.6563,687.1416 23.2031,687.1416 Q22.7344,687.1416 22.4688,686.7354 Q22.3438,686.5479 22.3438,685.876 L20.8594,685.876 Z " fill="#000000"/><text fill="#000000" font-family="sans-serif" font-size="14" lengthAdjust="spacing" textLength="107" x="36" y="691.2349">current_activities</text><line style="stroke:#181818;stroke-width:0.5;" x1="8" x2="145" y1="701.0791" y2="701.0791"/><ellipse cx="18" cy="716.1187" fill="#000000" rx="3" ry="3" style="stroke:#000000;stroke-width:1.0;"/><text fill="#000000" font-family="sans-serif" font-size="14" lengthAdjust="spacing" textLength="11" x="27" y="720.7744">id</text><text fill="#000000" font-family="sans-serif" font-size="14" lengthAdjust="spacing" textLength="96" x="27" y="739.8535">travel_place_id</text><line style="stroke:#181818;stroke-width:0.5;" x1="8" x2="145" y1="747.2373" y2="747.2373"/></g><!--class travel_plan_snapshots--><g id="elem_travel_plan_snapshots"><rect codeLine="57" fill="#F1F1F1" height="86.1582" id="travel_plan_snapshots" rx="2.5" ry="2.5" style="stroke:#181818;stroke-width:0.5;" width="175" x="166" y="174.0791"/><ellipse cx="181" cy="190.0791" fill="#ADD1B2" rx="11" ry="11" style="stroke:#181818;stroke-width:1.0;"/><path d="M179.8594,190.876 L179.8594,193.376 L184.1875,193.376 L184.1875,192.4541 Q184.1875,191.8447 184.4219,191.5791 Q184.6719,191.3135 185.0469,191.3135 Q185.4219,191.3135 185.6563,191.5791 Q185.8906,191.8447 185.8906,192.4541 L185.8906,195.0791 L177.8906,195.0791 Q177.2656,195.0791 177,194.8447 Q176.75,194.6104 176.75,194.2197 Q176.75,193.8447 177.0156,193.6104 Q177.2813,193.376 177.8906,193.376 L178.1563,193.376 L178.1563,186.7197 L177.8906,186.7197 Q177.2656,186.7197 177,186.4854 Q176.75,186.251 176.75,185.8604 Q176.75,185.4854 177,185.251 Q177.2656,185.0166 177.8906,185.0166 L185.5156,185.0166 L185.5156,187.6104 Q185.5156,188.2197 185.2813,188.4854 Q185.0625,188.7354 184.6719,188.7354 Q184.2969,188.7354 184.0625,188.4854 Q183.8281,188.2197 183.8281,187.6104 L183.8281,186.7197 L179.8594,186.7197 L179.8594,189.1729 L181.3438,189.1729 Q181.3438,188.5166 181.4688,188.3291 Q181.7344,187.9229 182.2031,187.9229 Q182.5781,187.9229 182.8125,188.1885 Q183.0469,188.4385 183.0469,189.0479 L183.0469,191.0166 Q183.0469,191.5635 182.9219,191.751 Q182.6563,192.1416 182.2031,192.1416 Q181.7344,192.1416 181.4688,191.7354 Q181.3438,191.5479 181.3438,190.876 L179.8594,190.876 Z " fill="#000000"/><text fill="#000000" font-family="sans-serif" font-size="14" lengthAdjust="spacing" textLength="143" x="195" y="196.2349">travel_plan_snapshots</text><line style="stroke:#181818;stroke-width:0.5;" x1="167" x2="340" y1="206.0791" y2="206.0791"/><ellipse cx="177" cy="221.1187" fill="#000000" rx="3" ry="3" style="stroke:#000000;stroke-width:1.0;"/><text fill="#000000" font-family="sans-serif" font-size="14" lengthAdjust="spacing" textLength="11" x="186" y="225.7744">id</text><text fill="#000000" font-family="sans-serif" font-size="14" lengthAdjust="spacing" textLength="47" x="186" y="244.8535">user_id</text><line style="stroke:#181818;stroke-width:0.5;" x1="167" x2="340" y1="252.2373" y2="252.2373"/></g><!--class users--><g id="elem_users"><rect fill="#F1F1F1" height="48" id="users" rx="2.5" ry="2.5" style="stroke:#181818;stroke-width:0.5;" width="67" x="136" y="47.0791"/><ellipse cx="151" cy="63.0791" fill="#ADD1B2" rx="11" ry="11" style="stroke:#181818;stroke-width:1.0;"/><path d="M153.7656,58.9541 Q153.9219,58.7354 154.1094,58.626 Q154.2969,58.5166 154.5156,58.5166 Q154.8906,58.5166 155.125,58.7822 Q155.3594,59.0322 155.3594,59.6416 L155.3594,61.0947 Q155.3594,61.7041 155.125,61.9697 Q154.8906,62.2354 154.5156,62.2354 Q154.1719,62.2354 153.9688,62.0322 Q153.7656,61.8447 153.6563,61.3291 Q153.6094,60.9697 153.4219,60.7822 Q153.0938,60.4072 152.4844,60.1885 Q151.875,59.9697 151.25,59.9697 Q150.4844,59.9697 149.8438,60.2979 Q149.2188,60.626 148.7188,61.376 Q148.2344,62.126 148.2344,63.1572 L148.2344,64.251 Q148.2344,65.4854 149.125,66.3135 Q150.0156,67.126 151.6094,67.126 Q152.5469,67.126 153.2031,66.876 Q153.5938,66.7197 154.0156,66.2822 Q154.2813,66.0166 154.4219,65.9385 Q154.5781,65.8604 154.7813,65.8604 Q155.1094,65.8604 155.3594,66.126 Q155.625,66.376 155.625,66.7197 Q155.625,67.0635 155.2813,67.4697 Q154.7813,68.0479 153.9844,68.376 Q152.9063,68.8291 151.6094,68.8291 Q150.0938,68.8291 148.8906,68.2041 Q147.9063,67.7041 147.2188,66.6416 Q146.5313,65.5635 146.5313,64.2822 L146.5313,63.126 Q146.5313,61.7979 147.1406,60.6572 Q147.7656,59.501 148.8594,58.8916 Q149.9531,58.2666 151.1875,58.2666 Q151.9219,58.2666 152.5625,58.4385 Q153.2188,58.5947 153.7656,58.9541 Z " fill="#000000"/><text fill="#000000" font-family="sans-serif" font-size="14" lengthAdjust="spacing" textLength="35" x="165" y="69.2349">users</text><line style="stroke:#181818;stroke-width:0.5;" x1="137" x2="202" y1="79.0791" y2="79.0791"/><line style="stroke:#181818;stroke-width:0.5;" x1="137" x2="202" y1="87.0791" y2="87.0791"/></g><!--link users to travel_plans--><g id="link_users_travel_plans"><path codeLine="62" d="M128.5453,88.1348 C110.5453,96.6948 97.01,106.4491 85.5,125.0791 C76.66,139.3991 74.1989,139.4694 73.6489,155.7194 " fill="none" id="users-travel_plans" style="stroke:#181818;stroke-width:1.0;"/><line style="stroke:#181818;stroke-width:1.0;" x1="130.4398" x2="133.8755" y1="82.8046" y2="90.0293"/><line style="stroke:#181818;stroke-width:1.0;" x1="127.7306" x2="131.1663" y1="84.093" y2="91.3177"/><line style="stroke:#181818;stroke-width:1.0;" x1="128.5453" x2="135.77" y1="88.1348" y2="84.6991"/><line style="stroke:#181818;stroke-width:1.0;" x1="73.3106" x2="79.0366" y1="165.7137" y2="173.9121"/><line style="stroke:#181818;stroke-width:1.0;" x1="73.3106" x2="67.0434" y1="165.7137" y2="173.5061"/><line style="stroke:#181818;stroke-width:1.0;" x1="73.3106" x2="73.04" y1="165.7137" y2="173.7091"/><ellipse cx="73.5136" cy="159.7171" fill="none" rx="4" ry="4" style="stroke:#181818;stroke-width:1.0;"/><text fill="#000000" font-family="sans-serif" font-size="13" lengthAdjust="spacing" textLength="117" x="86.5" y="140.6533">fk_travel_plans_user</text></g><!--link travel_plans to travel_days--><g id="link_travel_plans_travel_days"><path codeLine="63" d="M76.5,268.4791 C76.5,292.6291 76.5,296.7791 76.5,320.8891 " fill="none" id="travel_plans-travel_days" style="stroke:#181818;stroke-width:1.0;"/><line style="stroke:#181818;stroke-width:1.0;" x1="72.5" x2="80.5" y1="264.4791" y2="264.4791"/><line style="stroke:#181818;stroke-width:1.0;" x1="72.5" x2="80.5" y1="267.4791" y2="267.4791"/><line style="stroke:#181818;stroke-width:1.0;" x1="76.5" x2="76.5" y1="268.4791" y2="260.4791"/><line style="stroke:#181818;stroke-width:1.0;" x1="76.5" x2="82.5" y1="330.8891" y2="338.8891"/><line style="stroke:#181818;stroke-width:1.0;" x1="76.5" x2="70.5" y1="330.8891" y2="338.8891"/><line style="stroke:#181818;stroke-width:1.0;" x1="76.5" x2="76.5" y1="330.8891" y2="338.8891"/><ellipse cx="76.5" cy="324.8891" fill="none" rx="4" ry="4" style="stroke:#181818;stroke-width:1.0;"/><text fill="#000000" font-family="sans-serif" font-size="13" lengthAdjust="spacing" textLength="113" x="77.5" y="305.6533">fk_travel_days_plan</text></g><!--link travel_days to travel_places--><g id="link_travel_days_travel_places"><path codeLine="64" d="M76.5,433.4791 C76.5,457.6291 76.5,461.7791 76.5,485.8891 " fill="none" id="travel_days-travel_places" style="stroke:#181818;stroke-width:1.0;"/><line style="stroke:#181818;stroke-width:1.0;" x1="72.5" x2="80.5" y1="429.4791" y2="429.4791"/><line style="stroke:#181818;stroke-width:1.0;" x1="72.5" x2="80.5" y1="432.4791" y2="432.4791"/><line style="stroke:#181818;stroke-width:1.0;" x1="76.5" x2="76.5" y1="433.4791" y2="425.4791"/><line style="stroke:#181818;stroke-width:1.0;" x1="76.5" x2="82.5" y1="495.8891" y2="503.8891"/><line style="stroke:#181818;stroke-width:1.0;" x1="76.5" x2="70.5" y1="495.8891" y2="503.8891"/><line style="stroke:#181818;stroke-width:1.0;" x1="76.5" x2="76.5" y1="495.8891" y2="503.8891"/><ellipse cx="76.5" cy="489.8891" fill="none" rx="4" ry="4" style="stroke:#181818;stroke-width:1.0;"/><text fill="#000000" font-family="sans-serif" font-size="13" lengthAdjust="spacing" textLength="120" x="77.5" y="470.6533">fk_travel_places_day</text></g><!--link travel_places to current_activities--><g id="link_travel_places_current_activities"><path codeLine="65" d="M76.5,598.4791 C76.5,622.6291 76.5,626.7791 76.5,650.8891 " fill="none" id="travel_places-current_activities" style="stroke:#181818;stroke-width:1.0;"/><line style="stroke:#181818;stroke-width:1.0;" x1="72.5" x2="80.5" y1="594.4791" y2="594.4791"/><line style="stroke:#181818;stroke-width:1.0;" x1="72.5" x2="80.5" y1="597.4791" y2="597.4791"/><line style="stroke:#181818;stroke-width:1.0;" x1="76.5" x2="76.5" y1="598.4791" y2="590.4791"/><line style="stroke:#181818;stroke-width:1.0;" x1="76.5" x2="82.5" y1="660.8891" y2="668.8891"/><line style="stroke:#181818;stroke-width:1.0;" x1="76.5" x2="70.5" y1="660.8891" y2="668.8891"/><line style="stroke:#181818;stroke-width:1.0;" x1="76.5" x2="76.5" y1="660.8891" y2="668.8891"/><ellipse cx="76.5" cy="654.8891" fill="none" rx="4" ry="4" style="stroke:#181818;stroke-width:1.0;"/><text fill="#000000" font-family="sans-serif" font-size="13" lengthAdjust="spacing" textLength="152" x="77.5" y="635.6533">fk_current_activities_place</text></g><!--link users to travel_plan_snapshots--><g id="link_users_travel_plan_snapshots"><path codeLine="66" d="M195.4996,101.2397 C203.0196,110.2097 206.1,114.6891 212.5,125.0791 C221.87,140.2691 223.2052,141.4392 229.9852,157.1692 " fill="none" id="users-travel_plan_snapshots" style="stroke:#181818;stroke-width:1.0;"/><line style="stroke:#181818;stroke-width:1.0;" x1="189.8645" x2="195.9951" y1="100.7442" y2="95.6046"/><line style="stroke:#181818;stroke-width:1.0;" x1="191.7918" x2="197.9225" y1="103.0432" y2="97.9036"/><line style="stroke:#181818;stroke-width:1.0;" x1="195.4996" x2="190.36" y1="101.2397" y2="95.1091"/><line style="stroke:#181818;stroke-width:1.0;" x1="233.9434" x2="242.62" y1="166.3525" y2="171.3242"/><line style="stroke:#181818;stroke-width:1.0;" x1="233.9434" x2="231.6" y1="166.3525" y2="176.074"/><line style="stroke:#181818;stroke-width:1.0;" x1="233.9434" x2="237.11" y1="166.3525" y2="173.6991"/><ellipse cx="231.5685" cy="160.8425" fill="none" rx="4" ry="4" style="stroke:#181818;stroke-width:1.0;"/><text fill="#000000" font-family="sans-serif" font-size="13" lengthAdjust="spacing" textLength="177" x="222.5" y="140.6533">fk_travel_plan_snapshots_user</text></g><!--SRC=[hLXTRvim57tthx3sq8z9_GELzi0wrg8bQHJefZuXZtY9LGCHTZ9bxVxxZ0t4nYR0IbvQZkyvrxxtsbnp2J-zumSkuLFehq9u0Rsdw04klNjVOE-Iv8HJ39yOBbWfk-TR070cq2FSI_0LGF7x2CaQtiBFmRsOGE3D97Xp8_yG5gE4amEMJnGn7jDyGx8OSObaA5L3E4M4olzsHVwBK1oJ56rml2ye-6kuZSbQFX5yTWALgSA3HLHh7mIzq2HPncAUl-1id9eGK35uUxkvoL-jcTt23xzUuXOgdp-OHCs_ufo0oXna-FTEn0AyDv-NC5fvt_qPNCwynI9Ot4zO9L613fZ29KLPHh9D4rukyNWdS3t0Ub2rP5JMQtIqZ3KX9qSC9DXY2INJEjaNXVXNLMMxY5gE4jpbAHDPGZkspVcvHHbvDW9n2qMYTKIc6XWs9a-6HAULWBG4keNbBC6MDm6Lni0qgfYE-4YwZIjYvoAr2BLNUnfIovwmm5V-zy3_0PUFOHHEMDqhV23ujpW4bpdZh2c8GiBnhWHxwhM4AdF6ZxHLMRMGY4aURufylxFqD5_TN8ibjPpsMyIs76t-qrl5FklFLSr6n6HTw8YgPyEcnTC3PD2r0Sa4BeP3p273bFcvURI2fqkOGyPSMYodf5Eidj646yKBeBVmPizXCEK-ALKpH8-Cd3O98lLgK3NKTMIUBRoJZDm_NHLR- -WYTnMkWzwnPOq3px4ucJyRLqUTgwP6QCXgSjXRIbMCMZeARMY3bCowj76NMkLzl9OaTWhr71wAFE4U4MtIdJ_bzbYgL-q53ChU5eOO5ScffxOxc5C1gsQOIK97gsDtKmQfm6nFxTUKBLoNlju06JNlcelCXcD0LRsBuHAhvsYhLIE61dYNafAOi5hk7loxRxCWZ2OicBijJbue4Pk-wLzhP43-6zkOS9nQ16tOJhBcH_L_pRDAgJRUPbJUJ9e2Jy_JHjwBuDoVFwwU9uqzud2EqxmuQX55F4vBZE112QZDZ_419pml1byNJ4zLB3L8PQ63SlBM8ZO3apVU3u-Hk5YA1jbxdlkBAVV0Gyx5nL8eesCguje4TrlYySyyVn7tpG79s2b-UH79M7cDoUqRgQ7fIalBgGolYQd8jkmgjdCAKiCrKjEdJDFNfzaCXkAecdiJfaYgVl4YxxCN-hNybKSfZD1FAjzuAqoHNDLrkOeL9bb2zsiCaJ1gFffSiNsQeeBymUlhyzzNkhwXTD-v1rnK-rgxtjTWrn5wPcltRk5pzGVwlXZqVXiO-X6W_pOtzDes-68s_Furwdu51lRW8zhiGGthg6PxH2yDndPN0zecqFzw1oEEEF0F]--></g></svg>