<?xml version="1.0" encoding="us-ascii" standalone="no"?><svg xmlns="http://www.w3.org/2000/svg" xmlns:xlink="http://www.w3.org/1999/xlink" contentStyleType="text/css" height="642px" preserveAspectRatio="none" style="width:1677px;height:642px;background:#FFFFFF;" version="1.1" viewBox="0 0 1677 642" width="1677px" zoomAndPan="magnify"><defs/><g><text fill="#000000" font-family="sans-serif" font-size="14" font-weight="bold" lengthAdjust="spacing" textLength="341" x="661" y="25.6953">FULL DATABASE SCHEMA (All Tables &amp; Relations)</text><!--class users--><g id="elem_users"><rect fill="#F1F1F1" height="48" id="users" rx="2.5" ry="2.5" style="stroke:#181818;stroke-width:0.5;" width="67" x="711.5" y="47.0791"/><ellipse cx="726.5" cy="63.0791" fill="#ADD1B2" rx="11" ry="11" style="stroke:#181818;stroke-width:1.0;"/><path d="M729.2656,58.9541 Q729.4219,58.7354 729.6094,58.626 Q729.7969,58.5166 730.0156,58.5166 Q730.3906,58.5166 730.625,58.7822 Q730.8594,59.0322 730.8594,59.6416 L730.8594,61.0947 Q730.8594,61.7041 730.625,61.9697 Q730.3906,62.2354 730.0156,62.2354 Q729.6719,62.2354 729.4688,62.0322 Q729.2656,61.8447 729.1563,61.3291 Q729.1094,60.9697 728.9219,60.7822 Q728.5938,60.4072 727.9844,60.1885 Q727.375,59.9697 726.75,59.9697 Q725.9844,59.9697 725.3438,60.2979 Q724.7188,60.626 724.2188,61.376 Q723.7344,62.126 723.7344,63.1572 L723.7344,64.251 Q723.7344,65.4854 724.625,66.3135 Q725.5156,67.126 727.1094,67.126 Q728.0469,67.126 728.7031,66.876 Q729.0938,66.7197 729.5156,66.2822 Q729.7813,66.0166 729.9219,65.9385 Q730.0781,65.8604 730.2813,65.8604 Q730.6094,65.8604 730.8594,66.126 Q731.125,66.376 731.125,66.7197 Q731.125,67.0635 730.7813,67.4697 Q730.2813,68.0479 729.4844,68.376 Q728.4063,68.8291 727.1094,68.8291 Q725.5938,68.8291 724.3906,68.2041 Q723.4063,67.7041 722.7188,66.6416 Q722.0313,65.5635 722.0313,64.2822 L722.0313,63.126 Q722.0313,61.7979 722.6406,60.6572 Q723.2656,59.501 724.3594,58.8916 Q725.4531,58.2666 726.6875,58.2666 Q727.4219,58.2666 728.0625,58.4385 Q728.7188,58.5947 729.2656,58.9541 Z " fill="#000000"/><text fill="#000000" font-family="sans-serif" font-size="14" lengthAdjust="spacing" textLength="35" x="740.5" y="69.2349">users</text><line style="stroke:#181818;stroke-width:0.5;" x1="712.5" x2="777.5" y1="79.0791" y2="79.0791"/><line style="stroke:#181818;stroke-width:0.5;" x1="712.5" x2="777.5" y1="87.0791" y2="87.0791"/></g><!--class user_identities--><g id="elem_user_identities"><rect fill="#F1F1F1" height="48" id="user_identities" rx="2.5" ry="2.5" style="stroke:#181818;stroke-width:0.5;" width="124" x="1546" y="155.0791"/><ellipse cx="1561" cy="171.0791" fill="#ADD1B2" rx="11" ry="11" style="stroke:#181818;stroke-width:1.0;"/><path d="M1563.7656,166.9541 Q1563.9219,166.7354 1564.1094,166.626 Q1564.2969,166.5166 1564.5156,166.5166 Q1564.8906,166.5166 1565.125,166.7822 Q1565.3594,167.0322 1565.3594,167.6416 L1565.3594,169.0947 Q1565.3594,169.7041 1565.125,169.9697 Q1564.8906,170.2354 1564.5156,170.2354 Q1564.1719,170.2354 1563.9688,170.0322 Q1563.7656,169.8447 1563.6563,169.3291 Q1563.6094,168.9697 1563.4219,168.7822 Q1563.0938,168.4072 1562.4844,168.1885 Q1561.875,167.9697 1561.25,167.9697 Q1560.4844,167.9697 1559.8438,168.2979 Q1559.2188,168.626 1558.7188,169.376 Q1558.2344,170.126 1558.2344,171.1572 L1558.2344,172.251 Q1558.2344,173.4854 1559.125,174.3135 Q1560.0156,175.126 1561.6094,175.126 Q1562.5469,175.126 1563.2031,174.876 Q1563.5938,174.7197 1564.0156,174.2822 Q1564.2813,174.0166 1564.4219,173.9385 Q1564.5781,173.8604 1564.7813,173.8604 Q1565.1094,173.8604 1565.3594,174.126 Q1565.625,174.376 1565.625,174.7197 Q1565.625,175.0635 1565.2813,175.4697 Q1564.7813,176.0479 1563.9844,176.376 Q1562.9063,176.8291 1561.6094,176.8291 Q1560.0938,176.8291 1558.8906,176.2041 Q1557.9063,175.7041 1557.2188,174.6416 Q1556.5313,173.5635 1556.5313,172.2822 L1556.5313,171.126 Q1556.5313,169.7979 1557.1406,168.6572 Q1557.7656,167.501 1558.8594,166.8916 Q1559.9531,166.2666 1561.1875,166.2666 Q1561.9219,166.2666 1562.5625,166.4385 Q1563.2188,166.5947 1563.7656,166.9541 Z " fill="#000000"/><text fill="#000000" font-family="sans-serif" font-size="14" lengthAdjust="spacing" textLength="92" x="1575" y="177.2349">user_identities</text><line style="stroke:#181818;stroke-width:0.5;" x1="1547" x2="1669" y1="187.0791" y2="187.0791"/><line style="stroke:#181818;stroke-width:0.5;" x1="1547" x2="1669" y1="195.0791" y2="195.0791"/></g><!--class sns_tokens--><g id="elem_sns_tokens"><rect fill="#F1F1F1" height="48" id="sns_tokens" rx="2.5" ry="2.5" style="stroke:#181818;stroke-width:0.5;" width="104" x="7" y="155.0791"/><ellipse cx="22" cy="171.0791" fill="#ADD1B2" rx="11" ry="11" style="stroke:#181818;stroke-width:1.0;"/><path d="M24.7656,166.9541 Q24.9219,166.7354 25.1094,166.626 Q25.2969,166.5166 25.5156,166.5166 Q25.8906,166.5166 26.125,166.7822 Q26.3594,167.0322 26.3594,167.6416 L26.3594,169.0947 Q26.3594,169.7041 26.125,169.9697 Q25.8906,170.2354 25.5156,170.2354 Q25.1719,170.2354 24.9688,170.0322 Q24.7656,169.8447 24.6563,169.3291 Q24.6094,168.9697 24.4219,168.7822 Q24.0938,168.4072 23.4844,168.1885 Q22.875,167.9697 22.25,167.9697 Q21.4844,167.9697 20.8438,168.2979 Q20.2188,168.626 19.7188,169.376 Q19.2344,170.126 19.2344,171.1572 L19.2344,172.251 Q19.2344,173.4854 20.125,174.3135 Q21.0156,175.126 22.6094,175.126 Q23.5469,175.126 24.2031,174.876 Q24.5938,174.7197 25.0156,174.2822 Q25.2813,174.0166 25.4219,173.9385 Q25.5781,173.8604 25.7813,173.8604 Q26.1094,173.8604 26.3594,174.126 Q26.625,174.376 26.625,174.7197 Q26.625,175.0635 26.2813,175.4697 Q25.7813,176.0479 24.9844,176.376 Q23.9063,176.8291 22.6094,176.8291 Q21.0938,176.8291 19.8906,176.2041 Q18.9063,175.7041 18.2188,174.6416 Q17.5313,173.5635 17.5313,172.2822 L17.5313,171.126 Q17.5313,169.7979 18.1406,168.6572 Q18.7656,167.501 19.8594,166.8916 Q20.9531,166.2666 22.1875,166.2666 Q22.9219,166.2666 23.5625,166.4385 Q24.2188,166.5947 24.7656,166.9541 Z " fill="#000000"/><text fill="#000000" font-family="sans-serif" font-size="14" lengthAdjust="spacing" textLength="72" x="36" y="177.2349">sns_tokens</text><line style="stroke:#181818;stroke-width:0.5;" x1="8" x2="110" y1="187.0791" y2="187.0791"/><line style="stroke:#181818;stroke-width:0.5;" x1="8" x2="110" y1="195.0791" y2="195.0791"/></g><!--class travel_plans--><g id="elem_travel_plans"><rect fill="#F1F1F1" height="48" id="travel_plans" rx="2.5" ry="2.5" style="stroke:#181818;stroke-width:0.5;" width="109" x="427.5" y="155.0791"/><ellipse cx="442.5" cy="171.0791" fill="#ADD1B2" rx="11" ry="11" style="stroke:#181818;stroke-width:1.0;"/><path d="M445.2656,166.9541 Q445.4219,166.7354 445.6094,166.626 Q445.7969,166.5166 446.0156,166.5166 Q446.3906,166.5166 446.625,166.7822 Q446.8594,167.0322 446.8594,167.6416 L446.8594,169.0947 Q446.8594,169.7041 446.625,169.9697 Q446.3906,170.2354 446.0156,170.2354 Q445.6719,170.2354 445.4688,170.0322 Q445.2656,169.8447 445.1563,169.3291 Q445.1094,168.9697 444.9219,168.7822 Q444.5938,168.4072 443.9844,168.1885 Q443.375,167.9697 442.75,167.9697 Q441.9844,167.9697 441.3438,168.2979 Q440.7188,168.626 440.2188,169.376 Q439.7344,170.126 439.7344,171.1572 L439.7344,172.251 Q439.7344,173.4854 440.625,174.3135 Q441.5156,175.126 443.1094,175.126 Q444.0469,175.126 444.7031,174.876 Q445.0938,174.7197 445.5156,174.2822 Q445.7813,174.0166 445.9219,173.9385 Q446.0781,173.8604 446.2813,173.8604 Q446.6094,173.8604 446.8594,174.126 Q447.125,174.376 447.125,174.7197 Q447.125,175.0635 446.7813,175.4697 Q446.2813,176.0479 445.4844,176.376 Q444.4063,176.8291 443.1094,176.8291 Q441.5938,176.8291 440.3906,176.2041 Q439.4063,175.7041 438.7188,174.6416 Q438.0313,173.5635 438.0313,172.2822 L438.0313,171.126 Q438.0313,169.7979 438.6406,168.6572 Q439.2656,167.501 440.3594,166.8916 Q441.4531,166.2666 442.6875,166.2666 Q443.4219,166.2666 444.0625,166.4385 Q444.7188,166.5947 445.2656,166.9541 Z " fill="#000000"/><text fill="#000000" font-family="sans-serif" font-size="14" lengthAdjust="spacing" textLength="77" x="456.5" y="177.2349">travel_plans</text><line style="stroke:#181818;stroke-width:0.5;" x1="428.5" x2="535.5" y1="187.0791" y2="187.0791"/><line style="stroke:#181818;stroke-width:0.5;" x1="428.5" x2="535.5" y1="195.0791" y2="195.0791"/></g><!--class travel_plan_snapshots--><g id="elem_travel_plan_snapshots"><rect fill="#F1F1F1" height="48" id="travel_plan_snapshots" rx="2.5" ry="2.5" style="stroke:#181818;stroke-width:0.5;" width="175" x="217.5" y="155.0791"/><ellipse cx="232.5" cy="171.0791" fill="#ADD1B2" rx="11" ry="11" style="stroke:#181818;stroke-width:1.0;"/><path d="M235.2656,166.9541 Q235.4219,166.7354 235.6094,166.626 Q235.7969,166.5166 236.0156,166.5166 Q236.3906,166.5166 236.625,166.7822 Q236.8594,167.0322 236.8594,167.6416 L236.8594,169.0947 Q236.8594,169.7041 236.625,169.9697 Q236.3906,170.2354 236.0156,170.2354 Q235.6719,170.2354 235.4688,170.0322 Q235.2656,169.8447 235.1563,169.3291 Q235.1094,168.9697 234.9219,168.7822 Q234.5938,168.4072 233.9844,168.1885 Q233.375,167.9697 232.75,167.9697 Q231.9844,167.9697 231.3438,168.2979 Q230.7188,168.626 230.2188,169.376 Q229.7344,170.126 229.7344,171.1572 L229.7344,172.251 Q229.7344,173.4854 230.625,174.3135 Q231.5156,175.126 233.1094,175.126 Q234.0469,175.126 234.7031,174.876 Q235.0938,174.7197 235.5156,174.2822 Q235.7813,174.0166 235.9219,173.9385 Q236.0781,173.8604 236.2813,173.8604 Q236.6094,173.8604 236.8594,174.126 Q237.125,174.376 237.125,174.7197 Q237.125,175.0635 236.7813,175.4697 Q236.2813,176.0479 235.4844,176.376 Q234.4063,176.8291 233.1094,176.8291 Q231.5938,176.8291 230.3906,176.2041 Q229.4063,175.7041 228.7188,174.6416 Q228.0313,173.5635 228.0313,172.2822 L228.0313,171.126 Q228.0313,169.7979 228.6406,168.6572 Q229.2656,167.501 230.3594,166.8916 Q231.4531,166.2666 232.6875,166.2666 Q233.4219,166.2666 234.0625,166.4385 Q234.7188,166.5947 235.2656,166.9541 Z " fill="#000000"/><text fill="#000000" font-family="sans-serif" font-size="14" lengthAdjust="spacing" textLength="143" x="246.5" y="177.2349">travel_plan_snapshots</text><line style="stroke:#181818;stroke-width:0.5;" x1="218.5" x2="391.5" y1="187.0791" y2="187.0791"/><line style="stroke:#181818;stroke-width:0.5;" x1="218.5" x2="391.5" y1="195.0791" y2="195.0791"/></g><!--class ai_review_analysis--><g id="elem_ai_review_analysis"><rect fill="#F1F1F1" height="48" id="ai_review_analysis" rx="2.5" ry="2.5" style="stroke:#181818;stroke-width:0.5;" width="150" x="43" y="371.0791"/><ellipse cx="58" cy="387.0791" fill="#ADD1B2" rx="11" ry="11" style="stroke:#181818;stroke-width:1.0;"/><path d="M60.7656,382.9541 Q60.9219,382.7354 61.1094,382.626 Q61.2969,382.5166 61.5156,382.5166 Q61.8906,382.5166 62.125,382.7822 Q62.3594,383.0322 62.3594,383.6416 L62.3594,385.0947 Q62.3594,385.7041 62.125,385.9697 Q61.8906,386.2354 61.5156,386.2354 Q61.1719,386.2354 60.9688,386.0322 Q60.7656,385.8447 60.6563,385.3291 Q60.6094,384.9697 60.4219,384.7822 Q60.0938,384.4072 59.4844,384.1885 Q58.875,383.9697 58.25,383.9697 Q57.4844,383.9697 56.8438,384.2979 Q56.2188,384.626 55.7188,385.376 Q55.2344,386.126 55.2344,387.1572 L55.2344,388.251 Q55.2344,389.4854 56.125,390.3135 Q57.0156,391.126 58.6094,391.126 Q59.5469,391.126 60.2031,390.876 Q60.5938,390.7197 61.0156,390.2822 Q61.2813,390.0166 61.4219,389.9385 Q61.5781,389.8604 61.7813,389.8604 Q62.1094,389.8604 62.3594,390.126 Q62.625,390.376 62.625,390.7197 Q62.625,391.0635 62.2813,391.4697 Q61.7813,392.0479 60.9844,392.376 Q59.9063,392.8291 58.6094,392.8291 Q57.0938,392.8291 55.8906,392.2041 Q54.9063,391.7041 54.2188,390.6416 Q53.5313,389.5635 53.5313,388.2822 L53.5313,387.126 Q53.5313,385.7979 54.1406,384.6572 Q54.7656,383.501 55.8594,382.8916 Q56.9531,382.2666 58.1875,382.2666 Q58.9219,382.2666 59.5625,382.4385 Q60.2188,382.5947 60.7656,382.9541 Z " fill="#000000"/><text fill="#000000" font-family="sans-serif" font-size="14" lengthAdjust="spacing" textLength="118" x="72" y="393.2349">ai_review_analysis</text><line style="stroke:#181818;stroke-width:0.5;" x1="44" x2="192" y1="403.0791" y2="403.0791"/><line style="stroke:#181818;stroke-width:0.5;" x1="44" x2="192" y1="411.0791" y2="411.0791"/></g><!--class image_search_places--><g id="elem_image_search_places"><rect fill="#F1F1F1" height="48" id="image_search_places" rx="2.5" ry="2.5" style="stroke:#181818;stroke-width:0.5;" width="170" x="1178" y="155.0791"/><ellipse cx="1193" cy="171.0791" fill="#ADD1B2" rx="11" ry="11" style="stroke:#181818;stroke-width:1.0;"/><path d="M1195.7656,166.9541 Q1195.9219,166.7354 1196.1094,166.626 Q1196.2969,166.5166 1196.5156,166.5166 Q1196.8906,166.5166 1197.125,166.7822 Q1197.3594,167.0322 1197.3594,167.6416 L1197.3594,169.0947 Q1197.3594,169.7041 1197.125,169.9697 Q1196.8906,170.2354 1196.5156,170.2354 Q1196.1719,170.2354 1195.9688,170.0322 Q1195.7656,169.8447 1195.6563,169.3291 Q1195.6094,168.9697 1195.4219,168.7822 Q1195.0938,168.4072 1194.4844,168.1885 Q1193.875,167.9697 1193.25,167.9697 Q1192.4844,167.9697 1191.8438,168.2979 Q1191.2188,168.626 1190.7188,169.376 Q1190.2344,170.126 1190.2344,171.1572 L1190.2344,172.251 Q1190.2344,173.4854 1191.125,174.3135 Q1192.0156,175.126 1193.6094,175.126 Q1194.5469,175.126 1195.2031,174.876 Q1195.5938,174.7197 1196.0156,174.2822 Q1196.2813,174.0166 1196.4219,173.9385 Q1196.5781,173.8604 1196.7813,173.8604 Q1197.1094,173.8604 1197.3594,174.126 Q1197.625,174.376 1197.625,174.7197 Q1197.625,175.0635 1197.2813,175.4697 Q1196.7813,176.0479 1195.9844,176.376 Q1194.9063,176.8291 1193.6094,176.8291 Q1192.0938,176.8291 1190.8906,176.2041 Q1189.9063,175.7041 1189.2188,174.6416 Q1188.5313,173.5635 1188.5313,172.2822 L1188.5313,171.126 Q1188.5313,169.7979 1189.1406,168.6572 Q1189.7656,167.501 1190.8594,166.8916 Q1191.9531,166.2666 1193.1875,166.2666 Q1193.9219,166.2666 1194.5625,166.4385 Q1195.2188,166.5947 1195.7656,166.9541 Z " fill="#000000"/><text fill="#000000" font-family="sans-serif" font-size="14" lengthAdjust="spacing" textLength="138" x="1207" y="177.2349">image_search_places</text><line style="stroke:#181818;stroke-width:0.5;" x1="1179" x2="1347" y1="187.0791" y2="187.0791"/><line style="stroke:#181818;stroke-width:0.5;" x1="1179" x2="1347" y1="195.0791" y2="195.0791"/></g><!--class checklists--><g id="elem_checklists"><rect fill="#F1F1F1" height="48" id="checklists" rx="2.5" ry="2.5" style="stroke:#181818;stroke-width:0.5;" width="93" x="571.5" y="155.0791"/><ellipse cx="586.5" cy="171.0791" fill="#ADD1B2" rx="11" ry="11" style="stroke:#181818;stroke-width:1.0;"/><path d="M589.2656,166.9541 Q589.4219,166.7354 589.6094,166.626 Q589.7969,166.5166 590.0156,166.5166 Q590.3906,166.5166 590.625,166.7822 Q590.8594,167.0322 590.8594,167.6416 L590.8594,169.0947 Q590.8594,169.7041 590.625,169.9697 Q590.3906,170.2354 590.0156,170.2354 Q589.6719,170.2354 589.4688,170.0322 Q589.2656,169.8447 589.1563,169.3291 Q589.1094,168.9697 588.9219,168.7822 Q588.5938,168.4072 587.9844,168.1885 Q587.375,167.9697 586.75,167.9697 Q585.9844,167.9697 585.3438,168.2979 Q584.7188,168.626 584.2188,169.376 Q583.7344,170.126 583.7344,171.1572 L583.7344,172.251 Q583.7344,173.4854 584.625,174.3135 Q585.5156,175.126 587.1094,175.126 Q588.0469,175.126 588.7031,174.876 Q589.0938,174.7197 589.5156,174.2822 Q589.7813,174.0166 589.9219,173.9385 Q590.0781,173.8604 590.2813,173.8604 Q590.6094,173.8604 590.8594,174.126 Q591.125,174.376 591.125,174.7197 Q591.125,175.0635 590.7813,175.4697 Q590.2813,176.0479 589.4844,176.376 Q588.4063,176.8291 587.1094,176.8291 Q585.5938,176.8291 584.3906,176.2041 Q583.4063,175.7041 582.7188,174.6416 Q582.0313,173.5635 582.0313,172.2822 L582.0313,171.126 Q582.0313,169.7979 582.6406,168.6572 Q583.2656,167.501 584.3594,166.8916 Q585.4531,166.2666 586.6875,166.2666 Q587.4219,166.2666 588.0625,166.4385 Q588.7188,166.5947 589.2656,166.9541 Z " fill="#000000"/><text fill="#000000" font-family="sans-serif" font-size="14" lengthAdjust="spacing" textLength="61" x="600.5" y="177.2349">checklists</text><line style="stroke:#181818;stroke-width:0.5;" x1="572.5" x2="663.5" y1="187.0791" y2="187.0791"/><line style="stroke:#181818;stroke-width:0.5;" x1="572.5" x2="663.5" y1="195.0791" y2="195.0791"/></g><!--class chat_memories--><g id="elem_chat_memories"><rect fill="#F1F1F1" height="48" id="chat_memories" rx="2.5" ry="2.5" style="stroke:#181818;stroke-width:0.5;" width="128" x="808" y="155.0791"/><ellipse cx="823" cy="171.0791" fill="#ADD1B2" rx="11" ry="11" style="stroke:#181818;stroke-width:1.0;"/><path d="M825.7656,166.9541 Q825.9219,166.7354 826.1094,166.626 Q826.2969,166.5166 826.5156,166.5166 Q826.8906,166.5166 827.125,166.7822 Q827.3594,167.0322 827.3594,167.6416 L827.3594,169.0947 Q827.3594,169.7041 827.125,169.9697 Q826.8906,170.2354 826.5156,170.2354 Q826.1719,170.2354 825.9688,170.0322 Q825.7656,169.8447 825.6563,169.3291 Q825.6094,168.9697 825.4219,168.7822 Q825.0938,168.4072 824.4844,168.1885 Q823.875,167.9697 823.25,167.9697 Q822.4844,167.9697 821.8438,168.2979 Q821.2188,168.626 820.7188,169.376 Q820.2344,170.126 820.2344,171.1572 L820.2344,172.251 Q820.2344,173.4854 821.125,174.3135 Q822.0156,175.126 823.6094,175.126 Q824.5469,175.126 825.2031,174.876 Q825.5938,174.7197 826.0156,174.2822 Q826.2813,174.0166 826.4219,173.9385 Q826.5781,173.8604 826.7813,173.8604 Q827.1094,173.8604 827.3594,174.126 Q827.625,174.376 827.625,174.7197 Q827.625,175.0635 827.2813,175.4697 Q826.7813,176.0479 825.9844,176.376 Q824.9063,176.8291 823.6094,176.8291 Q822.0938,176.8291 820.8906,176.2041 Q819.9063,175.7041 819.2188,174.6416 Q818.5313,173.5635 818.5313,172.2822 L818.5313,171.126 Q818.5313,169.7979 819.1406,168.6572 Q819.7656,167.501 820.8594,166.8916 Q821.9531,166.2666 823.1875,166.2666 Q823.9219,166.2666 824.5625,166.4385 Q825.2188,166.5947 825.7656,166.9541 Z " fill="#000000"/><text fill="#000000" font-family="sans-serif" font-size="14" lengthAdjust="spacing" textLength="96" x="837" y="177.2349">chat_memories</text><line style="stroke:#181818;stroke-width:0.5;" x1="809" x2="935" y1="187.0791" y2="187.0791"/><line style="stroke:#181818;stroke-width:0.5;" x1="809" x2="935" y1="195.0791" y2="195.0791"/></g><!--class chat_memory_vectors--><g id="elem_chat_memory_vectors"><rect fill="#F1F1F1" height="48" id="chat_memory_vectors" rx="2.5" ry="2.5" style="stroke:#181818;stroke-width:0.5;" width="171" x="971.5" y="155.0791"/><ellipse cx="986.5" cy="171.0791" fill="#ADD1B2" rx="11" ry="11" style="stroke:#181818;stroke-width:1.0;"/><path d="M989.2656,166.9541 Q989.4219,166.7354 989.6094,166.626 Q989.7969,166.5166 990.0156,166.5166 Q990.3906,166.5166 990.625,166.7822 Q990.8594,167.0322 990.8594,167.6416 L990.8594,169.0947 Q990.8594,169.7041 990.625,169.9697 Q990.3906,170.2354 990.0156,170.2354 Q989.6719,170.2354 989.4688,170.0322 Q989.2656,169.8447 989.1563,169.3291 Q989.1094,168.9697 988.9219,168.7822 Q988.5938,168.4072 987.9844,168.1885 Q987.375,167.9697 986.75,167.9697 Q985.9844,167.9697 985.3438,168.2979 Q984.7188,168.626 984.2188,169.376 Q983.7344,170.126 983.7344,171.1572 L983.7344,172.251 Q983.7344,173.4854 984.625,174.3135 Q985.5156,175.126 987.1094,175.126 Q988.0469,175.126 988.7031,174.876 Q989.0938,174.7197 989.5156,174.2822 Q989.7813,174.0166 989.9219,173.9385 Q990.0781,173.8604 990.2813,173.8604 Q990.6094,173.8604 990.8594,174.126 Q991.125,174.376 991.125,174.7197 Q991.125,175.0635 990.7813,175.4697 Q990.2813,176.0479 989.4844,176.376 Q988.4063,176.8291 987.1094,176.8291 Q985.5938,176.8291 984.3906,176.2041 Q983.4063,175.7041 982.7188,174.6416 Q982.0313,173.5635 982.0313,172.2822 L982.0313,171.126 Q982.0313,169.7979 982.6406,168.6572 Q983.2656,167.501 984.3594,166.8916 Q985.4531,166.2666 986.6875,166.2666 Q987.4219,166.2666 988.0625,166.4385 Q988.7188,166.5947 989.2656,166.9541 Z " fill="#000000"/><text fill="#000000" font-family="sans-serif" font-size="14" lengthAdjust="spacing" textLength="139" x="1000.5" y="177.2349">chat_memory_vectors</text><line style="stroke:#181818;stroke-width:0.5;" x1="972.5" x2="1141.5" y1="187.0791" y2="187.0791"/><line style="stroke:#181818;stroke-width:0.5;" x1="972.5" x2="1141.5" y1="195.0791" y2="195.0791"/></g><!--class hotel_bookings--><g id="elem_hotel_bookings"><rect fill="#F1F1F1" height="48" id="hotel_bookings" rx="2.5" ry="2.5" style="stroke:#181818;stroke-width:0.5;" width="128" x="1383" y="155.0791"/><ellipse cx="1398" cy="171.0791" fill="#ADD1B2" rx="11" ry="11" style="stroke:#181818;stroke-width:1.0;"/><path d="M1400.7656,166.9541 Q1400.9219,166.7354 1401.1094,166.626 Q1401.2969,166.5166 1401.5156,166.5166 Q1401.8906,166.5166 1402.125,166.7822 Q1402.3594,167.0322 1402.3594,167.6416 L1402.3594,169.0947 Q1402.3594,169.7041 1402.125,169.9697 Q1401.8906,170.2354 1401.5156,170.2354 Q1401.1719,170.2354 1400.9688,170.0322 Q1400.7656,169.8447 1400.6563,169.3291 Q1400.6094,168.9697 1400.4219,168.7822 Q1400.0938,168.4072 1399.4844,168.1885 Q1398.875,167.9697 1398.25,167.9697 Q1397.4844,167.9697 1396.8438,168.2979 Q1396.2188,168.626 1395.7188,169.376 Q1395.2344,170.126 1395.2344,171.1572 L1395.2344,172.251 Q1395.2344,173.4854 1396.125,174.3135 Q1397.0156,175.126 1398.6094,175.126 Q1399.5469,175.126 1400.2031,174.876 Q1400.5938,174.7197 1401.0156,174.2822 Q1401.2813,174.0166 1401.4219,173.9385 Q1401.5781,173.8604 1401.7813,173.8604 Q1402.1094,173.8604 1402.3594,174.126 Q1402.625,174.376 1402.625,174.7197 Q1402.625,175.0635 1402.2813,175.4697 Q1401.7813,176.0479 1400.9844,176.376 Q1399.9063,176.8291 1398.6094,176.8291 Q1397.0938,176.8291 1395.8906,176.2041 Q1394.9063,175.7041 1394.2188,174.6416 Q1393.5313,173.5635 1393.5313,172.2822 L1393.5313,171.126 Q1393.5313,169.7979 1394.1406,168.6572 Q1394.7656,167.501 1395.8594,166.8916 Q1396.9531,166.2666 1398.1875,166.2666 Q1398.9219,166.2666 1399.5625,166.4385 Q1400.2188,166.5947 1400.7656,166.9541 Z " fill="#000000"/><text fill="#000000" font-family="sans-serif" font-size="14" lengthAdjust="spacing" textLength="96" x="1412" y="177.2349">hotel_bookings</text><line style="stroke:#181818;stroke-width:0.5;" x1="1384" x2="1510" y1="187.0791" y2="187.0791"/><line style="stroke:#181818;stroke-width:0.5;" x1="1384" x2="1510" y1="195.0791" y2="195.0791"/></g><!--class travel_days--><g id="elem_travel_days"><rect fill="#F1F1F1" height="48" id="travel_days" rx="2.5" ry="2.5" style="stroke:#181818;stroke-width:0.5;" width="105" x="452.5" y="263.0791"/><ellipse cx="467.5" cy="279.0791" fill="#ADD1B2" rx="11" ry="11" style="stroke:#181818;stroke-width:1.0;"/><path d="M470.2656,274.9541 Q470.4219,274.7354 470.6094,274.626 Q470.7969,274.5166 471.0156,274.5166 Q471.3906,274.5166 471.625,274.7822 Q471.8594,275.0322 471.8594,275.6416 L471.8594,277.0947 Q471.8594,277.7041 471.625,277.9697 Q471.3906,278.2354 471.0156,278.2354 Q470.6719,278.2354 470.4688,278.0322 Q470.2656,277.8447 470.1563,277.3291 Q470.1094,276.9697 469.9219,276.7822 Q469.5938,276.4072 468.9844,276.1885 Q468.375,275.9697 467.75,275.9697 Q466.9844,275.9697 466.3438,276.2979 Q465.7188,276.626 465.2188,277.376 Q464.7344,278.126 464.7344,279.1572 L464.7344,280.251 Q464.7344,281.4854 465.625,282.3135 Q466.5156,283.126 468.1094,283.126 Q469.0469,283.126 469.7031,282.876 Q470.0938,282.7197 470.5156,282.2822 Q470.7813,282.0166 470.9219,281.9385 Q471.0781,281.8604 471.2813,281.8604 Q471.6094,281.8604 471.8594,282.126 Q472.125,282.376 472.125,282.7197 Q472.125,283.0635 471.7813,283.4697 Q471.2813,284.0479 470.4844,284.376 Q469.4063,284.8291 468.1094,284.8291 Q466.5938,284.8291 465.3906,284.2041 Q464.4063,283.7041 463.7188,282.6416 Q463.0313,281.5635 463.0313,280.2822 L463.0313,279.126 Q463.0313,277.7979 463.6406,276.6572 Q464.2656,275.501 465.3594,274.8916 Q466.4531,274.2666 467.6875,274.2666 Q468.4219,274.2666 469.0625,274.4385 Q469.7188,274.5947 470.2656,274.9541 Z " fill="#000000"/><text fill="#000000" font-family="sans-serif" font-size="14" lengthAdjust="spacing" textLength="73" x="481.5" y="285.2349">travel_days</text><line style="stroke:#181818;stroke-width:0.5;" x1="453.5" x2="556.5" y1="295.0791" y2="295.0791"/><line style="stroke:#181818;stroke-width:0.5;" x1="453.5" x2="556.5" y1="303.0791" y2="303.0791"/></g><!--class travel_places--><g id="elem_travel_places"><rect fill="#F1F1F1" height="48" id="travel_places" rx="2.5" ry="2.5" style="stroke:#181818;stroke-width:0.5;" width="116" x="721" y="371.0791"/><ellipse cx="736" cy="387.0791" fill="#ADD1B2" rx="11" ry="11" style="stroke:#181818;stroke-width:1.0;"/><path d="M738.7656,382.9541 Q738.9219,382.7354 739.1094,382.626 Q739.2969,382.5166 739.5156,382.5166 Q739.8906,382.5166 740.125,382.7822 Q740.3594,383.0322 740.3594,383.6416 L740.3594,385.0947 Q740.3594,385.7041 740.125,385.9697 Q739.8906,386.2354 739.5156,386.2354 Q739.1719,386.2354 738.9688,386.0322 Q738.7656,385.8447 738.6563,385.3291 Q738.6094,384.9697 738.4219,384.7822 Q738.0938,384.4072 737.4844,384.1885 Q736.875,383.9697 736.25,383.9697 Q735.4844,383.9697 734.8438,384.2979 Q734.2188,384.626 733.7188,385.376 Q733.2344,386.126 733.2344,387.1572 L733.2344,388.251 Q733.2344,389.4854 734.125,390.3135 Q735.0156,391.126 736.6094,391.126 Q737.5469,391.126 738.2031,390.876 Q738.5938,390.7197 739.0156,390.2822 Q739.2813,390.0166 739.4219,389.9385 Q739.5781,389.8604 739.7813,389.8604 Q740.1094,389.8604 740.3594,390.126 Q740.625,390.376 740.625,390.7197 Q740.625,391.0635 740.2813,391.4697 Q739.7813,392.0479 738.9844,392.376 Q737.9063,392.8291 736.6094,392.8291 Q735.0938,392.8291 733.8906,392.2041 Q732.9063,391.7041 732.2188,390.6416 Q731.5313,389.5635 731.5313,388.2822 L731.5313,387.126 Q731.5313,385.7979 732.1406,384.6572 Q732.7656,383.501 733.8594,382.8916 Q734.9531,382.2666 736.1875,382.2666 Q736.9219,382.2666 737.5625,382.4385 Q738.2188,382.5947 738.7656,382.9541 Z " fill="#000000"/><text fill="#000000" font-family="sans-serif" font-size="14" lengthAdjust="spacing" textLength="84" x="750" y="393.2349">travel_places</text><line style="stroke:#181818;stroke-width:0.5;" x1="722" x2="836" y1="403.0791" y2="403.0791"/><line style="stroke:#181818;stroke-width:0.5;" x1="722" x2="836" y1="411.0791" y2="411.0791"/></g><!--class current_activities--><g id="elem_current_activities"><rect fill="#F1F1F1" height="48" id="current_activities" rx="2.5" ry="2.5" style="stroke:#181818;stroke-width:0.5;" width="139" x="709.5" y="479.0791"/><ellipse cx="724.5" cy="495.0791" fill="#ADD1B2" rx="11" ry="11" style="stroke:#181818;stroke-width:1.0;"/><path d="M727.2656,490.9541 Q727.4219,490.7354 727.6094,490.626 Q727.7969,490.5166 728.0156,490.5166 Q728.3906,490.5166 728.625,490.7822 Q728.8594,491.0322 728.8594,491.6416 L728.8594,493.0947 Q728.8594,493.7041 728.625,493.9697 Q728.3906,494.2354 728.0156,494.2354 Q727.6719,494.2354 727.4688,494.0322 Q727.2656,493.8447 727.1563,493.3291 Q727.1094,492.9697 726.9219,492.7822 Q726.5938,492.4072 725.9844,492.1885 Q725.375,491.9697 724.75,491.9697 Q723.9844,491.9697 723.3438,492.2979 Q722.7188,492.626 722.2188,493.376 Q721.7344,494.126 721.7344,495.1572 L721.7344,496.251 Q721.7344,497.4854 722.625,498.3135 Q723.5156,499.126 725.1094,499.126 Q726.0469,499.126 726.7031,498.876 Q727.0938,498.7197 727.5156,498.2822 Q727.7813,498.0166 727.9219,497.9385 Q728.0781,497.8604 728.2813,497.8604 Q728.6094,497.8604 728.8594,498.126 Q729.125,498.376 729.125,498.7197 Q729.125,499.0635 728.7813,499.4697 Q728.2813,500.0479 727.4844,500.376 Q726.4063,500.8291 725.1094,500.8291 Q723.5938,500.8291 722.3906,500.2041 Q721.4063,499.7041 720.7188,498.6416 Q720.0313,497.5635 720.0313,496.2822 L720.0313,495.126 Q720.0313,493.7979 720.6406,492.6572 Q721.2656,491.501 722.3594,490.8916 Q723.4531,490.2666 724.6875,490.2666 Q725.4219,490.2666 726.0625,490.4385 Q726.7188,490.5947 727.2656,490.9541 Z " fill="#000000"/><text fill="#000000" font-family="sans-serif" font-size="14" lengthAdjust="spacing" textLength="107" x="738.5" y="501.2349">current_activities</text><line style="stroke:#181818;stroke-width:0.5;" x1="710.5" x2="847.5" y1="511.0791" y2="511.0791"/><line style="stroke:#181818;stroke-width:0.5;" x1="710.5" x2="847.5" y1="519.0791" y2="519.0791"/></g><!--class review_posts--><g id="elem_review_posts"><rect fill="#F1F1F1" height="48" id="review_posts" rx="2.5" ry="2.5" style="stroke:#181818;stroke-width:0.5;" width="114" x="303" y="263.0791"/><ellipse cx="318" cy="279.0791" fill="#ADD1B2" rx="11" ry="11" style="stroke:#181818;stroke-width:1.0;"/><path d="M320.7656,274.9541 Q320.9219,274.7354 321.1094,274.626 Q321.2969,274.5166 321.5156,274.5166 Q321.8906,274.5166 322.125,274.7822 Q322.3594,275.0322 322.3594,275.6416 L322.3594,277.0947 Q322.3594,277.7041 322.125,277.9697 Q321.8906,278.2354 321.5156,278.2354 Q321.1719,278.2354 320.9688,278.0322 Q320.7656,277.8447 320.6563,277.3291 Q320.6094,276.9697 320.4219,276.7822 Q320.0938,276.4072 319.4844,276.1885 Q318.875,275.9697 318.25,275.9697 Q317.4844,275.9697 316.8438,276.2979 Q316.2188,276.626 315.7188,277.376 Q315.2344,278.126 315.2344,279.1572 L315.2344,280.251 Q315.2344,281.4854 316.125,282.3135 Q317.0156,283.126 318.6094,283.126 Q319.5469,283.126 320.2031,282.876 Q320.5938,282.7197 321.0156,282.2822 Q321.2813,282.0166 321.4219,281.9385 Q321.5781,281.8604 321.7813,281.8604 Q322.1094,281.8604 322.3594,282.126 Q322.625,282.376 322.625,282.7197 Q322.625,283.0635 322.2813,283.4697 Q321.7813,284.0479 320.9844,284.376 Q319.9063,284.8291 318.6094,284.8291 Q317.0938,284.8291 315.8906,284.2041 Q314.9063,283.7041 314.2188,282.6416 Q313.5313,281.5635 313.5313,280.2822 L313.5313,279.126 Q313.5313,277.7979 314.1406,276.6572 Q314.7656,275.501 315.8594,274.8916 Q316.9531,274.2666 318.1875,274.2666 Q318.9219,274.2666 319.5625,274.4385 Q320.2188,274.5947 320.7656,274.9541 Z " fill="#000000"/><text fill="#000000" font-family="sans-serif" font-size="14" lengthAdjust="spacing" textLength="82" x="332" y="285.2349">review_posts</text><line style="stroke:#181818;stroke-width:0.5;" x1="304" x2="416" y1="295.0791" y2="295.0791"/><line style="stroke:#181818;stroke-width:0.5;" x1="304" x2="416" y1="303.0791" y2="303.0791"/></g><!--class review_photo_groups--><g id="elem_review_photo_groups"><rect fill="#F1F1F1" height="48" id="review_photo_groups" rx="2.5" ry="2.5" style="stroke:#181818;stroke-width:0.5;" width="168" x="299" y="371.0791"/><ellipse cx="314" cy="387.0791" fill="#ADD1B2" rx="11" ry="11" style="stroke:#181818;stroke-width:1.0;"/><path d="M316.7656,382.9541 Q316.9219,382.7354 317.1094,382.626 Q317.2969,382.5166 317.5156,382.5166 Q317.8906,382.5166 318.125,382.7822 Q318.3594,383.0322 318.3594,383.6416 L318.3594,385.0947 Q318.3594,385.7041 318.125,385.9697 Q317.8906,386.2354 317.5156,386.2354 Q317.1719,386.2354 316.9688,386.0322 Q316.7656,385.8447 316.6563,385.3291 Q316.6094,384.9697 316.4219,384.7822 Q316.0938,384.4072 315.4844,384.1885 Q314.875,383.9697 314.25,383.9697 Q313.4844,383.9697 312.8438,384.2979 Q312.2188,384.626 311.7188,385.376 Q311.2344,386.126 311.2344,387.1572 L311.2344,388.251 Q311.2344,389.4854 312.125,390.3135 Q313.0156,391.126 314.6094,391.126 Q315.5469,391.126 316.2031,390.876 Q316.5938,390.7197 317.0156,390.2822 Q317.2813,390.0166 317.4219,389.9385 Q317.5781,389.8604 317.7813,389.8604 Q318.1094,389.8604 318.3594,390.126 Q318.625,390.376 318.625,390.7197 Q318.625,391.0635 318.2813,391.4697 Q317.7813,392.0479 316.9844,392.376 Q315.9063,392.8291 314.6094,392.8291 Q313.0938,392.8291 311.8906,392.2041 Q310.9063,391.7041 310.2188,390.6416 Q309.5313,389.5635 309.5313,388.2822 L309.5313,387.126 Q309.5313,385.7979 310.1406,384.6572 Q310.7656,383.501 311.8594,382.8916 Q312.9531,382.2666 314.1875,382.2666 Q314.9219,382.2666 315.5625,382.4385 Q316.2188,382.5947 316.7656,382.9541 Z " fill="#000000"/><text fill="#000000" font-family="sans-serif" font-size="14" lengthAdjust="spacing" textLength="136" x="328" y="393.2349">review_photo_groups</text><line style="stroke:#181818;stroke-width:0.5;" x1="300" x2="466" y1="403.0791" y2="403.0791"/><line style="stroke:#181818;stroke-width:0.5;" x1="300" x2="466" y1="411.0791" y2="411.0791"/></g><!--class review_photos--><g id="elem_review_photos"><rect fill="#F1F1F1" height="48" id="review_photos" rx="2.5" ry="2.5" style="stroke:#181818;stroke-width:0.5;" width="123" x="331.5" y="479.0791"/><ellipse cx="346.5" cy="495.0791" fill="#ADD1B2" rx="11" ry="11" style="stroke:#181818;stroke-width:1.0;"/><path d="M349.2656,490.9541 Q349.4219,490.7354 349.6094,490.626 Q349.7969,490.5166 350.0156,490.5166 Q350.3906,490.5166 350.625,490.7822 Q350.8594,491.0322 350.8594,491.6416 L350.8594,493.0947 Q350.8594,493.7041 350.625,493.9697 Q350.3906,494.2354 350.0156,494.2354 Q349.6719,494.2354 349.4688,494.0322 Q349.2656,493.8447 349.1563,493.3291 Q349.1094,492.9697 348.9219,492.7822 Q348.5938,492.4072 347.9844,492.1885 Q347.375,491.9697 346.75,491.9697 Q345.9844,491.9697 345.3438,492.2979 Q344.7188,492.626 344.2188,493.376 Q343.7344,494.126 343.7344,495.1572 L343.7344,496.251 Q343.7344,497.4854 344.625,498.3135 Q345.5156,499.126 347.1094,499.126 Q348.0469,499.126 348.7031,498.876 Q349.0938,498.7197 349.5156,498.2822 Q349.7813,498.0166 349.9219,497.9385 Q350.0781,497.8604 350.2813,497.8604 Q350.6094,497.8604 350.8594,498.126 Q351.125,498.376 351.125,498.7197 Q351.125,499.0635 350.7813,499.4697 Q350.2813,500.0479 349.4844,500.376 Q348.4063,500.8291 347.1094,500.8291 Q345.5938,500.8291 344.3906,500.2041 Q343.4063,499.7041 342.7188,498.6416 Q342.0313,497.5635 342.0313,496.2822 L342.0313,495.126 Q342.0313,493.7979 342.6406,492.6572 Q343.2656,491.501 344.3594,490.8916 Q345.4531,490.2666 346.6875,490.2666 Q347.4219,490.2666 348.0625,490.4385 Q348.7188,490.5947 349.2656,490.9541 Z " fill="#000000"/><text fill="#000000" font-family="sans-serif" font-size="14" lengthAdjust="spacing" textLength="91" x="360.5" y="501.2349">review_photos</text><line style="stroke:#181818;stroke-width:0.5;" x1="332.5" x2="453.5" y1="511.0791" y2="511.0791"/><line style="stroke:#181818;stroke-width:0.5;" x1="332.5" x2="453.5" y1="519.0791" y2="519.0791"/></g><!--class review_hashtag_groups--><g id="elem_review_hashtag_groups"><rect fill="#F1F1F1" height="48" id="review_hashtag_groups" rx="2.5" ry="2.5" style="stroke:#181818;stroke-width:0.5;" width="183" x="502.5" y="371.0791"/><ellipse cx="517.5" cy="387.0791" fill="#ADD1B2" rx="11" ry="11" style="stroke:#181818;stroke-width:1.0;"/><path d="M520.2656,382.9541 Q520.4219,382.7354 520.6094,382.626 Q520.7969,382.5166 521.0156,382.5166 Q521.3906,382.5166 521.625,382.7822 Q521.8594,383.0322 521.8594,383.6416 L521.8594,385.0947 Q521.8594,385.7041 521.625,385.9697 Q521.3906,386.2354 521.0156,386.2354 Q520.6719,386.2354 520.4688,386.0322 Q520.2656,385.8447 520.1563,385.3291 Q520.1094,384.9697 519.9219,384.7822 Q519.5938,384.4072 518.9844,384.1885 Q518.375,383.9697 517.75,383.9697 Q516.9844,383.9697 516.3438,384.2979 Q515.7188,384.626 515.2188,385.376 Q514.7344,386.126 514.7344,387.1572 L514.7344,388.251 Q514.7344,389.4854 515.625,390.3135 Q516.5156,391.126 518.1094,391.126 Q519.0469,391.126 519.7031,390.876 Q520.0938,390.7197 520.5156,390.2822 Q520.7813,390.0166 520.9219,389.9385 Q521.0781,389.8604 521.2813,389.8604 Q521.6094,389.8604 521.8594,390.126 Q522.125,390.376 522.125,390.7197 Q522.125,391.0635 521.7813,391.4697 Q521.2813,392.0479 520.4844,392.376 Q519.4063,392.8291 518.1094,392.8291 Q516.5938,392.8291 515.3906,392.2041 Q514.4063,391.7041 513.7188,390.6416 Q513.0313,389.5635 513.0313,388.2822 L513.0313,387.126 Q513.0313,385.7979 513.6406,384.6572 Q514.2656,383.501 515.3594,382.8916 Q516.4531,382.2666 517.6875,382.2666 Q518.4219,382.2666 519.0625,382.4385 Q519.7188,382.5947 520.2656,382.9541 Z " fill="#000000"/><text fill="#000000" font-family="sans-serif" font-size="14" lengthAdjust="spacing" textLength="151" x="531.5" y="393.2349">review_hashtag_groups</text><line style="stroke:#181818;stroke-width:0.5;" x1="503.5" x2="684.5" y1="403.0791" y2="403.0791"/><line style="stroke:#181818;stroke-width:0.5;" x1="503.5" x2="684.5" y1="411.0791" y2="411.0791"/></g><!--class review_hashtags--><g id="elem_review_hashtags"><rect fill="#F1F1F1" height="48" id="review_hashtags" rx="2.5" ry="2.5" style="stroke:#181818;stroke-width:0.5;" width="138" x="525" y="479.0791"/><ellipse cx="540" cy="495.0791" fill="#ADD1B2" rx="11" ry="11" style="stroke:#181818;stroke-width:1.0;"/><path d="M542.7656,490.9541 Q542.9219,490.7354 543.1094,490.626 Q543.2969,490.5166 543.5156,490.5166 Q543.8906,490.5166 544.125,490.7822 Q544.3594,491.0322 544.3594,491.6416 L544.3594,493.0947 Q544.3594,493.7041 544.125,493.9697 Q543.8906,494.2354 543.5156,494.2354 Q543.1719,494.2354 542.9688,494.0322 Q542.7656,493.8447 542.6563,493.3291 Q542.6094,492.9697 542.4219,492.7822 Q542.0938,492.4072 541.4844,492.1885 Q540.875,491.9697 540.25,491.9697 Q539.4844,491.9697 538.8438,492.2979 Q538.2188,492.626 537.7188,493.376 Q537.2344,494.126 537.2344,495.1572 L537.2344,496.251 Q537.2344,497.4854 538.125,498.3135 Q539.0156,499.126 540.6094,499.126 Q541.5469,499.126 542.2031,498.876 Q542.5938,498.7197 543.0156,498.2822 Q543.2813,498.0166 543.4219,497.9385 Q543.5781,497.8604 543.7813,497.8604 Q544.1094,497.8604 544.3594,498.126 Q544.625,498.376 544.625,498.7197 Q544.625,499.0635 544.2813,499.4697 Q543.7813,500.0479 542.9844,500.376 Q541.9063,500.8291 540.6094,500.8291 Q539.0938,500.8291 537.8906,500.2041 Q536.9063,499.7041 536.2188,498.6416 Q535.5313,497.5635 535.5313,496.2822 L535.5313,495.126 Q535.5313,493.7979 536.1406,492.6572 Q536.7656,491.501 537.8594,490.8916 Q538.9531,490.2666 540.1875,490.2666 Q540.9219,490.2666 541.5625,490.4385 Q542.2188,490.5947 542.7656,490.9541 Z " fill="#000000"/><text fill="#000000" font-family="sans-serif" font-size="14" lengthAdjust="spacing" textLength="106" x="554" y="501.2349">review_hashtags</text><line style="stroke:#181818;stroke-width:0.5;" x1="526" x2="662" y1="511.0791" y2="511.0791"/><line style="stroke:#181818;stroke-width:0.5;" x1="526" x2="662" y1="519.0791" y2="519.0791"/></g><!--class ai_review_styles--><g id="elem_ai_review_styles"><rect fill="#F1F1F1" height="48" id="ai_review_styles" rx="2.5" ry="2.5" style="stroke:#181818;stroke-width:0.5;" width="135" x="161.5" y="479.0791"/><ellipse cx="176.5" cy="495.0791" fill="#ADD1B2" rx="11" ry="11" style="stroke:#181818;stroke-width:1.0;"/><path d="M179.2656,490.9541 Q179.4219,490.7354 179.6094,490.626 Q179.7969,490.5166 180.0156,490.5166 Q180.3906,490.5166 180.625,490.7822 Q180.8594,491.0322 180.8594,491.6416 L180.8594,493.0947 Q180.8594,493.7041 180.625,493.9697 Q180.3906,494.2354 180.0156,494.2354 Q179.6719,494.2354 179.4688,494.0322 Q179.2656,493.8447 179.1563,493.3291 Q179.1094,492.9697 178.9219,492.7822 Q178.5938,492.4072 177.9844,492.1885 Q177.375,491.9697 176.75,491.9697 Q175.9844,491.9697 175.3438,492.2979 Q174.7188,492.626 174.2188,493.376 Q173.7344,494.126 173.7344,495.1572 L173.7344,496.251 Q173.7344,497.4854 174.625,498.3135 Q175.5156,499.126 177.1094,499.126 Q178.0469,499.126 178.7031,498.876 Q179.0938,498.7197 179.5156,498.2822 Q179.7813,498.0166 179.9219,497.9385 Q180.0781,497.8604 180.2813,497.8604 Q180.6094,497.8604 180.8594,498.126 Q181.125,498.376 181.125,498.7197 Q181.125,499.0635 180.7813,499.4697 Q180.2813,500.0479 179.4844,500.376 Q178.4063,500.8291 177.1094,500.8291 Q175.5938,500.8291 174.3906,500.2041 Q173.4063,499.7041 172.7188,498.6416 Q172.0313,497.5635 172.0313,496.2822 L172.0313,495.126 Q172.0313,493.7979 172.6406,492.6572 Q173.2656,491.501 174.3594,490.8916 Q175.4531,490.2666 176.6875,490.2666 Q177.4219,490.2666 178.0625,490.4385 Q178.7188,490.5947 179.2656,490.9541 Z " fill="#000000"/><text fill="#000000" font-family="sans-serif" font-size="14" lengthAdjust="spacing" textLength="103" x="190.5" y="501.2349">ai_review_styles</text><line style="stroke:#181818;stroke-width:0.5;" x1="162.5" x2="295.5" y1="511.0791" y2="511.0791"/><line style="stroke:#181818;stroke-width:0.5;" x1="162.5" x2="295.5" y1="519.0791" y2="519.0791"/></g><!--class ai_review_hashtags--><g id="elem_ai_review_hashtags"><rect fill="#F1F1F1" height="48" id="ai_review_hashtags" rx="2.5" ry="2.5" style="stroke:#181818;stroke-width:0.5;" width="157" x="89.5" y="587.0791"/><ellipse cx="104.5" cy="603.0791" fill="#ADD1B2" rx="11" ry="11" style="stroke:#181818;stroke-width:1.0;"/><path d="M107.2656,598.9541 Q107.4219,598.7354 107.6094,598.626 Q107.7969,598.5166 108.0156,598.5166 Q108.3906,598.5166 108.625,598.7822 Q108.8594,599.0322 108.8594,599.6416 L108.8594,601.0947 Q108.8594,601.7041 108.625,601.9697 Q108.3906,602.2354 108.0156,602.2354 Q107.6719,602.2354 107.4688,602.0322 Q107.2656,601.8447 107.1563,601.3291 Q107.1094,600.9697 106.9219,600.7822 Q106.5938,600.4072 105.9844,600.1885 Q105.375,599.9697 104.75,599.9697 Q103.9844,599.9697 103.3438,600.2979 Q102.7188,600.626 102.2188,601.376 Q101.7344,602.126 101.7344,603.1572 L101.7344,604.251 Q101.7344,605.4854 102.625,606.3135 Q103.5156,607.126 105.1094,607.126 Q106.0469,607.126 106.7031,606.876 Q107.0938,606.7197 107.5156,606.2822 Q107.7813,606.0166 107.9219,605.9385 Q108.0781,605.8604 108.2813,605.8604 Q108.6094,605.8604 108.8594,606.126 Q109.125,606.376 109.125,606.7197 Q109.125,607.0635 108.7813,607.4697 Q108.2813,608.0479 107.4844,608.376 Q106.4063,608.8291 105.1094,608.8291 Q103.5938,608.8291 102.3906,608.2041 Q101.4063,607.7041 100.7188,606.6416 Q100.0313,605.5635 100.0313,604.2822 L100.0313,603.126 Q100.0313,601.7979 100.6406,600.6572 Q101.2656,599.501 102.3594,598.8916 Q103.4531,598.2666 104.6875,598.2666 Q105.4219,598.2666 106.0625,598.4385 Q106.7188,598.5947 107.2656,598.9541 Z " fill="#000000"/><text fill="#000000" font-family="sans-serif" font-size="14" lengthAdjust="spacing" textLength="125" x="118.5" y="609.2349">ai_review_hashtags</text><line style="stroke:#181818;stroke-width:0.5;" x1="90.5" x2="245.5" y1="619.0791" y2="619.0791"/><line style="stroke:#181818;stroke-width:0.5;" x1="90.5" x2="245.5" y1="627.0791" y2="627.0791"/></g><!--class image_search_results--><g id="elem_image_search_results"><rect fill="#F1F1F1" height="48" id="image_search_results" rx="2.5" ry="2.5" style="stroke:#181818;stroke-width:0.5;" width="171" x="943.5" y="263.0791"/><ellipse cx="958.5" cy="279.0791" fill="#ADD1B2" rx="11" ry="11" style="stroke:#181818;stroke-width:1.0;"/><path d="M961.2656,274.9541 Q961.4219,274.7354 961.6094,274.626 Q961.7969,274.5166 962.0156,274.5166 Q962.3906,274.5166 962.625,274.7822 Q962.8594,275.0322 962.8594,275.6416 L962.8594,277.0947 Q962.8594,277.7041 962.625,277.9697 Q962.3906,278.2354 962.0156,278.2354 Q961.6719,278.2354 961.4688,278.0322 Q961.2656,277.8447 961.1563,277.3291 Q961.1094,276.9697 960.9219,276.7822 Q960.5938,276.4072 959.9844,276.1885 Q959.375,275.9697 958.75,275.9697 Q957.9844,275.9697 957.3438,276.2979 Q956.7188,276.626 956.2188,277.376 Q955.7344,278.126 955.7344,279.1572 L955.7344,280.251 Q955.7344,281.4854 956.625,282.3135 Q957.5156,283.126 959.1094,283.126 Q960.0469,283.126 960.7031,282.876 Q961.0938,282.7197 961.5156,282.2822 Q961.7813,282.0166 961.9219,281.9385 Q962.0781,281.8604 962.2813,281.8604 Q962.6094,281.8604 962.8594,282.126 Q963.125,282.376 963.125,282.7197 Q963.125,283.0635 962.7813,283.4697 Q962.2813,284.0479 961.4844,284.376 Q960.4063,284.8291 959.1094,284.8291 Q957.5938,284.8291 956.3906,284.2041 Q955.4063,283.7041 954.7188,282.6416 Q954.0313,281.5635 954.0313,280.2822 L954.0313,279.126 Q954.0313,277.7979 954.6406,276.6572 Q955.2656,275.501 956.3594,274.8916 Q957.4531,274.2666 958.6875,274.2666 Q959.4219,274.2666 960.0625,274.4385 Q960.7188,274.5947 961.2656,274.9541 Z " fill="#000000"/><text fill="#000000" font-family="sans-serif" font-size="14" lengthAdjust="spacing" textLength="139" x="972.5" y="285.2349">image_search_results</text><line style="stroke:#181818;stroke-width:0.5;" x1="944.5" x2="1113.5" y1="295.0791" y2="295.0791"/><line style="stroke:#181818;stroke-width:0.5;" x1="944.5" x2="1113.5" y1="303.0791" y2="303.0791"/></g><!--class places--><g id="elem_places"><rect fill="#F1F1F1" height="48" id="places" rx="2.5" ry="2.5" style="stroke:#181818;stroke-width:0.5;" width="73" x="699.5" y="155.0791"/><ellipse cx="714.5" cy="171.0791" fill="#ADD1B2" rx="11" ry="11" style="stroke:#181818;stroke-width:1.0;"/><path d="M717.2656,166.9541 Q717.4219,166.7354 717.6094,166.626 Q717.7969,166.5166 718.0156,166.5166 Q718.3906,166.5166 718.625,166.7822 Q718.8594,167.0322 718.8594,167.6416 L718.8594,169.0947 Q718.8594,169.7041 718.625,169.9697 Q718.3906,170.2354 718.0156,170.2354 Q717.6719,170.2354 717.4688,170.0322 Q717.2656,169.8447 717.1563,169.3291 Q717.1094,168.9697 716.9219,168.7822 Q716.5938,168.4072 715.9844,168.1885 Q715.375,167.9697 714.75,167.9697 Q713.9844,167.9697 713.3438,168.2979 Q712.7188,168.626 712.2188,169.376 Q711.7344,170.126 711.7344,171.1572 L711.7344,172.251 Q711.7344,173.4854 712.625,174.3135 Q713.5156,175.126 715.1094,175.126 Q716.0469,175.126 716.7031,174.876 Q717.0938,174.7197 717.5156,174.2822 Q717.7813,174.0166 717.9219,173.9385 Q718.0781,173.8604 718.2813,173.8604 Q718.6094,173.8604 718.8594,174.126 Q719.125,174.376 719.125,174.7197 Q719.125,175.0635 718.7813,175.4697 Q718.2813,176.0479 717.4844,176.376 Q716.4063,176.8291 715.1094,176.8291 Q713.5938,176.8291 712.3906,176.2041 Q711.4063,175.7041 710.7188,174.6416 Q710.0313,173.5635 710.0313,172.2822 L710.0313,171.126 Q710.0313,169.7979 710.6406,168.6572 Q711.2656,167.501 712.3594,166.8916 Q713.4531,166.2666 714.6875,166.2666 Q715.4219,166.2666 716.0625,166.4385 Q716.7188,166.5947 717.2656,166.9541 Z " fill="#000000"/><text fill="#000000" font-family="sans-serif" font-size="14" lengthAdjust="spacing" textLength="41" x="728.5" y="177.2349">places</text><line style="stroke:#181818;stroke-width:0.5;" x1="700.5" x2="771.5" y1="187.0791" y2="187.0791"/><line style="stroke:#181818;stroke-width:0.5;" x1="700.5" x2="771.5" y1="195.0791" y2="195.0791"/></g><!--class checklist_items--><g id="elem_checklist_items"><rect fill="#F1F1F1" height="48" id="checklist_items" rx="2.5" ry="2.5" style="stroke:#181818;stroke-width:0.5;" width="127" x="592.5" y="263.0791"/><ellipse cx="607.5" cy="279.0791" fill="#ADD1B2" rx="11" ry="11" style="stroke:#181818;stroke-width:1.0;"/><path d="M610.2656,274.9541 Q610.4219,274.7354 610.6094,274.626 Q610.7969,274.5166 611.0156,274.5166 Q611.3906,274.5166 611.625,274.7822 Q611.8594,275.0322 611.8594,275.6416 L611.8594,277.0947 Q611.8594,277.7041 611.625,277.9697 Q611.3906,278.2354 611.0156,278.2354 Q610.6719,278.2354 610.4688,278.0322 Q610.2656,277.8447 610.1563,277.3291 Q610.1094,276.9697 609.9219,276.7822 Q609.5938,276.4072 608.9844,276.1885 Q608.375,275.9697 607.75,275.9697 Q606.9844,275.9697 606.3438,276.2979 Q605.7188,276.626 605.2188,277.376 Q604.7344,278.126 604.7344,279.1572 L604.7344,280.251 Q604.7344,281.4854 605.625,282.3135 Q606.5156,283.126 608.1094,283.126 Q609.0469,283.126 609.7031,282.876 Q610.0938,282.7197 610.5156,282.2822 Q610.7813,282.0166 610.9219,281.9385 Q611.0781,281.8604 611.2813,281.8604 Q611.6094,281.8604 611.8594,282.126 Q612.125,282.376 612.125,282.7197 Q612.125,283.0635 611.7813,283.4697 Q611.2813,284.0479 610.4844,284.376 Q609.4063,284.8291 608.1094,284.8291 Q606.5938,284.8291 605.3906,284.2041 Q604.4063,283.7041 603.7188,282.6416 Q603.0313,281.5635 603.0313,280.2822 L603.0313,279.126 Q603.0313,277.7979 603.6406,276.6572 Q604.2656,275.501 605.3594,274.8916 Q606.4531,274.2666 607.6875,274.2666 Q608.4219,274.2666 609.0625,274.4385 Q609.7188,274.5947 610.2656,274.9541 Z " fill="#000000"/><text fill="#000000" font-family="sans-serif" font-size="14" lengthAdjust="spacing" textLength="95" x="621.5" y="285.2349">checklist_items</text><line style="stroke:#181818;stroke-width:0.5;" x1="593.5" x2="718.5" y1="295.0791" y2="295.0791"/><line style="stroke:#181818;stroke-width:0.5;" x1="593.5" x2="718.5" y1="303.0791" y2="303.0791"/></g><!--class payment_transactions--><g id="elem_payment_transactions"><rect fill="#F1F1F1" height="48" id="payment_transactions" rx="2.5" ry="2.5" style="stroke:#181818;stroke-width:0.5;" width="171" x="1361.5" y="263.0791"/><ellipse cx="1376.5" cy="279.0791" fill="#ADD1B2" rx="11" ry="11" style="stroke:#181818;stroke-width:1.0;"/><path d="M1379.2656,274.9541 Q1379.4219,274.7354 1379.6094,274.626 Q1379.7969,274.5166 1380.0156,274.5166 Q1380.3906,274.5166 1380.625,274.7822 Q1380.8594,275.0322 1380.8594,275.6416 L1380.8594,277.0947 Q1380.8594,277.7041 1380.625,277.9697 Q1380.3906,278.2354 1380.0156,278.2354 Q1379.6719,278.2354 1379.4688,278.0322 Q1379.2656,277.8447 1379.1563,277.3291 Q1379.1094,276.9697 1378.9219,276.7822 Q1378.5938,276.4072 1377.9844,276.1885 Q1377.375,275.9697 1376.75,275.9697 Q1375.9844,275.9697 1375.3438,276.2979 Q1374.7188,276.626 1374.2188,277.376 Q1373.7344,278.126 1373.7344,279.1572 L1373.7344,280.251 Q1373.7344,281.4854 1374.625,282.3135 Q1375.5156,283.126 1377.1094,283.126 Q1378.0469,283.126 1378.7031,282.876 Q1379.0938,282.7197 1379.5156,282.2822 Q1379.7813,282.0166 1379.9219,281.9385 Q1380.0781,281.8604 1380.2813,281.8604 Q1380.6094,281.8604 1380.8594,282.126 Q1381.125,282.376 1381.125,282.7197 Q1381.125,283.0635 1380.7813,283.4697 Q1380.2813,284.0479 1379.4844,284.376 Q1378.4063,284.8291 1377.1094,284.8291 Q1375.5938,284.8291 1374.3906,284.2041 Q1373.4063,283.7041 1372.7188,282.6416 Q1372.0313,281.5635 1372.0313,280.2822 L1372.0313,279.126 Q1372.0313,277.7979 1372.6406,276.6572 Q1373.2656,275.501 1374.3594,274.8916 Q1375.4531,274.2666 1376.6875,274.2666 Q1377.4219,274.2666 1378.0625,274.4385 Q1378.7188,274.5947 1379.2656,274.9541 Z " fill="#000000"/><text fill="#000000" font-family="sans-serif" font-size="14" lengthAdjust="spacing" textLength="139" x="1390.5" y="285.2349">payment_transactions</text><line style="stroke:#181818;stroke-width:0.5;" x1="1362.5" x2="1531.5" y1="295.0791" y2="295.0791"/><line style="stroke:#181818;stroke-width:0.5;" x1="1362.5" x2="1531.5" y1="303.0791" y2="303.0791"/></g><!--link users to user_identities--><g id="link_users_user_identities"><path codeLine="233" d="M786.5514,73.8697 C895.6714,78.9297 1241.95,98.5691 1529,155.0791 C1534.47,156.1591 1522.6338,153.0881 1528.2538,154.4881 " fill="none" id="users-user_identities" style="stroke:#181818;stroke-width:1.0;"/><line style="stroke:#181818;stroke-width:1.0;" x1="782.3704" x2="782.741" y1="77.6801" y2="69.6887"/><line style="stroke:#181818;stroke-width:1.0;" x1="785.3672" x2="785.7378" y1="77.8191" y2="69.8276"/><line style="stroke:#181818;stroke-width:1.0;" x1="786.5514" x2="778.56" y1="73.8697" y2="73.4991"/><line style="stroke:#181818;stroke-width:1.0;" x1="1537.9572" x2="1547.1703" y1="156.9053" y2="153.017"/><line style="stroke:#181818;stroke-width:1.0;" x1="1537.9572" x2="1544.2697" y1="156.9053" y2="164.6612"/><line style="stroke:#181818;stroke-width:1.0;" x1="1537.9572" x2="1545.72" y1="156.9053" y2="158.8391"/><ellipse cx="1532.1352" cy="155.455" fill="none" rx="4" ry="4" style="stroke:#181818;stroke-width:1.0;"/></g><!--link users to sns_tokens--><g id="link_users_sns_tokens"><path codeLine="234" d="M703.5013,75.6157 C611.2513,83.7957 354.13,109.0991 138,155.0791 C129.34,156.9191 137.5934,154.4381 128.7734,156.8681 " fill="none" id="users-sns_tokens" style="stroke:#181818;stroke-width:1.0;"/><line style="stroke:#181818;stroke-width:1.0;" x1="707.1323" x2="707.8389" y1="71.278" y2="79.2468"/><line style="stroke:#181818;stroke-width:1.0;" x1="704.1441" x2="704.8507" y1="71.543" y2="79.5117"/><line style="stroke:#181818;stroke-width:1.0;" x1="703.5013" x2="711.47" y1="75.6157" y2="74.9091"/><line style="stroke:#181818;stroke-width:1.0;" x1="119.1326" x2="113.0137" y1="159.5242" y2="167.4336"/><line style="stroke:#181818;stroke-width:1.0;" x1="119.1326" x2="109.8263" y1="159.5242" y2="155.8646"/><line style="stroke:#181818;stroke-width:1.0;" x1="119.1326" x2="111.42" y1="159.5242" y2="161.6491"/><ellipse cx="124.9171" cy="157.9305" fill="none" rx="4" ry="4" style="stroke:#181818;stroke-width:1.0;"/></g><!--link users to travel_plans--><g id="link_users_travel_plans"><path codeLine="235" d="M704.0002,88.6003 C659.9702,106.3503 606.2444,127.9987 553.5844,149.2287 " fill="none" id="users-travel_plans" style="stroke:#181818;stroke-width:1.0;"/><line style="stroke:#181818;stroke-width:1.0;" x1="706.2145" x2="709.2057" y1="83.3948" y2="90.8146"/><line style="stroke:#181818;stroke-width:1.0;" x1="703.4321" x2="706.4233" y1="84.5165" y2="91.9363"/><line style="stroke:#181818;stroke-width:1.0;" x1="704.0002" x2="711.42" y1="88.6003" y2="85.6091"/><line style="stroke:#181818;stroke-width:1.0;" x1="544.3097" x2="539.1335" y1="152.9678" y2="161.5239"/><line style="stroke:#181818;stroke-width:1.0;" x1="544.3097" x2="534.6465" y1="152.9678" y2="150.3943"/><line style="stroke:#181818;stroke-width:1.0;" x1="544.3097" x2="536.89" y1="152.9678" y2="155.9591"/><ellipse cx="549.8745" cy="150.7244" fill="none" rx="4" ry="4" style="stroke:#181818;stroke-width:1.0;"/></g><!--link users to travel_plan_snapshots--><g id="link_users_travel_plan_snapshots"><path codeLine="236" d="M703.4225,82.0928 C636.0125,98.3328 508.1994,129.1235 410.3994,152.6835 " fill="none" id="users-travel_plan_snapshots" style="stroke:#181818;stroke-width:1.0;"/><line style="stroke:#181818;stroke-width:1.0;" x1="706.3744" x2="708.2481" y1="77.2672" y2="85.0447"/><line style="stroke:#181818;stroke-width:1.0;" x1="703.4579" x2="705.3316" y1="77.9699" y2="85.7473"/><line style="stroke:#181818;stroke-width:1.0;" x1="703.4225" x2="711.2" y1="82.0928" y2="80.2191"/><line style="stroke:#181818;stroke-width:1.0;" x1="400.6775" x2="394.3052" y1="155.0255" y2="162.7322"/><line style="stroke:#181818;stroke-width:1.0;" x1="400.6775" x2="391.4948" y1="155.0255" y2="151.066"/><line style="stroke:#181818;stroke-width:1.0;" x1="400.6775" x2="392.9" y1="155.0255" y2="156.8991"/><ellipse cx="406.5106" cy="153.6203" fill="none" rx="4" ry="4" style="stroke:#181818;stroke-width:1.0;"/></g><!--link users to ai_review_analysis--><g id="link_users_ai_review_analysis"><path codeLine="237" d="M703.4129,72.9827 C597.1029,75.8227 278.43,89.5991 200,155.0791 C133.5,210.6091 121.6668,304.73 119.3368,353.06 " fill="none" id="users-ai_review_analysis" style="stroke:#181818;stroke-width:1.0;"/><line style="stroke:#181818;stroke-width:1.0;" x1="707.3046" x2="707.5182" y1="68.8773" y2="76.8745"/><line style="stroke:#181818;stroke-width:1.0;" x1="704.3057" x2="704.5193" y1="68.9575" y2="76.9546"/><line style="stroke:#181818;stroke-width:1.0;" x1="703.4129" x2="711.41" y1="72.9827" y2="72.7691"/><line style="stroke:#181818;stroke-width:1.0;" x1="118.8552" x2="124.463" y1="363.0484" y2="371.328"/><line style="stroke:#181818;stroke-width:1.0;" x1="118.8552" x2="112.477" y1="363.0484" y2="370.7502"/><line style="stroke:#181818;stroke-width:1.0;" x1="118.8552" x2="118.47" y1="363.0484" y2="371.0391"/><ellipse cx="119.1442" cy="357.0553" fill="none" rx="4" ry="4" style="stroke:#181818;stroke-width:1.0;"/></g><!--link users to image_search_places--><g id="link_users_image_search_places"><path codeLine="238" d="M786.5251,80.065 C857.2551,93.715 1018.57,125.1491 1160,155.0791 C1165.83,156.3091 1154.2437,153.7621 1160.2937,155.0821 " fill="none" id="users-image_search_places" style="stroke:#181818;stroke-width:1.0;"/><line style="stroke:#181818;stroke-width:1.0;" x1="781.8396" x2="783.3555" y1="83.2346" y2="75.3795"/><line style="stroke:#181818;stroke-width:1.0;" x1="784.7852" x2="786.3011" y1="83.8031" y2="75.948"/><line style="stroke:#181818;stroke-width:1.0;" x1="786.5251" x2="778.67" y1="80.065" y2="78.5491"/><line style="stroke:#181818;stroke-width:1.0;" x1="1170.0639" x2="1179.159" y1="157.2138" y2="153.057"/><line style="stroke:#181818;stroke-width:1.0;" x1="1170.0639" x2="1176.601" y1="157.2138" y2="164.7812"/><line style="stroke:#181818;stroke-width:1.0;" x1="1170.0639" x2="1177.88" y1="157.2138" y2="158.9191"/><ellipse cx="1164.2018" cy="155.9348" fill="none" rx="4" ry="4" style="stroke:#181818;stroke-width:1.0;"/></g><!--link users to checklists--><g id="link_users_checklists"><path codeLine="239" d="M711.2992,100.2066 C690.1492,117.8666 681.0079,125.4836 659.7579,143.2236 " fill="none" id="users-checklists" style="stroke:#181818;stroke-width:1.0;"/><line style="stroke:#181818;stroke-width:1.0;" x1="711.8059" x2="716.9334" y1="94.5725" y2="100.7132"/><line style="stroke:#181818;stroke-width:1.0;" x1="709.5031" x2="714.6306" y1="96.4953" y2="102.636"/><line style="stroke:#181818;stroke-width:1.0;" x1="711.2992" x2="717.44" y1="100.2066" y2="95.0791"/><line style="stroke:#181818;stroke-width:1.0;" x1="652.0813" x2="649.7852" y1="149.6322" y2="159.3651"/><line style="stroke:#181818;stroke-width:1.0;" x1="652.0813" x2="642.0948" y1="149.6322" y2="150.1532"/><line style="stroke:#181818;stroke-width:1.0;" x1="652.0813" x2="645.94" y1="149.6322" y2="154.7591"/><ellipse cx="656.6872" cy="145.7871" fill="none" rx="4" ry="4" style="stroke:#181818;stroke-width:1.0;"/></g><!--link users to chat_memories--><g id="link_users_chat_memories"><path codeLine="240" d="M778.7008,100.2066 C799.8508,117.8666 808.9921,125.4836 830.2421,143.2236 " fill="none" id="users-chat_memories" style="stroke:#181818;stroke-width:1.0;"/><line style="stroke:#181818;stroke-width:1.0;" x1="773.0666" x2="778.1941" y1="100.7132" y2="94.5725"/><line style="stroke:#181818;stroke-width:1.0;" x1="775.3694" x2="780.4969" y1="102.636" y2="96.4953"/><line style="stroke:#181818;stroke-width:1.0;" x1="778.7008" x2="772.56" y1="100.2066" y2="95.0791"/><line style="stroke:#181818;stroke-width:1.0;" x1="837.9187" x2="847.9052" y1="149.6322" y2="150.1532"/><line style="stroke:#181818;stroke-width:1.0;" x1="837.9187" x2="840.2148" y1="149.6322" y2="159.3651"/><line style="stroke:#181818;stroke-width:1.0;" x1="837.9187" x2="844.06" y1="149.6322" y2="154.7591"/><ellipse cx="833.3128" cy="145.7871" fill="none" rx="4" ry="4" style="stroke:#181818;stroke-width:1.0;"/></g><!--link users to chat_memory_vectors--><g id="link_users_chat_memory_vectors"><path codeLine="241" d="M786.2642,86.0942 C836.4442,103.1542 907.277,127.208 972.257,149.288 " fill="none" id="users-chat_memory_vectors" style="stroke:#181818;stroke-width:1.0;"/><line style="stroke:#181818;stroke-width:1.0;" x1="781.1896" x2="783.7646" y1="88.5937" y2="81.0195"/><line style="stroke:#181818;stroke-width:1.0;" x1="784.0299" x2="786.605" y1="89.5594" y2="81.9852"/><line style="stroke:#181818;stroke-width:1.0;" x1="786.2642" x2="778.69" y1="86.0942" y2="83.5191"/><line style="stroke:#181818;stroke-width:1.0;" x1="981.7253" x2="991.2304" y1="152.5053" y2="149.3981"/><line style="stroke:#181818;stroke-width:1.0;" x1="981.7253" x2="987.3696" y1="152.5053" y2="160.7601"/><line style="stroke:#181818;stroke-width:1.0;" x1="981.7253" x2="989.3" y1="152.5053" y2="155.0791"/><ellipse cx="976.0444" cy="150.5749" fill="none" rx="4" ry="4" style="stroke:#181818;stroke-width:1.0;"/></g><!--link users to hotel_bookings--><g id="link_users_hotel_bookings"><path codeLine="242" d="M786.5802,75.5489 C880.2902,83.6589 1144.22,109.0191 1366,155.0791 C1371.44,156.2091 1359.5856,153.1508 1365.1956,154.5508 " fill="none" id="users-hotel_bookings" style="stroke:#181818;stroke-width:1.0;"/><line style="stroke:#181818;stroke-width:1.0;" x1="782.2502" x2="782.94" y1="79.1891" y2="71.2189"/><line style="stroke:#181818;stroke-width:1.0;" x1="785.239" x2="785.9288" y1="79.4478" y2="71.4775"/><line style="stroke:#181818;stroke-width:1.0;" x1="786.5802" x2="778.61" y1="75.5489" y2="74.8591"/><line style="stroke:#181818;stroke-width:1.0;" x1="1374.898" x2="1384.1128" y1="156.9721" y2="153.0876"/><line style="stroke:#181818;stroke-width:1.0;" x1="1374.898" x2="1381.2072" y1="156.9721" y2="164.7306"/><line style="stroke:#181818;stroke-width:1.0;" x1="1374.898" x2="1382.66" y1="156.9721" y2="158.9091"/><ellipse cx="1369.0766" cy="155.5193" fill="none" rx="4" ry="4" style="stroke:#181818;stroke-width:1.0;"/></g><!--link travel_plans to travel_days--><g id="link_travel_plans_travel_days"><path codeLine="244" d="M488.6856,210.8974 C492.5156,228.5574 492.2724,227.4286 496.1224,245.1686 " fill="none" id="travel_plans-travel_days" style="stroke:#181818;stroke-width:1.0;"/><line style="stroke:#181818;stroke-width:1.0;" x1="483.9287" x2="491.7469" y1="207.836" y2="206.1404"/><line style="stroke:#181818;stroke-width:1.0;" x1="484.5645" x2="492.3828" y1="210.7679" y2="209.0723"/><line style="stroke:#181818;stroke-width:1.0;" x1="488.6856" x2="486.99" y1="210.8974" y2="203.0791"/><line style="stroke:#181818;stroke-width:1.0;" x1="498.2433" x2="505.8035" y1="254.9411" y2="261.4866"/><line style="stroke:#181818;stroke-width:1.0;" x1="498.2433" x2="494.0765" y1="254.9411" y2="264.0316"/><line style="stroke:#181818;stroke-width:1.0;" x1="498.2433" x2="499.94" y1="254.9411" y2="262.7591"/><ellipse cx="496.9708" cy="249.0776" fill="none" rx="4" ry="4" style="stroke:#181818;stroke-width:1.0;"/></g><!--link travel_days to travel_places--><g id="link_travel_days_travel_places"><path codeLine="245" d="M564.9708,311.2764 C611.7408,329.3764 655.8233,346.4224 704.1933,365.1424 " fill="none" id="travel_days-travel_places" style="stroke:#181818;stroke-width:1.0;"/><line style="stroke:#181818;stroke-width:1.0;" x1="559.7967" x2="562.6841" y1="313.5632" y2="306.1024"/><line style="stroke:#181818;stroke-width:1.0;" x1="562.5945" x2="565.4819" y1="314.6459" y2="307.1851"/><line style="stroke:#181818;stroke-width:1.0;" x1="564.9708" x2="557.51" y1="311.2764" y2="308.3891"/><line style="stroke:#181818;stroke-width:1.0;" x1="713.5193" x2="723.1456" y1="368.7517" y2="366.0435"/><line style="stroke:#181818;stroke-width:1.0;" x1="713.5193" x2="718.8144" y1="368.7517" y2="377.2347"/><line style="stroke:#181818;stroke-width:1.0;" x1="713.5193" x2="720.98" y1="368.7517" y2="371.6391"/><ellipse cx="707.9237" cy="366.5861" fill="none" rx="4" ry="4" style="stroke:#181818;stroke-width:1.0;"/></g><!--link travel_places to current_activities--><g id="link_travel_places_current_activities"><path codeLine="246" d="M779,427.0791 C779,444.7391 779,443.0191 779,460.7591 " fill="none" id="travel_places-current_activities" style="stroke:#181818;stroke-width:1.0;"/><line style="stroke:#181818;stroke-width:1.0;" x1="775" x2="783" y1="423.0791" y2="423.0791"/><line style="stroke:#181818;stroke-width:1.0;" x1="775" x2="783" y1="426.0791" y2="426.0791"/><line style="stroke:#181818;stroke-width:1.0;" x1="779" x2="779" y1="427.0791" y2="419.0791"/><line style="stroke:#181818;stroke-width:1.0;" x1="779" x2="785" y1="470.7591" y2="478.7591"/><line style="stroke:#181818;stroke-width:1.0;" x1="779" x2="773" y1="470.7591" y2="478.7591"/><line style="stroke:#181818;stroke-width:1.0;" x1="779" x2="779" y1="470.7591" y2="478.7591"/><ellipse cx="779" cy="464.7591" fill="none" rx="4" ry="4" style="stroke:#181818;stroke-width:1.0;"/></g><!--link travel_plans to review_posts--><g id="link_travel_plans_review_posts"><path codeLine="248" d="M449.4905,208.3254 C429.1605,225.9854 420.8483,233.2141 400.4283,250.9541 " fill="none" id="travel_plans-review_posts" style="stroke:#181818;stroke-width:1.0;"/><line style="stroke:#181818;stroke-width:1.0;" x1="449.8871" x2="455.1334" y1="202.6825" y2="208.722"/><line style="stroke:#181818;stroke-width:1.0;" x1="447.6222" x2="452.8686" y1="204.6499" y2="210.6894"/><line style="stroke:#181818;stroke-width:1.0;" x1="449.4905" x2="455.53" y1="208.3254" y2="203.0791"/><line style="stroke:#181818;stroke-width:1.0;" x1="392.8793" x2="390.775" y1="257.5125" y2="267.2885"/><line style="stroke:#181818;stroke-width:1.0;" x1="392.8793" x2="382.905" y1="257.5125" y2="258.2297"/><line style="stroke:#181818;stroke-width:1.0;" x1="392.8793" x2="386.84" y1="257.5125" y2="262.7591"/><ellipse cx="397.4087" cy="253.5775" fill="none" rx="4" ry="4" style="stroke:#181818;stroke-width:1.0;"/></g><!--link review_posts to review_photo_groups--><g id="link_review_posts_review_photo_groups"><path codeLine="249" d="M366.6856,318.8974 C370.5156,336.5574 370.2724,335.4286 374.1224,353.1686 " fill="none" id="review_posts-review_photo_groups" style="stroke:#181818;stroke-width:1.0;"/><line style="stroke:#181818;stroke-width:1.0;" x1="361.9287" x2="369.7469" y1="315.836" y2="314.1404"/><line style="stroke:#181818;stroke-width:1.0;" x1="362.5645" x2="370.3828" y1="318.7679" y2="317.0723"/><line style="stroke:#181818;stroke-width:1.0;" x1="366.6856" x2="364.99" y1="318.8974" y2="311.0791"/><line style="stroke:#181818;stroke-width:1.0;" x1="376.2433" x2="383.8035" y1="362.9411" y2="369.4866"/><line style="stroke:#181818;stroke-width:1.0;" x1="376.2433" x2="372.0765" y1="362.9411" y2="372.0316"/><line style="stroke:#181818;stroke-width:1.0;" x1="376.2433" x2="377.94" y1="362.9411" y2="370.7591"/><ellipse cx="374.9708" cy="357.0776" fill="none" rx="4" ry="4" style="stroke:#181818;stroke-width:1.0;"/></g><!--link review_photo_groups to review_photos--><g id="link_review_photo_groups_review_photos"><path codeLine="250" d="M385.9232,427.0436 C387.5932,444.7036 387.443,443.0983 389.113,460.8383 " fill="none" id="review_photo_groups-review_photos" style="stroke:#181818;stroke-width:1.0;"/><line style="stroke:#181818;stroke-width:1.0;" x1="381.5643" x2="389.5288" y1="423.4379" y2="422.6848"/><line style="stroke:#181818;stroke-width:1.0;" x1="381.8468" x2="389.8112" y1="426.4246" y2="425.6714"/><line style="stroke:#181818;stroke-width:1.0;" x1="385.9232" x2="385.17" y1="427.0436" y2="419.0791"/><line style="stroke:#181818;stroke-width:1.0;" x1="390.0502" x2="396.7736" y1="470.7943" y2="478.1968"/><line style="stroke:#181818;stroke-width:1.0;" x1="390.0502" x2="384.8264" y1="470.7943" y2="479.3214"/><line style="stroke:#181818;stroke-width:1.0;" x1="390.0502" x2="390.8" y1="470.7943" y2="478.7591"/><ellipse cx="389.4879" cy="464.8207" fill="none" rx="4" ry="4" style="stroke:#181818;stroke-width:1.0;"/></g><!--link review_posts to review_hashtag_groups--><g id="link_review_posts_review_hashtag_groups"><path codeLine="251" d="M418.0573,314.38 C457.1773,332.1 487.3334,345.7627 526.5234,363.5127 " fill="none" id="review_posts-review_hashtag_groups" style="stroke:#181818;stroke-width:1.0;"/><line style="stroke:#181818;stroke-width:1.0;" x1="412.7632" x2="416.0641" y1="316.3732" y2="309.0859"/><line style="stroke:#181818;stroke-width:1.0;" x1="415.4959" x2="418.7968" y1="317.611" y2="310.3237"/><line style="stroke:#181818;stroke-width:1.0;" x1="418.0573" x2="410.77" y1="314.38" y2="311.0791"/><line style="stroke:#181818;stroke-width:1.0;" x1="535.6326" x2="545.3955" y1="367.6385" y2="365.4736"/><line style="stroke:#181818;stroke-width:1.0;" x1="535.6326" x2="540.4445" y1="367.6385" y2="376.4046"/><line style="stroke:#181818;stroke-width:1.0;" x1="535.6326" x2="542.92" y1="367.6385" y2="370.9391"/><ellipse cx="530.1671" cy="365.163" fill="none" rx="4" ry="4" style="stroke:#181818;stroke-width:1.0;"/></g><!--link review_hashtag_groups to review_hashtags--><g id="link_review_hashtag_groups_review_hashtags"><path codeLine="252" d="M594,427.0791 C594,444.7391 594,443.0191 594,460.7591 " fill="none" id="review_hashtag_groups-review_hashtags" style="stroke:#181818;stroke-width:1.0;"/><line style="stroke:#181818;stroke-width:1.0;" x1="590" x2="598" y1="423.0791" y2="423.0791"/><line style="stroke:#181818;stroke-width:1.0;" x1="590" x2="598" y1="426.0791" y2="426.0791"/><line style="stroke:#181818;stroke-width:1.0;" x1="594" x2="594" y1="427.0791" y2="419.0791"/><line style="stroke:#181818;stroke-width:1.0;" x1="594" x2="600" y1="470.7591" y2="478.7591"/><line style="stroke:#181818;stroke-width:1.0;" x1="594" x2="588" y1="470.7591" y2="478.7591"/><line style="stroke:#181818;stroke-width:1.0;" x1="594" x2="594" y1="470.7591" y2="478.7591"/><ellipse cx="594" cy="464.7591" fill="none" rx="4" ry="4" style="stroke:#181818;stroke-width:1.0;"/></g><!--link review_posts to ai_review_analysis--><g id="link_review_posts_ai_review_analysis"><path codeLine="254" d="M300.1623,314.2892 C259.7123,332.0092 227.8481,345.9682 187.3181,363.7182 " fill="none" id="review_posts-ai_review_analysis" style="stroke:#181818;stroke-width:1.0;"/><line style="stroke:#181818;stroke-width:1.0;" x1="302.2211" x2="305.4312" y1="309.0203" y2="316.348"/><line style="stroke:#181818;stroke-width:1.0;" x1="299.4732" x2="302.6833" y1="310.224" y2="317.5518"/><line style="stroke:#181818;stroke-width:1.0;" x1="300.1623" x2="307.49" y1="314.2892" y2="311.0791"/><line style="stroke:#181818;stroke-width:1.0;" x1="178.1581" x2="173.237" y1="367.7298" y2="376.4351"/><line style="stroke:#181818;stroke-width:1.0;" x1="178.1581" x2="168.423" y1="367.7298" y2="365.4431"/><line style="stroke:#181818;stroke-width:1.0;" x1="178.1581" x2="170.83" y1="367.7298" y2="370.9391"/><ellipse cx="183.6541" cy="365.3228" fill="none" rx="4" ry="4" style="stroke:#181818;stroke-width:1.0;"/></g><!--link ai_review_analysis to ai_review_styles--><g id="link_ai_review_analysis_ai_review_styles"><path codeLine="255" d="M147.8752,424.6046 C166.3652,442.2646 172.9812,448.5889 191.5612,466.3289 " fill="none" id="ai_review_analysis-ai_review_styles" style="stroke:#181818;stroke-width:1.0;"/><line style="stroke:#181818;stroke-width:1.0;" x1="142.2198" x2="147.7454" y1="424.7345" y2="418.9493"/><line style="stroke:#181818;stroke-width:1.0;" x1="144.3893" x2="149.9148" y1="426.8065" y2="421.0213"/><line style="stroke:#181818;stroke-width:1.0;" x1="147.8752" x2="142.09" y1="424.6046" y2="419.0791"/><line style="stroke:#181818;stroke-width:1.0;" x1="198.7939" x2="208.7234" y1="473.2346" y2="474.4195"/><line style="stroke:#181818;stroke-width:1.0;" x1="198.7939" x2="200.4366" y1="473.2346" y2="483.0987"/><line style="stroke:#181818;stroke-width:1.0;" x1="198.7939" x2="204.58" y1="473.2346" y2="478.7591"/><ellipse cx="194.4543" cy="469.0911" fill="none" rx="4" ry="4" style="stroke:#181818;stroke-width:1.0;"/></g><!--link ai_review_styles to review_posts--><g id="link_ai_review_styles_review_posts"><path codeLine="256" d="M237.4621,471.3627 C245.4421,444.1627 258.71,405.9091 281,371.0791 C295.37,348.6291 303.1635,339.202 319.8935,323.632 " fill="none" id="ai_review_styles-review_posts" style="stroke:#181818;stroke-width:1.0;"/><line style="stroke:#181818;stroke-width:1.0;" x1="240.1743" x2="232.4978" y1="476.3269" y2="474.0748"/><line style="stroke:#181818;stroke-width:1.0;" x1="241.0188" x2="233.3424" y1="473.4483" y2="471.1961"/><line style="stroke:#181818;stroke-width:1.0;" x1="237.4621" x2="235.21" y1="471.3627" y2="479.0391"/><line style="stroke:#181818;stroke-width:1.0;" x1="327.2138" x2="328.9824" y1="316.8193" y2="306.9769"/><line style="stroke:#181818;stroke-width:1.0;" x1="327.2138" x2="337.1576" y1="316.8193" y2="315.7613"/><line style="stroke:#181818;stroke-width:1.0;" x1="327.2138" x2="333.07" y1="316.8193" y2="311.3691"/><ellipse cx="322.8216" cy="320.9069" fill="none" rx="4" ry="4" style="stroke:#181818;stroke-width:1.0;"/></g><!--link ai_review_analysis to ai_review_hashtags--><g id="link_ai_review_analysis_ai_review_hashtags"><path codeLine="257" d="M123.4058,427.2764 C128.0658,453.5764 134.9,489.6791 144,527.0791 C148.97,547.4791 150.4259,553.173 155.4859,569.753 " fill="none" id="ai_review_analysis-ai_review_hashtags" style="stroke:#181818;stroke-width:1.0;"/><line style="stroke:#181818;stroke-width:1.0;" x1="118.7692" x2="126.6465" y1="424.0356" y2="422.6399"/><line style="stroke:#181818;stroke-width:1.0;" x1="119.2926" x2="127.1699" y1="426.9896" y2="425.5939"/><line style="stroke:#181818;stroke-width:1.0;" x1="123.4058" x2="122.01" y1="427.2764" y2="419.3991"/><line style="stroke:#181818;stroke-width:1.0;" x1="158.4048" x2="166.4787" y1="579.3175" y2="585.2177"/><line style="stroke:#181818;stroke-width:1.0;" x1="158.4048" x2="155.0013" y1="579.3175" y2="588.7205"/><line style="stroke:#181818;stroke-width:1.0;" x1="158.4048" x2="160.74" y1="579.3175" y2="586.9691"/><ellipse cx="156.6535" cy="573.5788" fill="none" rx="4" ry="4" style="stroke:#181818;stroke-width:1.0;"/></g><!--link ai_review_styles to ai_review_hashtags--><g id="link_ai_review_styles_ai_review_hashtags"><path codeLine="258" d="M211.7706,534.0134 C201.6106,551.6734 200.6088,553.4184 190.3988,571.1584 " fill="none" id="ai_review_styles-ai_review_hashtags" style="stroke:#181818;stroke-width:1.0;"/><line style="stroke:#181818;stroke-width:1.0;" x1="210.2981" x2="217.2325" y1="528.5516" y2="532.541"/><line style="stroke:#181818;stroke-width:1.0;" x1="208.8021" x2="215.7364" y1="531.1519" y2="535.1413"/><line style="stroke:#181818;stroke-width:1.0;" x1="211.7706" x2="215.76" y1="534.0134" y2="527.0791"/><line style="stroke:#181818;stroke-width:1.0;" x1="185.4106" x2="186.6202" y1="579.8255" y2="589.752"/><line style="stroke:#181818;stroke-width:1.0;" x1="185.4106" x2="176.2198" y1="579.8255" y2="583.7662"/><line style="stroke:#181818;stroke-width:1.0;" x1="185.4106" x2="181.42" y1="579.8255" y2="586.7591"/><ellipse cx="188.4035" cy="574.6252" fill="none" rx="4" ry="4" style="stroke:#181818;stroke-width:1.0;"/></g><!--link image_search_places to image_search_results--><g id="link_image_search_places_image_search_results"><path codeLine="260" d="M1204.9427,206.38 C1165.8227,224.1 1135.6666,237.7627 1096.4766,255.5127 " fill="none" id="image_search_places-image_search_results" style="stroke:#181818;stroke-width:1.0;"/><line style="stroke:#181818;stroke-width:1.0;" x1="1206.9359" x2="1210.2368" y1="201.0859" y2="208.3732"/><line style="stroke:#181818;stroke-width:1.0;" x1="1204.2032" x2="1207.5041" y1="202.3237" y2="209.611"/><line style="stroke:#181818;stroke-width:1.0;" x1="1204.9427" x2="1212.23" y1="206.38" y2="203.0791"/><line style="stroke:#181818;stroke-width:1.0;" x1="1087.3674" x2="1082.5555" y1="259.6385" y2="268.4046"/><line style="stroke:#181818;stroke-width:1.0;" x1="1087.3674" x2="1077.6045" y1="259.6385" y2="257.4736"/><line style="stroke:#181818;stroke-width:1.0;" x1="1087.3674" x2="1080.08" y1="259.6385" y2="262.9391"/><ellipse cx="1092.8329" cy="257.163" fill="none" rx="4" ry="4" style="stroke:#181818;stroke-width:1.0;"/></g><!--link places to image_search_results--><g id="link_places_image_search_results"><path codeLine="261" d="M780.1327,199.2106 C785.8827,201.6106 784.39,200.9091 790,203.0791 C846.14,224.7491 893.5698,241.2888 941.3998,257.2888 " fill="none" id="places-image_search_results" style="stroke:#181818;stroke-width:1.0;"/><line style="stroke:#181818;stroke-width:1.0;" x1="774.9006" x2="777.9821" y1="201.3612" y2="193.9785"/><line style="stroke:#181818;stroke-width:1.0;" x1="777.6691" x2="780.7506" y1="202.5168" y2="195.134"/><line style="stroke:#181818;stroke-width:1.0;" x1="780.1327" x2="772.75" y1="199.2106" y2="196.1291"/><line style="stroke:#181818;stroke-width:1.0;" x1="950.8832" x2="960.3734" y1="260.4612" y2="257.309"/><line style="stroke:#181818;stroke-width:1.0;" x1="950.8832" x2="956.5666" y1="260.4612" y2="268.6892"/><line style="stroke:#181818;stroke-width:1.0;" x1="950.8832" x2="958.47" y1="260.4612" y2="262.9991"/><ellipse cx="945.1932" cy="258.5578" fill="none" rx="4" ry="4" style="stroke:#181818;stroke-width:1.0;"/></g><!--link checklists to checklist_items--><g id="link_checklists_checklist_items"><path codeLine="263" d="M628.9493,210.6099 C635.2793,228.2699 635.2054,228.0751 641.5654,245.8151 " fill="none" id="checklists-checklist_items" style="stroke:#181818;stroke-width:1.0;"/><line style="stroke:#181818;stroke-width:1.0;" x1="623.8342" x2="631.3651" y1="208.1942" y2="205.4949"/><line style="stroke:#181818;stroke-width:1.0;" x1="624.8465" x2="632.3773" y1="211.0183" y2="208.3189"/><line style="stroke:#181818;stroke-width:1.0;" x1="628.9493" x2="626.25" y1="210.6099" y2="203.0791"/><line style="stroke:#181818;stroke-width:1.0;" x1="644.9402" x2="653.288" y1="255.2284" y2="260.7342"/><line style="stroke:#181818;stroke-width:1.0;" x1="644.9402" x2="641.992" y1="255.2284" y2="264.784"/><line style="stroke:#181818;stroke-width:1.0;" x1="644.9402" x2="647.64" y1="255.2284" y2="262.7591"/><ellipse cx="642.9153" cy="249.5804" fill="none" rx="4" ry="4" style="stroke:#181818;stroke-width:1.0;"/></g><!--link hotel_bookings to payment_transactions--><g id="link_hotel_bookings_payment_transactions"><path codeLine="265" d="M1447,211.0791 C1447,228.7391 1447,227.0191 1447,244.7591 " fill="none" id="hotel_bookings-payment_transactions" style="stroke:#181818;stroke-width:1.0;"/><line style="stroke:#181818;stroke-width:1.0;" x1="1443" x2="1451" y1="207.0791" y2="207.0791"/><line style="stroke:#181818;stroke-width:1.0;" x1="1443" x2="1451" y1="210.0791" y2="210.0791"/><line style="stroke:#181818;stroke-width:1.0;" x1="1447" x2="1447" y1="211.0791" y2="203.0791"/><line style="stroke:#181818;stroke-width:1.0;" x1="1447" x2="1453" y1="254.7591" y2="262.7591"/><line style="stroke:#181818;stroke-width:1.0;" x1="1447" x2="1441" y1="254.7591" y2="262.7591"/><line style="stroke:#181818;stroke-width:1.0;" x1="1447" x2="1447" y1="254.7591" y2="262.7591"/><ellipse cx="1447" cy="248.7591" fill="none" rx="4" ry="4" style="stroke:#181818;stroke-width:1.0;"/></g><!--SRC=[hLXTRvim57tthx3sq8z9_GELzi0wrg8bQHJefZuXZtY9LGCHTZ9bxVxxZ0t4nYR0IbvQZkyvrxxtsbnp2J-zumSkuLFehq9u0Rsdw04klNjVOE-Iv8HJ39yOBbWfk-TR070cq2FSI_0LGF7x2CaQtiBFmRsOGE3D97Xp8_yG5gE4amEMJnGn7jDyGx8OSObaA5L3E4M4olzsHVwBK1oJ56rml2ye-6kuZSbQFX5yTWALgSA3HLHh7mIzq2HPncAUl-1id9eGK35uUxkvoL-jcTt23xzUuXOgdp-OHCs_ufo0oXna-FTEn0AyDv-NC5fvt_qPNCwynI9Ot4zO9L613fZ29KLPHh9D4rukyNWdS3t0Ub2rP5JMQtIqZ3KX9qSC9DXY2INJEjaNXVXNLMMxY5gE4jpbAHDPGZkspVcvHHbvDW9n2qMYTKIc6XWs9a-6HAULWBG4keNbBC6MDm6Lni0qgfYE-4YwZIjYvoAr2BLNUnfIovwmm5V-zy3_0PUFOHHEMDqhV23ujpW4bpdZh2c8GiBnhWHxwhM4AdF6ZxHLMRMGY4aURufylxFqD5_TN8ibjPpsMyIs76t-qrl5FklFLSr6n6HTw8YgPyEcnTC3PD2r0Sa4BeP3p273bFcvURI2fqkOGyPSMYodf5Eidj646yKBeBVmPizXCEK-ALKpH8-Cd3O98lLgK3NKTMIUBRoJZDm_NHLR- -WYTnMkWzwnPOq3px4ucJyRLqUTgwP6QCXgSjXRIbMCMZeARMY3bCowj76NMkLzl9OaTWhr71wAFE4U4MtIdJ_bzbYgL-q53ChU5eOO5ScffxOxc5C1gsQOIK97gsDtKmQfm6nFxTUKBLoNlju06JNlcelCXcD0LRsBuHAhvsYhLIE61dYNafAOi5hk7loxRxCWZ2OicBijJbue4Pk-wLzhP43-6zkOS9nQ16tOJhBcH_L_pRDAgJRUPbJUJ9e2Jy_JHjwBuDoVFwwU9uqzud2EqxmuQX55F4vBZE112QZDZ_419pml1byNJ4zLB3L8PQ63SlBM8ZO3apVU3u-Hk5YA1jbxdlkBAVV0Gyx5nL8eesCguje4TrlYySyyVn7tpG79s2b-UH79M7cDoUqRgQ7fIalBgGolYQd8jkmgjdCAKiCrKjEdJDFNfzaCXkAecdiJfaYgVl4YxxCN-hNybKSfZD1FAjzuAqoHNDLrkOeL9bb2zsiCaJ1gFffSiNsQeeBymUlhyzzNkhwXTD-v1rnK-rgxtjTWrn5wPcltRk5pzGVwlXZqVXiO-X6W_pOtzDes-68s_Furwdu51lRW8zhiGGthg6PxH2yDndPN0zecqFzw1oEEEF0F]--></g></svg>