<?xml version="1.0" encoding="us-ascii" standalone="no"?><svg xmlns="http://www.w3.org/2000/svg" xmlns:xlink="http://www.w3.org/1999/xlink" contentStyleType="text/css" height="400px" preserveAspectRatio="none" style="width:338px;height:400px;background:#FFFFFF;" version="1.1" viewBox="0 0 338 400" width="338px" zoomAndPan="magnify"><defs/><g><text fill="#000000" font-family="sans-serif" font-size="14" font-weight="bold" lengthAdjust="spacing" textLength="91" x="116.75" y="25.6953">Users &amp; Auth</text><!--class users--><g id="elem_users"><rect codeLine="6" fill="#F1F1F1" height="162.4746" id="users" rx="2.5" ry="2.5" style="stroke:#181818;stroke-width:0.5;" width="121" x="98" y="47.0791"/><ellipse cx="137.3" cy="63.0791" fill="#ADD1B2" rx="11" ry="11" style="stroke:#181818;stroke-width:1.0;"/><path d="M136.1594,63.876 L136.1594,66.376 L140.4875,66.376 L140.4875,65.4541 Q140.4875,64.8447 140.7219,64.5791 Q140.9719,64.3135 141.3469,64.3135 Q141.7219,64.3135 141.9563,64.5791 Q142.1906,64.8447 142.1906,65.4541 L142.1906,68.0791 L134.1906,68.0791 Q133.5656,68.0791 133.3,67.8447 Q133.05,67.6104 133.05,67.2197 Q133.05,66.8447 133.3156,66.6104 Q133.5813,66.376 134.1906,66.376 L134.4563,66.376 L134.4563,59.7197 L134.1906,59.7197 Q133.5656,59.7197 133.3,59.4854 Q133.05,59.251 133.05,58.8604 Q133.05,58.4854 133.3,58.251 Q133.5656,58.0166 134.1906,58.0166 L141.8156,58.0166 L141.8156,60.6104 Q141.8156,61.2197 141.5813,61.4854 Q141.3625,61.7354 140.9719,61.7354 Q140.5969,61.7354 140.3625,61.4854 Q140.1281,61.2197 140.1281,60.6104 L140.1281,59.7197 L136.1594,59.7197 L136.1594,62.1729 L137.6438,62.1729 Q137.6438,61.5166 137.7688,61.3291 Q138.0344,60.9229 138.5031,60.9229 Q138.8781,60.9229 139.1125,61.1885 Q139.3469,61.4385 139.3469,62.0479 L139.3469,64.0166 Q139.3469,64.5635 139.2219,64.751 Q138.9563,65.1416 138.5031,65.1416 Q138.0344,65.1416 137.7688,64.7354 Q137.6438,64.5479 137.6438,63.876 L136.1594,63.876 Z " fill="#000000"/><text fill="#000000" font-family="sans-serif" font-size="14" lengthAdjust="spacing" textLength="35" x="156.7" y="69.2349">users</text><line style="stroke:#181818;stroke-width:0.5;" x1="99" x2="218" y1="79.0791" y2="79.0791"/><ellipse cx="109" cy="94.1187" fill="#000000" rx="3" ry="3" style="stroke:#000000;stroke-width:1.0;"/><text fill="#000000" font-family="sans-serif" font-size="14" lengthAdjust="spacing" textLength="94" x="118" y="98.7744">id : BIGSERIAL</text><line style="stroke:#181818;stroke-width:1.0;" x1="99" x2="218" y1="106.1582" y2="106.1582"/><text fill="#000000" font-family="sans-serif" font-size="14" lengthAdjust="spacing" textLength="55" x="104" y="125.8535">is_active</text><text fill="#000000" font-family="sans-serif" font-size="14" lengthAdjust="spacing" textLength="80" x="104" y="144.9326">last_login_at</text><text fill="#000000" font-family="sans-serif" font-size="14" lengthAdjust="spacing" textLength="35" x="104" y="164.0117">name</text><text fill="#000000" font-family="sans-serif" font-size="14" lengthAdjust="spacing" textLength="33" x="104" y="183.0908">email</text><text fill="#000000" font-family="sans-serif" font-size="14" lengthAdjust="spacing" textLength="109" x="104" y="202.1699">profile_image_url</text></g><!--class user_identities--><g id="elem_user_identities"><rect codeLine="16" fill="#F1F1F1" height="105.2373" id="user_identities" rx="2.5" ry="2.5" style="stroke:#181818;stroke-width:0.5;" width="129" x="7" y="288.0791"/><ellipse cx="24.25" cy="304.0791" fill="#ADD1B2" rx="11" ry="11" style="stroke:#181818;stroke-width:1.0;"/><path d="M23.1094,304.876 L23.1094,307.376 L27.4375,307.376 L27.4375,306.4541 Q27.4375,305.8447 27.6719,305.5791 Q27.9219,305.3135 28.2969,305.3135 Q28.6719,305.3135 28.9063,305.5791 Q29.1406,305.8447 29.1406,306.4541 L29.1406,309.0791 L21.1406,309.0791 Q20.5156,309.0791 20.25,308.8447 Q20,308.6104 20,308.2197 Q20,307.8447 20.2656,307.6104 Q20.5313,307.376 21.1406,307.376 L21.4063,307.376 L21.4063,300.7197 L21.1406,300.7197 Q20.5156,300.7197 20.25,300.4854 Q20,300.251 20,299.8604 Q20,299.4854 20.25,299.251 Q20.5156,299.0166 21.1406,299.0166 L28.7656,299.0166 L28.7656,301.6104 Q28.7656,302.2197 28.5313,302.4854 Q28.3125,302.7354 27.9219,302.7354 Q27.5469,302.7354 27.3125,302.4854 Q27.0781,302.2197 27.0781,301.6104 L27.0781,300.7197 L23.1094,300.7197 L23.1094,303.1729 L24.5938,303.1729 Q24.5938,302.5166 24.7188,302.3291 Q24.9844,301.9229 25.4531,301.9229 Q25.8281,301.9229 26.0625,302.1885 Q26.2969,302.4385 26.2969,303.0479 L26.2969,305.0166 Q26.2969,305.5635 26.1719,305.751 Q25.9063,306.1416 25.4531,306.1416 Q24.9844,306.1416 24.7188,305.7354 Q24.5938,305.5479 24.5938,304.876 L23.1094,304.876 Z " fill="#000000"/><text fill="#000000" font-family="sans-serif" font-size="14" lengthAdjust="spacing" textLength="92" x="38.75" y="310.2349">user_identities</text><line style="stroke:#181818;stroke-width:0.5;" x1="8" x2="135" y1="320.0791" y2="320.0791"/><ellipse cx="18" cy="335.1187" fill="#000000" rx="3" ry="3" style="stroke:#000000;stroke-width:1.0;"/><text fill="#000000" font-family="sans-serif" font-size="14" lengthAdjust="spacing" textLength="94" x="27" y="339.7744">id : BIGSERIAL</text><text fill="#000000" font-family="sans-serif" font-size="14" lengthAdjust="spacing" textLength="103" x="27" y="358.8535">user_id : BIGINT</text><text fill="#000000" font-family="sans-serif" font-size="14" lengthAdjust="spacing" textLength="52" x="27" y="377.9326">provider</text><line style="stroke:#181818;stroke-width:0.5;" x1="8" x2="135" y1="385.3164" y2="385.3164"/></g><!--class sns_tokens--><g id="elem_sns_tokens"><rect codeLine="22" fill="#F1F1F1" height="86.1582" id="sns_tokens" rx="2.5" ry="2.5" style="stroke:#181818;stroke-width:0.5;" width="129" x="182" y="297.5791"/><ellipse cx="208.25" cy="313.5791" fill="#ADD1B2" rx="11" ry="11" style="stroke:#181818;stroke-width:1.0;"/><path d="M207.1094,314.376 L207.1094,316.876 L211.4375,316.876 L211.4375,315.9541 Q211.4375,315.3447 211.6719,315.0791 Q211.9219,314.8135 212.2969,314.8135 Q212.6719,314.8135 212.9063,315.0791 Q213.1406,315.3447 213.1406,315.9541 L213.1406,318.5791 L205.1406,318.5791 Q204.5156,318.5791 204.25,318.3447 Q204,318.1104 204,317.7197 Q204,317.3447 204.2656,317.1104 Q204.5313,316.876 205.1406,316.876 L205.4063,316.876 L205.4063,310.2197 L205.1406,310.2197 Q204.5156,310.2197 204.25,309.9854 Q204,309.751 204,309.3604 Q204,308.9854 204.25,308.751 Q204.5156,308.5166 205.1406,308.5166 L212.7656,308.5166 L212.7656,311.1104 Q212.7656,311.7197 212.5313,311.9854 Q212.3125,312.2354 211.9219,312.2354 Q211.5469,312.2354 211.3125,311.9854 Q211.0781,311.7197 211.0781,311.1104 L211.0781,310.2197 L207.1094,310.2197 L207.1094,312.6729 L208.5938,312.6729 Q208.5938,312.0166 208.7188,311.8291 Q208.9844,311.4229 209.4531,311.4229 Q209.8281,311.4229 210.0625,311.6885 Q210.2969,311.9385 210.2969,312.5479 L210.2969,314.5166 Q210.2969,315.0635 210.1719,315.251 Q209.9063,315.6416 209.4531,315.6416 Q208.9844,315.6416 208.7188,315.2354 Q208.5938,315.0479 208.5938,314.376 L207.1094,314.376 Z " fill="#000000"/><text fill="#000000" font-family="sans-serif" font-size="14" lengthAdjust="spacing" textLength="72" x="224.75" y="319.7349">sns_tokens</text><line style="stroke:#181818;stroke-width:0.5;" x1="183" x2="310" y1="329.5791" y2="329.5791"/><ellipse cx="193" cy="344.6187" fill="#000000" rx="3" ry="3" style="stroke:#000000;stroke-width:1.0;"/><text fill="#000000" font-family="sans-serif" font-size="14" lengthAdjust="spacing" textLength="94" x="202" y="349.2744">id : BIGSERIAL</text><text fill="#000000" font-family="sans-serif" font-size="14" lengthAdjust="spacing" textLength="103" x="202" y="368.3535">user_id : BIGINT</text><line style="stroke:#181818;stroke-width:0.5;" x1="183" x2="310" y1="375.7373" y2="375.7373"/></g><!--link users to user_identities--><g id="link_users_user_identities"><path codeLine="27" d="M92.9163,194.6688 C80.9063,209.9488 74.97,220.9491 68.5,239.0791 C63.04,254.3691 61.041,253.8321 61.851,269.8521 " fill="none" id="users-user_identities" style="stroke:#181818;stroke-width:1.0;"/><line style="stroke:#181818;stroke-width:1.0;" x1="92.2433" x2="98.533" y1="189.0521" y2="193.9958"/><line style="stroke:#181818;stroke-width:1.0;" x1="90.3894" x2="96.6791" y1="191.4107" y2="196.3544"/><line style="stroke:#181818;stroke-width:1.0;" x1="92.9163" x2="97.86" y1="194.6688" y2="188.3791"/><line style="stroke:#181818;stroke-width:1.0;" x1="62.356" x2="68.7523" y1="279.8393" y2="287.5261"/><line style="stroke:#181818;stroke-width:1.0;" x1="62.356" x2="56.7677" y1="279.8393" y2="288.1321"/><line style="stroke:#181818;stroke-width:1.0;" x1="62.356" x2="62.76" y1="279.8393" y2="287.8291"/><ellipse cx="62.053" cy="273.847" fill="none" rx="4" ry="4" style="stroke:#181818;stroke-width:1.0;"/><text fill="#000000" font-family="sans-serif" font-size="13" lengthAdjust="spacing" textLength="133" x="69.5" y="254.6533">fk_user_identities_user</text></g><!--link users to sns_tokens--><g id="link_users_sns_tokens"><path codeLine="28" d="M197.8897,216.4214 C202.2797,226.4814 203.44,229.3291 207.5,239.0791 C215.41,258.0791 217.2884,262.5012 224.1984,280.5312 " fill="none" id="users-sns_tokens" style="stroke:#181818;stroke-width:1.0;"/><line style="stroke:#181818;stroke-width:1.0;" x1="192.6237" x2="199.956" y1="214.3551" y2="211.1554"/><line style="stroke:#181818;stroke-width:1.0;" x1="193.8236" x2="201.1558" y1="217.1047" y2="213.905"/><line style="stroke:#181818;stroke-width:1.0;" x1="197.8897" x2="194.69" y1="216.4214" y2="209.0891"/><line style="stroke:#181818;stroke-width:1.0;" x1="227.7771" x2="236.2426" y1="289.8689" y2="295.1919"/><line style="stroke:#181818;stroke-width:1.0;" x1="227.7771" x2="225.0374" y1="289.8689" y2="299.4863"/><line style="stroke:#181818;stroke-width:1.0;" x1="227.7771" x2="230.64" y1="289.8689" y2="297.3391"/><ellipse cx="225.6298" cy="284.2663" fill="none" rx="4" ry="4" style="stroke:#181818;stroke-width:1.0;"/><text fill="#000000" font-family="sans-serif" font-size="13" lengthAdjust="spacing" textLength="116" x="214.5" y="254.6533">fk_sns_tokens_user</text></g><!--SRC=[hLXTRvim57tthx3sq8z9_GELzi0wrg8bQHJefZuXZtY9LGCHTZ9bxVxxZ0t4nYR0IbvQZkyvrxxtsbnp2J-zumSkuLFehq9u0Rsdw04klNjVOE-Iv8HJ39yOBbWfk-TR070cq2FSI_0LGF7x2CaQtiBFmRsOGE3D97Xp8_yG5gE4amEMJnGn7jDyGx8OSObaA5L3E4M4olzsHVwBK1oJ56rml2ye-6kuZSbQFX5yTWALgSA3HLHh7mIzq2HPncAUl-1id9eGK35uUxkvoL-jcTt23xzUuXOgdp-OHCs_ufo0oXna-FTEn0AyDv-NC5fvt_qPNCwynI9Ot4zO9L613fZ29KLPHh9D4rukyNWdS3t0Ub2rP5JMQtIqZ3KX9qSC9DXY2INJEjaNXVXNLMMxY5gE4jpbAHDPGZkspVcvHHbvDW9n2qMYTKIc6XWs9a-6HAULWBG4keNbBC6MDm6Lni0qgfYE-4YwZIjYvoAr2BLNUnfIovwmm5V-zy3_0PUFOHHEMDqhV23ujpW4bpdZh2c8GiBnhWHxwhM4AdF6ZxHLMRMGY4aURufylxFqD5_TN8ibjPpsMyIs76t-qrl5FklFLSr6n6HTw8YgPyEcnTC3PD2r0Sa4BeP3p273bFcvURI2fqkOGyPSMYodf5Eidj646yKBeBVmPizXCEK-ALKpH8-Cd3O98lLgK3NKTMIUBRoJZDm_NHLR- -WYTnMkWzwnPOq3px4ucJyRLqUTgwP6QCXgSjXRIbMCMZeARMY3bCowj76NMkLzl9OaTWhr71wAFE4U4MtIdJ_bzbYgL-q53ChU5eOO5ScffxOxc5C1gsQOIK97gsDtKmQfm6nFxTUKBLoNlju06JNlcelCXcD0LRsBuHAhvsYhLIE61dYNafAOi5hk7loxRxCWZ2OicBijJbue4Pk-wLzhP43-6zkOS9nQ16tOJhBcH_L_pRDAgJRUPbJUJ9e2Jy_JHjwBuDoVFwwU9uqzud2EqxmuQX55F4vBZE112QZDZ_419pml1byNJ4zLB3L8PQ63SlBM8ZO3apVU3u-Hk5YA1jbxdlkBAVV0Gyx5nL8eesCguje4TrlYySyyVn7tpG79s2b-UH79M7cDoUqRgQ7fIalBgGolYQd8jkmgjdCAKiCrKjEdJDFNfzaCXkAecdiJfaYgVl4YxxCN-hNybKSfZD1FAjzuAqoHNDLrkOeL9bb2zsiCaJ1gFffSiNsQeeBymUlhyzzNkhwXTD-v1rnK-rgxtjTWrn5wPcltRk5pzGVwlXZqVXiO-X6W_pOtzDes-68s_Furwdu51lRW8zhiGGthg6PxH2yDndPN0zecqFzw1oEEEF0F]--></g></svg>