<?xml version="1.0" encoding="us-ascii" standalone="no"?><svg xmlns="http://www.w3.org/2000/svg" xmlns:xlink="http://www.w3.org/1999/xlink" contentStyleType="text/css" height="432px" preserveAspectRatio="none" style="width:298px;height:432px;background:#FFFFFF;" version="1.1" viewBox="0 0 298 432" width="298px" zoomAndPan="magnify"><defs/><g><text fill="#000000" font-family="sans-serif" font-size="14" font-weight="bold" lengthAdjust="spacing" textLength="114" x="85.25" y="25.6953">Hotel &amp; Payment</text><!--class hotel_bookings--><g id="elem_hotel_bookings"><rect codeLine="211" fill="#F1F1F1" height="86.1582" id="hotel_bookings" rx="2.5" ry="2.5" style="stroke:#181818;stroke-width:0.5;" width="128" x="28.5" y="174.0791"/><ellipse cx="43.5" cy="190.0791" fill="#ADD1B2" rx="11" ry="11" style="stroke:#181818;stroke-width:1.0;"/><path d="M42.3594,190.876 L42.3594,193.376 L46.6875,193.376 L46.6875,192.4541 Q46.6875,191.8447 46.9219,191.5791 Q47.1719,191.3135 47.5469,191.3135 Q47.9219,191.3135 48.1563,191.5791 Q48.3906,191.8447 48.3906,192.4541 L48.3906,195.0791 L40.3906,195.0791 Q39.7656,195.0791 39.5,194.8447 Q39.25,194.6104 39.25,194.2197 Q39.25,193.8447 39.5156,193.6104 Q39.7813,193.376 40.3906,193.376 L40.6563,193.376 L40.6563,186.7197 L40.3906,186.7197 Q39.7656,186.7197 39.5,186.4854 Q39.25,186.251 39.25,185.8604 Q39.25,185.4854 39.5,185.251 Q39.7656,185.0166 40.3906,185.0166 L48.0156,185.0166 L48.0156,187.6104 Q48.0156,188.2197 47.7813,188.4854 Q47.5625,188.7354 47.1719,188.7354 Q46.7969,188.7354 46.5625,188.4854 Q46.3281,188.2197 46.3281,187.6104 L46.3281,186.7197 L42.3594,186.7197 L42.3594,189.1729 L43.8438,189.1729 Q43.8438,188.5166 43.9688,188.3291 Q44.2344,187.9229 44.7031,187.9229 Q45.0781,187.9229 45.3125,188.1885 Q45.5469,188.4385 45.5469,189.0479 L45.5469,191.0166 Q45.5469,191.5635 45.4219,191.751 Q45.1563,192.1416 44.7031,192.1416 Q44.2344,192.1416 43.9688,191.7354 Q43.8438,191.5479 43.8438,190.876 L42.3594,190.876 Z " fill="#000000"/><text fill="#000000" font-family="sans-serif" font-size="14" lengthAdjust="spacing" textLength="96" x="57.5" y="196.2349">hotel_bookings</text><line style="stroke:#181818;stroke-width:0.5;" x1="29.5" x2="155.5" y1="206.0791" y2="206.0791"/><ellipse cx="39.5" cy="221.1187" fill="#000000" rx="3" ry="3" style="stroke:#000000;stroke-width:1.0;"/><text fill="#000000" font-family="sans-serif" font-size="14" lengthAdjust="spacing" textLength="11" x="48.5" y="225.7744">id</text><text fill="#000000" font-family="sans-serif" font-size="14" lengthAdjust="spacing" textLength="47" x="48.5" y="244.8535">user_id</text><line style="stroke:#181818;stroke-width:0.5;" x1="29.5" x2="155.5" y1="252.2373" y2="252.2373"/></g><!--class payment_transactions--><g id="elem_payment_transactions"><rect codeLine="216" fill="#F1F1F1" height="86.1582" id="payment_transactions" rx="2.5" ry="2.5" style="stroke:#181818;stroke-width:0.5;" width="171" x="7" y="339.0791"/><ellipse cx="22" cy="355.0791" fill="#ADD1B2" rx="11" ry="11" style="stroke:#181818;stroke-width:1.0;"/><path d="M20.8594,355.876 L20.8594,358.376 L25.1875,358.376 L25.1875,357.4541 Q25.1875,356.8447 25.4219,356.5791 Q25.6719,356.3135 26.0469,356.3135 Q26.4219,356.3135 26.6563,356.5791 Q26.8906,356.8447 26.8906,357.4541 L26.8906,360.0791 L18.8906,360.0791 Q18.2656,360.0791 18,359.8447 Q17.75,359.6104 17.75,359.2197 Q17.75,358.8447 18.0156,358.6104 Q18.2813,358.376 18.8906,358.376 L19.1563,358.376 L19.1563,351.7197 L18.8906,351.7197 Q18.2656,351.7197 18,351.4854 Q17.75,351.251 17.75,350.8604 Q17.75,350.4854 18,350.251 Q18.2656,350.0166 18.8906,350.0166 L26.5156,350.0166 L26.5156,352.6104 Q26.5156,353.2197 26.2813,353.4854 Q26.0625,353.7354 25.6719,353.7354 Q25.2969,353.7354 25.0625,353.4854 Q24.8281,353.2197 24.8281,352.6104 L24.8281,351.7197 L20.8594,351.7197 L20.8594,354.1729 L22.3438,354.1729 Q22.3438,353.5166 22.4688,353.3291 Q22.7344,352.9229 23.2031,352.9229 Q23.5781,352.9229 23.8125,353.1885 Q24.0469,353.4385 24.0469,354.0479 L24.0469,356.0166 Q24.0469,356.5635 23.9219,356.751 Q23.6563,357.1416 23.2031,357.1416 Q22.7344,357.1416 22.4688,356.7354 Q22.3438,356.5479 22.3438,355.876 L20.8594,355.876 Z " fill="#000000"/><text fill="#000000" font-family="sans-serif" font-size="14" lengthAdjust="spacing" textLength="139" x="36" y="361.2349">payment_transactions</text><line style="stroke:#181818;stroke-width:0.5;" x1="8" x2="177" y1="371.0791" y2="371.0791"/><ellipse cx="18" cy="386.1187" fill="#000000" rx="3" ry="3" style="stroke:#000000;stroke-width:1.0;"/><text fill="#000000" font-family="sans-serif" font-size="14" lengthAdjust="spacing" textLength="11" x="27" y="390.7744">id</text><text fill="#000000" font-family="sans-serif" font-size="14" lengthAdjust="spacing" textLength="108" x="27" y="409.8535">hotel_booking_id</text><line style="stroke:#181818;stroke-width:0.5;" x1="8" x2="177" y1="417.2373" y2="417.2373"/></g><!--class users--><g id="elem_users"><rect fill="#F1F1F1" height="48" id="users" rx="2.5" ry="2.5" style="stroke:#181818;stroke-width:0.5;" width="67" x="59" y="47.0791"/><ellipse cx="74" cy="63.0791" fill="#ADD1B2" rx="11" ry="11" style="stroke:#181818;stroke-width:1.0;"/><path d="M76.7656,58.9541 Q76.9219,58.7354 77.1094,58.626 Q77.2969,58.5166 77.5156,58.5166 Q77.8906,58.5166 78.125,58.7822 Q78.3594,59.0322 78.3594,59.6416 L78.3594,61.0947 Q78.3594,61.7041 78.125,61.9697 Q77.8906,62.2354 77.5156,62.2354 Q77.1719,62.2354 76.9688,62.0322 Q76.7656,61.8447 76.6563,61.3291 Q76.6094,60.9697 76.4219,60.7822 Q76.0938,60.4072 75.4844,60.1885 Q74.875,59.9697 74.25,59.9697 Q73.4844,59.9697 72.8438,60.2979 Q72.2188,60.626 71.7188,61.376 Q71.2344,62.126 71.2344,63.1572 L71.2344,64.251 Q71.2344,65.4854 72.125,66.3135 Q73.0156,67.126 74.6094,67.126 Q75.5469,67.126 76.2031,66.876 Q76.5938,66.7197 77.0156,66.2822 Q77.2813,66.0166 77.4219,65.9385 Q77.5781,65.8604 77.7813,65.8604 Q78.1094,65.8604 78.3594,66.126 Q78.625,66.376 78.625,66.7197 Q78.625,67.0635 78.2813,67.4697 Q77.7813,68.0479 76.9844,68.376 Q75.9063,68.8291 74.6094,68.8291 Q73.0938,68.8291 71.8906,68.2041 Q70.9063,67.7041 70.2188,66.6416 Q69.5313,65.5635 69.5313,64.2822 L69.5313,63.126 Q69.5313,61.7979 70.1406,60.6572 Q70.7656,59.501 71.8594,58.8916 Q72.9531,58.2666 74.1875,58.2666 Q74.9219,58.2666 75.5625,58.4385 Q76.2188,58.5947 76.7656,58.9541 Z " fill="#000000"/><text fill="#000000" font-family="sans-serif" font-size="14" lengthAdjust="spacing" textLength="35" x="88" y="69.2349">users</text><line style="stroke:#181818;stroke-width:0.5;" x1="60" x2="125" y1="79.0791" y2="79.0791"/><line style="stroke:#181818;stroke-width:0.5;" x1="60" x2="125" y1="87.0791" y2="87.0791"/></g><!--link users to hotel_bookings--><g id="link_users_hotel_bookings"><path codeLine="221" d="M92.5,103.2191 C92.5,124.3591 92.5,130.1591 92.5,155.8291 " fill="none" id="users-hotel_bookings" style="stroke:#181818;stroke-width:1.0;"/><line style="stroke:#181818;stroke-width:1.0;" x1="88.5" x2="96.5" y1="99.2191" y2="99.2191"/><line style="stroke:#181818;stroke-width:1.0;" x1="88.5" x2="96.5" y1="102.2191" y2="102.2191"/><line style="stroke:#181818;stroke-width:1.0;" x1="92.5" x2="92.5" y1="103.2191" y2="95.2191"/><line style="stroke:#181818;stroke-width:1.0;" x1="92.5" x2="98.5" y1="165.8291" y2="173.8291"/><line style="stroke:#181818;stroke-width:1.0;" x1="92.5" x2="86.5" y1="165.8291" y2="173.8291"/><line style="stroke:#181818;stroke-width:1.0;" x1="92.5" x2="92.5" y1="165.8291" y2="173.8291"/><ellipse cx="92.5" cy="159.8291" fill="none" rx="4" ry="4" style="stroke:#181818;stroke-width:1.0;"/><text fill="#000000" font-family="sans-serif" font-size="13" lengthAdjust="spacing" textLength="136" x="93.5" y="140.6533">fk_hotel_bookings_user</text></g><!--link hotel_bookings to payment_transactions--><g id="link_hotel_bookings_payment_transactions"><path codeLine="222" d="M92.5,268.4791 C92.5,292.6291 92.5,296.7791 92.5,320.8891 " fill="none" id="hotel_bookings-payment_transactions" style="stroke:#181818;stroke-width:1.0;"/><line style="stroke:#181818;stroke-width:1.0;" x1="88.5" x2="96.5" y1="264.4791" y2="264.4791"/><line style="stroke:#181818;stroke-width:1.0;" x1="88.5" x2="96.5" y1="267.4791" y2="267.4791"/><line style="stroke:#181818;stroke-width:1.0;" x1="92.5" x2="92.5" y1="268.4791" y2="260.4791"/><line style="stroke:#181818;stroke-width:1.0;" x1="92.5" x2="98.5" y1="330.8891" y2="338.8891"/><line style="stroke:#181818;stroke-width:1.0;" x1="92.5" x2="86.5" y1="330.8891" y2="338.8891"/><line style="stroke:#181818;stroke-width:1.0;" x1="92.5" x2="92.5" y1="330.8891" y2="338.8891"/><ellipse cx="92.5" cy="324.8891" fill="none" rx="4" ry="4" style="stroke:#181818;stroke-width:1.0;"/><text fill="#000000" font-family="sans-serif" font-size="13" lengthAdjust="spacing" textLength="197" x="93.5" y="305.6533">fk_payment_transactions_booking</text></g><!--SRC=[hLXTRvim57tthx3sq8z9_GELzi0wrg8bQHJefZuXZtY9LGCHTZ9bxVxxZ0t4nYR0IbvQZkyvrxxtsbnp2J-zumSkuLFehq9u0Rsdw04klNjVOE-Iv8HJ39yOBbWfk-TR070cq2FSI_0LGF7x2CaQtiBFmRsOGE3D97Xp8_yG5gE4amEMJnGn7jDyGx8OSObaA5L3E4M4olzsHVwBK1oJ56rml2ye-6kuZSbQFX5yTWALgSA3HLHh7mIzq2HPncAUl-1id9eGK35uUxkvoL-jcTt23xzUuXOgdp-OHCs_ufo0oXna-FTEn0AyDv-NC5fvt_qPNCwynI9Ot4zO9L613fZ29KLPHh9D4rukyNWdS3t0Ub2rP5JMQtIqZ3KX9qSC9DXY2INJEjaNXVXNLMMxY5gE4jpbAHDPGZkspVcvHHbvDW9n2qMYTKIc6XWs9a-6HAULWBG4keNbBC6MDm6Lni0qgfYE-4YwZIjYvoAr2BLNUnfIovwmm5V-zy3_0PUFOHHEMDqhV23ujpW4bpdZh2c8GiBnhWHxwhM4AdF6ZxHLMRMGY4aURufylxFqD5_TN8ibjPpsMyIs76t-qrl5FklFLSr6n6HTw8YgPyEcnTC3PD2r0Sa4BeP3p273bFcvURI2fqkOGyPSMYodf5Eidj646yKBeBVmPizXCEK-ALKpH8-Cd3O98lLgK3NKTMIUBRoJZDm_NHLR- -WYTnMkWzwnPOq3px4ucJyRLqUTgwP6QCXgSjXRIbMCMZeARMY3bCowj76NMkLzl9OaTWhr71wAFE4U4MtIdJ_bzbYgL-q53ChU5eOO5ScffxOxc5C1gsQOIK97gsDtKmQfm6nFxTUKBLoNlju06JNlcelCXcD0LRsBuHAhvsYhLIE61dYNafAOi5hk7loxRxCWZ2OicBijJbue4Pk-wLzhP43-6zkOS9nQ16tOJhBcH_L_pRDAgJRUPbJUJ9e2Jy_JHjwBuDoVFwwU9uqzud2EqxmuQX55F4vBZE112QZDZ_419pml1byNJ4zLB3L8PQ63SlBM8ZO3apVU3u-Hk5YA1jbxdlkBAVV0Gyx5nL8eesCguje4TrlYySyyVn7tpG79s2b-UH79M7cDoUqRgQ7fIalBgGolYQd8jkmgjdCAKiCrKjEdJDFNfzaCXkAecdiJfaYgVl4YxxCN-hNybKSfZD1FAjzuAqoHNDLrkOeL9bb2zsiCaJ1gFffSiNsQeeBymUlhyzzNkhwXTD-v1rnK-rgxtjTWrn5wPcltRk5pzGVwlXZqVXiO-X6W_pOtzDes-68s_Furwdu51lRW8zhiGGthg6PxH2yDndPN0zecqFzw1oEEEF0F]--></g></svg>