<?xml version="1.0" encoding="us-ascii" standalone="no"?><svg xmlns="http://www.w3.org/2000/svg" xmlns:xlink="http://www.w3.org/1999/xlink" contentStyleType="text/css" height="635px" preserveAspectRatio="none" style="width:668px;height:635px;background:#FFFFFF;" version="1.1" viewBox="0 0 668 635" width="668px" zoomAndPan="magnify"><defs/><g><text fill="#000000" font-family="sans-serif" font-size="14" font-weight="bold" lengthAdjust="spacing" textLength="74" x="290.25" y="25.6953">AI Analysis</text><!--class ai_review_analysis--><g id="elem_ai_review_analysis"><rect codeLine="114" fill="#F1F1F1" height="105.2373" id="ai_review_analysis" rx="2.5" ry="2.5" style="stroke:#181818;stroke-width:0.5;" width="150" x="233.5" y="174.0791"/><ellipse cx="248.5" cy="190.0791" fill="#ADD1B2" rx="11" ry="11" style="stroke:#181818;stroke-width:1.0;"/><path d="M247.3594,190.876 L247.3594,193.376 L251.6875,193.376 L251.6875,192.4541 Q251.6875,191.8447 251.9219,191.5791 Q252.1719,191.3135 252.5469,191.3135 Q252.9219,191.3135 253.1563,191.5791 Q253.3906,191.8447 253.3906,192.4541 L253.3906,195.0791 L245.3906,195.0791 Q244.7656,195.0791 244.5,194.8447 Q244.25,194.6104 244.25,194.2197 Q244.25,193.8447 244.5156,193.6104 Q244.7813,193.376 245.3906,193.376 L245.6563,193.376 L245.6563,186.7197 L245.3906,186.7197 Q244.7656,186.7197 244.5,186.4854 Q244.25,186.251 244.25,185.8604 Q244.25,185.4854 244.5,185.251 Q244.7656,185.0166 245.3906,185.0166 L253.0156,185.0166 L253.0156,187.6104 Q253.0156,188.2197 252.7813,188.4854 Q252.5625,188.7354 252.1719,188.7354 Q251.7969,188.7354 251.5625,188.4854 Q251.3281,188.2197 251.3281,187.6104 L251.3281,186.7197 L247.3594,186.7197 L247.3594,189.1729 L248.8438,189.1729 Q248.8438,188.5166 248.9688,188.3291 Q249.2344,187.9229 249.7031,187.9229 Q250.0781,187.9229 250.3125,188.1885 Q250.5469,188.4385 250.5469,189.0479 L250.5469,191.0166 Q250.5469,191.5635 250.4219,191.751 Q250.1563,192.1416 249.7031,192.1416 Q249.2344,192.1416 248.9688,191.7354 Q248.8438,191.5479 248.8438,190.876 L247.3594,190.876 Z " fill="#000000"/><text fill="#000000" font-family="sans-serif" font-size="14" lengthAdjust="spacing" textLength="118" x="262.5" y="196.2349">ai_review_analysis</text><line style="stroke:#181818;stroke-width:0.5;" x1="234.5" x2="382.5" y1="206.0791" y2="206.0791"/><ellipse cx="244.5" cy="221.1187" fill="#000000" rx="3" ry="3" style="stroke:#000000;stroke-width:1.0;"/><text fill="#000000" font-family="sans-serif" font-size="14" lengthAdjust="spacing" textLength="11" x="253.5" y="225.7744">id</text><text fill="#000000" font-family="sans-serif" font-size="14" lengthAdjust="spacing" textLength="47" x="253.5" y="244.8535">user_id</text><text fill="#000000" font-family="sans-serif" font-size="14" lengthAdjust="spacing" textLength="94" x="253.5" y="263.9326">review_post_id</text><line style="stroke:#181818;stroke-width:0.5;" x1="234.5" x2="382.5" y1="271.3164" y2="271.3164"/></g><!--class ai_review_styles--><g id="elem_ai_review_styles"><rect codeLine="120" fill="#F1F1F1" height="86.1582" id="ai_review_styles" rx="2.5" ry="2.5" style="stroke:#181818;stroke-width:0.5;" width="144" x="276.5" y="358.0791"/><ellipse cx="295.55" cy="374.0791" fill="#ADD1B2" rx="11" ry="11" style="stroke:#181818;stroke-width:1.0;"/><path d="M294.4094,374.876 L294.4094,377.376 L298.7375,377.376 L298.7375,376.4541 Q298.7375,375.8447 298.9719,375.5791 Q299.2219,375.3135 299.5969,375.3135 Q299.9719,375.3135 300.2063,375.5791 Q300.4406,375.8447 300.4406,376.4541 L300.4406,379.0791 L292.4406,379.0791 Q291.8156,379.0791 291.55,378.8447 Q291.3,378.6104 291.3,378.2197 Q291.3,377.8447 291.5656,377.6104 Q291.8313,377.376 292.4406,377.376 L292.7063,377.376 L292.7063,370.7197 L292.4406,370.7197 Q291.8156,370.7197 291.55,370.4854 Q291.3,370.251 291.3,369.8604 Q291.3,369.4854 291.55,369.251 Q291.8156,369.0166 292.4406,369.0166 L300.0656,369.0166 L300.0656,371.6104 Q300.0656,372.2197 299.8313,372.4854 Q299.6125,372.7354 299.2219,372.7354 Q298.8469,372.7354 298.6125,372.4854 Q298.3781,372.2197 298.3781,371.6104 L298.3781,370.7197 L294.4094,370.7197 L294.4094,373.1729 L295.8938,373.1729 Q295.8938,372.5166 296.0188,372.3291 Q296.2844,371.9229 296.7531,371.9229 Q297.1281,371.9229 297.3625,372.1885 Q297.5969,372.4385 297.5969,373.0479 L297.5969,375.0166 Q297.5969,375.5635 297.4719,375.751 Q297.2063,376.1416 296.7531,376.1416 Q296.2844,376.1416 296.0188,375.7354 Q295.8938,375.5479 295.8938,374.876 L294.4094,374.876 Z " fill="#000000"/><text fill="#000000" font-family="sans-serif" font-size="14" lengthAdjust="spacing" textLength="103" x="310.45" y="380.2349">ai_review_styles</text><line style="stroke:#181818;stroke-width:0.5;" x1="277.5" x2="419.5" y1="390.0791" y2="390.0791"/><ellipse cx="287.5" cy="405.1187" fill="#000000" rx="3" ry="3" style="stroke:#000000;stroke-width:1.0;"/><text fill="#000000" font-family="sans-serif" font-size="14" lengthAdjust="spacing" textLength="11" x="296.5" y="409.7744">id</text><text fill="#000000" font-family="sans-serif" font-size="14" lengthAdjust="spacing" textLength="118" x="296.5" y="428.8535">review_analysis_id</text><line style="stroke:#181818;stroke-width:0.5;" x1="277.5" x2="419.5" y1="436.2373" y2="436.2373"/></g><!--class ai_review_hashtags--><g id="elem_ai_review_hashtags"><rect codeLine="125" fill="#F1F1F1" height="105.2373" id="ai_review_hashtags" rx="2.5" ry="2.5" style="stroke:#181818;stroke-width:0.5;" width="157" x="7" y="523.0791"/><ellipse cx="22" cy="539.0791" fill="#ADD1B2" rx="11" ry="11" style="stroke:#181818;stroke-width:1.0;"/><path d="M20.8594,539.876 L20.8594,542.376 L25.1875,542.376 L25.1875,541.4541 Q25.1875,540.8447 25.4219,540.5791 Q25.6719,540.3135 26.0469,540.3135 Q26.4219,540.3135 26.6563,540.5791 Q26.8906,540.8447 26.8906,541.4541 L26.8906,544.0791 L18.8906,544.0791 Q18.2656,544.0791 18,543.8447 Q17.75,543.6104 17.75,543.2197 Q17.75,542.8447 18.0156,542.6104 Q18.2813,542.376 18.8906,542.376 L19.1563,542.376 L19.1563,535.7197 L18.8906,535.7197 Q18.2656,535.7197 18,535.4854 Q17.75,535.251 17.75,534.8604 Q17.75,534.4854 18,534.251 Q18.2656,534.0166 18.8906,534.0166 L26.5156,534.0166 L26.5156,536.6104 Q26.5156,537.2197 26.2813,537.4854 Q26.0625,537.7354 25.6719,537.7354 Q25.2969,537.7354 25.0625,537.4854 Q24.8281,537.2197 24.8281,536.6104 L24.8281,535.7197 L20.8594,535.7197 L20.8594,538.1729 L22.3438,538.1729 Q22.3438,537.5166 22.4688,537.3291 Q22.7344,536.9229 23.2031,536.9229 Q23.5781,536.9229 23.8125,537.1885 Q24.0469,537.4385 24.0469,538.0479 L24.0469,540.0166 Q24.0469,540.5635 23.9219,540.751 Q23.6563,541.1416 23.2031,541.1416 Q22.7344,541.1416 22.4688,540.7354 Q22.3438,540.5479 22.3438,539.876 L20.8594,539.876 Z " fill="#000000"/><text fill="#000000" font-family="sans-serif" font-size="14" lengthAdjust="spacing" textLength="125" x="36" y="545.2349">ai_review_hashtags</text><line style="stroke:#181818;stroke-width:0.5;" x1="8" x2="163" y1="555.0791" y2="555.0791"/><ellipse cx="18" cy="570.1187" fill="#000000" rx="3" ry="3" style="stroke:#000000;stroke-width:1.0;"/><text fill="#000000" font-family="sans-serif" font-size="14" lengthAdjust="spacing" textLength="11" x="27" y="574.7744">id</text><text fill="#000000" font-family="sans-serif" font-size="14" lengthAdjust="spacing" textLength="118" x="27" y="593.8535">review_analysis_id</text><text fill="#000000" font-family="sans-serif" font-size="14" lengthAdjust="spacing" textLength="96" x="27" y="612.9326">review_style_id</text><line style="stroke:#181818;stroke-width:0.5;" x1="8" x2="163" y1="620.3164" y2="620.3164"/></g><!--class users--><g id="elem_users"><rect fill="#F1F1F1" height="48" id="users" rx="2.5" ry="2.5" style="stroke:#181818;stroke-width:0.5;" width="67" x="275" y="47.0791"/><ellipse cx="290" cy="63.0791" fill="#ADD1B2" rx="11" ry="11" style="stroke:#181818;stroke-width:1.0;"/><path d="M292.7656,58.9541 Q292.9219,58.7354 293.1094,58.626 Q293.2969,58.5166 293.5156,58.5166 Q293.8906,58.5166 294.125,58.7822 Q294.3594,59.0322 294.3594,59.6416 L294.3594,61.0947 Q294.3594,61.7041 294.125,61.9697 Q293.8906,62.2354 293.5156,62.2354 Q293.1719,62.2354 292.9688,62.0322 Q292.7656,61.8447 292.6563,61.3291 Q292.6094,60.9697 292.4219,60.7822 Q292.0938,60.4072 291.4844,60.1885 Q290.875,59.9697 290.25,59.9697 Q289.4844,59.9697 288.8438,60.2979 Q288.2188,60.626 287.7188,61.376 Q287.2344,62.126 287.2344,63.1572 L287.2344,64.251 Q287.2344,65.4854 288.125,66.3135 Q289.0156,67.126 290.6094,67.126 Q291.5469,67.126 292.2031,66.876 Q292.5938,66.7197 293.0156,66.2822 Q293.2813,66.0166 293.4219,65.9385 Q293.5781,65.8604 293.7813,65.8604 Q294.1094,65.8604 294.3594,66.126 Q294.625,66.376 294.625,66.7197 Q294.625,67.0635 294.2813,67.4697 Q293.7813,68.0479 292.9844,68.376 Q291.9063,68.8291 290.6094,68.8291 Q289.0938,68.8291 287.8906,68.2041 Q286.9063,67.7041 286.2188,66.6416 Q285.5313,65.5635 285.5313,64.2822 L285.5313,63.126 Q285.5313,61.7979 286.1406,60.6572 Q286.7656,59.501 287.8594,58.8916 Q288.9531,58.2666 290.1875,58.2666 Q290.9219,58.2666 291.5625,58.4385 Q292.2188,58.5947 292.7656,58.9541 Z " fill="#000000"/><text fill="#000000" font-family="sans-serif" font-size="14" lengthAdjust="spacing" textLength="35" x="304" y="69.2349">users</text><line style="stroke:#181818;stroke-width:0.5;" x1="276" x2="341" y1="79.0791" y2="79.0791"/><line style="stroke:#181818;stroke-width:0.5;" x1="276" x2="341" y1="87.0791" y2="87.0791"/></g><!--class review_posts--><g id="elem_review_posts"><rect fill="#F1F1F1" height="48" id="review_posts" rx="2.5" ry="2.5" style="stroke:#181818;stroke-width:0.5;" width="114" x="366.5" y="551.5791"/><ellipse cx="381.5" cy="567.5791" fill="#ADD1B2" rx="11" ry="11" style="stroke:#181818;stroke-width:1.0;"/><path d="M384.2656,563.4541 Q384.4219,563.2354 384.6094,563.126 Q384.7969,563.0166 385.0156,563.0166 Q385.3906,563.0166 385.625,563.2822 Q385.8594,563.5322 385.8594,564.1416 L385.8594,565.5947 Q385.8594,566.2041 385.625,566.4697 Q385.3906,566.7354 385.0156,566.7354 Q384.6719,566.7354 384.4688,566.5322 Q384.2656,566.3447 384.1563,565.8291 Q384.1094,565.4697 383.9219,565.2822 Q383.5938,564.9072 382.9844,564.6885 Q382.375,564.4697 381.75,564.4697 Q380.9844,564.4697 380.3438,564.7979 Q379.7188,565.126 379.2188,565.876 Q378.7344,566.626 378.7344,567.6572 L378.7344,568.751 Q378.7344,569.9854 379.625,570.8135 Q380.5156,571.626 382.1094,571.626 Q383.0469,571.626 383.7031,571.376 Q384.0938,571.2197 384.5156,570.7822 Q384.7813,570.5166 384.9219,570.4385 Q385.0781,570.3604 385.2813,570.3604 Q385.6094,570.3604 385.8594,570.626 Q386.125,570.876 386.125,571.2197 Q386.125,571.5635 385.7813,571.9697 Q385.2813,572.5479 384.4844,572.876 Q383.4063,573.3291 382.1094,573.3291 Q380.5938,573.3291 379.3906,572.7041 Q378.4063,572.2041 377.7188,571.1416 Q377.0313,570.0635 377.0313,568.7822 L377.0313,567.626 Q377.0313,566.2979 377.6406,565.1572 Q378.2656,564.001 379.3594,563.3916 Q380.4531,562.7666 381.6875,562.7666 Q382.4219,562.7666 383.0625,562.9385 Q383.7188,563.0947 384.2656,563.4541 Z " fill="#000000"/><text fill="#000000" font-family="sans-serif" font-size="14" lengthAdjust="spacing" textLength="82" x="395.5" y="573.7349">review_posts</text><line style="stroke:#181818;stroke-width:0.5;" x1="367.5" x2="479.5" y1="583.5791" y2="583.5791"/><line style="stroke:#181818;stroke-width:0.5;" x1="367.5" x2="479.5" y1="591.5791" y2="591.5791"/></g><!--link users to ai_review_analysis--><g id="link_users_ai_review_analysis"><path codeLine="131" d="M308.5,103.3891 C308.5,124.1891 308.5,129.3891 308.5,156.0291 " fill="none" id="users-ai_review_analysis" style="stroke:#181818;stroke-width:1.0;"/><line style="stroke:#181818;stroke-width:1.0;" x1="304.5" x2="312.5" y1="99.3891" y2="99.3891"/><line style="stroke:#181818;stroke-width:1.0;" x1="304.5" x2="312.5" y1="102.3891" y2="102.3891"/><line style="stroke:#181818;stroke-width:1.0;" x1="308.5" x2="308.5" y1="103.3891" y2="95.3891"/><line style="stroke:#181818;stroke-width:1.0;" x1="308.5" x2="314.5" y1="166.0291" y2="174.0291"/><line style="stroke:#181818;stroke-width:1.0;" x1="308.5" x2="302.5" y1="166.0291" y2="174.0291"/><line style="stroke:#181818;stroke-width:1.0;" x1="308.5" x2="308.5" y1="166.0291" y2="174.0291"/><ellipse cx="308.5" cy="160.0291" fill="none" rx="4" ry="4" style="stroke:#181818;stroke-width:1.0;"/><text fill="#000000" font-family="sans-serif" font-size="13" lengthAdjust="spacing" textLength="156" x="309.5" y="140.6533">fk_ai_review_analysis_user</text></g><!--link review_posts to ai_review_analysis--><g id="link_review_posts_ai_review_analysis"><path codeLine="132" d="M449.1355,545.2885 C461.4555,529.9285 470.94,514.8591 477.5,493.0791 C501.09,414.7791 520.99,378.3391 477.5,309.0791 C456.8,276.1091 435.6343,261.9857 400.7843,250.0857 " fill="none" id="review_posts-ai_review_analysis" style="stroke:#181818;stroke-width:1.0;"/><line style="stroke:#181818;stroke-width:1.0;" x1="449.753" x2="443.5124" y1="550.9115" y2="545.9061"/><line style="stroke:#181818;stroke-width:1.0;" x1="451.6301" x2="445.3895" y1="548.5713" y2="543.5658"/><line style="stroke:#181818;stroke-width:1.0;" x1="449.1355" x2="444.13" y1="545.2885" y2="551.5291"/><line style="stroke:#181818;stroke-width:1.0;" x1="391.3208" x2="381.8111" y1="246.8543" y2="249.9472"/><line style="stroke:#181818;stroke-width:1.0;" x1="391.3208" x2="385.6889" y1="246.8543" y2="238.591"/><line style="stroke:#181818;stroke-width:1.0;" x1="391.3208" x2="383.75" y1="246.8543" y2="244.2691"/><ellipse cx="396.9989" cy="248.7931" fill="none" rx="4" ry="4" style="stroke:#181818;stroke-width:1.0;"/><text fill="#000000" font-family="sans-serif" font-size="13" lengthAdjust="spacing" textLength="156" x="504.5" y="407.1533">fk_ai_review_analysis_post</text></g><!--link ai_review_analysis to ai_review_styles--><g id="link_ai_review_analysis_ai_review_styles"><path codeLine="133" d="M300.7738,287.1407 C300.0438,303.0707 301.21,312.5091 305.5,328.0791 C308.33,338.3291 304.2335,332.8805 309.5235,342.3105 " fill="none" id="ai_review_analysis-ai_review_styles" style="stroke:#181818;stroke-width:1.0;"/><line style="stroke:#181818;stroke-width:1.0;" x1="296.9611" x2="304.9527" y1="282.9618" y2="283.328"/><line style="stroke:#181818;stroke-width:1.0;" x1="296.8238" x2="304.8154" y1="285.9587" y2="286.3249"/><line style="stroke:#181818;stroke-width:1.0;" x1="300.7738" x2="301.14" y1="287.1407" y2="279.1491"/><line style="stroke:#181818;stroke-width:1.0;" x1="314.416" x2="323.5629" y1="351.032" y2="355.0736"/><line style="stroke:#181818;stroke-width:1.0;" x1="314.416" x2="313.0971" y1="351.032" y2="360.9446"/><line style="stroke:#181818;stroke-width:1.0;" x1="314.416" x2="318.33" y1="351.032" y2="358.0091"/><ellipse cx="311.4805" cy="345.7991" fill="none" rx="4" ry="4" style="stroke:#181818;stroke-width:1.0;"/><text fill="#000000" font-family="sans-serif" font-size="13" lengthAdjust="spacing" textLength="166" x="306.5" y="324.6533">fk_ai_review_styles_analysis</text></g><!--link ai_review_analysis to ai_review_hashtags--><g id="link_ai_review_analysis_ai_review_hashtags"><path codeLine="134" d="M225.7376,249.4799 C170.5376,268.0499 106.99,299.5991 72.5,358.0791 C43.04,408.0291 48.8101,458.9145 62.0001,505.3345 " fill="none" id="ai_review_analysis-ai_review_hashtags" style="stroke:#181818;stroke-width:1.0;"/><line style="stroke:#181818;stroke-width:1.0;" x1="228.2534" x2="230.8042" y1="244.4133" y2="251.9957"/><line style="stroke:#181818;stroke-width:1.0;" x1="225.41" x2="227.9608" y1="245.3699" y2="252.9523"/><line style="stroke:#181818;stroke-width:1.0;" x1="225.7376" x2="233.32" y1="249.4799" y2="246.9291"/><line style="stroke:#181818;stroke-width:1.0;" x1="64.7334" x2="72.6915" y1="514.9537" y2="521.0092"/><line style="stroke:#181818;stroke-width:1.0;" x1="64.7334" x2="61.1485" y1="514.9537" y2="524.2891"/><line style="stroke:#181818;stroke-width:1.0;" x1="64.7334" x2="66.92" y1="514.9537" y2="522.6491"/><ellipse cx="63.0934" cy="509.1822" fill="none" rx="4" ry="4" style="stroke:#181818;stroke-width:1.0;"/><text fill="#000000" font-family="sans-serif" font-size="13" lengthAdjust="spacing" textLength="184" x="73.5" y="407.1533">fk_ai_review_hashtags_analysis</text></g><!--link ai_review_styles to ai_review_hashtags--><g id="link_ai_review_styles_ai_review_hashtags"><path codeLine="135" d="M269.101,436.1956 C260.041,439.9556 258.27,440.6191 249.5,444.0791 C213.4,458.3291 199.12,451.5791 167.5,474.0791 C149.06,487.1991 143.4221,491.2321 130.0621,508.6321 " fill="none" id="ai_review_styles-ai_review_hashtags" style="stroke:#181818;stroke-width:1.0;"/><line style="stroke:#181818;stroke-width:1.0;" x1="271.2623" x2="274.3288" y1="430.9679" y2="438.3568"/><line style="stroke:#181818;stroke-width:1.0;" x1="268.4914" x2="271.5579" y1="432.1178" y2="439.5068"/><line style="stroke:#181818;stroke-width:1.0;" x1="269.101" x2="276.49" y1="436.1956" y2="433.1291"/><line style="stroke:#181818;stroke-width:1.0;" x1="123.972" x2="123.859" y1="516.5638" y2="526.5631"/><line style="stroke:#181818;stroke-width:1.0;" x1="123.972" x2="114.341" y1="516.5638" y2="519.2551"/><line style="stroke:#181818;stroke-width:1.0;" x1="123.972" x2="119.1" y1="516.5638" y2="522.9091"/><ellipse cx="127.6261" cy="511.8048" fill="none" rx="4" ry="4" style="stroke:#181818;stroke-width:1.0;"/><text fill="#000000" font-family="sans-serif" font-size="13" lengthAdjust="spacing" textLength="164" x="168.5" y="489.6533">fk_ai_review_hashtags_style</text></g><!--link ai_review_styles to review_posts--><g id="link_ai_review_styles_review_posts"><path codeLine="136" d="M339.4111,452.0585 C338.0211,467.9085 339.38,477.8191 345.5,493.0791 C354.84,516.3391 360.6148,525.0735 377.7748,539.6335 " fill="none" id="ai_review_styles-review_posts" style="stroke:#181818;stroke-width:1.0;"/><line style="stroke:#181818;stroke-width:1.0;" x1="335.7758" x2="343.7453" y1="447.7244" y2="448.4233"/><line style="stroke:#181818;stroke-width:1.0;" x1="335.5138" x2="343.4832" y1="450.7129" y2="451.4118"/><line style="stroke:#181818;stroke-width:1.0;" x1="339.4111" x2="340.11" y1="452.0585" y2="444.0891"/><line style="stroke:#181818;stroke-width:1.0;" x1="385.3999" x2="395.3819" y1="546.1033" y2="546.704"/><line style="stroke:#181818;stroke-width:1.0;" x1="385.3999" x2="387.6181" y1="546.1033" y2="555.8542"/><line style="stroke:#181818;stroke-width:1.0;" x1="385.3999" x2="391.5" y1="546.1033" y2="551.2791"/><ellipse cx="380.8249" cy="542.2214" fill="none" rx="4" ry="4" style="stroke:#181818;stroke-width:1.0;"/><text fill="#000000" font-family="sans-serif" font-size="13" lengthAdjust="spacing" textLength="126" x="346.5" y="489.6533">fk_review_posts_style</text></g><!--SRC=[hLXTRvim57tthx3sq8z9_GELzi0wrg8bQHJefZuXZtY9LGCHTZ9bxVxxZ0t4nYR0IbvQZkyvrxxtsbnp2J-zumSkuLFehq9u0Rsdw04klNjVOE-Iv8HJ39yOBbWfk-TR070cq2FSI_0LGF7x2CaQtiBFmRsOGE3D97Xp8_yG5gE4amEMJnGn7jDyGx8OSObaA5L3E4M4olzsHVwBK1oJ56rml2ye-6kuZSbQFX5yTWALgSA3HLHh7mIzq2HPncAUl-1id9eGK35uUxkvoL-jcTt23xzUuXOgdp-OHCs_ufo0oXna-FTEn0AyDv-NC5fvt_qPNCwynI9Ot4zO9L613fZ29KLPHh9D4rukyNWdS3t0Ub2rP5JMQtIqZ3KX9qSC9DXY2INJEjaNXVXNLMMxY5gE4jpbAHDPGZkspVcvHHbvDW9n2qMYTKIc6XWs9a-6HAULWBG4keNbBC6MDm6Lni0qgfYE-4YwZIjYvoAr2BLNUnfIovwmm5V-zy3_0PUFOHHEMDqhV23ujpW4bpdZh2c8GiBnhWHxwhM4AdF6ZxHLMRMGY4aURufylxFqD5_TN8ibjPpsMyIs76t-qrl5FklFLSr6n6HTw8YgPyEcnTC3PD2r0Sa4BeP3p273bFcvURI2fqkOGyPSMYodf5Eidj646yKBeBVmPizXCEK-ALKpH8-Cd3O98lLgK3NKTMIUBRoJZDm_NHLR- -WYTnMkWzwnPOq3px4ucJyRLqUTgwP6QCXgSjXRIbMCMZeARMY3bCowj76NMkLzl9OaTWhr71wAFE4U4MtIdJ_bzbYgL-q53ChU5eOO5ScffxOxc5C1gsQOIK97gsDtKmQfm6nFxTUKBLoNlju06JNlcelCXcD0LRsBuHAhvsYhLIE61dYNafAOi5hk7loxRxCWZ2OicBijJbue4Pk-wLzhP43-6zkOS9nQ16tOJhBcH_L_pRDAgJRUPbJUJ9e2Jy_JHjwBuDoVFwwU9uqzud2EqxmuQX55F4vBZE112QZDZ_419pml1byNJ4zLB3L8PQ63SlBM8ZO3apVU3u-Hk5YA1jbxdlkBAVV0Gyx5nL8eesCguje4TrlYySyyVn7tpG79s2b-UH79M7cDoUqRgQ7fIalBgGolYQd8jkmgjdCAKiCrKjEdJDFNfzaCXkAecdiJfaYgVl4YxxCN-hNybKSfZD1FAjzuAqoHNDLrkOeL9bb2zsiCaJ1gFffSiNsQeeBymUlhyzzNkhwXTD-v1rnK-rgxtjTWrn5wPcltRk5pzGVwlXZqVXiO-X6W_pOtzDes-68s_Furwdu51lRW8zhiGGthg6PxH2yDndPN0zecqFzw1oEEEF0F]--></g></svg>