<?xml version="1.0" encoding="us-ascii" standalone="no"?><svg xmlns="http://www.w3.org/2000/svg" xmlns:xlink="http://www.w3.org/1999/xlink" contentStyleType="text/css" height="451px" preserveAspectRatio="none" style="width:476px;height:451px;background:#FFFFFF;" version="1.1" viewBox="0 0 476 451" width="476px" zoomAndPan="magnify"><defs/><g><text fill="#000000" font-family="sans-serif" font-size="14" font-weight="bold" lengthAdjust="spacing" textLength="159" x="151.75" y="25.6953">Places &amp; Image Search</text><!--class places--><g id="elem_places"><rect codeLine="145" fill="#F1F1F1" height="67.0791" id="places" rx="2.5" ry="2.5" style="stroke:#181818;stroke-width:0.5;" width="73" x="7" y="183.5791"/><ellipse cx="22" cy="199.5791" fill="#ADD1B2" rx="11" ry="11" style="stroke:#181818;stroke-width:1.0;"/><path d="M20.8594,200.376 L20.8594,202.876 L25.1875,202.876 L25.1875,201.9541 Q25.1875,201.3447 25.4219,201.0791 Q25.6719,200.8135 26.0469,200.8135 Q26.4219,200.8135 26.6563,201.0791 Q26.8906,201.3447 26.8906,201.9541 L26.8906,204.5791 L18.8906,204.5791 Q18.2656,204.5791 18,204.3447 Q17.75,204.1104 17.75,203.7197 Q17.75,203.3447 18.0156,203.1104 Q18.2813,202.876 18.8906,202.876 L19.1563,202.876 L19.1563,196.2197 L18.8906,196.2197 Q18.2656,196.2197 18,195.9854 Q17.75,195.751 17.75,195.3604 Q17.75,194.9854 18,194.751 Q18.2656,194.5166 18.8906,194.5166 L26.5156,194.5166 L26.5156,197.1104 Q26.5156,197.7197 26.2813,197.9854 Q26.0625,198.2354 25.6719,198.2354 Q25.2969,198.2354 25.0625,197.9854 Q24.8281,197.7197 24.8281,197.1104 L24.8281,196.2197 L20.8594,196.2197 L20.8594,198.6729 L22.3438,198.6729 Q22.3438,198.0166 22.4688,197.8291 Q22.7344,197.4229 23.2031,197.4229 Q23.5781,197.4229 23.8125,197.6885 Q24.0469,197.9385 24.0469,198.5479 L24.0469,200.5166 Q24.0469,201.0635 23.9219,201.251 Q23.6563,201.6416 23.2031,201.6416 Q22.7344,201.6416 22.4688,201.2354 Q22.3438,201.0479 22.3438,200.376 L20.8594,200.376 Z " fill="#000000"/><text fill="#000000" font-family="sans-serif" font-size="14" lengthAdjust="spacing" textLength="41" x="36" y="205.7349">places</text><line style="stroke:#181818;stroke-width:0.5;" x1="8" x2="79" y1="215.5791" y2="215.5791"/><ellipse cx="18" cy="230.6187" fill="#000000" rx="3" ry="3" style="stroke:#000000;stroke-width:1.0;"/><text fill="#000000" font-family="sans-serif" font-size="14" lengthAdjust="spacing" textLength="11" x="27" y="235.2744">id</text><line style="stroke:#181818;stroke-width:0.5;" x1="8" x2="79" y1="242.6582" y2="242.6582"/></g><!--class image_search_places--><g id="elem_image_search_places"><rect codeLine="149" fill="#F1F1F1" height="86.1582" id="image_search_places" rx="2.5" ry="2.5" style="stroke:#181818;stroke-width:0.5;" width="170" x="182.5" y="174.0791"/><ellipse cx="197.5" cy="190.0791" fill="#ADD1B2" rx="11" ry="11" style="stroke:#181818;stroke-width:1.0;"/><path d="M196.3594,190.876 L196.3594,193.376 L200.6875,193.376 L200.6875,192.4541 Q200.6875,191.8447 200.9219,191.5791 Q201.1719,191.3135 201.5469,191.3135 Q201.9219,191.3135 202.1563,191.5791 Q202.3906,191.8447 202.3906,192.4541 L202.3906,195.0791 L194.3906,195.0791 Q193.7656,195.0791 193.5,194.8447 Q193.25,194.6104 193.25,194.2197 Q193.25,193.8447 193.5156,193.6104 Q193.7813,193.376 194.3906,193.376 L194.6563,193.376 L194.6563,186.7197 L194.3906,186.7197 Q193.7656,186.7197 193.5,186.4854 Q193.25,186.251 193.25,185.8604 Q193.25,185.4854 193.5,185.251 Q193.7656,185.0166 194.3906,185.0166 L202.0156,185.0166 L202.0156,187.6104 Q202.0156,188.2197 201.7813,188.4854 Q201.5625,188.7354 201.1719,188.7354 Q200.7969,188.7354 200.5625,188.4854 Q200.3281,188.2197 200.3281,187.6104 L200.3281,186.7197 L196.3594,186.7197 L196.3594,189.1729 L197.8438,189.1729 Q197.8438,188.5166 197.9688,188.3291 Q198.2344,187.9229 198.7031,187.9229 Q199.0781,187.9229 199.3125,188.1885 Q199.5469,188.4385 199.5469,189.0479 L199.5469,191.0166 Q199.5469,191.5635 199.4219,191.751 Q199.1563,192.1416 198.7031,192.1416 Q198.2344,192.1416 197.9688,191.7354 Q197.8438,191.5479 197.8438,190.876 L196.3594,190.876 Z " fill="#000000"/><text fill="#000000" font-family="sans-serif" font-size="14" lengthAdjust="spacing" textLength="138" x="211.5" y="196.2349">image_search_places</text><line style="stroke:#181818;stroke-width:0.5;" x1="183.5" x2="351.5" y1="206.0791" y2="206.0791"/><ellipse cx="193.5" cy="221.1187" fill="#000000" rx="3" ry="3" style="stroke:#000000;stroke-width:1.0;"/><text fill="#000000" font-family="sans-serif" font-size="14" lengthAdjust="spacing" textLength="11" x="202.5" y="225.7744">id</text><text fill="#000000" font-family="sans-serif" font-size="14" lengthAdjust="spacing" textLength="47" x="202.5" y="244.8535">user_id</text><line style="stroke:#181818;stroke-width:0.5;" x1="183.5" x2="351.5" y1="252.2373" y2="252.2373"/></g><!--class image_search_results--><g id="elem_image_search_results"><rect codeLine="154" fill="#F1F1F1" height="105.2373" id="image_search_results" rx="2.5" ry="2.5" style="stroke:#181818;stroke-width:0.5;" width="176" x="67.5" y="339.0791"/><ellipse cx="84.75" cy="355.0791" fill="#ADD1B2" rx="11" ry="11" style="stroke:#181818;stroke-width:1.0;"/><path d="M83.6094,355.876 L83.6094,358.376 L87.9375,358.376 L87.9375,357.4541 Q87.9375,356.8447 88.1719,356.5791 Q88.4219,356.3135 88.7969,356.3135 Q89.1719,356.3135 89.4063,356.5791 Q89.6406,356.8447 89.6406,357.4541 L89.6406,360.0791 L81.6406,360.0791 Q81.0156,360.0791 80.75,359.8447 Q80.5,359.6104 80.5,359.2197 Q80.5,358.8447 80.7656,358.6104 Q81.0313,358.376 81.6406,358.376 L81.9063,358.376 L81.9063,351.7197 L81.6406,351.7197 Q81.0156,351.7197 80.75,351.4854 Q80.5,351.251 80.5,350.8604 Q80.5,350.4854 80.75,350.251 Q81.0156,350.0166 81.6406,350.0166 L89.2656,350.0166 L89.2656,352.6104 Q89.2656,353.2197 89.0313,353.4854 Q88.8125,353.7354 88.4219,353.7354 Q88.0469,353.7354 87.8125,353.4854 Q87.5781,353.2197 87.5781,352.6104 L87.5781,351.7197 L83.6094,351.7197 L83.6094,354.1729 L85.0938,354.1729 Q85.0938,353.5166 85.2188,353.3291 Q85.4844,352.9229 85.9531,352.9229 Q86.3281,352.9229 86.5625,353.1885 Q86.7969,353.4385 86.7969,354.0479 L86.7969,356.0166 Q86.7969,356.5635 86.6719,356.751 Q86.4063,357.1416 85.9531,357.1416 Q85.4844,357.1416 85.2188,356.7354 Q85.0938,356.5479 85.0938,355.876 L83.6094,355.876 Z " fill="#000000"/><text fill="#000000" font-family="sans-serif" font-size="14" lengthAdjust="spacing" textLength="139" x="99.25" y="361.2349">image_search_results</text><line style="stroke:#181818;stroke-width:0.5;" x1="68.5" x2="242.5" y1="371.0791" y2="371.0791"/><ellipse cx="78.5" cy="386.1187" fill="#000000" rx="3" ry="3" style="stroke:#000000;stroke-width:1.0;"/><text fill="#000000" font-family="sans-serif" font-size="14" lengthAdjust="spacing" textLength="11" x="87.5" y="390.7744">id</text><text fill="#000000" font-family="sans-serif" font-size="14" lengthAdjust="spacing" textLength="150" x="87.5" y="409.8535">image_search_place_id</text><text fill="#000000" font-family="sans-serif" font-size="14" lengthAdjust="spacing" textLength="53" x="87.5" y="428.9326">place_id</text><line style="stroke:#181818;stroke-width:0.5;" x1="68.5" x2="242.5" y1="436.3164" y2="436.3164"/></g><!--class users--><g id="elem_users"><rect fill="#F1F1F1" height="48" id="users" rx="2.5" ry="2.5" style="stroke:#181818;stroke-width:0.5;" width="67" x="234" y="47.0791"/><ellipse cx="249" cy="63.0791" fill="#ADD1B2" rx="11" ry="11" style="stroke:#181818;stroke-width:1.0;"/><path d="M251.7656,58.9541 Q251.9219,58.7354 252.1094,58.626 Q252.2969,58.5166 252.5156,58.5166 Q252.8906,58.5166 253.125,58.7822 Q253.3594,59.0322 253.3594,59.6416 L253.3594,61.0947 Q253.3594,61.7041 253.125,61.9697 Q252.8906,62.2354 252.5156,62.2354 Q252.1719,62.2354 251.9688,62.0322 Q251.7656,61.8447 251.6563,61.3291 Q251.6094,60.9697 251.4219,60.7822 Q251.0938,60.4072 250.4844,60.1885 Q249.875,59.9697 249.25,59.9697 Q248.4844,59.9697 247.8438,60.2979 Q247.2188,60.626 246.7188,61.376 Q246.2344,62.126 246.2344,63.1572 L246.2344,64.251 Q246.2344,65.4854 247.125,66.3135 Q248.0156,67.126 249.6094,67.126 Q250.5469,67.126 251.2031,66.876 Q251.5938,66.7197 252.0156,66.2822 Q252.2813,66.0166 252.4219,65.9385 Q252.5781,65.8604 252.7813,65.8604 Q253.1094,65.8604 253.3594,66.126 Q253.625,66.376 253.625,66.7197 Q253.625,67.0635 253.2813,67.4697 Q252.7813,68.0479 251.9844,68.376 Q250.9063,68.8291 249.6094,68.8291 Q248.0938,68.8291 246.8906,68.2041 Q245.9063,67.7041 245.2188,66.6416 Q244.5313,65.5635 244.5313,64.2822 L244.5313,63.126 Q244.5313,61.7979 245.1406,60.6572 Q245.7656,59.501 246.8594,58.8916 Q247.9531,58.2666 249.1875,58.2666 Q249.9219,58.2666 250.5625,58.4385 Q251.2188,58.5947 251.7656,58.9541 Z " fill="#000000"/><text fill="#000000" font-family="sans-serif" font-size="14" lengthAdjust="spacing" textLength="35" x="263" y="69.2349">users</text><line style="stroke:#181818;stroke-width:0.5;" x1="235" x2="300" y1="79.0791" y2="79.0791"/><line style="stroke:#181818;stroke-width:0.5;" x1="235" x2="300" y1="87.0791" y2="87.0791"/></g><!--link users to image_search_places--><g id="link_users_image_search_places"><path codeLine="160" d="M267.5,103.2191 C267.5,124.3591 267.5,130.1591 267.5,155.8291 " fill="none" id="users-image_search_places" style="stroke:#181818;stroke-width:1.0;"/><line style="stroke:#181818;stroke-width:1.0;" x1="263.5" x2="271.5" y1="99.2191" y2="99.2191"/><line style="stroke:#181818;stroke-width:1.0;" x1="263.5" x2="271.5" y1="102.2191" y2="102.2191"/><line style="stroke:#181818;stroke-width:1.0;" x1="267.5" x2="267.5" y1="103.2191" y2="95.2191"/><line style="stroke:#181818;stroke-width:1.0;" x1="267.5" x2="273.5" y1="165.8291" y2="173.8291"/><line style="stroke:#181818;stroke-width:1.0;" x1="267.5" x2="261.5" y1="165.8291" y2="173.8291"/><line style="stroke:#181818;stroke-width:1.0;" x1="267.5" x2="267.5" y1="165.8291" y2="173.8291"/><ellipse cx="267.5" cy="159.8291" fill="none" rx="4" ry="4" style="stroke:#181818;stroke-width:1.0;"/><text fill="#000000" font-family="sans-serif" font-size="13" lengthAdjust="spacing" textLength="175" x="268.5" y="140.6533">fk_image_search_places_user</text></g><!--link image_search_places to image_search_results--><g id="link_image_search_places_image_search_results"><path codeLine="161" d="M249.752,267.7101 C243.362,283.5801 238.11,294.0091 228.5,309.0791 C222.07,319.1691 225.9735,315.4599 218.0335,324.8899 " fill="none" id="image_search_places-image_search_results" style="stroke:#181818;stroke-width:1.0;"/><line style="stroke:#181818;stroke-width:1.0;" x1="247.5355" x2="254.9565" y1="262.5056" y2="265.4936"/><line style="stroke:#181818;stroke-width:1.0;" x1="246.4149" x2="253.836" y1="265.2885" y2="268.2765"/><line style="stroke:#181818;stroke-width:1.0;" x1="249.752" x2="252.74" y1="267.7101" y2="260.2891"/><line style="stroke:#181818;stroke-width:1.0;" x1="211.5927" x2="211.0297" y1="332.5395" y2="342.5236"/><line style="stroke:#181818;stroke-width:1.0;" x1="211.5927" x2="201.8503" y1="332.5395" y2="334.7946"/><line style="stroke:#181818;stroke-width:1.0;" x1="211.5927" x2="206.44" y1="332.5395" y2="338.6591"/><ellipse cx="215.4572" cy="327.9498" fill="none" rx="4" ry="4" style="stroke:#181818;stroke-width:1.0;"/><text fill="#000000" font-family="sans-serif" font-size="13" lengthAdjust="spacing" textLength="228" x="240.5" y="305.6533">fk_image_search_results_search_place</text></g><!--link places to image_search_results--><g id="link_places_image_search_results"><path codeLine="162" d="M31.0037,258.7928 C27.0237,276.9128 27.19,291.4191 36.5,309.0791 C43.92,323.1491 41.0782,323.8028 53.5182,334.0528 " fill="none" id="places-image_search_results" style="stroke:#181818;stroke-width:1.0;"/><line style="stroke:#181818;stroke-width:1.0;" x1="27.955" x2="35.7687" y1="254.0278" y2="255.7441"/><line style="stroke:#181818;stroke-width:1.0;" x1="27.3114" x2="35.1251" y1="256.958" y2="258.6743"/><line style="stroke:#181818;stroke-width:1.0;" x1="31.0037" x2="32.72" y1="258.7928" y2="250.9791"/><line style="stroke:#181818;stroke-width:1.0;" x1="61.2358" x2="71.2254" y1="340.4119" y2="340.8685"/><line style="stroke:#181818;stroke-width:1.0;" x1="61.2358" x2="63.5946" y1="340.4119" y2="350.1297"/><line style="stroke:#181818;stroke-width:1.0;" x1="61.2358" x2="67.41" y1="340.4119" y2="345.4991"/><ellipse cx="56.6052" cy="336.5965" fill="none" rx="4" ry="4" style="stroke:#181818;stroke-width:1.0;"/><text fill="#000000" font-family="sans-serif" font-size="13" lengthAdjust="spacing" textLength="182" x="37.5" y="305.6533">fk_image_search_results_place</text></g><!--SRC=[hLXTRvim57tthx3sq8z9_GELzi0wrg8bQHJefZuXZtY9LGCHTZ9bxVxxZ0t4nYR0IbvQZkyvrxxtsbnp2J-zumSkuLFehq9u0Rsdw04klNjVOE-Iv8HJ39yOBbWfk-TR070cq2FSI_0LGF7x2CaQtiBFmRsOGE3D97Xp8_yG5gE4amEMJnGn7jDyGx8OSObaA5L3E4M4olzsHVwBK1oJ56rml2ye-6kuZSbQFX5yTWALgSA3HLHh7mIzq2HPncAUl-1id9eGK35uUxkvoL-jcTt23xzUuXOgdp-OHCs_ufo0oXna-FTEn0AyDv-NC5fvt_qPNCwynI9Ot4zO9L613fZ29KLPHh9D4rukyNWdS3t0Ub2rP5JMQtIqZ3KX9qSC9DXY2INJEjaNXVXNLMMxY5gE4jpbAHDPGZkspVcvHHbvDW9n2qMYTKIc6XWs9a-6HAULWBG4keNbBC6MDm6Lni0qgfYE-4YwZIjYvoAr2BLNUnfIovwmm5V-zy3_0PUFOHHEMDqhV23ujpW4bpdZh2c8GiBnhWHxwhM4AdF6ZxHLMRMGY4aURufylxFqD5_TN8ibjPpsMyIs76t-qrl5FklFLSr6n6HTw8YgPyEcnTC3PD2r0Sa4BeP3p273bFcvURI2fqkOGyPSMYodf5Eidj646yKBeBVmPizXCEK-ALKpH8-Cd3O98lLgK3NKTMIUBRoJZDm_NHLR- -WYTnMkWzwnPOq3px4ucJyRLqUTgwP6QCXgSjXRIbMCMZeARMY3bCowj76NMkLzl9OaTWhr71wAFE4U4MtIdJ_bzbYgL-q53ChU5eOO5ScffxOxc5C1gsQOIK97gsDtKmQfm6nFxTUKBLoNlju06JNlcelCXcD0LRsBuHAhvsYhLIE61dYNafAOi5hk7loxRxCWZ2OicBijJbue4Pk-wLzhP43-6zkOS9nQ16tOJhBcH_L_pRDAgJRUPbJUJ9e2Jy_JHjwBuDoVFwwU9uqzud2EqxmuQX55F4vBZE112QZDZ_419pml1byNJ4zLB3L8PQ63SlBM8ZO3apVU3u-Hk5YA1jbxdlkBAVV0Gyx5nL8eesCguje4TrlYySyyVn7tpG79s2b-UH79M7cDoUqRgQ7fIalBgGolYQd8jkmgjdCAKiCrKjEdJDFNfzaCXkAecdiJfaYgVl4YxxCN-hNybKSfZD1FAjzuAqoHNDLrkOeL9bb2zsiCaJ1gFffSiNsQeeBymUlhyzzNkhwXTD-v1rnK-rgxtjTWrn5wPcltRk5pzGVwlXZqVXiO-X6W_pOtzDes-68s_Furwdu51lRW8zhiGGthg6PxH2yDndPN0zecqFzw1oEEEF0F]--></g></svg>