<?xml version="1.0" encoding="us-ascii" standalone="no"?><svg xmlns="http://www.w3.org/2000/svg" xmlns:xlink="http://www.w3.org/1999/xlink" contentStyleType="text/css" height="616px" preserveAspectRatio="none" style="width:466px;height:616px;background:#FFFFFF;" version="1.1" viewBox="0 0 466 616" width="466px" zoomAndPan="magnify"><defs/><g><text fill="#000000" font-family="sans-serif" font-size="14" font-weight="bold" lengthAdjust="spacing" textLength="109" x="171.5" y="25.6953">Review &amp; Posts</text><!--class review_posts--><g id="elem_review_posts"><rect codeLine="75" fill="#F1F1F1" height="105.2373" id="review_posts" rx="2.5" ry="2.5" style="stroke:#181818;stroke-width:0.5;" width="122" x="135" y="174.0791"/><ellipse cx="153.6" cy="190.0791" fill="#ADD1B2" rx="11" ry="11" style="stroke:#181818;stroke-width:1.0;"/><path d="M152.4594,190.876 L152.4594,193.376 L156.7875,193.376 L156.7875,192.4541 Q156.7875,191.8447 157.0219,191.5791 Q157.2719,191.3135 157.6469,191.3135 Q158.0219,191.3135 158.2563,191.5791 Q158.4906,191.8447 158.4906,192.4541 L158.4906,195.0791 L150.4906,195.0791 Q149.8656,195.0791 149.6,194.8447 Q149.35,194.6104 149.35,194.2197 Q149.35,193.8447 149.6156,193.6104 Q149.8813,193.376 150.4906,193.376 L150.7563,193.376 L150.7563,186.7197 L150.4906,186.7197 Q149.8656,186.7197 149.6,186.4854 Q149.35,186.251 149.35,185.8604 Q149.35,185.4854 149.6,185.251 Q149.8656,185.0166 150.4906,185.0166 L158.1156,185.0166 L158.1156,187.6104 Q158.1156,188.2197 157.8813,188.4854 Q157.6625,188.7354 157.2719,188.7354 Q156.8969,188.7354 156.6625,188.4854 Q156.4281,188.2197 156.4281,187.6104 L156.4281,186.7197 L152.4594,186.7197 L152.4594,189.1729 L153.9438,189.1729 Q153.9438,188.5166 154.0688,188.3291 Q154.3344,187.9229 154.8031,187.9229 Q155.1781,187.9229 155.4125,188.1885 Q155.6469,188.4385 155.6469,189.0479 L155.6469,191.0166 Q155.6469,191.5635 155.5219,191.751 Q155.2563,192.1416 154.8031,192.1416 Q154.3344,192.1416 154.0688,191.7354 Q153.9438,191.5479 153.9438,190.876 L152.4594,190.876 Z " fill="#000000"/><text fill="#000000" font-family="sans-serif" font-size="14" lengthAdjust="spacing" textLength="82" x="168.4" y="196.2349">review_posts</text><line style="stroke:#181818;stroke-width:0.5;" x1="136" x2="256" y1="206.0791" y2="206.0791"/><ellipse cx="146" cy="221.1187" fill="#000000" rx="3" ry="3" style="stroke:#000000;stroke-width:1.0;"/><text fill="#000000" font-family="sans-serif" font-size="14" lengthAdjust="spacing" textLength="11" x="155" y="225.7744">id</text><text fill="#000000" font-family="sans-serif" font-size="14" lengthAdjust="spacing" textLength="89" x="155" y="244.8535">travel_plan_id</text><text fill="#000000" font-family="sans-serif" font-size="14" lengthAdjust="spacing" textLength="96" x="155" y="263.9326">review_style_id</text><line style="stroke:#181818;stroke-width:0.5;" x1="136" x2="256" y1="271.3164" y2="271.3164"/></g><!--class review_photo_groups--><g id="elem_review_photo_groups"><rect codeLine="81" fill="#F1F1F1" height="86.1582" id="review_photo_groups" rx="2.5" ry="2.5" style="stroke:#181818;stroke-width:0.5;" width="168" x="7" y="358.0791"/><ellipse cx="22" cy="374.0791" fill="#ADD1B2" rx="11" ry="11" style="stroke:#181818;stroke-width:1.0;"/><path d="M20.8594,374.876 L20.8594,377.376 L25.1875,377.376 L25.1875,376.4541 Q25.1875,375.8447 25.4219,375.5791 Q25.6719,375.3135 26.0469,375.3135 Q26.4219,375.3135 26.6563,375.5791 Q26.8906,375.8447 26.8906,376.4541 L26.8906,379.0791 L18.8906,379.0791 Q18.2656,379.0791 18,378.8447 Q17.75,378.6104 17.75,378.2197 Q17.75,377.8447 18.0156,377.6104 Q18.2813,377.376 18.8906,377.376 L19.1563,377.376 L19.1563,370.7197 L18.8906,370.7197 Q18.2656,370.7197 18,370.4854 Q17.75,370.251 17.75,369.8604 Q17.75,369.4854 18,369.251 Q18.2656,369.0166 18.8906,369.0166 L26.5156,369.0166 L26.5156,371.6104 Q26.5156,372.2197 26.2813,372.4854 Q26.0625,372.7354 25.6719,372.7354 Q25.2969,372.7354 25.0625,372.4854 Q24.8281,372.2197 24.8281,371.6104 L24.8281,370.7197 L20.8594,370.7197 L20.8594,373.1729 L22.3438,373.1729 Q22.3438,372.5166 22.4688,372.3291 Q22.7344,371.9229 23.2031,371.9229 Q23.5781,371.9229 23.8125,372.1885 Q24.0469,372.4385 24.0469,373.0479 L24.0469,375.0166 Q24.0469,375.5635 23.9219,375.751 Q23.6563,376.1416 23.2031,376.1416 Q22.7344,376.1416 22.4688,375.7354 Q22.3438,375.5479 22.3438,374.876 L20.8594,374.876 Z " fill="#000000"/><text fill="#000000" font-family="sans-serif" font-size="14" lengthAdjust="spacing" textLength="136" x="36" y="380.2349">review_photo_groups</text><line style="stroke:#181818;stroke-width:0.5;" x1="8" x2="174" y1="390.0791" y2="390.0791"/><ellipse cx="18" cy="405.1187" fill="#000000" rx="3" ry="3" style="stroke:#000000;stroke-width:1.0;"/><text fill="#000000" font-family="sans-serif" font-size="14" lengthAdjust="spacing" textLength="11" x="27" y="409.7744">id</text><text fill="#000000" font-family="sans-serif" font-size="14" lengthAdjust="spacing" textLength="94" x="27" y="428.8535">review_post_id</text><line style="stroke:#181818;stroke-width:0.5;" x1="8" x2="174" y1="436.2373" y2="436.2373"/></g><!--class review_photos--><g id="elem_review_photos"><rect codeLine="86" fill="#F1F1F1" height="86.1582" id="review_photos" rx="2.5" ry="2.5" style="stroke:#181818;stroke-width:0.5;" width="123" x="29.5" y="523.0791"/><ellipse cx="44.5" cy="539.0791" fill="#ADD1B2" rx="11" ry="11" style="stroke:#181818;stroke-width:1.0;"/><path d="M43.3594,539.876 L43.3594,542.376 L47.6875,542.376 L47.6875,541.4541 Q47.6875,540.8447 47.9219,540.5791 Q48.1719,540.3135 48.5469,540.3135 Q48.9219,540.3135 49.1563,540.5791 Q49.3906,540.8447 49.3906,541.4541 L49.3906,544.0791 L41.3906,544.0791 Q40.7656,544.0791 40.5,543.8447 Q40.25,543.6104 40.25,543.2197 Q40.25,542.8447 40.5156,542.6104 Q40.7813,542.376 41.3906,542.376 L41.6563,542.376 L41.6563,535.7197 L41.3906,535.7197 Q40.7656,535.7197 40.5,535.4854 Q40.25,535.251 40.25,534.8604 Q40.25,534.4854 40.5,534.251 Q40.7656,534.0166 41.3906,534.0166 L49.0156,534.0166 L49.0156,536.6104 Q49.0156,537.2197 48.7813,537.4854 Q48.5625,537.7354 48.1719,537.7354 Q47.7969,537.7354 47.5625,537.4854 Q47.3281,537.2197 47.3281,536.6104 L47.3281,535.7197 L43.3594,535.7197 L43.3594,538.1729 L44.8438,538.1729 Q44.8438,537.5166 44.9688,537.3291 Q45.2344,536.9229 45.7031,536.9229 Q46.0781,536.9229 46.3125,537.1885 Q46.5469,537.4385 46.5469,538.0479 L46.5469,540.0166 Q46.5469,540.5635 46.4219,540.751 Q46.1563,541.1416 45.7031,541.1416 Q45.2344,541.1416 44.9688,540.7354 Q44.8438,540.5479 44.8438,539.876 L43.3594,539.876 Z " fill="#000000"/><text fill="#000000" font-family="sans-serif" font-size="14" lengthAdjust="spacing" textLength="91" x="58.5" y="545.2349">review_photos</text><line style="stroke:#181818;stroke-width:0.5;" x1="30.5" x2="151.5" y1="555.0791" y2="555.0791"/><ellipse cx="40.5" cy="570.1187" fill="#000000" rx="3" ry="3" style="stroke:#000000;stroke-width:1.0;"/><text fill="#000000" font-family="sans-serif" font-size="14" lengthAdjust="spacing" textLength="11" x="49.5" y="574.7744">id</text><text fill="#000000" font-family="sans-serif" font-size="14" lengthAdjust="spacing" textLength="56" x="49.5" y="593.8535">group_id</text><line style="stroke:#181818;stroke-width:0.5;" x1="30.5" x2="151.5" y1="601.2373" y2="601.2373"/></g><!--class review_hashtag_groups--><g id="elem_review_hashtag_groups"><rect codeLine="91" fill="#F1F1F1" height="86.1582" id="review_hashtag_groups" rx="2.5" ry="2.5" style="stroke:#181818;stroke-width:0.5;" width="183" x="210.5" y="358.0791"/><ellipse cx="225.5" cy="374.0791" fill="#ADD1B2" rx="11" ry="11" style="stroke:#181818;stroke-width:1.0;"/><path d="M224.3594,374.876 L224.3594,377.376 L228.6875,377.376 L228.6875,376.4541 Q228.6875,375.8447 228.9219,375.5791 Q229.1719,375.3135 229.5469,375.3135 Q229.9219,375.3135 230.1563,375.5791 Q230.3906,375.8447 230.3906,376.4541 L230.3906,379.0791 L222.3906,379.0791 Q221.7656,379.0791 221.5,378.8447 Q221.25,378.6104 221.25,378.2197 Q221.25,377.8447 221.5156,377.6104 Q221.7813,377.376 222.3906,377.376 L222.6563,377.376 L222.6563,370.7197 L222.3906,370.7197 Q221.7656,370.7197 221.5,370.4854 Q221.25,370.251 221.25,369.8604 Q221.25,369.4854 221.5,369.251 Q221.7656,369.0166 222.3906,369.0166 L230.0156,369.0166 L230.0156,371.6104 Q230.0156,372.2197 229.7813,372.4854 Q229.5625,372.7354 229.1719,372.7354 Q228.7969,372.7354 228.5625,372.4854 Q228.3281,372.2197 228.3281,371.6104 L228.3281,370.7197 L224.3594,370.7197 L224.3594,373.1729 L225.8438,373.1729 Q225.8438,372.5166 225.9688,372.3291 Q226.2344,371.9229 226.7031,371.9229 Q227.0781,371.9229 227.3125,372.1885 Q227.5469,372.4385 227.5469,373.0479 L227.5469,375.0166 Q227.5469,375.5635 227.4219,375.751 Q227.1563,376.1416 226.7031,376.1416 Q226.2344,376.1416 225.9688,375.7354 Q225.8438,375.5479 225.8438,374.876 L224.3594,374.876 Z " fill="#000000"/><text fill="#000000" font-family="sans-serif" font-size="14" lengthAdjust="spacing" textLength="151" x="239.5" y="380.2349">review_hashtag_groups</text><line style="stroke:#181818;stroke-width:0.5;" x1="211.5" x2="392.5" y1="390.0791" y2="390.0791"/><ellipse cx="221.5" cy="405.1187" fill="#000000" rx="3" ry="3" style="stroke:#000000;stroke-width:1.0;"/><text fill="#000000" font-family="sans-serif" font-size="14" lengthAdjust="spacing" textLength="11" x="230.5" y="409.7744">id</text><text fill="#000000" font-family="sans-serif" font-size="14" lengthAdjust="spacing" textLength="94" x="230.5" y="428.8535">review_post_id</text><line style="stroke:#181818;stroke-width:0.5;" x1="211.5" x2="392.5" y1="436.2373" y2="436.2373"/></g><!--class review_hashtags--><g id="elem_review_hashtags"><rect codeLine="96" fill="#F1F1F1" height="86.1582" id="review_hashtags" rx="2.5" ry="2.5" style="stroke:#181818;stroke-width:0.5;" width="138" x="233" y="523.0791"/><ellipse cx="248" cy="539.0791" fill="#ADD1B2" rx="11" ry="11" style="stroke:#181818;stroke-width:1.0;"/><path d="M246.8594,539.876 L246.8594,542.376 L251.1875,542.376 L251.1875,541.4541 Q251.1875,540.8447 251.4219,540.5791 Q251.6719,540.3135 252.0469,540.3135 Q252.4219,540.3135 252.6563,540.5791 Q252.8906,540.8447 252.8906,541.4541 L252.8906,544.0791 L244.8906,544.0791 Q244.2656,544.0791 244,543.8447 Q243.75,543.6104 243.75,543.2197 Q243.75,542.8447 244.0156,542.6104 Q244.2813,542.376 244.8906,542.376 L245.1563,542.376 L245.1563,535.7197 L244.8906,535.7197 Q244.2656,535.7197 244,535.4854 Q243.75,535.251 243.75,534.8604 Q243.75,534.4854 244,534.251 Q244.2656,534.0166 244.8906,534.0166 L252.5156,534.0166 L252.5156,536.6104 Q252.5156,537.2197 252.2813,537.4854 Q252.0625,537.7354 251.6719,537.7354 Q251.2969,537.7354 251.0625,537.4854 Q250.8281,537.2197 250.8281,536.6104 L250.8281,535.7197 L246.8594,535.7197 L246.8594,538.1729 L248.3438,538.1729 Q248.3438,537.5166 248.4688,537.3291 Q248.7344,536.9229 249.2031,536.9229 Q249.5781,536.9229 249.8125,537.1885 Q250.0469,537.4385 250.0469,538.0479 L250.0469,540.0166 Q250.0469,540.5635 249.9219,540.751 Q249.6563,541.1416 249.2031,541.1416 Q248.7344,541.1416 248.4688,540.7354 Q248.3438,540.5479 248.3438,539.876 L246.8594,539.876 Z " fill="#000000"/><text fill="#000000" font-family="sans-serif" font-size="14" lengthAdjust="spacing" textLength="106" x="262" y="545.2349">review_hashtags</text><line style="stroke:#181818;stroke-width:0.5;" x1="234" x2="370" y1="555.0791" y2="555.0791"/><ellipse cx="244" cy="570.1187" fill="#000000" rx="3" ry="3" style="stroke:#000000;stroke-width:1.0;"/><text fill="#000000" font-family="sans-serif" font-size="14" lengthAdjust="spacing" textLength="11" x="253" y="574.7744">id</text><text fill="#000000" font-family="sans-serif" font-size="14" lengthAdjust="spacing" textLength="56" x="253" y="593.8535">group_id</text><line style="stroke:#181818;stroke-width:0.5;" x1="234" x2="370" y1="601.2373" y2="601.2373"/></g><!--class travel_plans--><g id="elem_travel_plans"><rect fill="#F1F1F1" height="48" id="travel_plans" rx="2.5" ry="2.5" style="stroke:#181818;stroke-width:0.5;" width="109" x="141.5" y="47.0791"/><ellipse cx="156.5" cy="63.0791" fill="#ADD1B2" rx="11" ry="11" style="stroke:#181818;stroke-width:1.0;"/><path d="M159.2656,58.9541 Q159.4219,58.7354 159.6094,58.626 Q159.7969,58.5166 160.0156,58.5166 Q160.3906,58.5166 160.625,58.7822 Q160.8594,59.0322 160.8594,59.6416 L160.8594,61.0947 Q160.8594,61.7041 160.625,61.9697 Q160.3906,62.2354 160.0156,62.2354 Q159.6719,62.2354 159.4688,62.0322 Q159.2656,61.8447 159.1563,61.3291 Q159.1094,60.9697 158.9219,60.7822 Q158.5938,60.4072 157.9844,60.1885 Q157.375,59.9697 156.75,59.9697 Q155.9844,59.9697 155.3438,60.2979 Q154.7188,60.626 154.2188,61.376 Q153.7344,62.126 153.7344,63.1572 L153.7344,64.251 Q153.7344,65.4854 154.625,66.3135 Q155.5156,67.126 157.1094,67.126 Q158.0469,67.126 158.7031,66.876 Q159.0938,66.7197 159.5156,66.2822 Q159.7813,66.0166 159.9219,65.9385 Q160.0781,65.8604 160.2813,65.8604 Q160.6094,65.8604 160.8594,66.126 Q161.125,66.376 161.125,66.7197 Q161.125,67.0635 160.7813,67.4697 Q160.2813,68.0479 159.4844,68.376 Q158.4063,68.8291 157.1094,68.8291 Q155.5938,68.8291 154.3906,68.2041 Q153.4063,67.7041 152.7188,66.6416 Q152.0313,65.5635 152.0313,64.2822 L152.0313,63.126 Q152.0313,61.7979 152.6406,60.6572 Q153.2656,59.501 154.3594,58.8916 Q155.4531,58.2666 156.6875,58.2666 Q157.4219,58.2666 158.0625,58.4385 Q158.7188,58.5947 159.2656,58.9541 Z " fill="#000000"/><text fill="#000000" font-family="sans-serif" font-size="14" lengthAdjust="spacing" textLength="77" x="170.5" y="69.2349">travel_plans</text><line style="stroke:#181818;stroke-width:0.5;" x1="142.5" x2="249.5" y1="79.0791" y2="79.0791"/><line style="stroke:#181818;stroke-width:0.5;" x1="142.5" x2="249.5" y1="87.0791" y2="87.0791"/></g><!--link travel_plans to review_posts--><g id="link_travel_plans_review_posts"><path codeLine="101" d="M196,103.3891 C196,124.1891 196,129.3891 196,156.0291 " fill="none" id="travel_plans-review_posts" style="stroke:#181818;stroke-width:1.0;"/><line style="stroke:#181818;stroke-width:1.0;" x1="192" x2="200" y1="99.3891" y2="99.3891"/><line style="stroke:#181818;stroke-width:1.0;" x1="192" x2="200" y1="102.3891" y2="102.3891"/><line style="stroke:#181818;stroke-width:1.0;" x1="196" x2="196" y1="103.3891" y2="95.3891"/><line style="stroke:#181818;stroke-width:1.0;" x1="196" x2="202" y1="166.0291" y2="174.0291"/><line style="stroke:#181818;stroke-width:1.0;" x1="196" x2="190" y1="166.0291" y2="174.0291"/><line style="stroke:#181818;stroke-width:1.0;" x1="196" x2="196" y1="166.0291" y2="174.0291"/><ellipse cx="196" cy="160.0291" fill="none" rx="4" ry="4" style="stroke:#181818;stroke-width:1.0;"/><text fill="#000000" font-family="sans-serif" font-size="13" lengthAdjust="spacing" textLength="122" x="197" y="140.6533">fk_review_posts_plan</text></g><!--link review_posts to review_photo_groups--><g id="link_review_posts_review_photo_groups"><path codeLine="102" d="M128.2362,263.5981 C109.7362,276.4281 98.21,288.5791 88,309.0791 C80.6,323.9391 77.9723,323.9991 79.5823,340.0391 " fill="none" id="review_posts-review_photo_groups" style="stroke:#181818;stroke-width:1.0;"/><line style="stroke:#181818;stroke-width:1.0;" x1="129.2436" x2="133.8026" y1="258.0317" y2="264.6055"/><line style="stroke:#181818;stroke-width:1.0;" x1="126.7784" x2="131.3374" y1="259.7413" y2="266.3152"/><line style="stroke:#181818;stroke-width:1.0;" x1="128.2362" x2="134.81" y1="263.5981" y2="259.0391"/><line style="stroke:#181818;stroke-width:1.0;" x1="80.581" x2="87.35" y1="349.9891" y2="357.3499"/><line style="stroke:#181818;stroke-width:1.0;" x1="80.581" x2="75.41" y1="349.9891" y2="358.5483"/><line style="stroke:#181818;stroke-width:1.0;" x1="80.581" x2="81.38" y1="349.9891" y2="357.9491"/><ellipse cx="79.9818" cy="344.0191" fill="none" rx="4" ry="4" style="stroke:#181818;stroke-width:1.0;"/><text fill="#000000" font-family="sans-serif" font-size="13" lengthAdjust="spacing" textLength="169" x="89" y="324.6533">fk_review_photo_groups_post</text></g><!--link review_photo_groups to review_photos--><g id="link_review_photo_groups_review_photos"><path codeLine="103" d="M91,452.4791 C91,476.6291 91,480.7791 91,504.8891 " fill="none" id="review_photo_groups-review_photos" style="stroke:#181818;stroke-width:1.0;"/><line style="stroke:#181818;stroke-width:1.0;" x1="87" x2="95" y1="448.4791" y2="448.4791"/><line style="stroke:#181818;stroke-width:1.0;" x1="87" x2="95" y1="451.4791" y2="451.4791"/><line style="stroke:#181818;stroke-width:1.0;" x1="91" x2="91" y1="452.4791" y2="444.4791"/><line style="stroke:#181818;stroke-width:1.0;" x1="91" x2="97" y1="514.8891" y2="522.8891"/><line style="stroke:#181818;stroke-width:1.0;" x1="91" x2="85" y1="514.8891" y2="522.8891"/><line style="stroke:#181818;stroke-width:1.0;" x1="91" x2="91" y1="514.8891" y2="522.8891"/><ellipse cx="91" cy="508.8891" fill="none" rx="4" ry="4" style="stroke:#181818;stroke-width:1.0;"/><text fill="#000000" font-family="sans-serif" font-size="13" lengthAdjust="spacing" textLength="137" x="92" y="489.6533">fk_review_photos_group</text></g><!--link review_posts to review_hashtag_groups--><g id="link_review_posts_review_hashtag_groups"><path codeLine="104" d="M247.1679,285.7489 C254.5879,295.2689 256.91,299.0591 263,309.0791 C272.2,324.2091 273.521,325.2185 279.931,340.9585 " fill="none" id="review_posts-review_hashtag_groups" style="stroke:#181818;stroke-width:1.0;"/><line style="stroke:#181818;stroke-width:1.0;" x1="241.5541" x2="247.8639" y1="285.053" y2="280.135"/><line style="stroke:#181818;stroke-width:1.0;" x1="243.3983" x2="249.7081" y1="287.4192" y2="282.5012"/><line style="stroke:#181818;stroke-width:1.0;" x1="247.1679" x2="242.25" y1="285.7489" y2="279.4391"/><line style="stroke:#181818;stroke-width:1.0;" x1="283.7027" x2="292.2769" y1="350.2199" y2="355.3661"/><line style="stroke:#181818;stroke-width:1.0;" x1="283.7027" x2="281.1631" y1="350.2199" y2="359.8921"/><line style="stroke:#181818;stroke-width:1.0;" x1="283.7027" x2="286.72" y1="350.2199" y2="357.6291"/><ellipse cx="281.4397" cy="344.6631" fill="none" rx="4" ry="4" style="stroke:#181818;stroke-width:1.0;"/><text fill="#000000" font-family="sans-serif" font-size="13" lengthAdjust="spacing" textLength="183" x="275" y="324.6533">fk_review_hashtag_groups_post</text></g><!--link review_hashtag_groups to review_hashtags--><g id="link_review_hashtag_groups_review_hashtags"><path codeLine="105" d="M302,452.4791 C302,476.6291 302,480.7791 302,504.8891 " fill="none" id="review_hashtag_groups-review_hashtags" style="stroke:#181818;stroke-width:1.0;"/><line style="stroke:#181818;stroke-width:1.0;" x1="298" x2="306" y1="448.4791" y2="448.4791"/><line style="stroke:#181818;stroke-width:1.0;" x1="298" x2="306" y1="451.4791" y2="451.4791"/><line style="stroke:#181818;stroke-width:1.0;" x1="302" x2="302" y1="452.4791" y2="444.4791"/><line style="stroke:#181818;stroke-width:1.0;" x1="302" x2="308" y1="514.8891" y2="522.8891"/><line style="stroke:#181818;stroke-width:1.0;" x1="302" x2="296" y1="514.8891" y2="522.8891"/><line style="stroke:#181818;stroke-width:1.0;" x1="302" x2="302" y1="514.8891" y2="522.8891"/><ellipse cx="302" cy="508.8891" fill="none" rx="4" ry="4" style="stroke:#181818;stroke-width:1.0;"/><text fill="#000000" font-family="sans-serif" font-size="13" lengthAdjust="spacing" textLength="151" x="303" y="489.6533">fk_review_hashtags_group</text></g><!--SRC=[hLXTRvim57tthx3sq8z9_GELzi0wrg8bQHJefZuXZtY9LGCHTZ9bxVxxZ0t4nYR0IbvQZkyvrxxtsbnp2J-zumSkuLFehq9u0Rsdw04klNjVOE-Iv8HJ39yOBbWfk-TR070cq2FSI_0LGF7x2CaQtiBFmRsOGE3D97Xp8_yG5gE4amEMJnGn7jDyGx8OSObaA5L3E4M4olzsHVwBK1oJ56rml2ye-6kuZSbQFX5yTWALgSA3HLHh7mIzq2HPncAUl-1id9eGK35uUxkvoL-jcTt23xzUuXOgdp-OHCs_ufo0oXna-FTEn0AyDv-NC5fvt_qPNCwynI9Ot4zO9L613fZ29KLPHh9D4rukyNWdS3t0Ub2rP5JMQtIqZ3KX9qSC9DXY2INJEjaNXVXNLMMxY5gE4jpbAHDPGZkspVcvHHbvDW9n2qMYTKIc6XWs9a-6HAULWBG4keNbBC6MDm6Lni0qgfYE-4YwZIjYvoAr2BLNUnfIovwmm5V-zy3_0PUFOHHEMDqhV23ujpW4bpdZh2c8GiBnhWHxwhM4AdF6ZxHLMRMGY4aURufylxFqD5_TN8ibjPpsMyIs76t-qrl5FklFLSr6n6HTw8YgPyEcnTC3PD2r0Sa4BeP3p273bFcvURI2fqkOGyPSMYodf5Eidj646yKBeBVmPizXCEK-ALKpH8-Cd3O98lLgK3NKTMIUBRoJZDm_NHLR- -WYTnMkWzwnPOq3px4ucJyRLqUTgwP6QCXgSjXRIbMCMZeARMY3bCowj76NMkLzl9OaTWhr71wAFE4U4MtIdJ_bzbYgL-q53ChU5eOO5ScffxOxc5C1gsQOIK97gsDtKmQfm6nFxTUKBLoNlju06JNlcelCXcD0LRsBuHAhvsYhLIE61dYNafAOi5hk7loxRxCWZ2OicBijJbue4Pk-wLzhP43-6zkOS9nQ16tOJhBcH_L_pRDAgJRUPbJUJ9e2Jy_JHjwBuDoVFwwU9uqzud2EqxmuQX55F4vBZE112QZDZ_419pml1byNJ4zLB3L8PQ63SlBM8ZO3apVU3u-Hk5YA1jbxdlkBAVV0Gyx5nL8eesCguje4TrlYySyyVn7tpG79s2b-UH79M7cDoUqRgQ7fIalBgGolYQd8jkmgjdCAKiCrKjEdJDFNfzaCXkAecdiJfaYgVl4YxxCN-hNybKSfZD1FAjzuAqoHNDLrkOeL9bb2zsiCaJ1gFffSiNsQeeBymUlhyzzNkhwXTD-v1rnK-rgxtjTWrn5wPcltRk5pzGVwlXZqVXiO-X6W_pOtzDes-68s_Furwdu51lRW8zhiGGthg6PxH2yDndPN0zecqFzw1oEEEF0F]--></g></svg>