<?xml version="1.0" encoding="us-ascii" standalone="no"?><svg xmlns="http://www.w3.org/2000/svg" xmlns:xlink="http://www.w3.org/1999/xlink" contentStyleType="text/css" height="267px" preserveAspectRatio="none" style="width:413px;height:267px;background:#FFFFFF;" version="1.1" viewBox="0 0 413 267" width="413px" zoomAndPan="magnify"><defs/><g><text fill="#000000" font-family="sans-serif" font-size="14" font-weight="bold" lengthAdjust="spacing" textLength="92" x="153.5" y="25.6953">Chat Memory</text><!--class chat_memories--><g id="elem_chat_memories"><rect codeLine="191" fill="#F1F1F1" height="86.1582" id="chat_memories" rx="2.5" ry="2.5" style="stroke:#181818;stroke-width:0.5;" width="128" x="7" y="174.0791"/><ellipse cx="22" cy="190.0791" fill="#ADD1B2" rx="11" ry="11" style="stroke:#181818;stroke-width:1.0;"/><path d="M20.8594,190.876 L20.8594,193.376 L25.1875,193.376 L25.1875,192.4541 Q25.1875,191.8447 25.4219,191.5791 Q25.6719,191.3135 26.0469,191.3135 Q26.4219,191.3135 26.6563,191.5791 Q26.8906,191.8447 26.8906,192.4541 L26.8906,195.0791 L18.8906,195.0791 Q18.2656,195.0791 18,194.8447 Q17.75,194.6104 17.75,194.2197 Q17.75,193.8447 18.0156,193.6104 Q18.2813,193.376 18.8906,193.376 L19.1563,193.376 L19.1563,186.7197 L18.8906,186.7197 Q18.2656,186.7197 18,186.4854 Q17.75,186.251 17.75,185.8604 Q17.75,185.4854 18,185.251 Q18.2656,185.0166 18.8906,185.0166 L26.5156,185.0166 L26.5156,187.6104 Q26.5156,188.2197 26.2813,188.4854 Q26.0625,188.7354 25.6719,188.7354 Q25.2969,188.7354 25.0625,188.4854 Q24.8281,188.2197 24.8281,187.6104 L24.8281,186.7197 L20.8594,186.7197 L20.8594,189.1729 L22.3438,189.1729 Q22.3438,188.5166 22.4688,188.3291 Q22.7344,187.9229 23.2031,187.9229 Q23.5781,187.9229 23.8125,188.1885 Q24.0469,188.4385 24.0469,189.0479 L24.0469,191.0166 Q24.0469,191.5635 23.9219,191.751 Q23.6563,192.1416 23.2031,192.1416 Q22.7344,192.1416 22.4688,191.7354 Q22.3438,191.5479 22.3438,190.876 L20.8594,190.876 Z " fill="#000000"/><text fill="#000000" font-family="sans-serif" font-size="14" lengthAdjust="spacing" textLength="96" x="36" y="196.2349">chat_memories</text><line style="stroke:#181818;stroke-width:0.5;" x1="8" x2="134" y1="206.0791" y2="206.0791"/><ellipse cx="18" cy="221.1187" fill="#000000" rx="3" ry="3" style="stroke:#000000;stroke-width:1.0;"/><text fill="#000000" font-family="sans-serif" font-size="14" lengthAdjust="spacing" textLength="11" x="27" y="225.7744">id</text><text fill="#000000" font-family="sans-serif" font-size="14" lengthAdjust="spacing" textLength="47" x="27" y="244.8535">user_id</text><line style="stroke:#181818;stroke-width:0.5;" x1="8" x2="134" y1="252.2373" y2="252.2373"/></g><!--class chat_memory_vectors--><g id="elem_chat_memory_vectors"><rect codeLine="196" fill="#F1F1F1" height="86.1582" id="chat_memory_vectors" rx="2.5" ry="2.5" style="stroke:#181818;stroke-width:0.5;" width="171" x="170.5" y="174.0791"/><ellipse cx="185.5" cy="190.0791" fill="#ADD1B2" rx="11" ry="11" style="stroke:#181818;stroke-width:1.0;"/><path d="M184.3594,190.876 L184.3594,193.376 L188.6875,193.376 L188.6875,192.4541 Q188.6875,191.8447 188.9219,191.5791 Q189.1719,191.3135 189.5469,191.3135 Q189.9219,191.3135 190.1563,191.5791 Q190.3906,191.8447 190.3906,192.4541 L190.3906,195.0791 L182.3906,195.0791 Q181.7656,195.0791 181.5,194.8447 Q181.25,194.6104 181.25,194.2197 Q181.25,193.8447 181.5156,193.6104 Q181.7813,193.376 182.3906,193.376 L182.6563,193.376 L182.6563,186.7197 L182.3906,186.7197 Q181.7656,186.7197 181.5,186.4854 Q181.25,186.251 181.25,185.8604 Q181.25,185.4854 181.5,185.251 Q181.7656,185.0166 182.3906,185.0166 L190.0156,185.0166 L190.0156,187.6104 Q190.0156,188.2197 189.7813,188.4854 Q189.5625,188.7354 189.1719,188.7354 Q188.7969,188.7354 188.5625,188.4854 Q188.3281,188.2197 188.3281,187.6104 L188.3281,186.7197 L184.3594,186.7197 L184.3594,189.1729 L185.8438,189.1729 Q185.8438,188.5166 185.9688,188.3291 Q186.2344,187.9229 186.7031,187.9229 Q187.0781,187.9229 187.3125,188.1885 Q187.5469,188.4385 187.5469,189.0479 L187.5469,191.0166 Q187.5469,191.5635 187.4219,191.751 Q187.1563,192.1416 186.7031,192.1416 Q186.2344,192.1416 185.9688,191.7354 Q185.8438,191.5479 185.8438,190.876 L184.3594,190.876 Z " fill="#000000"/><text fill="#000000" font-family="sans-serif" font-size="14" lengthAdjust="spacing" textLength="139" x="199.5" y="196.2349">chat_memory_vectors</text><line style="stroke:#181818;stroke-width:0.5;" x1="171.5" x2="340.5" y1="206.0791" y2="206.0791"/><ellipse cx="181.5" cy="221.1187" fill="#000000" rx="3" ry="3" style="stroke:#000000;stroke-width:1.0;"/><text fill="#000000" font-family="sans-serif" font-size="14" lengthAdjust="spacing" textLength="11" x="190.5" y="225.7744">id</text><text fill="#000000" font-family="sans-serif" font-size="14" lengthAdjust="spacing" textLength="47" x="190.5" y="244.8535">user_id</text><line style="stroke:#181818;stroke-width:0.5;" x1="171.5" x2="340.5" y1="252.2373" y2="252.2373"/></g><!--class users--><g id="elem_users"><rect fill="#F1F1F1" height="48" id="users" rx="2.5" ry="2.5" style="stroke:#181818;stroke-width:0.5;" width="67" x="129.5" y="47.0791"/><ellipse cx="144.5" cy="63.0791" fill="#ADD1B2" rx="11" ry="11" style="stroke:#181818;stroke-width:1.0;"/><path d="M147.2656,58.9541 Q147.4219,58.7354 147.6094,58.626 Q147.7969,58.5166 148.0156,58.5166 Q148.3906,58.5166 148.625,58.7822 Q148.8594,59.0322 148.8594,59.6416 L148.8594,61.0947 Q148.8594,61.7041 148.625,61.9697 Q148.3906,62.2354 148.0156,62.2354 Q147.6719,62.2354 147.4688,62.0322 Q147.2656,61.8447 147.1563,61.3291 Q147.1094,60.9697 146.9219,60.7822 Q146.5938,60.4072 145.9844,60.1885 Q145.375,59.9697 144.75,59.9697 Q143.9844,59.9697 143.3438,60.2979 Q142.7188,60.626 142.2188,61.376 Q141.7344,62.126 141.7344,63.1572 L141.7344,64.251 Q141.7344,65.4854 142.625,66.3135 Q143.5156,67.126 145.1094,67.126 Q146.0469,67.126 146.7031,66.876 Q147.0938,66.7197 147.5156,66.2822 Q147.7813,66.0166 147.9219,65.9385 Q148.0781,65.8604 148.2813,65.8604 Q148.6094,65.8604 148.8594,66.126 Q149.125,66.376 149.125,66.7197 Q149.125,67.0635 148.7813,67.4697 Q148.2813,68.0479 147.4844,68.376 Q146.4063,68.8291 145.1094,68.8291 Q143.5938,68.8291 142.3906,68.2041 Q141.4063,67.7041 140.7188,66.6416 Q140.0313,65.5635 140.0313,64.2822 L140.0313,63.126 Q140.0313,61.7979 140.6406,60.6572 Q141.2656,59.501 142.3594,58.8916 Q143.4531,58.2666 144.6875,58.2666 Q145.4219,58.2666 146.0625,58.4385 Q146.7188,58.5947 147.2656,58.9541 Z " fill="#000000"/><text fill="#000000" font-family="sans-serif" font-size="14" lengthAdjust="spacing" textLength="35" x="158.5" y="69.2349">users</text><line style="stroke:#181818;stroke-width:0.5;" x1="130.5" x2="195.5" y1="79.0791" y2="79.0791"/><line style="stroke:#181818;stroke-width:0.5;" x1="130.5" x2="195.5" y1="87.0791" y2="87.0791"/></g><!--link users to chat_memories--><g id="link_users_chat_memories"><path codeLine="201" d="M121.6691,85.6322 C101.5991,93.7922 85.2,104.2791 73,125.0791 C64.53,139.5291 61.8438,139.6409 62.6438,155.8709 " fill="none" id="users-chat_memories" style="stroke:#181818;stroke-width:1.0;"/><line style="stroke:#181818;stroke-width:1.0;" x1="123.868" x2="126.8811" y1="80.4202" y2="87.8311"/><line style="stroke:#181818;stroke-width:1.0;" x1="121.0889" x2="124.102" y1="81.5501" y2="88.961"/><line style="stroke:#181818;stroke-width:1.0;" x1="121.6691" x2="129.08" y1="85.6322" y2="82.6191"/><line style="stroke:#181818;stroke-width:1.0;" x1="63.1361" x2="69.5227" y1="165.8588" y2="173.5537"/><line style="stroke:#181818;stroke-width:1.0;" x1="63.1361" x2="57.5373" y1="165.8588" y2="174.1445"/><line style="stroke:#181818;stroke-width:1.0;" x1="63.1361" x2="63.53" y1="165.8588" y2="173.8491"/><ellipse cx="62.8408" cy="159.8661" fill="none" rx="4" ry="4" style="stroke:#181818;stroke-width:1.0;"/><text fill="#000000" font-family="sans-serif" font-size="13" lengthAdjust="spacing" textLength="138" x="74" y="140.6533">fk_chat_memories_user</text></g><!--link users to chat_memory_vectors--><g id="link_users_chat_memory_vectors"><path codeLine="202" d="M196.5561,100.8121 C205.7361,109.4821 209.66,114.3491 217,125.0791 C227.19,139.9791 228.9544,141.2229 235.3044,157.2629 " fill="none" id="users-chat_memory_vectors" style="stroke:#181818;stroke-width:1.0;"/><line style="stroke:#181818;stroke-width:1.0;" x1="190.9016" x2="196.3945" y1="100.9736" y2="95.1575"/><line style="stroke:#181818;stroke-width:1.0;" x1="193.0826" x2="198.5756" y1="103.0335" y2="97.2174"/><line style="stroke:#181818;stroke-width:1.0;" x1="196.5561" x2="190.74" y1="100.8121" y2="95.3191"/><line style="stroke:#181818;stroke-width:1.0;" x1="238.9853" x2="247.5087" y1="166.5608" y2="171.7906"/><line style="stroke:#181818;stroke-width:1.0;" x1="238.9853" x2="236.3513" y1="166.5608" y2="176.2076"/><line style="stroke:#181818;stroke-width:1.0;" x1="238.9853" x2="241.93" y1="166.5608" y2="173.9991"/><ellipse cx="236.7767" cy="160.982" fill="none" rx="4" ry="4" style="stroke:#181818;stroke-width:1.0;"/><text fill="#000000" font-family="sans-serif" font-size="13" lengthAdjust="spacing" textLength="176" x="229" y="140.6533">fk_chat_memory_vectors_user</text></g><!--SRC=[hLXTRvim57tthx3sq8z9_GELzi0wrg8bQHJefZuXZtY9LGCHTZ9bxVxxZ0t4nYR0IbvQZkyvrxxtsbnp2J-zumSkuLFehq9u0Rsdw04klNjVOE-Iv8HJ39yOBbWfk-TR070cq2FSI_0LGF7x2CaQtiBFmRsOGE3D97Xp8_yG5gE4amEMJnGn7jDyGx8OSObaA5L3E4M4olzsHVwBK1oJ56rml2ye-6kuZSbQFX5yTWALgSA3HLHh7mIzq2HPncAUl-1id9eGK35uUxkvoL-jcTt23xzUuXOgdp-OHCs_ufo0oXna-FTEn0AyDv-NC5fvt_qPNCwynI9Ot4zO9L613fZ29KLPHh9D4rukyNWdS3t0Ub2rP5JMQtIqZ3KX9qSC9DXY2INJEjaNXVXNLMMxY5gE4jpbAHDPGZkspVcvHHbvDW9n2qMYTKIc6XWs9a-6HAULWBG4keNbBC6MDm6Lni0qgfYE-4YwZIjYvoAr2BLNUnfIovwmm5V-zy3_0PUFOHHEMDqhV23ujpW4bpdZh2c8GiBnhWHxwhM4AdF6ZxHLMRMGY4aURufylxFqD5_TN8ibjPpsMyIs76t-qrl5FklFLSr6n6HTw8YgPyEcnTC3PD2r0Sa4BeP3p273bFcvURI2fqkOGyPSMYodf5Eidj646yKBeBVmPizXCEK-ALKpH8-Cd3O98lLgK3NKTMIUBRoJZDm_NHLR- -WYTnMkWzwnPOq3px4ucJyRLqUTgwP6QCXgSjXRIbMCMZeARMY3bCowj76NMkLzl9OaTWhr71wAFE4U4MtIdJ_bzbYgL-q53ChU5eOO5ScffxOxc5C1gsQOIK97gsDtKmQfm6nFxTUKBLoNlju06JNlcelCXcD0LRsBuHAhvsYhLIE61dYNafAOi5hk7loxRxCWZ2OicBijJbue4Pk-wLzhP43-6zkOS9nQ16tOJhBcH_L_pRDAgJRUPbJUJ9e2Jy_JHjwBuDoVFwwU9uqzud2EqxmuQX55F4vBZE112QZDZ_419pml1byNJ4zLB3L8PQ63SlBM8ZO3apVU3u-Hk5YA1jbxdlkBAVV0Gyx5nL8eesCguje4TrlYySyyVn7tpG79s2b-UH79M7cDoUqRgQ7fIalBgGolYQd8jkmgjdCAKiCrKjEdJDFNfzaCXkAecdiJfaYgVl4YxxCN-hNybKSfZD1FAjzuAqoHNDLrkOeL9bb2zsiCaJ1gFffSiNsQeeBymUlhyzzNkhwXTD-v1rnK-rgxtjTWrn5wPcltRk5pzGVwlXZqVXiO-X6W_pOtzDes-68s_Furwdu51lRW8zhiGGthg6PxH2yDndPN0zecqFzw1oEEEF0F]--></g></svg>