<?xml version="1.0" encoding="us-ascii" standalone="no"?><svg xmlns="http://www.w3.org/2000/svg" xmlns:xlink="http://www.w3.org/1999/xlink" contentStyleType="text/css" height="633px" preserveAspectRatio="none" style="width:1009px;height:633px;background:#FFFFFF;" version="1.1" viewBox="0 0 1009 633" width="1009px" zoomAndPan="magnify"><defs/><g><text fill="#000000" font-family="sans-serif" font-size="14" font-weight="bold" lengthAdjust="spacing" textLength="267" x="364" y="25.6953">[Cluster] Reviews, Social &amp; AI Analysis</text><!--cluster AI Analysis--><g id="cluster_AI Analysis"><path d="M237.5,209.0791 L312.5,209.0791 A3.75,3.75 0 0 1 315,211.5791 L322,234.1582 L771.5,234.1582 A2.5,2.5 0 0 1 774,236.6582 L774,611.5791 A2.5,2.5 0 0 1 771.5,614.0791 L237.5,614.0791 A2.5,2.5 0 0 1 235,611.5791 L235,211.5791 A2.5,2.5 0 0 1 237.5,209.0791 " fill="none" style="stroke:#000000;stroke-width:1.5;"/><line style="stroke:#000000;stroke-width:1.5;" x1="235" x2="322" y1="234.1582" y2="234.1582"/><text fill="#000000" font-family="sans-serif" font-size="14" font-weight="bold" lengthAdjust="spacing" textLength="74" x="239" y="226.7744">AI Analysis</text></g><!--class ai_review_analysis--><g id="elem_ai_review_analysis"><rect codeLine="445" fill="#F1F1F1" height="159.5537" id="ai_review_analysis" rx="2.5" ry="2.5" style="stroke:#181818;stroke-width:0.5;" width="212" x="398" y="247.0791"/><ellipse cx="441.25" cy="261.6187" fill="#ADD1B2" rx="9" ry="9" style="stroke:#181818;stroke-width:1.0;"/><path d="M436.9844,267.6187 L436.9844,255.4468 L446.0156,255.4468 L446.0156,257.5093 L439.4375,257.5093 L439.4375,260.2124 L445.5469,260.2124 L445.5469,262.2593 L439.4375,262.2593 L439.4375,265.5718 L446.25,265.5718 L446.25,267.6187 L436.9844,267.6187 Z " fill="#000000"/><text fill="#000000" font-family="sans-serif" font-size="14" lengthAdjust="spacing" textLength="118" x="458.75" y="267.7744">ai_review_analysis</text><line style="stroke:#181818;stroke-width:0.5;" x1="399" x2="609" y1="276.1582" y2="276.1582"/><ellipse cx="409" cy="291.1978" fill="#000000" rx="3" ry="3" style="stroke:#000000;stroke-width:1.0;"/><text fill="#000000" font-family="sans-serif" font-size="14" lengthAdjust="spacing" textLength="132" x="416" y="295.8535">id : BIGSERIAL &#171;PK&#187;</text><line style="stroke:#181818;stroke-width:1.0;" x1="399" x2="609" y1="303.2373" y2="303.2373"/><ellipse cx="409" cy="318.2769" fill="#000000" rx="3" ry="3" style="stroke:#000000;stroke-width:1.0;"/><text fill="#000000" font-family="sans-serif" font-size="14" lengthAdjust="spacing" textLength="141" x="416" y="322.9326">user_id : BIGINT &#171;FK&#187;</text><ellipse cx="409" cy="337.356" fill="#000000" rx="3" ry="3" style="stroke:#000000;stroke-width:1.0;"/><text fill="#000000" font-family="sans-serif" font-size="14" lengthAdjust="spacing" textLength="188" x="416" y="342.0117">review_post_id : BIGINT &#171;FK&#187;</text><text fill="#000000" font-family="sans-serif" font-size="14" lengthAdjust="spacing" textLength="121" x="416" y="361.0908">prompt_text : TEXT</text><text fill="#000000" font-family="sans-serif" font-size="14" lengthAdjust="spacing" textLength="121" x="416" y="380.1699">input_json : JSONB</text><text fill="#000000" font-family="sans-serif" font-size="14" lengthAdjust="spacing" textLength="130" x="416" y="399.249">output_json : JSONB</text></g><!--class ai_styles--><g id="elem_ai_styles"><rect codeLine="455" fill="#F1F1F1" height="102.3164" id="ai_styles" rx="2.5" ry="2.5" style="stroke:#181818;stroke-width:0.5;" width="236" x="251" y="496.0791"/><ellipse cx="337.75" cy="510.6187" fill="#ADD1B2" rx="9" ry="9" style="stroke:#181818;stroke-width:1.0;"/><path d="M333.4844,516.6187 L333.4844,504.4468 L342.5156,504.4468 L342.5156,506.5093 L335.9375,506.5093 L335.9375,509.2124 L342.0469,509.2124 L342.0469,511.2593 L335.9375,511.2593 L335.9375,514.5718 L342.75,514.5718 L342.75,516.6187 L333.4844,516.6187 Z " fill="#000000"/><text fill="#000000" font-family="sans-serif" font-size="14" lengthAdjust="spacing" textLength="55" x="355.25" y="516.7744">ai_styles</text><line style="stroke:#181818;stroke-width:0.5;" x1="252" x2="486" y1="525.1582" y2="525.1582"/><ellipse cx="262" cy="540.1978" fill="#000000" rx="3" ry="3" style="stroke:#000000;stroke-width:1.0;"/><text fill="#000000" font-family="sans-serif" font-size="14" lengthAdjust="spacing" textLength="132" x="269" y="544.8535">id : BIGSERIAL &#171;PK&#187;</text><line style="stroke:#181818;stroke-width:1.0;" x1="252" x2="486" y1="552.2373" y2="552.2373"/><ellipse cx="262" cy="567.2769" fill="#000000" rx="3" ry="3" style="stroke:#000000;stroke-width:1.0;"/><text fill="#000000" font-family="sans-serif" font-size="14" lengthAdjust="spacing" textLength="212" x="269" y="571.9326">review_analysis_id : BIGINT &#171;FK&#187;</text><text fill="#000000" font-family="sans-serif" font-size="14" lengthAdjust="spacing" textLength="147" x="269" y="591.0117">name : VARCHAR(150)</text></g><!--class ai_hashtags--><g id="elem_ai_hashtags"><rect codeLine="462" fill="#F1F1F1" height="102.3164" id="ai_hashtags" rx="2.5" ry="2.5" style="stroke:#181818;stroke-width:0.5;" width="236" x="522" y="496.0791"/><ellipse cx="597.75" cy="510.6187" fill="#ADD1B2" rx="9" ry="9" style="stroke:#181818;stroke-width:1.0;"/><path d="M593.4844,516.6187 L593.4844,504.4468 L602.5156,504.4468 L602.5156,506.5093 L595.9375,506.5093 L595.9375,509.2124 L602.0469,509.2124 L602.0469,511.2593 L595.9375,511.2593 L595.9375,514.5718 L602.75,514.5718 L602.75,516.6187 L593.4844,516.6187 Z " fill="#000000"/><text fill="#000000" font-family="sans-serif" font-size="14" lengthAdjust="spacing" textLength="77" x="615.25" y="516.7744">ai_hashtags</text><line style="stroke:#181818;stroke-width:0.5;" x1="523" x2="757" y1="525.1582" y2="525.1582"/><ellipse cx="533" cy="540.1978" fill="#000000" rx="3" ry="3" style="stroke:#000000;stroke-width:1.0;"/><text fill="#000000" font-family="sans-serif" font-size="14" lengthAdjust="spacing" textLength="132" x="540" y="544.8535">id : BIGSERIAL &#171;PK&#187;</text><line style="stroke:#181818;stroke-width:1.0;" x1="523" x2="757" y1="552.2373" y2="552.2373"/><ellipse cx="533" cy="567.2769" fill="#000000" rx="3" ry="3" style="stroke:#000000;stroke-width:1.0;"/><text fill="#000000" font-family="sans-serif" font-size="14" lengthAdjust="spacing" textLength="212" x="540" y="571.9326">review_analysis_id : BIGINT &#171;FK&#187;</text><text fill="#000000" font-family="sans-serif" font-size="14" lengthAdjust="spacing" textLength="147" x="540" y="591.0117">name : VARCHAR(100)</text></g><!--class review_posts--><g id="elem_review_posts"><rect codeLine="405" fill="#F1F1F1" height="140.4746" id="review_posts" rx="2.5" ry="2.5" style="stroke:#181818;stroke-width:0.5;" width="207" x="400.5" y="47.0791"/><ellipse cx="459.25" cy="61.6187" fill="#ADD1B2" rx="9" ry="9" style="stroke:#181818;stroke-width:1.0;"/><path d="M454.9844,67.6187 L454.9844,55.4468 L464.0156,55.4468 L464.0156,57.5093 L457.4375,57.5093 L457.4375,60.2124 L463.5469,60.2124 L463.5469,62.2593 L457.4375,62.2593 L457.4375,65.5718 L464.25,65.5718 L464.25,67.6187 L454.9844,67.6187 Z " fill="#000000"/><text fill="#000000" font-family="sans-serif" font-size="14" lengthAdjust="spacing" textLength="82" x="476.75" y="67.7744">review_posts</text><line style="stroke:#181818;stroke-width:0.5;" x1="401.5" x2="606.5" y1="76.1582" y2="76.1582"/><ellipse cx="411.5" cy="91.1978" fill="#000000" rx="3" ry="3" style="stroke:#000000;stroke-width:1.0;"/><text fill="#000000" font-family="sans-serif" font-size="14" lengthAdjust="spacing" textLength="132" x="418.5" y="95.8535">id : BIGSERIAL &#171;PK&#187;</text><line style="stroke:#181818;stroke-width:1.0;" x1="401.5" x2="606.5" y1="103.2373" y2="103.2373"/><ellipse cx="411.5" cy="118.2769" fill="#000000" rx="3" ry="3" style="stroke:#000000;stroke-width:1.0;"/><text fill="#000000" font-family="sans-serif" font-size="14" lengthAdjust="spacing" textLength="183" x="418.5" y="122.9326">travel_plan_id : BIGINT &#171;FK&#187;</text><text fill="#000000" font-family="sans-serif" font-size="14" lengthAdjust="spacing" textLength="104" x="418.5" y="142.0117">style_id : BIGINT</text><text fill="#000000" font-family="sans-serif" font-size="14" lengthAdjust="spacing" textLength="94" x="418.5" y="161.0908">content : TEXT</text><text fill="#000000" font-family="sans-serif" font-size="14" lengthAdjust="spacing" textLength="139" x="418.5" y="180.1699">is_posted : BOOLEAN</text></g><!--class review_photo_groups--><g id="elem_review_photo_groups"><rect codeLine="414" fill="#F1F1F1" height="83.2373" id="review_photo_groups" rx="2.5" ry="2.5" style="stroke:#181818;stroke-width:0.5;" width="212" x="7" y="285.5791"/><ellipse cx="41.6" cy="300.1187" fill="#ADD1B2" rx="9" ry="9" style="stroke:#181818;stroke-width:1.0;"/><path d="M37.3344,306.1187 L37.3344,293.9468 L46.3656,293.9468 L46.3656,296.0093 L39.7875,296.0093 L39.7875,298.7124 L45.8969,298.7124 L45.8969,300.7593 L39.7875,300.7593 L39.7875,304.0718 L46.6,304.0718 L46.6,306.1187 L37.3344,306.1187 Z " fill="#000000"/><text fill="#000000" font-family="sans-serif" font-size="14" lengthAdjust="spacing" textLength="136" x="58.4" y="306.2744">review_photo_groups</text><line style="stroke:#181818;stroke-width:0.5;" x1="8" x2="218" y1="314.6582" y2="314.6582"/><ellipse cx="18" cy="329.6978" fill="#000000" rx="3" ry="3" style="stroke:#000000;stroke-width:1.0;"/><text fill="#000000" font-family="sans-serif" font-size="14" lengthAdjust="spacing" textLength="132" x="25" y="334.3535">id : BIGSERIAL &#171;PK&#187;</text><line style="stroke:#181818;stroke-width:1.0;" x1="8" x2="218" y1="341.7373" y2="341.7373"/><ellipse cx="18" cy="356.7769" fill="#000000" rx="3" ry="3" style="stroke:#000000;stroke-width:1.0;"/><text fill="#000000" font-family="sans-serif" font-size="14" lengthAdjust="spacing" textLength="188" x="25" y="361.4326">review_post_id : BIGINT &#171;FK&#187;</text></g><!--class review_photos--><g id="elem_review_photos"><rect codeLine="420" fill="#F1F1F1" height="159.5537" id="review_photos" rx="2.5" ry="2.5" style="stroke:#181818;stroke-width:0.5;" width="174" x="26" y="467.0791"/><ellipse cx="63.75" cy="481.6187" fill="#ADD1B2" rx="9" ry="9" style="stroke:#181818;stroke-width:1.0;"/><path d="M59.4844,487.6187 L59.4844,475.4468 L68.5156,475.4468 L68.5156,477.5093 L61.9375,477.5093 L61.9375,480.2124 L68.0469,480.2124 L68.0469,482.2593 L61.9375,482.2593 L61.9375,485.5718 L68.75,485.5718 L68.75,487.6187 L59.4844,487.6187 Z " fill="#000000"/><text fill="#000000" font-family="sans-serif" font-size="14" lengthAdjust="spacing" textLength="91" x="81.25" y="487.7744">review_photos</text><line style="stroke:#181818;stroke-width:0.5;" x1="27" x2="199" y1="496.1582" y2="496.1582"/><ellipse cx="37" cy="511.1978" fill="#000000" rx="3" ry="3" style="stroke:#000000;stroke-width:1.0;"/><text fill="#000000" font-family="sans-serif" font-size="14" lengthAdjust="spacing" textLength="132" x="44" y="515.8535">id : BIGSERIAL &#171;PK&#187;</text><line style="stroke:#181818;stroke-width:1.0;" x1="27" x2="199" y1="523.2373" y2="523.2373"/><ellipse cx="37" cy="538.2769" fill="#000000" rx="3" ry="3" style="stroke:#000000;stroke-width:1.0;"/><text fill="#000000" font-family="sans-serif" font-size="14" lengthAdjust="spacing" textLength="150" x="44" y="542.9326">group_id : BIGINT &#171;FK&#187;</text><text fill="#000000" font-family="sans-serif" font-size="14" lengthAdjust="spacing" textLength="89" x="44" y="562.0117">file_url : TEXT</text><text fill="#000000" font-family="sans-serif" font-size="14" lengthAdjust="spacing" textLength="88" x="44" y="581.0908">lat : NUMERIC</text><text fill="#000000" font-family="sans-serif" font-size="14" lengthAdjust="spacing" textLength="92" x="44" y="600.1699">lng : NUMERIC</text><text fill="#000000" font-family="sans-serif" font-size="14" lengthAdjust="spacing" textLength="108" x="44" y="619.249">order_index : INT</text></g><!--class hashtag_groups--><g id="elem_hashtag_groups"><rect codeLine="430" fill="#F1F1F1" height="83.2373" id="hashtag_groups" rx="2.5" ry="2.5" style="stroke:#181818;stroke-width:0.5;" width="212" x="790" y="285.5791"/><ellipse cx="840.75" cy="300.1187" fill="#ADD1B2" rx="9" ry="9" style="stroke:#181818;stroke-width:1.0;"/><path d="M836.4844,306.1187 L836.4844,293.9468 L845.5156,293.9468 L845.5156,296.0093 L838.9375,296.0093 L838.9375,298.7124 L845.0469,298.7124 L845.0469,300.7593 L838.9375,300.7593 L838.9375,304.0718 L845.75,304.0718 L845.75,306.1187 L836.4844,306.1187 Z " fill="#000000"/><text fill="#000000" font-family="sans-serif" font-size="14" lengthAdjust="spacing" textLength="103" x="858.25" y="306.2744">hashtag_groups</text><line style="stroke:#181818;stroke-width:0.5;" x1="791" x2="1001" y1="314.6582" y2="314.6582"/><ellipse cx="801" cy="329.6978" fill="#000000" rx="3" ry="3" style="stroke:#000000;stroke-width:1.0;"/><text fill="#000000" font-family="sans-serif" font-size="14" lengthAdjust="spacing" textLength="132" x="808" y="334.3535">id : BIGSERIAL &#171;PK&#187;</text><line style="stroke:#181818;stroke-width:1.0;" x1="791" x2="1001" y1="341.7373" y2="341.7373"/><ellipse cx="801" cy="356.7769" fill="#000000" rx="3" ry="3" style="stroke:#000000;stroke-width:1.0;"/><text fill="#000000" font-family="sans-serif" font-size="14" lengthAdjust="spacing" textLength="188" x="808" y="361.4326">review_post_id : BIGINT &#171;FK&#187;</text></g><!--class hashtags--><g id="elem_hashtags"><rect codeLine="436" fill="#F1F1F1" height="121.3955" id="hashtags" rx="2.5" ry="2.5" style="stroke:#181818;stroke-width:0.5;" width="174" x="809" y="486.5791"/><ellipse cx="863.25" cy="501.1187" fill="#ADD1B2" rx="9" ry="9" style="stroke:#181818;stroke-width:1.0;"/><path d="M858.9844,507.1187 L858.9844,494.9468 L868.0156,494.9468 L868.0156,497.0093 L861.4375,497.0093 L861.4375,499.7124 L867.5469,499.7124 L867.5469,501.7593 L861.4375,501.7593 L861.4375,505.0718 L868.25,505.0718 L868.25,507.1187 L858.9844,507.1187 Z " fill="#000000"/><text fill="#000000" font-family="sans-serif" font-size="14" lengthAdjust="spacing" textLength="58" x="880.75" y="507.2744">hashtags</text><line style="stroke:#181818;stroke-width:0.5;" x1="810" x2="982" y1="515.6582" y2="515.6582"/><ellipse cx="820" cy="530.6978" fill="#000000" rx="3" ry="3" style="stroke:#000000;stroke-width:1.0;"/><text fill="#000000" font-family="sans-serif" font-size="14" lengthAdjust="spacing" textLength="132" x="827" y="535.3535">id : BIGSERIAL &#171;PK&#187;</text><line style="stroke:#181818;stroke-width:1.0;" x1="810" x2="982" y1="542.7373" y2="542.7373"/><ellipse cx="820" cy="557.7769" fill="#000000" rx="3" ry="3" style="stroke:#000000;stroke-width:1.0;"/><text fill="#000000" font-family="sans-serif" font-size="14" lengthAdjust="spacing" textLength="150" x="827" y="562.4326">group_id : BIGINT &#171;FK&#187;</text><text fill="#000000" font-family="sans-serif" font-size="14" lengthAdjust="spacing" textLength="147" x="827" y="581.5117">name : VARCHAR(100)</text><text fill="#000000" font-family="sans-serif" font-size="14" lengthAdjust="spacing" textLength="149" x="827" y="600.5908">is_selected : BOOLEAN</text></g><!--link review_posts to review_photo_groups--><g id="link_review_posts_review_photo_groups"><path codeLine="470" d="M392.25,117.0791 C276.41,117.0791 113,117.0791 113,117.0791 C113,117.0791 113,206.0991 113,267.3391 " fill="none" id="review_posts-review_photo_groups" style="stroke:#181818;stroke-width:1.0;stroke-dasharray:7.0,7.0;"/><line style="stroke:#181818;stroke-width:1.0;" x1="396.25" x2="396.25" y1="113.0791" y2="121.0791"/><line style="stroke:#181818;stroke-width:1.0;" x1="393.25" x2="393.25" y1="113.0791" y2="121.0791"/><line style="stroke:#181818;stroke-width:1.0;" x1="392.25" x2="400.25" y1="117.0791" y2="117.0791"/><line style="stroke:#181818;stroke-width:1.0;" x1="113" x2="119" y1="277.3391" y2="285.3391"/><line style="stroke:#181818;stroke-width:1.0;" x1="113" x2="107" y1="277.3391" y2="285.3391"/><line style="stroke:#181818;stroke-width:1.0;" x1="113" x2="113" y1="277.3391" y2="285.3391"/><ellipse cx="113" cy="271.3391" fill="none" rx="4" ry="4" style="stroke:#181818;stroke-width:1.0;"/></g><!--link review_posts to hashtag_groups--><g id="link_review_posts_hashtag_groups"><path codeLine="471" d="M615.51,117.0791 C731.64,117.0791 896,117.0791 896,117.0791 C896,117.0791 896,206.0991 896,267.3391 " fill="none" id="review_posts-hashtag_groups" style="stroke:#181818;stroke-width:1.0;stroke-dasharray:7.0,7.0;"/><line style="stroke:#181818;stroke-width:1.0;" x1="611.51" x2="611.51" y1="121.0791" y2="113.0791"/><line style="stroke:#181818;stroke-width:1.0;" x1="614.51" x2="614.51" y1="121.0791" y2="113.0791"/><line style="stroke:#181818;stroke-width:1.0;" x1="615.51" x2="607.51" y1="117.0791" y2="117.0791"/><line style="stroke:#181818;stroke-width:1.0;" x1="896" x2="902" y1="277.3391" y2="285.3391"/><line style="stroke:#181818;stroke-width:1.0;" x1="896" x2="890" y1="277.3391" y2="285.3391"/><line style="stroke:#181818;stroke-width:1.0;" x1="896" x2="896" y1="277.3391" y2="285.3391"/><ellipse cx="896" cy="271.3391" fill="none" rx="4" ry="4" style="stroke:#181818;stroke-width:1.0;"/></g><!--link review_photo_groups to review_photos--><g id="link_review_photo_groups_review_photos"><path codeLine="472" d="M113,376.7191 C113,404.3691 113,415.5791 113,448.8491 " fill="none" id="review_photo_groups-review_photos" style="stroke:#181818;stroke-width:1.0;stroke-dasharray:7.0,7.0;"/><line style="stroke:#181818;stroke-width:1.0;" x1="109" x2="117" y1="372.7191" y2="372.7191"/><line style="stroke:#181818;stroke-width:1.0;" x1="109" x2="117" y1="375.7191" y2="375.7191"/><line style="stroke:#181818;stroke-width:1.0;" x1="113" x2="113" y1="376.7191" y2="368.7191"/><line style="stroke:#181818;stroke-width:1.0;" x1="113" x2="119" y1="458.8491" y2="466.8491"/><line style="stroke:#181818;stroke-width:1.0;" x1="113" x2="107" y1="458.8491" y2="466.8491"/><line style="stroke:#181818;stroke-width:1.0;" x1="113" x2="113" y1="458.8491" y2="466.8491"/><ellipse cx="113" cy="452.8491" fill="none" rx="4" ry="4" style="stroke:#181818;stroke-width:1.0;"/></g><!--link hashtag_groups to hashtags--><g id="link_hashtag_groups_hashtags"><path codeLine="473" d="M896,376.7191 C896,409.9791 896,431.0491 896,468.4891 " fill="none" id="hashtag_groups-hashtags" style="stroke:#181818;stroke-width:1.0;stroke-dasharray:7.0,7.0;"/><line style="stroke:#181818;stroke-width:1.0;" x1="892" x2="900" y1="372.7191" y2="372.7191"/><line style="stroke:#181818;stroke-width:1.0;" x1="892" x2="900" y1="375.7191" y2="375.7191"/><line style="stroke:#181818;stroke-width:1.0;" x1="896" x2="896" y1="376.7191" y2="368.7191"/><line style="stroke:#181818;stroke-width:1.0;" x1="896" x2="902" y1="478.4891" y2="486.4891"/><line style="stroke:#181818;stroke-width:1.0;" x1="896" x2="890" y1="478.4891" y2="486.4891"/><line style="stroke:#181818;stroke-width:1.0;" x1="896" x2="896" y1="478.4891" y2="486.4891"/><ellipse cx="896" cy="472.4891" fill="none" rx="4" ry="4" style="stroke:#181818;stroke-width:1.0;"/></g><!--link review_posts to ai_review_analysis--><g id="link_review_posts_ai_review_analysis"><path codeLine="475" d="M504,195.2991 C504,214.3791 504,209.1791 504,228.7691 " fill="none" id="review_posts-ai_review_analysis" style="stroke:#181818;stroke-width:1.0;"/><line style="stroke:#181818;stroke-width:1.0;" x1="500" x2="508" y1="191.2991" y2="191.2991"/><line style="stroke:#181818;stroke-width:1.0;" x1="500" x2="508" y1="194.2991" y2="194.2991"/><line style="stroke:#181818;stroke-width:1.0;" x1="504" x2="504" y1="195.2991" y2="187.2991"/><line style="stroke:#181818;stroke-width:1.0;" x1="504" x2="510" y1="238.7691" y2="246.7691"/><line style="stroke:#181818;stroke-width:1.0;" x1="504" x2="498" y1="238.7691" y2="246.7691"/><line style="stroke:#181818;stroke-width:1.0;" x1="504" x2="504" y1="238.7691" y2="246.7691"/><ellipse cx="504" cy="232.7691" fill="none" rx="4" ry="4" style="stroke:#181818;stroke-width:1.0;"/><text fill="#000000" font-family="sans-serif" font-size="13" lengthAdjust="spacing" textLength="60" x="443" y="213.6033">Generates</text></g><!--link ai_review_analysis to ai_styles--><g id="link_ai_review_analysis_ai_styles"><path codeLine="476" d="M442.5,415.1291 C442.5,444.7391 442.5,451.4791 442.5,477.8491 " fill="none" id="ai_review_analysis-ai_styles" style="stroke:#181818;stroke-width:1.0;stroke-dasharray:7.0,7.0;"/><line style="stroke:#181818;stroke-width:1.0;" x1="438.5" x2="446.5" y1="411.1291" y2="411.1291"/><line style="stroke:#181818;stroke-width:1.0;" x1="438.5" x2="446.5" y1="414.1291" y2="414.1291"/><line style="stroke:#181818;stroke-width:1.0;" x1="442.5" x2="442.5" y1="415.1291" y2="407.1291"/><line style="stroke:#181818;stroke-width:1.0;" x1="442.5" x2="448.5" y1="487.8491" y2="495.8491"/><line style="stroke:#181818;stroke-width:1.0;" x1="442.5" x2="436.5" y1="487.8491" y2="495.8491"/><line style="stroke:#181818;stroke-width:1.0;" x1="442.5" x2="442.5" y1="487.8491" y2="495.8491"/><ellipse cx="442.5" cy="481.8491" fill="none" rx="4" ry="4" style="stroke:#181818;stroke-width:1.0;"/></g><!--link ai_review_analysis to ai_hashtags--><g id="link_ai_review_analysis_ai_hashtags"><path codeLine="477" d="M566,415.1291 C566,444.7391 566,451.4791 566,477.8491 " fill="none" id="ai_review_analysis-ai_hashtags" style="stroke:#181818;stroke-width:1.0;stroke-dasharray:7.0,7.0;"/><line style="stroke:#181818;stroke-width:1.0;" x1="562" x2="570" y1="411.1291" y2="411.1291"/><line style="stroke:#181818;stroke-width:1.0;" x1="562" x2="570" y1="414.1291" y2="414.1291"/><line style="stroke:#181818;stroke-width:1.0;" x1="566" x2="566" y1="415.1291" y2="407.1291"/><line style="stroke:#181818;stroke-width:1.0;" x1="566" x2="572" y1="487.8491" y2="495.8491"/><line style="stroke:#181818;stroke-width:1.0;" x1="566" x2="560" y1="487.8491" y2="495.8491"/><line style="stroke:#181818;stroke-width:1.0;" x1="566" x2="566" y1="487.8491" y2="495.8491"/><ellipse cx="566" cy="481.8491" fill="none" rx="4" ry="4" style="stroke:#181818;stroke-width:1.0;"/></g><!--SRC=[xLfVZzis4d_Nf-3jGvCDaY1_kW5kqHPG7CMhrciRbdRRz508N9crTIjBhaHjOxJxrW_Iljz3KRHVwf0FSKD9baYAbBN-qqkBw4dYKEBCS6OuCp_TGvzslOnxoB5Srnxs7RZj_je_w9mi25g6E8YCUJ0bo0yIFoH6UXr4IvpW1Gg3YD3Lag0ueVFOWCy_slQ2TyTctq9FJr5_C7ff3j3hYy40ERqpwzn4zz_z_DExttv7__tZF-z- -VLufuLeG4E2_jKFuoiSeik0VFyDUfs58Ng5ARx2AK6E3v9ZmrXY_nhF23gwI4c2Fa9cHkT7w0S3mKKY-CuA7ML0IeyGJb5-LrBPzI2OebFqqkuxriG6UJxvPFp5PvzLPE1aVHka7lPfS4FO_D5eO9d3YXRYb7fXF0iY3rEWk_QvvRZc-TZzkfeJuGLxzTASzCxCoVsJ9ySL2UG8GexszCaJZhfCuc-3a7Z10iJqiaG_qqy8fcIgvo5RJlKJRes6pZmmAFOOa5fxtDXMUdnGVgIORWzTcFkQdmloti0QYKPPhK9ACgHHwj7ucaG5-_NZOJZFwTZtILgkmpYqld9hqTWEjaqWRvT1GbBz3iBBSHPHBtTejOA2cNULfU3qARFOVBfeCP8kusJJj6Ls5GRfl6tQhN7BkQARu1iIed68eoY8Ph8xqfpiGT0gDuOVECpMN6NJ6M6Slx9wzhavkF_qdm-VrHAc52VKOyx1ffYkLUz8D5MEGpW04fbAqK0om5AmALu9WhBdxUJaDDKcBYpW1S3UMvZXWBW3c5CHYzYgDfxymxAyQg5Wga_a_VEtZGevntg1P9wVyamNkwVr6RQ5McBEioS5vnSV7tEndRqwl3W74NhrQ3HJZ8Bx4fy59pzErSOcgTBFaWJkYvEbZhFDuLsj1MHiqIwia-5GppMx5cGHDy8Lyu1EaPYtspJ2otGUquRlrvJ3184REFk3EF8Y9WZl4UjrlN-dCOl9dpkZeIAiJSWD928f91bEx0SubEDQajEz9QYna8qVEAY_ftGL2ZjSX_WueYIFsSBEGVXYN3NY5xiuhijqetfLsjNrJ51TxCsIE5kASdFZsudFiw8HluMb9ZDRif6BqAR_F46JT7NNu14dKsQ-PTHUxw4atXodSufdlBB5eJzBp-Mg0Wk7qguKdONS10mv9M4UTHj7CU-xfetC28UhD4XbjyM1LygFgnaWL7FuC56fY_BBl7YnXCoFl6rwSxJCXE3rihQgZ2ffqdQ2i7aCgKGlddQofhNQxhAr9q-EDUm91iSz_-aigbDUX-34dyFHC2xJ8j76k6HfXon9OkNPoSbsUKgH43Hg2BNkYxeppUKhHH273kCMBFU1ixfaqW8HDZ47xffc8Msok2Pin-WyIA56QirE7spCiDh2b9WenN2Kh5EZulx_PYgYXVVcnB-6Ef3Ajksl2MNoMZqUnZ3usePBTkJCUis55r2oa3WhnhPZZ_k8daTDrkL3OJK3M-8DkhIE_BCRph2pc9AGfPzZl5h0vnjHPiucU5TnV0rLTtaq2qE7sP5Y3LNsIMCATSKo2NoYi3YessYMrbRAzKbo-Jpb16cZrtCXKuxI8cYKSLP1s382y3fiZLcBiZ_INTAosUMjkSs_BeehEY7uxZcKOicgwOQOUgnAIweoaXyvK9IULKntApoIcA_ZrPwxvdhbtK34Z1DPcchyFP69BAx8T1hayVFIwhaZbiWyVy6b2VTGsScU40Y-p1BdmJ8rYcxqZpy-VXp_83TNHMBTkXJ7-SwPbbBNrUAKPeOhqiLZNgJLKLuS5-ED_0vdZpfIjRc68RG5HR5O1qr9vqjkWs-tDTG2IPWXDgxMl3IwBuOXLFBIKboLgvmd5cZAAOgTKDNGYeLJGwh_n4M1TKKTKwzQfFdjS-fFINcVmapMgPOXgbGvnU0o1TcgYXFQCAJZgvoc2ks64P7lMODzBmZNirDq0P64uKaNxXdg3IuSrvhi0zBgXLbAIV8Dul0gvlD-7XSCenspQWbpPOZJuLIRC2eDFgN7fhhXKgrmZHQFkXNrq0s7sgoRrj3VWZjfXU3ut8GrxSXTAxRKYYkrOaeRyAIEM58776a3XWIAtEemtAlJFmVzJCnBQu360tCuj8VzWpY-X8v13B0fg3Z1oQesfouOsOucrOA9gV4m5HQcmC5kbLBSeUs_erpADh-onT_aj0Mfwy1LXswz5fdJeN8DH4wftZOahWFZBUYR5dbhGTsqY5ihsjPiIpHR4kq86wUQko9hTzfTVQzd4v8cesWQ1EssS_AxUsuhBFJeiSOpJz7HPU5Ng0TL49HnH_iDlX-VeebrQLjVEYmfif4vD0Tl7DivI0WkaRo79P1NhhXElOsx07hx2Gjg04zHRwg0kzicnzqHkGxyRm0eDClhqRSEIxPYGYgqhKlmQ29i7EjTaRMzwgiDHTjLIphSGjsA_e2LVS3A3eoL7Q27idDpH5hhqIDbCuQTVdt2KdGAkxxFZie-Jz2JKtJXsWFRjIq7tSznI5J0aWzH1TwmMqoFzzl9e46OvnAd9Vh9hSVWYg9VpGMOWhUFIkxg69CjoauH3_xLDkj0RUQDXeCtrOZrodOz47XeJSn9FJone83hANzU-oi1iNcuQdPNtbkGjh5tVq_4DeSnS7GjuuyRm58mxhgzMI61jO1Zi_U5FUnNpxt1o3spdEhvrQW7riEX4PRRQqK-Fy2ntU7OvixS5PpzIoDpxni4jnbHsoyKqG69sET9_U8KdOrSQy1AtR7vXddrOUhSnXy3NEdHyL-17Pjnwdy3aZXUv2T4amBkrwYKYsAOxKZG_3iz7uVKlK68Wjayxrp05wo-LPoR-ZyIb1Xzwvy8iuo0VOYvGD5P1HLkW0ks-MsXmrPq-bLXlSI2q7ai_s-m-Oy4vLyEHMF9Px4qJsAU7-kLcf3lcEPqg90FjLj8T7ZB7H31_m40]--></g></svg>