<?xml version="1.0" encoding="us-ascii" standalone="no"?><svg xmlns="http://www.w3.org/2000/svg" xmlns:xlink="http://www.w3.org/1999/xlink" contentStyleType="text/css" height="891px" preserveAspectRatio="none" style="width:436px;height:891px;background:#FFFFFF;" version="1.1" viewBox="0 0 436 891" width="436px" zoomAndPan="magnify"><defs/><g><text fill="#000000" font-family="sans-serif" font-size="14" font-weight="bold" lengthAdjust="spacing" textLength="250" x="86" y="25.6953">[Cluster] Travel Planning &amp; Itinerary</text><!--class travel_plans--><g id="elem_travel_plans"><rect codeLine="344" fill="#F1F1F1" height="159.5537" id="travel_plans" rx="2.5" ry="2.5" style="stroke:#181818;stroke-width:0.5;" width="178" x="115.5" y="47.0791"/><ellipse cx="162.25" cy="61.6187" fill="#ADD1B2" rx="9" ry="9" style="stroke:#181818;stroke-width:1.0;"/><path d="M157.9844,67.6187 L157.9844,55.4468 L167.0156,55.4468 L167.0156,57.5093 L160.4375,57.5093 L160.4375,60.2124 L166.5469,60.2124 L166.5469,62.2593 L160.4375,62.2593 L160.4375,65.5718 L167.25,65.5718 L167.25,67.6187 L157.9844,67.6187 Z " fill="#000000"/><text fill="#000000" font-family="sans-serif" font-size="14" lengthAdjust="spacing" textLength="77" x="179.75" y="67.7744">travel_plans</text><line style="stroke:#181818;stroke-width:0.5;" x1="116.5" x2="292.5" y1="76.1582" y2="76.1582"/><ellipse cx="126.5" cy="91.1978" fill="#000000" rx="3" ry="3" style="stroke:#000000;stroke-width:1.0;"/><text fill="#000000" font-family="sans-serif" font-size="14" lengthAdjust="spacing" textLength="132" x="133.5" y="95.8535">id : BIGSERIAL &#171;PK&#187;</text><line style="stroke:#181818;stroke-width:1.0;" x1="116.5" x2="292.5" y1="103.2373" y2="103.2373"/><ellipse cx="126.5" cy="118.2769" fill="#000000" rx="3" ry="3" style="stroke:#000000;stroke-width:1.0;"/><text fill="#000000" font-family="sans-serif" font-size="14" lengthAdjust="spacing" textLength="141" x="133.5" y="122.9326">user_id : BIGINT &#171;FK&#187;</text><text fill="#000000" font-family="sans-serif" font-size="14" lengthAdjust="spacing" textLength="154" x="133.5" y="142.0117">budget : DECIMAL(19,2)</text><text fill="#000000" font-family="sans-serif" font-size="14" lengthAdjust="spacing" textLength="113" x="133.5" y="161.0908">start_date : DATE</text><text fill="#000000" font-family="sans-serif" font-size="14" lengthAdjust="spacing" textLength="109" x="133.5" y="180.1699">end_date : DATE</text><text fill="#000000" font-family="sans-serif" font-size="14" lengthAdjust="spacing" textLength="136" x="133.5" y="199.249">is_ended : BOOLEAN</text></g><!--class travel_plan_snapshots--><g id="elem_travel_plan_snapshots"><rect codeLine="354" fill="#F1F1F1" height="121.3955" id="travel_plan_snapshots" rx="2.5" ry="2.5" style="stroke:#181818;stroke-width:0.5;" width="171" x="7" y="276.5791"/><ellipse cx="20" cy="291.1187" fill="#ADD1B2" rx="9" ry="9" style="stroke:#181818;stroke-width:1.0;"/><path d="M15.7344,297.1187 L15.7344,284.9468 L24.7656,284.9468 L24.7656,287.0093 L18.1875,287.0093 L18.1875,289.7124 L24.2969,289.7124 L24.2969,291.7593 L18.1875,291.7593 L18.1875,295.0718 L25,295.0718 L25,297.1187 L15.7344,297.1187 Z " fill="#000000"/><text fill="#000000" font-family="sans-serif" font-size="14" lengthAdjust="spacing" textLength="143" x="32" y="297.2744">travel_plan_snapshots</text><line style="stroke:#181818;stroke-width:0.5;" x1="8" x2="177" y1="305.6582" y2="305.6582"/><ellipse cx="18" cy="320.6978" fill="#000000" rx="3" ry="3" style="stroke:#000000;stroke-width:1.0;"/><text fill="#000000" font-family="sans-serif" font-size="14" lengthAdjust="spacing" textLength="132" x="25" y="325.3535">id : BIGSERIAL &#171;PK&#187;</text><line style="stroke:#181818;stroke-width:1.0;" x1="8" x2="177" y1="332.7373" y2="332.7373"/><ellipse cx="18" cy="347.7769" fill="#000000" rx="3" ry="3" style="stroke:#000000;stroke-width:1.0;"/><text fill="#000000" font-family="sans-serif" font-size="14" lengthAdjust="spacing" textLength="141" x="25" y="352.4326">user_id : BIGINT &#171;FK&#187;</text><text fill="#000000" font-family="sans-serif" font-size="14" lengthAdjust="spacing" textLength="103" x="25" y="371.5117">version_no : INT</text><text fill="#000000" font-family="sans-serif" font-size="14" lengthAdjust="spacing" textLength="139" x="25" y="390.5908">snapshot_json : JSON</text></g><!--class travel_days--><g id="elem_travel_days"><rect codeLine="362" fill="#F1F1F1" height="140.4746" id="travel_days" rx="2.5" ry="2.5" style="stroke:#181818;stroke-width:0.5;" width="207" x="213" y="267.0791"/><ellipse cx="276.25" cy="281.6187" fill="#ADD1B2" rx="9" ry="9" style="stroke:#181818;stroke-width:1.0;"/><path d="M271.9844,287.6187 L271.9844,275.4468 L281.0156,275.4468 L281.0156,277.5093 L274.4375,277.5093 L274.4375,280.2124 L280.5469,280.2124 L280.5469,282.2593 L274.4375,282.2593 L274.4375,285.5718 L281.25,285.5718 L281.25,287.6187 L271.9844,287.6187 Z " fill="#000000"/><text fill="#000000" font-family="sans-serif" font-size="14" lengthAdjust="spacing" textLength="73" x="293.75" y="287.7744">travel_days</text><line style="stroke:#181818;stroke-width:0.5;" x1="214" x2="419" y1="296.1582" y2="296.1582"/><ellipse cx="224" cy="311.1978" fill="#000000" rx="3" ry="3" style="stroke:#000000;stroke-width:1.0;"/><text fill="#000000" font-family="sans-serif" font-size="14" lengthAdjust="spacing" textLength="132" x="231" y="315.8535">id : BIGSERIAL &#171;PK&#187;</text><line style="stroke:#181818;stroke-width:1.0;" x1="214" x2="419" y1="323.2373" y2="323.2373"/><ellipse cx="224" cy="338.2769" fill="#000000" rx="3" ry="3" style="stroke:#000000;stroke-width:1.0;"/><text fill="#000000" font-family="sans-serif" font-size="14" lengthAdjust="spacing" textLength="183" x="231" y="342.9326">travel_plan_id : BIGINT &#171;FK&#187;</text><text fill="#000000" font-family="sans-serif" font-size="14" lengthAdjust="spacing" textLength="142" x="231" y="362.0117">day_index : SMALLINT</text><text fill="#000000" font-family="sans-serif" font-size="14" lengthAdjust="spacing" textLength="126" x="231" y="381.0908">title : VARCHAR(50)</text><text fill="#000000" font-family="sans-serif" font-size="14" lengthAdjust="spacing" textLength="112" x="231" y="400.1699">plan_date : DATE</text></g><!--class travel_places--><g id="elem_travel_places"><rect codeLine="371" fill="#F1F1F1" height="216.791" id="travel_places" rx="2.5" ry="2.5" style="stroke:#181818;stroke-width:0.5;" width="225" x="204" y="467.0791"/><ellipse cx="270.75" cy="481.6187" fill="#ADD1B2" rx="9" ry="9" style="stroke:#181818;stroke-width:1.0;"/><path d="M266.4844,487.6187 L266.4844,475.4468 L275.5156,475.4468 L275.5156,477.5093 L268.9375,477.5093 L268.9375,480.2124 L275.0469,480.2124 L275.0469,482.2593 L268.9375,482.2593 L268.9375,485.5718 L275.75,485.5718 L275.75,487.6187 L266.4844,487.6187 Z " fill="#000000"/><text fill="#000000" font-family="sans-serif" font-size="14" lengthAdjust="spacing" textLength="84" x="288.25" y="487.7744">travel_places</text><line style="stroke:#181818;stroke-width:0.5;" x1="205" x2="428" y1="496.1582" y2="496.1582"/><ellipse cx="215" cy="511.1978" fill="#000000" rx="3" ry="3" style="stroke:#000000;stroke-width:1.0;"/><text fill="#000000" font-family="sans-serif" font-size="14" lengthAdjust="spacing" textLength="132" x="222" y="515.8535">id : BIGSERIAL &#171;PK&#187;</text><line style="stroke:#181818;stroke-width:1.0;" x1="205" x2="428" y1="523.2373" y2="523.2373"/><ellipse cx="215" cy="538.2769" fill="#000000" rx="3" ry="3" style="stroke:#000000;stroke-width:1.0;"/><text fill="#000000" font-family="sans-serif" font-size="14" lengthAdjust="spacing" textLength="136" x="222" y="542.9326">day_id : BIGINT &#171;FK&#187;</text><text fill="#000000" font-family="sans-serif" font-size="14" lengthAdjust="spacing" textLength="134" x="222" y="562.0117">title : VARCHAR(150)</text><text fill="#000000" font-family="sans-serif" font-size="14" lengthAdjust="spacing" textLength="156" x="222" y="581.0908">start_at : TIMESTAMPTZ</text><text fill="#000000" font-family="sans-serif" font-size="14" lengthAdjust="spacing" textLength="152" x="222" y="600.1699">end_at : TIMESTAMPTZ</text><text fill="#000000" font-family="sans-serif" font-size="14" lengthAdjust="spacing" textLength="181" x="222" y="619.249">place_name : VARCHAR(64)</text><text fill="#000000" font-family="sans-serif" font-size="14" lengthAdjust="spacing" textLength="88" x="222" y="638.3281">lat : NUMERIC</text><text fill="#000000" font-family="sans-serif" font-size="14" lengthAdjust="spacing" textLength="92" x="222" y="657.4072">lng : NUMERIC</text><text fill="#000000" font-family="sans-serif" font-size="14" lengthAdjust="spacing" textLength="201" x="222" y="676.4863">expected_cost : DECIMAL(19,2)</text></g><!--class current_activities--><g id="elem_current_activities"><rect codeLine="384" fill="#F1F1F1" height="140.4746" id="current_activities" rx="2.5" ry="2.5" style="stroke:#181818;stroke-width:0.5;" width="214" x="209.5" y="744.0791"/><ellipse cx="259.25" cy="758.6187" fill="#ADD1B2" rx="9" ry="9" style="stroke:#181818;stroke-width:1.0;"/><path d="M254.9844,764.6187 L254.9844,752.4468 L264.0156,752.4468 L264.0156,754.5093 L257.4375,754.5093 L257.4375,757.2124 L263.5469,757.2124 L263.5469,759.2593 L257.4375,759.2593 L257.4375,762.5718 L264.25,762.5718 L264.25,764.6187 L254.9844,764.6187 Z " fill="#000000"/><text fill="#000000" font-family="sans-serif" font-size="14" lengthAdjust="spacing" textLength="107" x="276.75" y="764.7744">current_activities</text><line style="stroke:#181818;stroke-width:0.5;" x1="210.5" x2="422.5" y1="773.1582" y2="773.1582"/><ellipse cx="220.5" cy="788.1978" fill="#000000" rx="3" ry="3" style="stroke:#000000;stroke-width:1.0;"/><text fill="#000000" font-family="sans-serif" font-size="14" lengthAdjust="spacing" textLength="132" x="227.5" y="792.8535">id : BIGSERIAL &#171;PK&#187;</text><line style="stroke:#181818;stroke-width:1.0;" x1="210.5" x2="422.5" y1="800.2373" y2="800.2373"/><ellipse cx="220.5" cy="815.2769" fill="#000000" rx="3" ry="3" style="stroke:#000000;stroke-width:1.0;"/><text fill="#000000" font-family="sans-serif" font-size="14" lengthAdjust="spacing" textLength="190" x="227.5" y="819.9326">travel_place_id : BIGINT &#171;FK&#187;</text><text fill="#000000" font-family="sans-serif" font-size="14" lengthAdjust="spacing" textLength="182" x="227.5" y="839.0117">actual_cost : DECIMAL(19,2)</text><text fill="#000000" font-family="sans-serif" font-size="14" lengthAdjust="spacing" textLength="85" x="227.5" y="858.0908">memo : TEXT</text><text fill="#000000" font-family="sans-serif" font-size="14" lengthAdjust="spacing" textLength="168" x="227.5" y="877.1699">ended_at : TIMESTAMPTZ</text></g><!--link travel_plans to travel_days--><g id="link_travel_plans_travel_days"><path codeLine="393" d="M253.25,215.3691 C253.25,234.9391 253.25,229.7191 253.25,248.7791 " fill="none" id="travel_plans-travel_days" style="stroke:#181818;stroke-width:1.0;stroke-dasharray:7.0,7.0;"/><line style="stroke:#181818;stroke-width:1.0;" x1="249.25" x2="257.25" y1="211.3691" y2="211.3691"/><line style="stroke:#181818;stroke-width:1.0;" x1="249.25" x2="257.25" y1="214.3691" y2="214.3691"/><line style="stroke:#181818;stroke-width:1.0;" x1="253.25" x2="253.25" y1="215.3691" y2="207.3691"/><line style="stroke:#181818;stroke-width:1.0;" x1="253.25" x2="259.25" y1="258.7791" y2="266.7791"/><line style="stroke:#181818;stroke-width:1.0;" x1="253.25" x2="247.25" y1="258.7791" y2="266.7791"/><line style="stroke:#181818;stroke-width:1.0;" x1="253.25" x2="253.25" y1="258.7791" y2="266.7791"/><ellipse cx="253.25" cy="252.7791" fill="none" rx="4" ry="4" style="stroke:#181818;stroke-width:1.0;"/></g><!--link travel_days to travel_places--><g id="link_travel_days_travel_places"><path codeLine="394" d="M316.5,415.3491 C316.5,434.0391 316.5,428.6591 316.5,448.8891 " fill="none" id="travel_days-travel_places" style="stroke:#181818;stroke-width:1.0;stroke-dasharray:7.0,7.0;"/><line style="stroke:#181818;stroke-width:1.0;" x1="312.5" x2="320.5" y1="411.3491" y2="411.3491"/><line style="stroke:#181818;stroke-width:1.0;" x1="312.5" x2="320.5" y1="414.3491" y2="414.3491"/><line style="stroke:#181818;stroke-width:1.0;" x1="316.5" x2="316.5" y1="415.3491" y2="407.3491"/><line style="stroke:#181818;stroke-width:1.0;" x1="316.5" x2="322.5" y1="458.8891" y2="466.8891"/><line style="stroke:#181818;stroke-width:1.0;" x1="316.5" x2="310.5" y1="458.8891" y2="466.8891"/><line style="stroke:#181818;stroke-width:1.0;" x1="316.5" x2="316.5" y1="458.8891" y2="466.8891"/><ellipse cx="316.5" cy="452.8891" fill="none" rx="4" ry="4" style="stroke:#181818;stroke-width:1.0;"/></g><!--link travel_places to current_activities--><g id="link_travel_places_current_activities"><path codeLine="395" d="M316.5,692.3591 C316.5,712.6291 316.5,707.3091 316.5,726.0291 " fill="none" id="travel_places-current_activities" style="stroke:#181818;stroke-width:1.0;stroke-dasharray:7.0,7.0;"/><line style="stroke:#181818;stroke-width:1.0;" x1="312.5" x2="320.5" y1="688.3591" y2="688.3591"/><line style="stroke:#181818;stroke-width:1.0;" x1="312.5" x2="320.5" y1="691.3591" y2="691.3591"/><line style="stroke:#181818;stroke-width:1.0;" x1="316.5" x2="316.5" y1="692.3591" y2="684.3591"/><line style="stroke:#181818;stroke-width:1.0;" x1="316.5" x2="322.5" y1="736.0291" y2="744.0291"/><line style="stroke:#181818;stroke-width:1.0;" x1="316.5" x2="310.5" y1="736.0291" y2="744.0291"/><line style="stroke:#181818;stroke-width:1.0;" x1="316.5" x2="316.5" y1="736.0291" y2="744.0291"/><ellipse cx="316.5" cy="730.0291" fill="none" rx="4" ry="4" style="stroke:#181818;stroke-width:1.0;"/></g><!--link travel_plans to travel_plan_snapshots--><g id="link_travel_plans_travel_plan_snapshots"><path codeLine="396" d="M146.75,207.3691 C146.75,230.2991 146.75,254.8891 146.75,276.4291 " fill="none" id="travel_plans-travel_plan_snapshots" style="stroke:#181818;stroke-width:1.0;stroke-dasharray:7.0,7.0;"/><text fill="#000000" font-family="sans-serif" font-size="13" lengthAdjust="spacing" textLength="89" x="56.75" y="238.4733">Version Control</text></g><!--SRC=[xLfVZzis4d_Nf-3jGvCDaY1_kW5kqHPG7CMhrciRbdRRz508N9crTIjBhaHjOxJxrW_Iljz3KRHVwf0FSKD9baYAbBN-qqkBw4dYKEBCS6OuCp_TGvzslOnxoB5Srnxs7RZj_je_w9mi25g6E8YCUJ0bo0yIFoH6UXr4IvpW1Gg3YD3Lag0ueVFOWCy_slQ2TyTctq9FJr5_C7ff3j3hYy40ERqpwzn4zz_z_DExttv7__tZF-z- -VLufuLeG4E2_jKFuoiSeik0VFyDUfs58Ng5ARx2AK6E3v9ZmrXY_nhF23gwI4c2Fa9cHkT7w0S3mKKY-CuA7ML0IeyGJb5-LrBPzI2OebFqqkuxriG6UJxvPFp5PvzLPE1aVHka7lPfS4FO_D5eO9d3YXRYb7fXF0iY3rEWk_QvvRZc-TZzkfeJuGLxzTASzCxCoVsJ9ySL2UG8GexszCaJZhfCuc-3a7Z10iJqiaG_qqy8fcIgvo5RJlKJRes6pZmmAFOOa5fxtDXMUdnGVgIORWzTcFkQdmloti0QYKPPhK9ACgHHwj7ucaG5-_NZOJZFwTZtILgkmpYqld9hqTWEjaqWRvT1GbBz3iBBSHPHBtTejOA2cNULfU3qARFOVBfeCP8kusJJj6Ls5GRfl6tQhN7BkQARu1iIed68eoY8Ph8xqfpiGT0gDuOVECpMN6NJ6M6Slx9wzhavkF_qdm-VrHAc52VKOyx1ffYkLUz8D5MEGpW04fbAqK0om5AmALu9WhBdxUJaDDKcBYpW1S3UMvZXWBW3c5CHYzYgDfxymxAyQg5Wga_a_VEtZGevntg1P9wVyamNkwVr6RQ5McBEioS5vnSV7tEndRqwl3W74NhrQ3HJZ8Bx4fy59pzErSOcgTBFaWJkYvEbZhFDuLsj1MHiqIwia-5GppMx5cGHDy8Lyu1EaPYtspJ2otGUquRlrvJ3184REFk3EF8Y9WZl4UjrlN-dCOl9dpkZeIAiJSWD928f91bEx0SubEDQajEz9QYna8qVEAY_ftGL2ZjSX_WueYIFsSBEGVXYN3NY5xiuhijqetfLsjNrJ51TxCsIE5kASdFZsudFiw8HluMb9ZDRif6BqAR_F46JT7NNu14dKsQ-PTHUxw4atXodSufdlBB5eJzBp-Mg0Wk7qguKdONS10mv9M4UTHj7CU-xfetC28UhD4XbjyM1LygFgnaWL7FuC56fY_BBl7YnXCoFl6rwSxJCXE3rihQgZ2ffqdQ2i7aCgKGlddQofhNQxhAr9q-EDUm91iSz_-aigbDUX-34dyFHC2xJ8j76k6HfXon9OkNPoSbsUKgH43Hg2BNkYxeppUKhHH273kCMBFU1ixfaqW8HDZ47xffc8Msok2Pin-WyIA56QirE7spCiDh2b9WenN2Kh5EZulx_PYgYXVVcnB-6Ef3Ajksl2MNoMZqUnZ3usePBTkJCUis55r2oa3WhnhPZZ_k8daTDrkL3OJK3M-8DkhIE_BCRph2pc9AGfPzZl5h0vnjHPiucU5TnV0rLTtaq2qE7sP5Y3LNsIMCATSKo2NoYi3YessYMrbRAzKbo-Jpb16cZrtCXKuxI8cYKSLP1s382y3fiZLcBiZ_INTAosUMjkSs_BeehEY7uxZcKOicgwOQOUgnAIweoaXyvK9IULKntApoIcA_ZrPwxvdhbtK34Z1DPcchyFP69BAx8T1hayVFIwhaZbiWyVy6b2VTGsScU40Y-p1BdmJ8rYcxqZpy-VXp_83TNHMBTkXJ7-SwPbbBNrUAKPeOhqiLZNgJLKLuS5-ED_0vdZpfIjRc68RG5HR5O1qr9vqjkWs-tDTG2IPWXDgxMl3IwBuOXLFBIKboLgvmd5cZAAOgTKDNGYeLJGwh_n4M1TKKTKwzQfFdjS-fFINcVmapMgPOXgbGvnU0o1TcgYXFQCAJZgvoc2ks64P7lMODzBmZNirDq0P64uKaNxXdg3IuSrvhi0zBgXLbAIV8Dul0gvlD-7XSCenspQWbpPOZJuLIRC2eDFgN7fhhXKgrmZHQFkXNrq0s7sgoRrj3VWZjfXU3ut8GrxSXTAxRKYYkrOaeRyAIEM58776a3XWIAtEemtAlJFmVzJCnBQu360tCuj8VzWpY-X8v13B0fg3Z1oQesfouOsOucrOA9gV4m5HQcmC5kbLBSeUs_erpADh-onT_aj0Mfwy1LXswz5fdJeN8DH4wftZOahWFZBUYR5dbhGTsqY5ihsjPiIpHR4kq86wUQko9hTzfTVQzd4v8cesWQ1EssS_AxUsuhBFJeiSOpJz7HPU5Ng0TL49HnH_iDlX-VeebrQLjVEYmfif4vD0Tl7DivI0WkaRo79P1NhhXElOsx07hx2Gjg04zHRwg0kzicnzqHkGxyRm0eDClhqRSEIxPYGYgqhKlmQ29i7EjTaRMzwgiDHTjLIphSGjsA_e2LVS3A3eoL7Q27idDpH5hhqIDbCuQTVdt2KdGAkxxFZie-Jz2JKtJXsWFRjIq7tSznI5J0aWzH1TwmMqoFzzl9e46OvnAd9Vh9hSVWYg9VpGMOWhUFIkxg69CjoauH3_xLDkj0RUQDXeCtrOZrodOz47XeJSn9FJone83hANzU-oi1iNcuQdPNtbkGjh5tVq_4DeSnS7GjuuyRm58mxhgzMI61jO1Zi_U5FUnNpxt1o3spdEhvrQW7riEX4PRRQqK-Fy2ntU7OvixS5PpzIoDpxni4jnbHsoyKqG69sET9_U8KdOrSQy1AtR7vXddrOUhSnXy3NEdHyL-17Pjnwdy3aZXUv2T4amBkrwYKYsAOxKZG_3iz7uVKlK68Wjayxrp05wo-LPoR-ZyIb1Xzwvy8iuo0VOYvGD5P1HLkW0ks-MsXmrPq-bLXlSI2q7ai_s-m-Oy4vLyEHMF9Px4qJsAU7-kLcf3lcEPqg90FjLj8T7ZB7H31_m40]--></g></svg>