<?xml version="1.0" encoding="us-ascii" standalone="no"?><svg xmlns="http://www.w3.org/2000/svg" xmlns:xlink="http://www.w3.org/1999/xlink" contentStyleType="text/css" height="467px" preserveAspectRatio="none" style="width:1549px;height:467px;background:#FFFFFF;" version="1.1" viewBox="0 0 1549 467" width="1549px" zoomAndPan="magnify"><defs/><g><text fill="#000000" font-family="sans-serif" font-size="14" font-weight="bold" lengthAdjust="spacing" textLength="327" x="604" y="25.6953">[Cluster] Utilities: Places, Checklists &amp; Memory</text><!--cluster Place & Search--><g id="cluster_Place &amp; Search"><path d="M8.5,46.0791 L114.5,46.0791 A3.75,3.75 0 0 1 117,48.5791 L124,71.1582 L674.5,71.1582 A2.5,2.5 0 0 1 677,73.6582 L677,457.5791 A2.5,2.5 0 0 1 674.5,460.0791 L8.5,460.0791 A2.5,2.5 0 0 1 6,457.5791 L6,48.5791 A2.5,2.5 0 0 1 8.5,46.0791 " fill="none" style="stroke:#000000;stroke-width:1.5;"/><line style="stroke:#000000;stroke-width:1.5;" x1="6" x2="124" y1="71.1582" y2="71.1582"/><text fill="#000000" font-family="sans-serif" font-size="14" font-weight="bold" lengthAdjust="spacing" textLength="105" x="10" y="63.7744">Place &amp; Search</text></g><!--cluster Checklist--><g id="cluster_Checklist"><path d="M703.5,65.5791 L769.5,65.5791 A3.75,3.75 0 0 1 772,68.0791 L779,90.6582 L1076.5,90.6582 A2.5,2.5 0 0 1 1079,93.1582 L1079,457.5791 A2.5,2.5 0 0 1 1076.5,460.0791 L703.5,460.0791 A2.5,2.5 0 0 1 701,457.5791 L701,68.0791 A2.5,2.5 0 0 1 703.5,65.5791 " fill="none" style="stroke:#000000;stroke-width:1.5;"/><line style="stroke:#000000;stroke-width:1.5;" x1="701" x2="779" y1="90.6582" y2="90.6582"/><text fill="#000000" font-family="sans-serif" font-size="14" font-weight="bold" lengthAdjust="spacing" textLength="65" x="705" y="83.2744">Checklist</text></g><!--cluster Chat Memory--><g id="cluster_Chat Memory"><path d="M1105.5,65.5791 L1198.5,65.5791 A3.75,3.75 0 0 1 1201,68.0791 L1208,90.6582 L1539.5,90.6582 A2.5,2.5 0 0 1 1542,93.1582 L1542,238.0791 A2.5,2.5 0 0 1 1539.5,240.5791 L1105.5,240.5791 A2.5,2.5 0 0 1 1103,238.0791 L1103,68.0791 A2.5,2.5 0 0 1 1105.5,65.5791 " fill="none" style="stroke:#000000;stroke-width:1.5;"/><line style="stroke:#000000;stroke-width:1.5;" x1="1103" x2="1208" y1="90.6582" y2="90.6582"/><text fill="#000000" font-family="sans-serif" font-size="14" font-weight="bold" lengthAdjust="spacing" textLength="92" x="1107" y="83.2744">Chat Memory</text></g><!--class image_action_type--><g id="elem_image_action_type"><rect codeLine="487" fill="#F1F1F1" height="102.3164" id="image_action_type" rx="2.5" ry="2.5" style="stroke:#181818;stroke-width:0.5;" width="147" x="513.5" y="113.0791"/><ellipse cx="526.5" cy="127.6187" fill="#EB937F" rx="9" ry="9" style="stroke:#181818;stroke-width:1.0;"/><path d="M522.2344,133.6187 L522.2344,121.4468 L531.2656,121.4468 L531.2656,123.5093 L524.6875,123.5093 L524.6875,126.2124 L530.7969,126.2124 L530.7969,128.2593 L524.6875,128.2593 L524.6875,131.5718 L531.5,131.5718 L531.5,133.6187 L522.2344,133.6187 Z " fill="#000000"/><text fill="#000000" font-family="sans-serif" font-size="14" lengthAdjust="spacing" textLength="119" x="538.5" y="133.7744">image_action_type</text><line style="stroke:#181818;stroke-width:0.5;" x1="514.5" x2="659.5" y1="142.1582" y2="142.1582"/><text fill="#000000" font-family="sans-serif" font-size="14" lengthAdjust="spacing" textLength="81" x="519.5" y="161.8535">SAVE_ONLY</text><text fill="#000000" font-family="sans-serif" font-size="14" lengthAdjust="spacing" textLength="110" x="519.5" y="180.9326">EDIT_ITINERARY</text><text fill="#000000" font-family="sans-serif" font-size="14" lengthAdjust="spacing" textLength="64" x="519.5" y="200.0117">REPLACE</text><line style="stroke:#181818;stroke-width:0.5;" x1="514.5" x2="659.5" y1="207.3955" y2="207.3955"/></g><!--class places--><g id="elem_places"><rect codeLine="493" fill="#F1F1F1" height="159.5537" id="places" rx="2.5" ry="2.5" style="stroke:#181818;stroke-width:0.5;" width="193" x="285.5" y="84.0791"/><ellipse cx="357.75" cy="98.6187" fill="#ADD1B2" rx="9" ry="9" style="stroke:#181818;stroke-width:1.0;"/><path d="M353.4844,104.6187 L353.4844,92.4468 L362.5156,92.4468 L362.5156,94.5093 L355.9375,94.5093 L355.9375,97.2124 L362.0469,97.2124 L362.0469,99.2593 L355.9375,99.2593 L355.9375,102.5718 L362.75,102.5718 L362.75,104.6187 L353.4844,104.6187 Z " fill="#000000"/><text fill="#000000" font-family="sans-serif" font-size="14" lengthAdjust="spacing" textLength="41" x="375.25" y="104.7744">places</text><line style="stroke:#181818;stroke-width:0.5;" x1="286.5" x2="477.5" y1="113.1582" y2="113.1582"/><ellipse cx="296.5" cy="128.1978" fill="#000000" rx="3" ry="3" style="stroke:#000000;stroke-width:1.0;"/><text fill="#000000" font-family="sans-serif" font-size="14" lengthAdjust="spacing" textLength="132" x="303.5" y="132.8535">id : BIGSERIAL &#171;PK&#187;</text><line style="stroke:#181818;stroke-width:1.0;" x1="286.5" x2="477.5" y1="140.2373" y2="140.2373"/><text fill="#000000" font-family="sans-serif" font-size="14" lengthAdjust="spacing" textLength="147" x="291.5" y="159.9326">name : VARCHAR(255)</text><text fill="#000000" font-family="sans-serif" font-size="14" lengthAdjust="spacing" textLength="88" x="291.5" y="179.0117">lat : NUMERIC</text><text fill="#000000" font-family="sans-serif" font-size="14" lengthAdjust="spacing" textLength="92" x="291.5" y="198.0908">lng : NUMERIC</text><text fill="#000000" font-family="sans-serif" font-size="14" lengthAdjust="spacing" textLength="181" x="291.5" y="217.1699">place_type : VARCHAR(500)</text><text fill="#000000" font-family="sans-serif" font-size="14" lengthAdjust="spacing" textLength="140" x="291.5" y="236.249">image_url : VARCHAR</text></g><!--class image_searches--><g id="elem_image_searches"><rect codeLine="503" fill="#F1F1F1" height="102.3164" id="image_searches" rx="2.5" ry="2.5" style="stroke:#181818;stroke-width:0.5;" width="228" x="22" y="113.0791"/><ellipse cx="80.25" cy="127.6187" fill="#ADD1B2" rx="9" ry="9" style="stroke:#181818;stroke-width:1.0;"/><path d="M75.9844,133.6187 L75.9844,121.4468 L85.0156,121.4468 L85.0156,123.5093 L78.4375,123.5093 L78.4375,126.2124 L84.5469,126.2124 L84.5469,128.2593 L78.4375,128.2593 L78.4375,131.5718 L85.25,131.5718 L85.25,133.6187 L75.9844,133.6187 Z " fill="#000000"/><text fill="#000000" font-family="sans-serif" font-size="14" lengthAdjust="spacing" textLength="104" x="97.75" y="133.7744">image_searches</text><line style="stroke:#181818;stroke-width:0.5;" x1="23" x2="249" y1="142.1582" y2="142.1582"/><ellipse cx="33" cy="157.1978" fill="#000000" rx="3" ry="3" style="stroke:#000000;stroke-width:1.0;"/><text fill="#000000" font-family="sans-serif" font-size="14" lengthAdjust="spacing" textLength="132" x="40" y="161.8535">id : BIGSERIAL &#171;PK&#187;</text><line style="stroke:#181818;stroke-width:1.0;" x1="23" x2="249" y1="169.2373" y2="169.2373"/><ellipse cx="33" cy="184.2769" fill="#000000" rx="3" ry="3" style="stroke:#000000;stroke-width:1.0;"/><text fill="#000000" font-family="sans-serif" font-size="14" lengthAdjust="spacing" textLength="141" x="40" y="188.9326">user_id : BIGINT &#171;FK&#187;</text><text fill="#000000" font-family="sans-serif" font-size="14" lengthAdjust="spacing" textLength="204" x="40" y="208.0117">action_type : image_action_type</text></g><!--class image_search_results--><g id="elem_image_search_results"><rect codeLine="510" fill="#F1F1F1" height="140.4746" id="image_search_results" rx="2.5" ry="2.5" style="stroke:#181818;stroke-width:0.5;" width="179" x="169.5" y="304.0791"/><ellipse cx="187.9" cy="318.6187" fill="#ADD1B2" rx="9" ry="9" style="stroke:#181818;stroke-width:1.0;"/><path d="M183.6344,324.6187 L183.6344,312.4468 L192.6656,312.4468 L192.6656,314.5093 L186.0875,314.5093 L186.0875,317.2124 L192.1969,317.2124 L192.1969,319.2593 L186.0875,319.2593 L186.0875,322.5718 L192.9,322.5718 L192.9,324.6187 L183.6344,324.6187 Z " fill="#000000"/><text fill="#000000" font-family="sans-serif" font-size="14" lengthAdjust="spacing" textLength="139" x="201.1" y="324.7744">image_search_results</text><line style="stroke:#181818;stroke-width:0.5;" x1="170.5" x2="347.5" y1="333.1582" y2="333.1582"/><ellipse cx="180.5" cy="348.1978" fill="#000000" rx="3" ry="3" style="stroke:#000000;stroke-width:1.0;"/><text fill="#000000" font-family="sans-serif" font-size="14" lengthAdjust="spacing" textLength="132" x="187.5" y="352.8535">id : BIGSERIAL &#171;PK&#187;</text><line style="stroke:#181818;stroke-width:1.0;" x1="170.5" x2="347.5" y1="360.2373" y2="360.2373"/><ellipse cx="180.5" cy="375.2769" fill="#000000" rx="3" ry="3" style="stroke:#000000;stroke-width:1.0;"/><text fill="#000000" font-family="sans-serif" font-size="14" lengthAdjust="spacing" textLength="155" x="187.5" y="379.9326">history_id : BIGINT &#171;FK&#187;</text><ellipse cx="180.5" cy="394.356" fill="#000000" rx="3" ry="3" style="stroke:#000000;stroke-width:1.0;"/><text fill="#000000" font-family="sans-serif" font-size="14" lengthAdjust="spacing" textLength="147" x="187.5" y="399.0117">place_id : BIGINT &#171;FK&#187;</text><text fill="#000000" font-family="sans-serif" font-size="14" lengthAdjust="spacing" textLength="149" x="187.5" y="418.0908">is_selected : BOOLEAN</text><text fill="#000000" font-family="sans-serif" font-size="14" lengthAdjust="spacing" textLength="84" x="187.5" y="437.1699">rank : BIGINT</text></g><!--class checklist_category--><g id="elem_checklist_category"><rect codeLine="521" fill="#F1F1F1" height="121.3955" id="checklist_category" rx="2.5" ry="2.5" style="stroke:#181818;stroke-width:0.5;" width="145" x="917.5" y="103.5791"/><ellipse cx="930.5" cy="118.1187" fill="#EB937F" rx="9" ry="9" style="stroke:#181818;stroke-width:1.0;"/><path d="M926.2344,124.1187 L926.2344,111.9468 L935.2656,111.9468 L935.2656,114.0093 L928.6875,114.0093 L928.6875,116.7124 L934.7969,116.7124 L934.7969,118.7593 L928.6875,118.7593 L928.6875,122.0718 L935.5,122.0718 L935.5,124.1187 L926.2344,124.1187 Z " fill="#000000"/><text fill="#000000" font-family="sans-serif" font-size="14" lengthAdjust="spacing" textLength="117" x="942.5" y="124.2744">checklist_category</text><line style="stroke:#181818;stroke-width:0.5;" x1="918.5" x2="1061.5" y1="132.6582" y2="132.6582"/><text fill="#000000" font-family="sans-serif" font-size="14" lengthAdjust="spacing" textLength="60" x="923.5" y="152.3535">PACKING</text><text fill="#000000" font-family="sans-serif" font-size="14" lengthAdjust="spacing" textLength="65" x="923.5" y="171.4326">CLOTHES</text><text fill="#000000" font-family="sans-serif" font-size="14" lengthAdjust="spacing" textLength="78" x="923.5" y="190.5117">DOCUMENT</text><text fill="#000000" font-family="sans-serif" font-size="14" lengthAdjust="spacing" textLength="28" x="923.5" y="209.5908">ETC</text><line style="stroke:#181818;stroke-width:0.5;" x1="918.5" x2="1061.5" y1="216.9746" y2="216.9746"/></g><!--class checklists--><g id="elem_checklists"><rect codeLine="528" fill="#F1F1F1" height="102.3164" id="checklists" rx="2.5" ry="2.5" style="stroke:#181818;stroke-width:0.5;" width="165" x="717.5" y="113.0791"/><ellipse cx="765.75" cy="127.6187" fill="#ADD1B2" rx="9" ry="9" style="stroke:#181818;stroke-width:1.0;"/><path d="M761.4844,133.6187 L761.4844,121.4468 L770.5156,121.4468 L770.5156,123.5093 L763.9375,123.5093 L763.9375,126.2124 L770.0469,126.2124 L770.0469,128.2593 L763.9375,128.2593 L763.9375,131.5718 L770.75,131.5718 L770.75,133.6187 L761.4844,133.6187 Z " fill="#000000"/><text fill="#000000" font-family="sans-serif" font-size="14" lengthAdjust="spacing" textLength="61" x="783.25" y="133.7744">checklists</text><line style="stroke:#181818;stroke-width:0.5;" x1="718.5" x2="881.5" y1="142.1582" y2="142.1582"/><ellipse cx="728.5" cy="157.1978" fill="#000000" rx="3" ry="3" style="stroke:#000000;stroke-width:1.0;"/><text fill="#000000" font-family="sans-serif" font-size="14" lengthAdjust="spacing" textLength="132" x="735.5" y="161.8535">id : BIGSERIAL &#171;PK&#187;</text><line style="stroke:#181818;stroke-width:1.0;" x1="718.5" x2="881.5" y1="169.2373" y2="169.2373"/><ellipse cx="728.5" cy="184.2769" fill="#000000" rx="3" ry="3" style="stroke:#000000;stroke-width:1.0;"/><text fill="#000000" font-family="sans-serif" font-size="14" lengthAdjust="spacing" textLength="141" x="735.5" y="188.9326">user_id : BIGINT &#171;FK&#187;</text><text fill="#000000" font-family="sans-serif" font-size="14" lengthAdjust="spacing" textLength="120" x="735.5" y="208.0117">day_index : BIGINT</text></g><!--class checklist_items--><g id="elem_checklist_items"><rect codeLine="535" fill="#F1F1F1" height="140.4746" id="checklist_items" rx="2.5" ry="2.5" style="stroke:#181818;stroke-width:0.5;" width="208" x="717" y="304.0791"/><ellipse cx="769.75" cy="318.6187" fill="#ADD1B2" rx="9" ry="9" style="stroke:#181818;stroke-width:1.0;"/><path d="M765.4844,324.6187 L765.4844,312.4468 L774.5156,312.4468 L774.5156,314.5093 L767.9375,314.5093 L767.9375,317.2124 L774.0469,317.2124 L774.0469,319.2593 L767.9375,319.2593 L767.9375,322.5718 L774.75,322.5718 L774.75,324.6187 L765.4844,324.6187 Z " fill="#000000"/><text fill="#000000" font-family="sans-serif" font-size="14" lengthAdjust="spacing" textLength="95" x="787.25" y="324.7744">checklist_items</text><line style="stroke:#181818;stroke-width:0.5;" x1="718" x2="924" y1="333.1582" y2="333.1582"/><ellipse cx="728" cy="348.1978" fill="#000000" rx="3" ry="3" style="stroke:#000000;stroke-width:1.0;"/><text fill="#000000" font-family="sans-serif" font-size="14" lengthAdjust="spacing" textLength="132" x="735" y="352.8535">id : BIGSERIAL &#171;PK&#187;</text><line style="stroke:#181818;stroke-width:1.0;" x1="718" x2="924" y1="360.2373" y2="360.2373"/><ellipse cx="728" cy="375.2769" fill="#000000" rx="3" ry="3" style="stroke:#000000;stroke-width:1.0;"/><text fill="#000000" font-family="sans-serif" font-size="14" lengthAdjust="spacing" textLength="167" x="735" y="379.9326">checklist_id : BIGINT &#171;FK&#187;</text><text fill="#000000" font-family="sans-serif" font-size="14" lengthAdjust="spacing" textLength="94" x="735" y="399.0117">content : TEXT</text><text fill="#000000" font-family="sans-serif" font-size="14" lengthAdjust="spacing" textLength="184" x="735" y="418.0908">category : checklist_category</text><text fill="#000000" font-family="sans-serif" font-size="14" lengthAdjust="spacing" textLength="149" x="735" y="437.1699">is_checked : BOOLEAN</text></g><!--class chat_memories--><g id="elem_chat_memories"><rect codeLine="546" fill="#F1F1F1" height="121.3955" id="chat_memories" rx="2.5" ry="2.5" style="stroke:#181818;stroke-width:0.5;" width="165" x="1360.5" y="103.5791"/><ellipse cx="1391.95" cy="118.1187" fill="#ADD1B2" rx="9" ry="9" style="stroke:#181818;stroke-width:1.0;"/><path d="M1387.6844,124.1187 L1387.6844,111.9468 L1396.7156,111.9468 L1396.7156,114.0093 L1390.1375,114.0093 L1390.1375,116.7124 L1396.2469,116.7124 L1396.2469,118.7593 L1390.1375,118.7593 L1390.1375,122.0718 L1396.95,122.0718 L1396.95,124.1187 L1387.6844,124.1187 Z " fill="#000000"/><text fill="#000000" font-family="sans-serif" font-size="14" lengthAdjust="spacing" textLength="96" x="1408.05" y="124.2744">chat_memories</text><line style="stroke:#181818;stroke-width:0.5;" x1="1361.5" x2="1524.5" y1="132.6582" y2="132.6582"/><ellipse cx="1371.5" cy="147.6978" fill="#000000" rx="3" ry="3" style="stroke:#000000;stroke-width:1.0;"/><text fill="#000000" font-family="sans-serif" font-size="14" lengthAdjust="spacing" textLength="132" x="1378.5" y="152.3535">id : BIGSERIAL &#171;PK&#187;</text><line style="stroke:#181818;stroke-width:1.0;" x1="1361.5" x2="1524.5" y1="159.7373" y2="159.7373"/><ellipse cx="1371.5" cy="174.7769" fill="#000000" rx="3" ry="3" style="stroke:#000000;stroke-width:1.0;"/><text fill="#000000" font-family="sans-serif" font-size="14" lengthAdjust="spacing" textLength="141" x="1378.5" y="179.4326">user_id : BIGINT &#171;FK&#187;</text><text fill="#000000" font-family="sans-serif" font-size="14" lengthAdjust="spacing" textLength="111" x="1378.5" y="198.5117">agent_id : BIGINT</text><text fill="#000000" font-family="sans-serif" font-size="14" lengthAdjust="spacing" textLength="94" x="1378.5" y="217.5908">content : TEXT</text></g><!--class chat_memory_vectors--><g id="elem_chat_memory_vectors"><rect codeLine="554" fill="#F1F1F1" height="102.3164" id="chat_memory_vectors" rx="2.5" ry="2.5" style="stroke:#181818;stroke-width:0.5;" width="206" x="1119" y="113.0791"/><ellipse cx="1149.55" cy="127.6187" fill="#ADD1B2" rx="9" ry="9" style="stroke:#181818;stroke-width:1.0;"/><path d="M1145.2844,133.6187 L1145.2844,121.4468 L1154.3156,121.4468 L1154.3156,123.5093 L1147.7375,123.5093 L1147.7375,126.2124 L1153.8469,126.2124 L1153.8469,128.2593 L1147.7375,128.2593 L1147.7375,131.5718 L1154.55,131.5718 L1154.55,133.6187 L1145.2844,133.6187 Z " fill="#000000"/><text fill="#000000" font-family="sans-serif" font-size="14" lengthAdjust="spacing" textLength="139" x="1165.45" y="133.7744">chat_memory_vectors</text><line style="stroke:#181818;stroke-width:0.5;" x1="1120" x2="1324" y1="142.1582" y2="142.1582"/><ellipse cx="1130" cy="157.1978" fill="#000000" rx="3" ry="3" style="stroke:#000000;stroke-width:1.0;"/><text fill="#000000" font-family="sans-serif" font-size="14" lengthAdjust="spacing" textLength="132" x="1137" y="161.8535">id : BIGSERIAL &#171;PK&#187;</text><line style="stroke:#181818;stroke-width:1.0;" x1="1120" x2="1324" y1="169.2373" y2="169.2373"/><ellipse cx="1130" cy="184.2769" fill="#000000" rx="3" ry="3" style="stroke:#000000;stroke-width:1.0;"/><text fill="#000000" font-family="sans-serif" font-size="14" lengthAdjust="spacing" textLength="141" x="1137" y="188.9326">user_id : BIGINT &#171;FK&#187;</text><text fill="#000000" font-family="sans-serif" font-size="14" lengthAdjust="spacing" textLength="182" x="1137" y="208.0117">embedding : VECTOR(1536)</text></g><!--link image_searches to image_search_results--><g id="link_image_searches_image_search_results"><path codeLine="562" d="M209.75,223.1791 C209.75,249.8891 209.75,256.9891 209.75,286.0491 " fill="none" id="image_searches-image_search_results" style="stroke:#181818;stroke-width:1.0;stroke-dasharray:7.0,7.0;"/><line style="stroke:#181818;stroke-width:1.0;" x1="205.75" x2="213.75" y1="219.1791" y2="219.1791"/><line style="stroke:#181818;stroke-width:1.0;" x1="205.75" x2="213.75" y1="222.1791" y2="222.1791"/><line style="stroke:#181818;stroke-width:1.0;" x1="209.75" x2="209.75" y1="223.1791" y2="215.1791"/><line style="stroke:#181818;stroke-width:1.0;" x1="209.75" x2="215.75" y1="296.0491" y2="304.0491"/><line style="stroke:#181818;stroke-width:1.0;" x1="209.75" x2="203.75" y1="296.0491" y2="304.0491"/><line style="stroke:#181818;stroke-width:1.0;" x1="209.75" x2="209.75" y1="296.0491" y2="304.0491"/><ellipse cx="209.75" cy="290.0491" fill="none" rx="4" ry="4" style="stroke:#181818;stroke-width:1.0;"/></g><!--link places to image_search_results--><g id="link_places_image_search_results"><path codeLine="563" d="M317,252.3691 C317,271.9391 317,266.7191 317,285.7791 " fill="none" id="places-image_search_results" style="stroke:#181818;stroke-width:1.0;stroke-dasharray:7.0,7.0;"/><line style="stroke:#181818;stroke-width:1.0;" x1="313" x2="321" y1="248.3691" y2="248.3691"/><line style="stroke:#181818;stroke-width:1.0;" x1="313" x2="321" y1="251.3691" y2="251.3691"/><line style="stroke:#181818;stroke-width:1.0;" x1="317" x2="317" y1="252.3691" y2="244.3691"/><line style="stroke:#181818;stroke-width:1.0;" x1="317" x2="323" y1="295.7791" y2="303.7791"/><line style="stroke:#181818;stroke-width:1.0;" x1="317" x2="311" y1="295.7791" y2="303.7791"/><line style="stroke:#181818;stroke-width:1.0;" x1="317" x2="317" y1="295.7791" y2="303.7791"/><ellipse cx="317" cy="289.7791" fill="none" rx="4" ry="4" style="stroke:#181818;stroke-width:1.0;"/></g><!--link checklists to checklist_items--><g id="link_checklists_checklist_items"><path codeLine="564" d="M800,223.1791 C800,249.8891 800,256.9891 800,286.0491 " fill="none" id="checklists-checklist_items" style="stroke:#181818;stroke-width:1.0;stroke-dasharray:7.0,7.0;"/><line style="stroke:#181818;stroke-width:1.0;" x1="796" x2="804" y1="219.1791" y2="219.1791"/><line style="stroke:#181818;stroke-width:1.0;" x1="796" x2="804" y1="222.1791" y2="222.1791"/><line style="stroke:#181818;stroke-width:1.0;" x1="800" x2="800" y1="223.1791" y2="215.1791"/><line style="stroke:#181818;stroke-width:1.0;" x1="800" x2="806" y1="296.0491" y2="304.0491"/><line style="stroke:#181818;stroke-width:1.0;" x1="800" x2="794" y1="296.0491" y2="304.0491"/><line style="stroke:#181818;stroke-width:1.0;" x1="800" x2="800" y1="296.0491" y2="304.0491"/><ellipse cx="800" cy="290.0491" fill="none" rx="4" ry="4" style="stroke:#181818;stroke-width:1.0;"/></g><!--SRC=[xLfVZzis4d_Nf-3jGvCDaY1_kW5kqHPG7CMhrciRbdRRz508N9crTIjBhaHjOxJxrW_Iljz3KRHVwf0FSKD9baYAbBN-qqkBw4dYKEBCS6OuCp_TGvzslOnxoB5Srnxs7RZj_je_w9mi25g6E8YCUJ0bo0yIFoH6UXr4IvpW1Gg3YD3Lag0ueVFOWCy_slQ2TyTctq9FJr5_C7ff3j3hYy40ERqpwzn4zz_z_DExttv7__tZF-z- -VLufuLeG4E2_jKFuoiSeik0VFyDUfs58Ng5ARx2AK6E3v9ZmrXY_nhF23gwI4c2Fa9cHkT7w0S3mKKY-CuA7ML0IeyGJb5-LrBPzI2OebFqqkuxriG6UJxvPFp5PvzLPE1aVHka7lPfS4FO_D5eO9d3YXRYb7fXF0iY3rEWk_QvvRZc-TZzkfeJuGLxzTASzCxCoVsJ9ySL2UG8GexszCaJZhfCuc-3a7Z10iJqiaG_qqy8fcIgvo5RJlKJRes6pZmmAFOOa5fxtDXMUdnGVgIORWzTcFkQdmloti0QYKPPhK9ACgHHwj7ucaG5-_NZOJZFwTZtILgkmpYqld9hqTWEjaqWRvT1GbBz3iBBSHPHBtTejOA2cNULfU3qARFOVBfeCP8kusJJj6Ls5GRfl6tQhN7BkQARu1iIed68eoY8Ph8xqfpiGT0gDuOVECpMN6NJ6M6Slx9wzhavkF_qdm-VrHAc52VKOyx1ffYkLUz8D5MEGpW04fbAqK0om5AmALu9WhBdxUJaDDKcBYpW1S3UMvZXWBW3c5CHYzYgDfxymxAyQg5Wga_a_VEtZGevntg1P9wVyamNkwVr6RQ5McBEioS5vnSV7tEndRqwl3W74NhrQ3HJZ8Bx4fy59pzErSOcgTBFaWJkYvEbZhFDuLsj1MHiqIwia-5GppMx5cGHDy8Lyu1EaPYtspJ2otGUquRlrvJ3184REFk3EF8Y9WZl4UjrlN-dCOl9dpkZeIAiJSWD928f91bEx0SubEDQajEz9QYna8qVEAY_ftGL2ZjSX_WueYIFsSBEGVXYN3NY5xiuhijqetfLsjNrJ51TxCsIE5kASdFZsudFiw8HluMb9ZDRif6BqAR_F46JT7NNu14dKsQ-PTHUxw4atXodSufdlBB5eJzBp-Mg0Wk7qguKdONS10mv9M4UTHj7CU-xfetC28UhD4XbjyM1LygFgnaWL7FuC56fY_BBl7YnXCoFl6rwSxJCXE3rihQgZ2ffqdQ2i7aCgKGlddQofhNQxhAr9q-EDUm91iSz_-aigbDUX-34dyFHC2xJ8j76k6HfXon9OkNPoSbsUKgH43Hg2BNkYxeppUKhHH273kCMBFU1ixfaqW8HDZ47xffc8Msok2Pin-WyIA56QirE7spCiDh2b9WenN2Kh5EZulx_PYgYXVVcnB-6Ef3Ajksl2MNoMZqUnZ3usePBTkJCUis55r2oa3WhnhPZZ_k8daTDrkL3OJK3M-8DkhIE_BCRph2pc9AGfPzZl5h0vnjHPiucU5TnV0rLTtaq2qE7sP5Y3LNsIMCATSKo2NoYi3YessYMrbRAzKbo-Jpb16cZrtCXKuxI8cYKSLP1s382y3fiZLcBiZ_INTAosUMjkSs_BeehEY7uxZcKOicgwOQOUgnAIweoaXyvK9IULKntApoIcA_ZrPwxvdhbtK34Z1DPcchyFP69BAx8T1hayVFIwhaZbiWyVy6b2VTGsScU40Y-p1BdmJ8rYcxqZpy-VXp_83TNHMBTkXJ7-SwPbbBNrUAKPeOhqiLZNgJLKLuS5-ED_0vdZpfIjRc68RG5HR5O1qr9vqjkWs-tDTG2IPWXDgxMl3IwBuOXLFBIKboLgvmd5cZAAOgTKDNGYeLJGwh_n4M1TKKTKwzQfFdjS-fFINcVmapMgPOXgbGvnU0o1TcgYXFQCAJZgvoc2ks64P7lMODzBmZNirDq0P64uKaNxXdg3IuSrvhi0zBgXLbAIV8Dul0gvlD-7XSCenspQWbpPOZJuLIRC2eDFgN7fhhXKgrmZHQFkXNrq0s7sgoRrj3VWZjfXU3ut8GrxSXTAxRKYYkrOaeRyAIEM58776a3XWIAtEemtAlJFmVzJCnBQu360tCuj8VzWpY-X8v13B0fg3Z1oQesfouOsOucrOA9gV4m5HQcmC5kbLBSeUs_erpADh-onT_aj0Mfwy1LXswz5fdJeN8DH4wftZOahWFZBUYR5dbhGTsqY5ihsjPiIpHR4kq86wUQko9hTzfTVQzd4v8cesWQ1EssS_AxUsuhBFJeiSOpJz7HPU5Ng0TL49HnH_iDlX-VeebrQLjVEYmfif4vD0Tl7DivI0WkaRo79P1NhhXElOsx07hx2Gjg04zHRwg0kzicnzqHkGxyRm0eDClhqRSEIxPYGYgqhKlmQ29i7EjTaRMzwgiDHTjLIphSGjsA_e2LVS3A3eoL7Q27idDpH5hhqIDbCuQTVdt2KdGAkxxFZie-Jz2JKtJXsWFRjIq7tSznI5J0aWzH1TwmMqoFzzl9e46OvnAd9Vh9hSVWYg9VpGMOWhUFIkxg69CjoauH3_xLDkj0RUQDXeCtrOZrodOz47XeJSn9FJone83hANzU-oi1iNcuQdPNtbkGjh5tVq_4DeSnS7GjuuyRm58mxhgzMI61jO1Zi_U5FUnNpxt1o3spdEhvrQW7riEX4PRRQqK-Fy2ntU7OvixS5PpzIoDpxni4jnbHsoyKqG69sET9_U8KdOrSQy1AtR7vXddrOUhSnXy3NEdHyL-17Pjnwdy3aZXUv2T4amBkrwYKYsAOxKZG_3iz7uVKlK68Wjayxrp05wo-LPoR-ZyIb1Xzwvy8iuo0VOYvGD5P1HLkW0ks-MsXmrPq-bLXlSI2q7ai_s-m-Oy4vLyEHMF9Px4qJsAU7-kLcf3lcEPqg90FjLj8T7ZB7H31_m40]--></g></svg>