<?xml version="1.0" encoding="us-ascii" standalone="no"?><svg xmlns="http://www.w3.org/2000/svg" xmlns:xlink="http://www.w3.org/1999/xlink" contentStyleType="text/css" height="223px" preserveAspectRatio="none" style="width:173px;height:223px;background:#FFFFFF;" version="1.1" viewBox="0 0 173 223" width="173px" zoomAndPan="magnify"><defs/><g><!--cluster Checklist--><g id="cluster_Checklist"><path d="M8.5,6 L74.5,6 A3.75,3.75 0 0 1 77,8.5 L84,31.0791 L163.5,31.0791 A2.5,2.5 0 0 1 166,33.5791 L166,213.5 A2.5,2.5 0 0 1 163.5,216 L8.5,216 A2.5,2.5 0 0 1 6,213.5 L6,8.5 A2.5,2.5 0 0 1 8.5,6 " fill="none" style="stroke:#000000;stroke-width:1.5;"/><line style="stroke:#000000;stroke-width:1.5;" x1="6" x2="84" y1="31.0791" y2="31.0791"/><text fill="#000000" font-family="sans-serif" font-size="14" font-weight="bold" lengthAdjust="spacing" textLength="65" x="10" y="23.6953">Checklist</text></g><!--class checklists--><g id="elem_checklists"><rect codeLine="4" fill="#F1F1F1" height="48" id="checklists" rx="2.5" ry="2.5" style="stroke:#181818;stroke-width:0.5;" width="93" x="39.5" y="44"/><ellipse cx="54.5" cy="60" fill="#ADD1B2" rx="11" ry="11" style="stroke:#181818;stroke-width:1.0;"/><path d="M57.2656,55.875 Q57.4219,55.6563 57.6094,55.5469 Q57.7969,55.4375 58.0156,55.4375 Q58.3906,55.4375 58.625,55.7031 Q58.8594,55.9531 58.8594,56.5625 L58.8594,58.0156 Q58.8594,58.625 58.625,58.8906 Q58.3906,59.1563 58.0156,59.1563 Q57.6719,59.1563 57.4688,58.9531 Q57.2656,58.7656 57.1563,58.25 Q57.1094,57.8906 56.9219,57.7031 Q56.5938,57.3281 55.9844,57.1094 Q55.375,56.8906 54.75,56.8906 Q53.9844,56.8906 53.3438,57.2188 Q52.7188,57.5469 52.2188,58.2969 Q51.7344,59.0469 51.7344,60.0781 L51.7344,61.1719 Q51.7344,62.4063 52.625,63.2344 Q53.5156,64.0469 55.1094,64.0469 Q56.0469,64.0469 56.7031,63.7969 Q57.0938,63.6406 57.5156,63.2031 Q57.7813,62.9375 57.9219,62.8594 Q58.0781,62.7813 58.2813,62.7813 Q58.6094,62.7813 58.8594,63.0469 Q59.125,63.2969 59.125,63.6406 Q59.125,63.9844 58.7813,64.3906 Q58.2813,64.9688 57.4844,65.2969 Q56.4063,65.75 55.1094,65.75 Q53.5938,65.75 52.3906,65.125 Q51.4063,64.625 50.7188,63.5625 Q50.0313,62.4844 50.0313,61.2031 L50.0313,60.0469 Q50.0313,58.7188 50.6406,57.5781 Q51.2656,56.4219 52.3594,55.8125 Q53.4531,55.1875 54.6875,55.1875 Q55.4219,55.1875 56.0625,55.3594 Q56.7188,55.5156 57.2656,55.875 Z " fill="#000000"/><text fill="#000000" font-family="sans-serif" font-size="14" lengthAdjust="spacing" textLength="61" x="68.5" y="66.1558">checklists</text><line style="stroke:#181818;stroke-width:0.5;" x1="40.5" x2="131.5" y1="76" y2="76"/><line style="stroke:#181818;stroke-width:0.5;" x1="40.5" x2="131.5" y1="84" y2="84"/></g><!--class checklist_items--><g id="elem_checklist_items"><rect codeLine="5" fill="#F1F1F1" height="48" id="checklist_items" rx="2.5" ry="2.5" style="stroke:#181818;stroke-width:0.5;" width="127" x="22.5" y="152"/><ellipse cx="37.5" cy="168" fill="#ADD1B2" rx="11" ry="11" style="stroke:#181818;stroke-width:1.0;"/><path d="M40.2656,163.875 Q40.4219,163.6563 40.6094,163.5469 Q40.7969,163.4375 41.0156,163.4375 Q41.3906,163.4375 41.625,163.7031 Q41.8594,163.9531 41.8594,164.5625 L41.8594,166.0156 Q41.8594,166.625 41.625,166.8906 Q41.3906,167.1563 41.0156,167.1563 Q40.6719,167.1563 40.4688,166.9531 Q40.2656,166.7656 40.1563,166.25 Q40.1094,165.8906 39.9219,165.7031 Q39.5938,165.3281 38.9844,165.1094 Q38.375,164.8906 37.75,164.8906 Q36.9844,164.8906 36.3438,165.2188 Q35.7188,165.5469 35.2188,166.2969 Q34.7344,167.0469 34.7344,168.0781 L34.7344,169.1719 Q34.7344,170.4063 35.625,171.2344 Q36.5156,172.0469 38.1094,172.0469 Q39.0469,172.0469 39.7031,171.7969 Q40.0938,171.6406 40.5156,171.2031 Q40.7813,170.9375 40.9219,170.8594 Q41.0781,170.7813 41.2813,170.7813 Q41.6094,170.7813 41.8594,171.0469 Q42.125,171.2969 42.125,171.6406 Q42.125,171.9844 41.7813,172.3906 Q41.2813,172.9688 40.4844,173.2969 Q39.4063,173.75 38.1094,173.75 Q36.5938,173.75 35.3906,173.125 Q34.4063,172.625 33.7188,171.5625 Q33.0313,170.4844 33.0313,169.2031 L33.0313,168.0469 Q33.0313,166.7188 33.6406,165.5781 Q34.2656,164.4219 35.3594,163.8125 Q36.4531,163.1875 37.6875,163.1875 Q38.4219,163.1875 39.0625,163.3594 Q39.7188,163.5156 40.2656,163.875 Z " fill="#000000"/><text fill="#000000" font-family="sans-serif" font-size="14" lengthAdjust="spacing" textLength="95" x="51.5" y="174.1558">checklist_items</text><line style="stroke:#181818;stroke-width:0.5;" x1="23.5" x2="148.5" y1="184" y2="184"/><line style="stroke:#181818;stroke-width:0.5;" x1="23.5" x2="148.5" y1="192" y2="192"/></g><!--link checklists to checklist_items--><g id="link_checklists_checklist_items"><path codeLine="7" d="M86,100 C86,117.66 86,115.94 86,133.68 " fill="none" id="checklists-checklist_items" style="stroke:#181818;stroke-width:1.0;"/><line style="stroke:#181818;stroke-width:1.0;" x1="82" x2="90" y1="96" y2="96"/><line style="stroke:#181818;stroke-width:1.0;" x1="82" x2="90" y1="99" y2="99"/><line style="stroke:#181818;stroke-width:1.0;" x1="86" x2="86" y1="100" y2="92"/><line style="stroke:#181818;stroke-width:1.0;" x1="86" x2="92" y1="143.68" y2="151.68"/><line style="stroke:#181818;stroke-width:1.0;" x1="86" x2="80" y1="143.68" y2="151.68"/><line style="stroke:#181818;stroke-width:1.0;" x1="86" x2="86" y1="143.68" y2="151.68"/><ellipse cx="86" cy="137.68" fill="none" rx="4" ry="4" style="stroke:#181818;stroke-width:1.0;"/></g><!--SRC=[AqXCpavCJrLGSiv8JSxEoImkKLAevb9GICv9B2vMI8O95cCAnMUMfEOMSu4auAeKQcfqTVEhCHJLSW40]--></g></svg>