<?xml version="1.0" encoding="us-ascii" standalone="no"?><svg xmlns="http://www.w3.org/2000/svg" xmlns:xlink="http://www.w3.org/1999/xlink" contentStyleType="text/css" height="547px" preserveAspectRatio="none" style="width:386px;height:547px;background:#FFFFFF;" version="1.1" viewBox="0 0 386 547" width="386px" zoomAndPan="magnify"><defs/><g><!--cluster Hotels & Booking--><g id="cluster_Hotels &amp; Booking"><path d="M8.5,6 L130.5,6 A3.75,3.75 0 0 1 133,8.5 L140,31.0791 L376.5,31.0791 A2.5,2.5 0 0 1 379,33.5791 L379,537.5 A2.5,2.5 0 0 1 376.5,540 L8.5,540 A2.5,2.5 0 0 1 6,537.5 L6,8.5 A2.5,2.5 0 0 1 8.5,6 " fill="none" style="stroke:#000000;stroke-width:1.5;"/><line style="stroke:#000000;stroke-width:1.5;" x1="6" x2="140" y1="31.0791" y2="31.0791"/><text fill="#000000" font-family="sans-serif" font-size="14" font-weight="bold" lengthAdjust="spacing" textLength="121" x="10" y="23.6953">Hotels &amp; Booking</text></g><!--class hotels--><g id="elem_hotels"><rect codeLine="5" fill="#F1F1F1" height="48" id="hotels" rx="2.5" ry="2.5" style="stroke:#181818;stroke-width:0.5;" width="70" x="236" y="44"/><ellipse cx="251" cy="60" fill="#ADD1B2" rx="11" ry="11" style="stroke:#181818;stroke-width:1.0;"/><path d="M253.7656,55.875 Q253.9219,55.6563 254.1094,55.5469 Q254.2969,55.4375 254.5156,55.4375 Q254.8906,55.4375 255.125,55.7031 Q255.3594,55.9531 255.3594,56.5625 L255.3594,58.0156 Q255.3594,58.625 255.125,58.8906 Q254.8906,59.1563 254.5156,59.1563 Q254.1719,59.1563 253.9688,58.9531 Q253.7656,58.7656 253.6563,58.25 Q253.6094,57.8906 253.4219,57.7031 Q253.0938,57.3281 252.4844,57.1094 Q251.875,56.8906 251.25,56.8906 Q250.4844,56.8906 249.8438,57.2188 Q249.2188,57.5469 248.7188,58.2969 Q248.2344,59.0469 248.2344,60.0781 L248.2344,61.1719 Q248.2344,62.4063 249.125,63.2344 Q250.0156,64.0469 251.6094,64.0469 Q252.5469,64.0469 253.2031,63.7969 Q253.5938,63.6406 254.0156,63.2031 Q254.2813,62.9375 254.4219,62.8594 Q254.5781,62.7813 254.7813,62.7813 Q255.1094,62.7813 255.3594,63.0469 Q255.625,63.2969 255.625,63.6406 Q255.625,63.9844 255.2813,64.3906 Q254.7813,64.9688 253.9844,65.2969 Q252.9063,65.75 251.6094,65.75 Q250.0938,65.75 248.8906,65.125 Q247.9063,64.625 247.2188,63.5625 Q246.5313,62.4844 246.5313,61.2031 L246.5313,60.0469 Q246.5313,58.7188 247.1406,57.5781 Q247.7656,56.4219 248.8594,55.8125 Q249.9531,55.1875 251.1875,55.1875 Q251.9219,55.1875 252.5625,55.3594 Q253.2188,55.5156 253.7656,55.875 Z " fill="#000000"/><text fill="#000000" font-family="sans-serif" font-size="14" lengthAdjust="spacing" textLength="38" x="265" y="66.1558">hotels</text><line style="stroke:#181818;stroke-width:0.5;" x1="237" x2="305" y1="76" y2="76"/><line style="stroke:#181818;stroke-width:0.5;" x1="237" x2="305" y1="84" y2="84"/></g><!--class hotel_rooms--><g id="elem_hotel_rooms"><rect codeLine="6" fill="#F1F1F1" height="48" id="hotel_rooms" rx="2.5" ry="2.5" style="stroke:#181818;stroke-width:0.5;" width="110" x="171" y="152"/><ellipse cx="186" cy="168" fill="#ADD1B2" rx="11" ry="11" style="stroke:#181818;stroke-width:1.0;"/><path d="M188.7656,163.875 Q188.9219,163.6563 189.1094,163.5469 Q189.2969,163.4375 189.5156,163.4375 Q189.8906,163.4375 190.125,163.7031 Q190.3594,163.9531 190.3594,164.5625 L190.3594,166.0156 Q190.3594,166.625 190.125,166.8906 Q189.8906,167.1563 189.5156,167.1563 Q189.1719,167.1563 188.9688,166.9531 Q188.7656,166.7656 188.6563,166.25 Q188.6094,165.8906 188.4219,165.7031 Q188.0938,165.3281 187.4844,165.1094 Q186.875,164.8906 186.25,164.8906 Q185.4844,164.8906 184.8438,165.2188 Q184.2188,165.5469 183.7188,166.2969 Q183.2344,167.0469 183.2344,168.0781 L183.2344,169.1719 Q183.2344,170.4063 184.125,171.2344 Q185.0156,172.0469 186.6094,172.0469 Q187.5469,172.0469 188.2031,171.7969 Q188.5938,171.6406 189.0156,171.2031 Q189.2813,170.9375 189.4219,170.8594 Q189.5781,170.7813 189.7813,170.7813 Q190.1094,170.7813 190.3594,171.0469 Q190.625,171.2969 190.625,171.6406 Q190.625,171.9844 190.2813,172.3906 Q189.7813,172.9688 188.9844,173.2969 Q187.9063,173.75 186.6094,173.75 Q185.0938,173.75 183.8906,173.125 Q182.9063,172.625 182.2188,171.5625 Q181.5313,170.4844 181.5313,169.2031 L181.5313,168.0469 Q181.5313,166.7188 182.1406,165.5781 Q182.7656,164.4219 183.8594,163.8125 Q184.9531,163.1875 186.1875,163.1875 Q186.9219,163.1875 187.5625,163.3594 Q188.2188,163.5156 188.7656,163.875 Z " fill="#000000"/><text fill="#000000" font-family="sans-serif" font-size="14" lengthAdjust="spacing" textLength="78" x="200" y="174.1558">hotel_rooms</text><line style="stroke:#181818;stroke-width:0.5;" x1="172" x2="280" y1="184" y2="184"/><line style="stroke:#181818;stroke-width:0.5;" x1="172" x2="280" y1="192" y2="192"/></g><!--class hotel_rate_plans--><g id="elem_hotel_rate_plans"><rect codeLine="7" fill="#F1F1F1" height="48" id="hotel_rate_plans" rx="2.5" ry="2.5" style="stroke:#181818;stroke-width:0.5;" width="138" x="106" y="260"/><ellipse cx="121" cy="276" fill="#ADD1B2" rx="11" ry="11" style="stroke:#181818;stroke-width:1.0;"/><path d="M123.7656,271.875 Q123.9219,271.6563 124.1094,271.5469 Q124.2969,271.4375 124.5156,271.4375 Q124.8906,271.4375 125.125,271.7031 Q125.3594,271.9531 125.3594,272.5625 L125.3594,274.0156 Q125.3594,274.625 125.125,274.8906 Q124.8906,275.1563 124.5156,275.1563 Q124.1719,275.1563 123.9688,274.9531 Q123.7656,274.7656 123.6563,274.25 Q123.6094,273.8906 123.4219,273.7031 Q123.0938,273.3281 122.4844,273.1094 Q121.875,272.8906 121.25,272.8906 Q120.4844,272.8906 119.8438,273.2188 Q119.2188,273.5469 118.7188,274.2969 Q118.2344,275.0469 118.2344,276.0781 L118.2344,277.1719 Q118.2344,278.4063 119.125,279.2344 Q120.0156,280.0469 121.6094,280.0469 Q122.5469,280.0469 123.2031,279.7969 Q123.5938,279.6406 124.0156,279.2031 Q124.2813,278.9375 124.4219,278.8594 Q124.5781,278.7813 124.7813,278.7813 Q125.1094,278.7813 125.3594,279.0469 Q125.625,279.2969 125.625,279.6406 Q125.625,279.9844 125.2813,280.3906 Q124.7813,280.9688 123.9844,281.2969 Q122.9063,281.75 121.6094,281.75 Q120.0938,281.75 118.8906,281.125 Q117.9063,280.625 117.2188,279.5625 Q116.5313,278.4844 116.5313,277.2031 L116.5313,276.0469 Q116.5313,274.7188 117.1406,273.5781 Q117.7656,272.4219 118.8594,271.8125 Q119.9531,271.1875 121.1875,271.1875 Q121.9219,271.1875 122.5625,271.3594 Q123.2188,271.5156 123.7656,271.875 Z " fill="#000000"/><text fill="#000000" font-family="sans-serif" font-size="14" lengthAdjust="spacing" textLength="106" x="135" y="282.1558">hotel_rate_plans</text><line style="stroke:#181818;stroke-width:0.5;" x1="107" x2="243" y1="292" y2="292"/><line style="stroke:#181818;stroke-width:0.5;" x1="107" x2="243" y1="300" y2="300"/></g><!--class hotel_rate_plan_prices--><g id="elem_hotel_rate_plan_prices"><rect codeLine="8" fill="#F1F1F1" height="48" id="hotel_rate_plan_prices" rx="2.5" ry="2.5" style="stroke:#181818;stroke-width:0.5;" width="177" x="22.5" y="368"/><ellipse cx="37.5" cy="384" fill="#ADD1B2" rx="11" ry="11" style="stroke:#181818;stroke-width:1.0;"/><path d="M40.2656,379.875 Q40.4219,379.6563 40.6094,379.5469 Q40.7969,379.4375 41.0156,379.4375 Q41.3906,379.4375 41.625,379.7031 Q41.8594,379.9531 41.8594,380.5625 L41.8594,382.0156 Q41.8594,382.625 41.625,382.8906 Q41.3906,383.1563 41.0156,383.1563 Q40.6719,383.1563 40.4688,382.9531 Q40.2656,382.7656 40.1563,382.25 Q40.1094,381.8906 39.9219,381.7031 Q39.5938,381.3281 38.9844,381.1094 Q38.375,380.8906 37.75,380.8906 Q36.9844,380.8906 36.3438,381.2188 Q35.7188,381.5469 35.2188,382.2969 Q34.7344,383.0469 34.7344,384.0781 L34.7344,385.1719 Q34.7344,386.4063 35.625,387.2344 Q36.5156,388.0469 38.1094,388.0469 Q39.0469,388.0469 39.7031,387.7969 Q40.0938,387.6406 40.5156,387.2031 Q40.7813,386.9375 40.9219,386.8594 Q41.0781,386.7813 41.2813,386.7813 Q41.6094,386.7813 41.8594,387.0469 Q42.125,387.2969 42.125,387.6406 Q42.125,387.9844 41.7813,388.3906 Q41.2813,388.9688 40.4844,389.2969 Q39.4063,389.75 38.1094,389.75 Q36.5938,389.75 35.3906,389.125 Q34.4063,388.625 33.7188,387.5625 Q33.0313,386.4844 33.0313,385.2031 L33.0313,384.0469 Q33.0313,382.7188 33.6406,381.5781 Q34.2656,380.4219 35.3594,379.8125 Q36.4531,379.1875 37.6875,379.1875 Q38.4219,379.1875 39.0625,379.3594 Q39.7188,379.5156 40.2656,379.875 Z " fill="#000000"/><text fill="#000000" font-family="sans-serif" font-size="14" lengthAdjust="spacing" textLength="145" x="51.5" y="390.1558">hotel_rate_plan_prices</text><line style="stroke:#181818;stroke-width:0.5;" x1="23.5" x2="198.5" y1="400" y2="400"/><line style="stroke:#181818;stroke-width:0.5;" x1="23.5" x2="198.5" y1="408" y2="408"/></g><!--class hotel_bookings--><g id="elem_hotel_bookings"><rect codeLine="9" fill="#F1F1F1" height="48" id="hotel_bookings" rx="2.5" ry="2.5" style="stroke:#181818;stroke-width:0.5;" width="128" x="235" y="368"/><ellipse cx="250" cy="384" fill="#ADD1B2" rx="11" ry="11" style="stroke:#181818;stroke-width:1.0;"/><path d="M252.7656,379.875 Q252.9219,379.6563 253.1094,379.5469 Q253.2969,379.4375 253.5156,379.4375 Q253.8906,379.4375 254.125,379.7031 Q254.3594,379.9531 254.3594,380.5625 L254.3594,382.0156 Q254.3594,382.625 254.125,382.8906 Q253.8906,383.1563 253.5156,383.1563 Q253.1719,383.1563 252.9688,382.9531 Q252.7656,382.7656 252.6563,382.25 Q252.6094,381.8906 252.4219,381.7031 Q252.0938,381.3281 251.4844,381.1094 Q250.875,380.8906 250.25,380.8906 Q249.4844,380.8906 248.8438,381.2188 Q248.2188,381.5469 247.7188,382.2969 Q247.2344,383.0469 247.2344,384.0781 L247.2344,385.1719 Q247.2344,386.4063 248.125,387.2344 Q249.0156,388.0469 250.6094,388.0469 Q251.5469,388.0469 252.2031,387.7969 Q252.5938,387.6406 253.0156,387.2031 Q253.2813,386.9375 253.4219,386.8594 Q253.5781,386.7813 253.7813,386.7813 Q254.1094,386.7813 254.3594,387.0469 Q254.625,387.2969 254.625,387.6406 Q254.625,387.9844 254.2813,388.3906 Q253.7813,388.9688 252.9844,389.2969 Q251.9063,389.75 250.6094,389.75 Q249.0938,389.75 247.8906,389.125 Q246.9063,388.625 246.2188,387.5625 Q245.5313,386.4844 245.5313,385.2031 L245.5313,384.0469 Q245.5313,382.7188 246.1406,381.5781 Q246.7656,380.4219 247.8594,379.8125 Q248.9531,379.1875 250.1875,379.1875 Q250.9219,379.1875 251.5625,379.3594 Q252.2188,379.5156 252.7656,379.875 Z " fill="#000000"/><text fill="#000000" font-family="sans-serif" font-size="14" lengthAdjust="spacing" textLength="96" x="264" y="390.1558">hotel_bookings</text><line style="stroke:#181818;stroke-width:0.5;" x1="236" x2="362" y1="400" y2="400"/><line style="stroke:#181818;stroke-width:0.5;" x1="236" x2="362" y1="408" y2="408"/></g><!--class payment_transactions--><g id="elem_payment_transactions"><rect codeLine="10" fill="#F1F1F1" height="48" id="payment_transactions" rx="2.5" ry="2.5" style="stroke:#181818;stroke-width:0.5;" width="171" x="191.5" y="476"/><ellipse cx="206.5" cy="492" fill="#ADD1B2" rx="11" ry="11" style="stroke:#181818;stroke-width:1.0;"/><path d="M209.2656,487.875 Q209.4219,487.6563 209.6094,487.5469 Q209.7969,487.4375 210.0156,487.4375 Q210.3906,487.4375 210.625,487.7031 Q210.8594,487.9531 210.8594,488.5625 L210.8594,490.0156 Q210.8594,490.625 210.625,490.8906 Q210.3906,491.1563 210.0156,491.1563 Q209.6719,491.1563 209.4688,490.9531 Q209.2656,490.7656 209.1563,490.25 Q209.1094,489.8906 208.9219,489.7031 Q208.5938,489.3281 207.9844,489.1094 Q207.375,488.8906 206.75,488.8906 Q205.9844,488.8906 205.3438,489.2188 Q204.7188,489.5469 204.2188,490.2969 Q203.7344,491.0469 203.7344,492.0781 L203.7344,493.1719 Q203.7344,494.4063 204.625,495.2344 Q205.5156,496.0469 207.1094,496.0469 Q208.0469,496.0469 208.7031,495.7969 Q209.0938,495.6406 209.5156,495.2031 Q209.7813,494.9375 209.9219,494.8594 Q210.0781,494.7813 210.2813,494.7813 Q210.6094,494.7813 210.8594,495.0469 Q211.125,495.2969 211.125,495.6406 Q211.125,495.9844 210.7813,496.3906 Q210.2813,496.9688 209.4844,497.2969 Q208.4063,497.75 207.1094,497.75 Q205.5938,497.75 204.3906,497.125 Q203.4063,496.625 202.7188,495.5625 Q202.0313,494.4844 202.0313,493.2031 L202.0313,492.0469 Q202.0313,490.7188 202.6406,489.5781 Q203.2656,488.4219 204.3594,487.8125 Q205.4531,487.1875 206.6875,487.1875 Q207.4219,487.1875 208.0625,487.3594 Q208.7188,487.5156 209.2656,487.875 Z " fill="#000000"/><text fill="#000000" font-family="sans-serif" font-size="14" lengthAdjust="spacing" textLength="139" x="220.5" y="498.1558">payment_transactions</text><line style="stroke:#181818;stroke-width:0.5;" x1="192.5" x2="361.5" y1="508" y2="508"/><line style="stroke:#181818;stroke-width:0.5;" x1="192.5" x2="361.5" y1="516" y2="516"/></g><!--link hotels to hotel_rooms--><g id="link_hotels_hotel_rooms"><path codeLine="12" d="M258.1128,99.3635 C250.6128,117.0235 250.463,117.3709 242.933,135.1109 " fill="none" id="hotels-hotel_rooms" style="stroke:#181818;stroke-width:1.0;"/><line style="stroke:#181818;stroke-width:1.0;" x1="255.9947" x2="263.3581" y1="94.1181" y2="97.2453"/><line style="stroke:#181818;stroke-width:1.0;" x1="254.822" x2="262.1855" y1="96.8794" y2="100.0066"/><line style="stroke:#181818;stroke-width:1.0;" x1="258.1128" x2="261.24" y1="99.3635" y2="92"/><line style="stroke:#181818;stroke-width:1.0;" x1="239.0258" x2="241.423" y1="144.3159" y2="154.0243"/><line style="stroke:#181818;stroke-width:1.0;" x1="239.0258" x2="230.377" y1="144.3159" y2="149.3357"/><line style="stroke:#181818;stroke-width:1.0;" x1="239.0258" x2="235.9" y1="144.3159" y2="151.68"/><ellipse cx="241.3701" cy="138.7929" fill="none" rx="4" ry="4" style="stroke:#181818;stroke-width:1.0;"/></g><!--link hotel_rooms to hotel_rate_plans--><g id="link_hotel_rooms_hotel_rate_plans"><path codeLine="13" d="M211.4638,207.2101 C202.9738,224.8701 202.5502,225.7179 194.0202,243.4579 " fill="none" id="hotel_rooms-hotel_rate_plans" style="stroke:#181818;stroke-width:1.0;"/><line style="stroke:#181818;stroke-width:1.0;" x1="209.5918" x2="216.8019" y1="201.8719" y2="205.3382"/><line style="stroke:#181818;stroke-width:1.0;" x1="208.292" x2="215.5021" y1="204.5757" y2="208.0419"/><line style="stroke:#181818;stroke-width:1.0;" x1="211.4638" x2="214.93" y1="207.2101" y2="200"/><line style="stroke:#181818;stroke-width:1.0;" x1="189.6867" x2="191.6274" y1="252.4702" y2="262.2801"/><line style="stroke:#181818;stroke-width:1.0;" x1="189.6867" x2="180.8126" y1="252.4702" y2="257.0799"/><line style="stroke:#181818;stroke-width:1.0;" x1="189.6867" x2="186.22" y1="252.4702" y2="259.68"/><ellipse cx="192.2868" cy="247.0628" fill="none" rx="4" ry="4" style="stroke:#181818;stroke-width:1.0;"/></g><!--link hotel_rate_plans to hotel_rate_plan_prices--><g id="link_hotel_rate_plans_hotel_rate_plan_prices"><path codeLine="14" d="M156.9758,314.849 C146.3158,332.509 145.093,334.5305 134.383,352.2705 " fill="none" id="hotel_rate_plans-hotel_rate_plan_prices" style="stroke:#181818;stroke-width:1.0;"/><line style="stroke:#181818;stroke-width:1.0;" x1="155.6184" x2="162.4674" y1="309.3574" y2="313.4916"/><line style="stroke:#181818;stroke-width:1.0;" x1="154.0681" x2="160.9171" y1="311.9257" y2="316.0599"/><line style="stroke:#181818;stroke-width:1.0;" x1="156.9758" x2="161.11" y1="314.849" y2="308"/><line style="stroke:#181818;stroke-width:1.0;" x1="129.2147" x2="130.2165" y1="360.8313" y2="370.781"/><line style="stroke:#181818;stroke-width:1.0;" x1="129.2147" x2="119.9435" y1="360.8313" y2="364.579"/><line style="stroke:#181818;stroke-width:1.0;" x1="129.2147" x2="125.08" y1="360.8313" y2="367.68"/><ellipse cx="132.3157" cy="355.6948" fill="none" rx="4" ry="4" style="stroke:#181818;stroke-width:1.0;"/></g><!--link hotels to hotel_bookings--><g id="link_hotels_hotel_bookings"><path codeLine="16" d="M284.0297,99.5144 C290.5997,115.8844 295.58,131.14 299,152 C311.84,230.21 307.2045,306.829 303.1645,349.809 " fill="none" id="hotels-hotel_bookings" style="stroke:#181818;stroke-width:1.0;"/><line style="stroke:#181818;stroke-width:1.0;" x1="278.8277" x2="286.252" y1="97.292" y2="94.3123"/><line style="stroke:#181818;stroke-width:1.0;" x1="279.9451" x2="287.3694" y1="100.0762" y2="97.0965"/><line style="stroke:#181818;stroke-width:1.0;" x1="284.0297" x2="281.05" y1="99.5144" y2="92.09"/><line style="stroke:#181818;stroke-width:1.0;" x1="302.2287" x2="307.4537" y1="359.7651" y2="368.2915"/><line style="stroke:#181818;stroke-width:1.0;" x1="302.2287" x2="295.5063" y1="359.7651" y2="367.1685"/><line style="stroke:#181818;stroke-width:1.0;" x1="302.2287" x2="301.48" y1="359.7651" y2="367.73"/><ellipse cx="302.7902" cy="353.7914" fill="none" rx="4" ry="4" style="stroke:#181818;stroke-width:1.0;"/></g><!--link hotel_rooms to hotel_bookings--><g id="link_hotel_rooms_hotel_bookings"><path codeLine="17" d="M240.4453,207.5424 C248.0453,223.9924 254.67,239.43 262,260 C275.25,297.18 282.6302,324.1285 289.1702,350.5185 " fill="none" id="hotel_rooms-hotel_bookings" style="stroke:#181818;stroke-width:1.0;"/><line style="stroke:#181818;stroke-width:1.0;" x1="235.1364" x2="242.3988" y1="205.5888" y2="202.2336"/><line style="stroke:#181818;stroke-width:1.0;" x1="236.3947" x2="243.657" y1="208.3122" y2="204.957"/><line style="stroke:#181818;stroke-width:1.0;" x1="240.4453" x2="237.09" y1="207.5424" y2="200.28"/><line style="stroke:#181818;stroke-width:1.0;" x1="291.5756" x2="299.3238" y1="360.2249" y2="366.5467"/><line style="stroke:#181818;stroke-width:1.0;" x1="291.5756" x2="287.6762" y1="360.2249" y2="369.4333"/><line style="stroke:#181818;stroke-width:1.0;" x1="291.5756" x2="293.5" y1="360.2249" y2="367.99"/><ellipse cx="290.1324" cy="354.4011" fill="none" rx="4" ry="4" style="stroke:#181818;stroke-width:1.0;"/></g><!--link hotel_rate_plans to hotel_bookings--><g id="link_hotel_rate_plans_hotel_bookings"><path codeLine="18" d="M207.9899,313.1995 C228.6399,330.8595 237.2885,338.2431 258.0385,355.9831 " fill="none" id="hotel_rate_plans-hotel_bookings" style="stroke:#181818;stroke-width:1.0;"/><line style="stroke:#181818;stroke-width:1.0;" x1="202.3502" x2="207.5497" y1="313.6397" y2="307.5598"/><line style="stroke:#181818;stroke-width:1.0;" x1="204.6301" x2="209.8297" y1="315.5895" y2="309.5097"/><line style="stroke:#181818;stroke-width:1.0;" x1="207.9899" x2="201.91" y1="313.1995" y2="308"/><line style="stroke:#181818;stroke-width:1.0;" x1="265.6393" x2="275.619" y1="362.4814" y2="363.1195"/><line style="stroke:#181818;stroke-width:1.0;" x1="265.6393" x2="267.821" y1="362.4814" y2="372.2405"/><line style="stroke:#181818;stroke-width:1.0;" x1="265.6393" x2="271.72" y1="362.4814" y2="367.68"/><ellipse cx="261.0788" cy="358.5824" fill="none" rx="4" ry="4" style="stroke:#181818;stroke-width:1.0;"/></g><!--link hotel_bookings to payment_transactions--><g id="link_hotel_bookings_payment_transactions"><path codeLine="19" d="M292.6023,423.8327 C288.9323,441.4927 289.1761,440.3152 285.4961,458.0552 " fill="none" id="hotel_bookings-payment_transactions" style="stroke:#181818;stroke-width:1.0;"/><line style="stroke:#181818;stroke-width:1.0;" x1="289.4998" x2="297.3325" y1="419.1025" y2="420.7302"/><line style="stroke:#181818;stroke-width:1.0;" x1="288.8894" x2="296.7221" y1="422.0397" y2="423.6674"/><line style="stroke:#181818;stroke-width:1.0;" x1="292.6023" x2="294.23" y1="423.8327" y2="416"/><line style="stroke:#181818;stroke-width:1.0;" x1="283.4649" x2="287.7149" y1="467.8468" y2="476.8987"/><line style="stroke:#181818;stroke-width:1.0;" x1="283.4649" x2="275.9651" y1="467.8468" y2="474.4613"/><line style="stroke:#181818;stroke-width:1.0;" x1="283.4649" x2="281.84" y1="467.8468" y2="475.68"/><ellipse cx="284.6836" cy="461.9718" fill="none" rx="4" ry="4" style="stroke:#181818;stroke-width:1.0;"/></g><!--SRC=[TP2n3iCW34HtliBAq2q_qQb_WLo4KXI24NYfalvxKIDK2lNekzFTaoEQ5HSBqutO-WmNk1AjBYmJx4e168yvm-DZ_fuw4Ms3Xcnrz1X4GyVaZEtj-pdwbIC-DnjOSofTQDXHgIpkIGB7CS-qTo3DrGLQgbuIefLJs6o0nTan8umEmIhKsDzllDGR]--></g></svg>