<?xml version="1.0" encoding="us-ascii" standalone="no"?><svg xmlns="http://www.w3.org/2000/svg" xmlns:xlink="http://www.w3.org/1999/xlink" contentStyleType="text/css" height="223px" preserveAspectRatio="none" style="width:603px;height:223px;background:#FFFFFF;" version="1.1" viewBox="0 0 603 223" width="603px" zoomAndPan="magnify"><defs/><g><!--cluster Image & Place--><g id="cluster_Image &amp; Place"><path d="M8.5,6 L107.5,6 A3.75,3.75 0 0 1 110,8.5 L117,31.0791 L593.5,31.0791 A2.5,2.5 0 0 1 596,33.5791 L596,213.5 A2.5,2.5 0 0 1 593.5,216 L8.5,216 A2.5,2.5 0 0 1 6,213.5 L6,8.5 A2.5,2.5 0 0 1 8.5,6 " fill="none" style="stroke:#000000;stroke-width:1.5;"/><line style="stroke:#000000;stroke-width:1.5;" x1="6" x2="117" y1="31.0791" y2="31.0791"/><text fill="#000000" font-family="sans-serif" font-size="14" font-weight="bold" lengthAdjust="spacing" textLength="98" x="10" y="23.6953">Image &amp; Place</text></g><!--class image_places--><g id="elem_image_places"><rect codeLine="5" fill="#F1F1F1" height="48" id="image_places" rx="2.5" ry="2.5" style="stroke:#181818;stroke-width:0.5;" width="119" x="460.5" y="44"/><ellipse cx="475.5" cy="60" fill="#ADD1B2" rx="11" ry="11" style="stroke:#181818;stroke-width:1.0;"/><path d="M478.2656,55.875 Q478.4219,55.6563 478.6094,55.5469 Q478.7969,55.4375 479.0156,55.4375 Q479.3906,55.4375 479.625,55.7031 Q479.8594,55.9531 479.8594,56.5625 L479.8594,58.0156 Q479.8594,58.625 479.625,58.8906 Q479.3906,59.1563 479.0156,59.1563 Q478.6719,59.1563 478.4688,58.9531 Q478.2656,58.7656 478.1563,58.25 Q478.1094,57.8906 477.9219,57.7031 Q477.5938,57.3281 476.9844,57.1094 Q476.375,56.8906 475.75,56.8906 Q474.9844,56.8906 474.3438,57.2188 Q473.7188,57.5469 473.2188,58.2969 Q472.7344,59.0469 472.7344,60.0781 L472.7344,61.1719 Q472.7344,62.4063 473.625,63.2344 Q474.5156,64.0469 476.1094,64.0469 Q477.0469,64.0469 477.7031,63.7969 Q478.0938,63.6406 478.5156,63.2031 Q478.7813,62.9375 478.9219,62.8594 Q479.0781,62.7813 479.2813,62.7813 Q479.6094,62.7813 479.8594,63.0469 Q480.125,63.2969 480.125,63.6406 Q480.125,63.9844 479.7813,64.3906 Q479.2813,64.9688 478.4844,65.2969 Q477.4063,65.75 476.1094,65.75 Q474.5938,65.75 473.3906,65.125 Q472.4063,64.625 471.7188,63.5625 Q471.0313,62.4844 471.0313,61.2031 L471.0313,60.0469 Q471.0313,58.7188 471.6406,57.5781 Q472.2656,56.4219 473.3594,55.8125 Q474.4531,55.1875 475.6875,55.1875 Q476.4219,55.1875 477.0625,55.3594 Q477.7188,55.5156 478.2656,55.875 Z " fill="#000000"/><text fill="#000000" font-family="sans-serif" font-size="14" lengthAdjust="spacing" textLength="87" x="489.5" y="66.1558">image_places</text><line style="stroke:#181818;stroke-width:0.5;" x1="461.5" x2="578.5" y1="76" y2="76"/><line style="stroke:#181818;stroke-width:0.5;" x1="461.5" x2="578.5" y1="84" y2="84"/></g><!--class image_search_sessions--><g id="elem_image_search_sessions"><rect codeLine="6" fill="#F1F1F1" height="48" id="image_search_sessions" rx="2.5" ry="2.5" style="stroke:#181818;stroke-width:0.5;" width="184" x="241" y="44"/><ellipse cx="256" cy="60" fill="#ADD1B2" rx="11" ry="11" style="stroke:#181818;stroke-width:1.0;"/><path d="M258.7656,55.875 Q258.9219,55.6563 259.1094,55.5469 Q259.2969,55.4375 259.5156,55.4375 Q259.8906,55.4375 260.125,55.7031 Q260.3594,55.9531 260.3594,56.5625 L260.3594,58.0156 Q260.3594,58.625 260.125,58.8906 Q259.8906,59.1563 259.5156,59.1563 Q259.1719,59.1563 258.9688,58.9531 Q258.7656,58.7656 258.6563,58.25 Q258.6094,57.8906 258.4219,57.7031 Q258.0938,57.3281 257.4844,57.1094 Q256.875,56.8906 256.25,56.8906 Q255.4844,56.8906 254.8438,57.2188 Q254.2188,57.5469 253.7188,58.2969 Q253.2344,59.0469 253.2344,60.0781 L253.2344,61.1719 Q253.2344,62.4063 254.125,63.2344 Q255.0156,64.0469 256.6094,64.0469 Q257.5469,64.0469 258.2031,63.7969 Q258.5938,63.6406 259.0156,63.2031 Q259.2813,62.9375 259.4219,62.8594 Q259.5781,62.7813 259.7813,62.7813 Q260.1094,62.7813 260.3594,63.0469 Q260.625,63.2969 260.625,63.6406 Q260.625,63.9844 260.2813,64.3906 Q259.7813,64.9688 258.9844,65.2969 Q257.9063,65.75 256.6094,65.75 Q255.0938,65.75 253.8906,65.125 Q252.9063,64.625 252.2188,63.5625 Q251.5313,62.4844 251.5313,61.2031 L251.5313,60.0469 Q251.5313,58.7188 252.1406,57.5781 Q252.7656,56.4219 253.8594,55.8125 Q254.9531,55.1875 256.1875,55.1875 Q256.9219,55.1875 257.5625,55.3594 Q258.2188,55.5156 258.7656,55.875 Z " fill="#000000"/><text fill="#000000" font-family="sans-serif" font-size="14" lengthAdjust="spacing" textLength="152" x="270" y="66.1558">image_search_sessions</text><line style="stroke:#181818;stroke-width:0.5;" x1="242" x2="424" y1="76" y2="76"/><line style="stroke:#181818;stroke-width:0.5;" x1="242" x2="424" y1="84" y2="84"/></g><!--class image_search_candidates--><g id="elem_image_search_candidates"><rect codeLine="7" fill="#F1F1F1" height="48" id="image_search_candidates" rx="2.5" ry="2.5" style="stroke:#181818;stroke-width:0.5;" width="198" x="308" y="152"/><ellipse cx="323" cy="168" fill="#ADD1B2" rx="11" ry="11" style="stroke:#181818;stroke-width:1.0;"/><path d="M325.7656,163.875 Q325.9219,163.6563 326.1094,163.5469 Q326.2969,163.4375 326.5156,163.4375 Q326.8906,163.4375 327.125,163.7031 Q327.3594,163.9531 327.3594,164.5625 L327.3594,166.0156 Q327.3594,166.625 327.125,166.8906 Q326.8906,167.1563 326.5156,167.1563 Q326.1719,167.1563 325.9688,166.9531 Q325.7656,166.7656 325.6563,166.25 Q325.6094,165.8906 325.4219,165.7031 Q325.0938,165.3281 324.4844,165.1094 Q323.875,164.8906 323.25,164.8906 Q322.4844,164.8906 321.8438,165.2188 Q321.2188,165.5469 320.7188,166.2969 Q320.2344,167.0469 320.2344,168.0781 L320.2344,169.1719 Q320.2344,170.4063 321.125,171.2344 Q322.0156,172.0469 323.6094,172.0469 Q324.5469,172.0469 325.2031,171.7969 Q325.5938,171.6406 326.0156,171.2031 Q326.2813,170.9375 326.4219,170.8594 Q326.5781,170.7813 326.7813,170.7813 Q327.1094,170.7813 327.3594,171.0469 Q327.625,171.2969 327.625,171.6406 Q327.625,171.9844 327.2813,172.3906 Q326.7813,172.9688 325.9844,173.2969 Q324.9063,173.75 323.6094,173.75 Q322.0938,173.75 320.8906,173.125 Q319.9063,172.625 319.2188,171.5625 Q318.5313,170.4844 318.5313,169.2031 L318.5313,168.0469 Q318.5313,166.7188 319.1406,165.5781 Q319.7656,164.4219 320.8594,163.8125 Q321.9531,163.1875 323.1875,163.1875 Q323.9219,163.1875 324.5625,163.3594 Q325.2188,163.5156 325.7656,163.875 Z " fill="#000000"/><text fill="#000000" font-family="sans-serif" font-size="14" lengthAdjust="spacing" textLength="166" x="337" y="174.1558">image_search_candidates</text><line style="stroke:#181818;stroke-width:0.5;" x1="309" x2="505" y1="184" y2="184"/><line style="stroke:#181818;stroke-width:0.5;" x1="309" x2="505" y1="192" y2="192"/></g><!--class travel_places--><g id="elem_travel_places"><rect codeLine="8" fill="#F1F1F1" height="48" id="travel_places" rx="2.5" ry="2.5" style="stroke:#181818;stroke-width:0.5;" width="116" x="56" y="152"/><ellipse cx="71" cy="168" fill="#ADD1B2" rx="11" ry="11" style="stroke:#181818;stroke-width:1.0;"/><path d="M73.7656,163.875 Q73.9219,163.6563 74.1094,163.5469 Q74.2969,163.4375 74.5156,163.4375 Q74.8906,163.4375 75.125,163.7031 Q75.3594,163.9531 75.3594,164.5625 L75.3594,166.0156 Q75.3594,166.625 75.125,166.8906 Q74.8906,167.1563 74.5156,167.1563 Q74.1719,167.1563 73.9688,166.9531 Q73.7656,166.7656 73.6563,166.25 Q73.6094,165.8906 73.4219,165.7031 Q73.0938,165.3281 72.4844,165.1094 Q71.875,164.8906 71.25,164.8906 Q70.4844,164.8906 69.8438,165.2188 Q69.2188,165.5469 68.7188,166.2969 Q68.2344,167.0469 68.2344,168.0781 L68.2344,169.1719 Q68.2344,170.4063 69.125,171.2344 Q70.0156,172.0469 71.6094,172.0469 Q72.5469,172.0469 73.2031,171.7969 Q73.5938,171.6406 74.0156,171.2031 Q74.2813,170.9375 74.4219,170.8594 Q74.5781,170.7813 74.7813,170.7813 Q75.1094,170.7813 75.3594,171.0469 Q75.625,171.2969 75.625,171.6406 Q75.625,171.9844 75.2813,172.3906 Q74.7813,172.9688 73.9844,173.2969 Q72.9063,173.75 71.6094,173.75 Q70.0938,173.75 68.8906,173.125 Q67.9063,172.625 67.2188,171.5625 Q66.5313,170.4844 66.5313,169.2031 L66.5313,168.0469 Q66.5313,166.7188 67.1406,165.5781 Q67.7656,164.4219 68.8594,163.8125 Q69.9531,163.1875 71.1875,163.1875 Q71.9219,163.1875 72.5625,163.3594 Q73.2188,163.5156 73.7656,163.875 Z " fill="#000000"/><text fill="#000000" font-family="sans-serif" font-size="14" lengthAdjust="spacing" textLength="84" x="85" y="174.1558">travel_places</text><line style="stroke:#181818;stroke-width:0.5;" x1="57" x2="171" y1="184" y2="184"/><line style="stroke:#181818;stroke-width:0.5;" x1="57" x2="171" y1="192" y2="192"/></g><!--class travel_place_categories--><g id="elem_travel_place_categories"><rect codeLine="9" fill="#F1F1F1" height="48" id="travel_place_categories" rx="2.5" ry="2.5" style="stroke:#181818;stroke-width:0.5;" width="183" x="22.5" y="44"/><ellipse cx="37.5" cy="60" fill="#ADD1B2" rx="11" ry="11" style="stroke:#181818;stroke-width:1.0;"/><path d="M40.2656,55.875 Q40.4219,55.6563 40.6094,55.5469 Q40.7969,55.4375 41.0156,55.4375 Q41.3906,55.4375 41.625,55.7031 Q41.8594,55.9531 41.8594,56.5625 L41.8594,58.0156 Q41.8594,58.625 41.625,58.8906 Q41.3906,59.1563 41.0156,59.1563 Q40.6719,59.1563 40.4688,58.9531 Q40.2656,58.7656 40.1563,58.25 Q40.1094,57.8906 39.9219,57.7031 Q39.5938,57.3281 38.9844,57.1094 Q38.375,56.8906 37.75,56.8906 Q36.9844,56.8906 36.3438,57.2188 Q35.7188,57.5469 35.2188,58.2969 Q34.7344,59.0469 34.7344,60.0781 L34.7344,61.1719 Q34.7344,62.4063 35.625,63.2344 Q36.5156,64.0469 38.1094,64.0469 Q39.0469,64.0469 39.7031,63.7969 Q40.0938,63.6406 40.5156,63.2031 Q40.7813,62.9375 40.9219,62.8594 Q41.0781,62.7813 41.2813,62.7813 Q41.6094,62.7813 41.8594,63.0469 Q42.125,63.2969 42.125,63.6406 Q42.125,63.9844 41.7813,64.3906 Q41.2813,64.9688 40.4844,65.2969 Q39.4063,65.75 38.1094,65.75 Q36.5938,65.75 35.3906,65.125 Q34.4063,64.625 33.7188,63.5625 Q33.0313,62.4844 33.0313,61.2031 L33.0313,60.0469 Q33.0313,58.7188 33.6406,57.5781 Q34.2656,56.4219 35.3594,55.8125 Q36.4531,55.1875 37.6875,55.1875 Q38.4219,55.1875 39.0625,55.3594 Q39.7188,55.5156 40.2656,55.875 Z " fill="#000000"/><text fill="#000000" font-family="sans-serif" font-size="14" lengthAdjust="spacing" textLength="151" x="51.5" y="66.1558">travel_place_categories</text><line style="stroke:#181818;stroke-width:0.5;" x1="23.5" x2="204.5" y1="76" y2="76"/><line style="stroke:#181818;stroke-width:0.5;" x1="23.5" x2="204.5" y1="84" y2="84"/></g><!--link travel_place_categories to travel_places--><g id="link_travel_place_categories_travel_places"><path codeLine="11" d="M114,100 C114,117.66 114,115.94 114,133.68 " fill="none" id="travel_place_categories-travel_places" style="stroke:#181818;stroke-width:1.0;"/><line style="stroke:#181818;stroke-width:1.0;" x1="110" x2="118" y1="96" y2="96"/><line style="stroke:#181818;stroke-width:1.0;" x1="110" x2="118" y1="99" y2="99"/><line style="stroke:#181818;stroke-width:1.0;" x1="114" x2="114" y1="100" y2="92"/><line style="stroke:#181818;stroke-width:1.0;" x1="114" x2="120" y1="143.68" y2="151.68"/><line style="stroke:#181818;stroke-width:1.0;" x1="114" x2="108" y1="143.68" y2="151.68"/><line style="stroke:#181818;stroke-width:1.0;" x1="114" x2="114" y1="143.68" y2="151.68"/><ellipse cx="114" cy="137.68" fill="none" rx="4" ry="4" style="stroke:#181818;stroke-width:1.0;"/></g><!--link image_search_sessions to image_search_candidates--><g id="link_image_search_sessions_image_search_candidates"><path codeLine="12" d="M353.6372,98.5612 C365.9572,116.2212 368.0389,119.179 380.4189,136.919 " fill="none" id="image_search_sessions-image_search_candidates" style="stroke:#181818;stroke-width:1.0;"/><line style="stroke:#181818;stroke-width:1.0;" x1="348.068" x2="354.6292" y1="97.5692" y2="92.992"/><line style="stroke:#181818;stroke-width:1.0;" x1="349.7845" x2="356.3457" y1="100.0296" y2="95.4524"/><line style="stroke:#181818;stroke-width:1.0;" x1="353.6372" x2="349.06" y1="98.5612" y2="92"/><line style="stroke:#181818;stroke-width:1.0;" x1="386.1417" x2="395.6403" y1="145.1195" y2="148.2463"/><line style="stroke:#181818;stroke-width:1.0;" x1="386.1417" x2="385.7997" y1="145.1195" y2="155.1137"/><line style="stroke:#181818;stroke-width:1.0;" x1="386.1417" x2="390.72" y1="145.1195" y2="151.68"/><ellipse cx="382.708" cy="140.1992" fill="none" rx="4" ry="4" style="stroke:#181818;stroke-width:1.0;"/></g><!--link image_places to image_search_candidates--><g id="link_image_places_image_search_candidates"><path codeLine="13" d="M489.6462,97.4742 C470.8262,115.1342 463.8976,121.6247 444.9876,139.3647 " fill="none" id="image_places-image_search_candidates" style="stroke:#181818;stroke-width:1.0;"/><line style="stroke:#181818;stroke-width:1.0;" x1="489.826" x2="495.3002" y1="91.8202" y2="97.654"/><line style="stroke:#181818;stroke-width:1.0;" x1="487.6383" x2="493.1125" y1="93.873" y2="99.7068"/><line style="stroke:#181818;stroke-width:1.0;" x1="489.6462" x2="495.48" y1="97.4742" y2="92"/><line style="stroke:#181818;stroke-width:1.0;" x1="437.6945" x2="435.9651" y1="146.2065" y2="156.0559"/><line style="stroke:#181818;stroke-width:1.0;" x1="437.6945" x2="427.7549" y1="146.2065" y2="147.3041"/><line style="stroke:#181818;stroke-width:1.0;" x1="437.6945" x2="431.86" y1="146.2065" y2="151.68"/><ellipse cx="442.0703" cy="142.1014" fill="none" rx="4" ry="4" style="stroke:#181818;stroke-width:1.0;"/></g><!--SRC=[AqXCpavCJrLGyim5KMeA0Jc9oQbA2jLSN0eAoJc9nSKAcI2P-0AGU36QO75gOb5o1f0gBixCpyCXcvoObvAPabY2fBkaAB4iDGVTJ6HHeAwIrFJyeaoWF5013Yc5cXfTtVng3FEmkWwc6BVZa7rAI7Kj5m00]--></g></svg>