<?xml version="1.0" encoding="us-ascii" standalone="no"?><svg xmlns="http://www.w3.org/2000/svg" xmlns:xlink="http://www.w3.org/1999/xlink" contentStyleType="text/css" height="439px" preserveAspectRatio="none" style="width:617px;height:439px;background:#FFFFFF;" version="1.1" viewBox="0 0 617 439" width="617px" zoomAndPan="magnify"><defs/><g><!--cluster Review & AI--><g id="cluster_Review &amp; AI"><path d="M8.5,6 L92.5,6 A3.75,3.75 0 0 1 95,8.5 L102,31.0791 L607.5,31.0791 A2.5,2.5 0 0 1 610,33.5791 L610,429.5 A2.5,2.5 0 0 1 607.5,432 L8.5,432 A2.5,2.5 0 0 1 6,429.5 L6,8.5 A2.5,2.5 0 0 1 8.5,6 " fill="none" style="stroke:#000000;stroke-width:1.5;"/><line style="stroke:#000000;stroke-width:1.5;" x1="6" x2="102" y1="31.0791" y2="31.0791"/><text fill="#000000" font-family="sans-serif" font-size="14" font-weight="bold" lengthAdjust="spacing" textLength="83" x="10" y="23.6953">Review &amp; AI</text></g><!--class review_posts--><g id="elem_review_posts"><rect codeLine="4" fill="#F1F1F1" height="48" id="review_posts" rx="2.5" ry="2.5" style="stroke:#181818;stroke-width:0.5;" width="114" x="260" y="44"/><ellipse cx="275" cy="60" fill="#ADD1B2" rx="11" ry="11" style="stroke:#181818;stroke-width:1.0;"/><path d="M277.7656,55.875 Q277.9219,55.6563 278.1094,55.5469 Q278.2969,55.4375 278.5156,55.4375 Q278.8906,55.4375 279.125,55.7031 Q279.3594,55.9531 279.3594,56.5625 L279.3594,58.0156 Q279.3594,58.625 279.125,58.8906 Q278.8906,59.1563 278.5156,59.1563 Q278.1719,59.1563 277.9688,58.9531 Q277.7656,58.7656 277.6563,58.25 Q277.6094,57.8906 277.4219,57.7031 Q277.0938,57.3281 276.4844,57.1094 Q275.875,56.8906 275.25,56.8906 Q274.4844,56.8906 273.8438,57.2188 Q273.2188,57.5469 272.7188,58.2969 Q272.2344,59.0469 272.2344,60.0781 L272.2344,61.1719 Q272.2344,62.4063 273.125,63.2344 Q274.0156,64.0469 275.6094,64.0469 Q276.5469,64.0469 277.2031,63.7969 Q277.5938,63.6406 278.0156,63.2031 Q278.2813,62.9375 278.4219,62.8594 Q278.5781,62.7813 278.7813,62.7813 Q279.1094,62.7813 279.3594,63.0469 Q279.625,63.2969 279.625,63.6406 Q279.625,63.9844 279.2813,64.3906 Q278.7813,64.9688 277.9844,65.2969 Q276.9063,65.75 275.6094,65.75 Q274.0938,65.75 272.8906,65.125 Q271.9063,64.625 271.2188,63.5625 Q270.5313,62.4844 270.5313,61.2031 L270.5313,60.0469 Q270.5313,58.7188 271.1406,57.5781 Q271.7656,56.4219 272.8594,55.8125 Q273.9531,55.1875 275.1875,55.1875 Q275.9219,55.1875 276.5625,55.3594 Q277.2188,55.5156 277.7656,55.875 Z " fill="#000000"/><text fill="#000000" font-family="sans-serif" font-size="14" lengthAdjust="spacing" textLength="82" x="289" y="66.1558">review_posts</text><line style="stroke:#181818;stroke-width:0.5;" x1="261" x2="373" y1="76" y2="76"/><line style="stroke:#181818;stroke-width:0.5;" x1="261" x2="373" y1="84" y2="84"/></g><!--class review_photo_groups--><g id="elem_review_photo_groups"><rect codeLine="5" fill="#F1F1F1" height="48" id="review_photo_groups" rx="2.5" ry="2.5" style="stroke:#181818;stroke-width:0.5;" width="168" x="22" y="152"/><ellipse cx="37" cy="168" fill="#ADD1B2" rx="11" ry="11" style="stroke:#181818;stroke-width:1.0;"/><path d="M39.7656,163.875 Q39.9219,163.6563 40.1094,163.5469 Q40.2969,163.4375 40.5156,163.4375 Q40.8906,163.4375 41.125,163.7031 Q41.3594,163.9531 41.3594,164.5625 L41.3594,166.0156 Q41.3594,166.625 41.125,166.8906 Q40.8906,167.1563 40.5156,167.1563 Q40.1719,167.1563 39.9688,166.9531 Q39.7656,166.7656 39.6563,166.25 Q39.6094,165.8906 39.4219,165.7031 Q39.0938,165.3281 38.4844,165.1094 Q37.875,164.8906 37.25,164.8906 Q36.4844,164.8906 35.8438,165.2188 Q35.2188,165.5469 34.7188,166.2969 Q34.2344,167.0469 34.2344,168.0781 L34.2344,169.1719 Q34.2344,170.4063 35.125,171.2344 Q36.0156,172.0469 37.6094,172.0469 Q38.5469,172.0469 39.2031,171.7969 Q39.5938,171.6406 40.0156,171.2031 Q40.2813,170.9375 40.4219,170.8594 Q40.5781,170.7813 40.7813,170.7813 Q41.1094,170.7813 41.3594,171.0469 Q41.625,171.2969 41.625,171.6406 Q41.625,171.9844 41.2813,172.3906 Q40.7813,172.9688 39.9844,173.2969 Q38.9063,173.75 37.6094,173.75 Q36.0938,173.75 34.8906,173.125 Q33.9063,172.625 33.2188,171.5625 Q32.5313,170.4844 32.5313,169.2031 L32.5313,168.0469 Q32.5313,166.7188 33.1406,165.5781 Q33.7656,164.4219 34.8594,163.8125 Q35.9531,163.1875 37.1875,163.1875 Q37.9219,163.1875 38.5625,163.3594 Q39.2188,163.5156 39.7656,163.875 Z " fill="#000000"/><text fill="#000000" font-family="sans-serif" font-size="14" lengthAdjust="spacing" textLength="136" x="51" y="174.1558">review_photo_groups</text><line style="stroke:#181818;stroke-width:0.5;" x1="23" x2="189" y1="184" y2="184"/><line style="stroke:#181818;stroke-width:0.5;" x1="23" x2="189" y1="192" y2="192"/></g><!--class review_photos--><g id="elem_review_photos"><rect codeLine="6" fill="#F1F1F1" height="48" id="review_photos" rx="2.5" ry="2.5" style="stroke:#181818;stroke-width:0.5;" width="123" x="44.5" y="260"/><ellipse cx="59.5" cy="276" fill="#ADD1B2" rx="11" ry="11" style="stroke:#181818;stroke-width:1.0;"/><path d="M62.2656,271.875 Q62.4219,271.6563 62.6094,271.5469 Q62.7969,271.4375 63.0156,271.4375 Q63.3906,271.4375 63.625,271.7031 Q63.8594,271.9531 63.8594,272.5625 L63.8594,274.0156 Q63.8594,274.625 63.625,274.8906 Q63.3906,275.1563 63.0156,275.1563 Q62.6719,275.1563 62.4688,274.9531 Q62.2656,274.7656 62.1563,274.25 Q62.1094,273.8906 61.9219,273.7031 Q61.5938,273.3281 60.9844,273.1094 Q60.375,272.8906 59.75,272.8906 Q58.9844,272.8906 58.3438,273.2188 Q57.7188,273.5469 57.2188,274.2969 Q56.7344,275.0469 56.7344,276.0781 L56.7344,277.1719 Q56.7344,278.4063 57.625,279.2344 Q58.5156,280.0469 60.1094,280.0469 Q61.0469,280.0469 61.7031,279.7969 Q62.0938,279.6406 62.5156,279.2031 Q62.7813,278.9375 62.9219,278.8594 Q63.0781,278.7813 63.2813,278.7813 Q63.6094,278.7813 63.8594,279.0469 Q64.125,279.2969 64.125,279.6406 Q64.125,279.9844 63.7813,280.3906 Q63.2813,280.9688 62.4844,281.2969 Q61.4063,281.75 60.1094,281.75 Q58.5938,281.75 57.3906,281.125 Q56.4063,280.625 55.7188,279.5625 Q55.0313,278.4844 55.0313,277.2031 L55.0313,276.0469 Q55.0313,274.7188 55.6406,273.5781 Q56.2656,272.4219 57.3594,271.8125 Q58.4531,271.1875 59.6875,271.1875 Q60.4219,271.1875 61.0625,271.3594 Q61.7188,271.5156 62.2656,271.875 Z " fill="#000000"/><text fill="#000000" font-family="sans-serif" font-size="14" lengthAdjust="spacing" textLength="91" x="73.5" y="282.1558">review_photos</text><line style="stroke:#181818;stroke-width:0.5;" x1="45.5" x2="166.5" y1="292" y2="292"/><line style="stroke:#181818;stroke-width:0.5;" x1="45.5" x2="166.5" y1="300" y2="300"/></g><!--class review_hashtag_groups--><g id="elem_review_hashtag_groups"><rect codeLine="7" fill="#F1F1F1" height="48" id="review_hashtag_groups" rx="2.5" ry="2.5" style="stroke:#181818;stroke-width:0.5;" width="183" x="225.5" y="152"/><ellipse cx="240.5" cy="168" fill="#ADD1B2" rx="11" ry="11" style="stroke:#181818;stroke-width:1.0;"/><path d="M243.2656,163.875 Q243.4219,163.6563 243.6094,163.5469 Q243.7969,163.4375 244.0156,163.4375 Q244.3906,163.4375 244.625,163.7031 Q244.8594,163.9531 244.8594,164.5625 L244.8594,166.0156 Q244.8594,166.625 244.625,166.8906 Q244.3906,167.1563 244.0156,167.1563 Q243.6719,167.1563 243.4688,166.9531 Q243.2656,166.7656 243.1563,166.25 Q243.1094,165.8906 242.9219,165.7031 Q242.5938,165.3281 241.9844,165.1094 Q241.375,164.8906 240.75,164.8906 Q239.9844,164.8906 239.3438,165.2188 Q238.7188,165.5469 238.2188,166.2969 Q237.7344,167.0469 237.7344,168.0781 L237.7344,169.1719 Q237.7344,170.4063 238.625,171.2344 Q239.5156,172.0469 241.1094,172.0469 Q242.0469,172.0469 242.7031,171.7969 Q243.0938,171.6406 243.5156,171.2031 Q243.7813,170.9375 243.9219,170.8594 Q244.0781,170.7813 244.2813,170.7813 Q244.6094,170.7813 244.8594,171.0469 Q245.125,171.2969 245.125,171.6406 Q245.125,171.9844 244.7813,172.3906 Q244.2813,172.9688 243.4844,173.2969 Q242.4063,173.75 241.1094,173.75 Q239.5938,173.75 238.3906,173.125 Q237.4063,172.625 236.7188,171.5625 Q236.0313,170.4844 236.0313,169.2031 L236.0313,168.0469 Q236.0313,166.7188 236.6406,165.5781 Q237.2656,164.4219 238.3594,163.8125 Q239.4531,163.1875 240.6875,163.1875 Q241.4219,163.1875 242.0625,163.3594 Q242.7188,163.5156 243.2656,163.875 Z " fill="#000000"/><text fill="#000000" font-family="sans-serif" font-size="14" lengthAdjust="spacing" textLength="151" x="254.5" y="174.1558">review_hashtag_groups</text><line style="stroke:#181818;stroke-width:0.5;" x1="226.5" x2="407.5" y1="184" y2="184"/><line style="stroke:#181818;stroke-width:0.5;" x1="226.5" x2="407.5" y1="192" y2="192"/></g><!--class review_hashtags--><g id="elem_review_hashtags"><rect codeLine="8" fill="#F1F1F1" height="48" id="review_hashtags" rx="2.5" ry="2.5" style="stroke:#181818;stroke-width:0.5;" width="138" x="248" y="260"/><ellipse cx="263" cy="276" fill="#ADD1B2" rx="11" ry="11" style="stroke:#181818;stroke-width:1.0;"/><path d="M265.7656,271.875 Q265.9219,271.6563 266.1094,271.5469 Q266.2969,271.4375 266.5156,271.4375 Q266.8906,271.4375 267.125,271.7031 Q267.3594,271.9531 267.3594,272.5625 L267.3594,274.0156 Q267.3594,274.625 267.125,274.8906 Q266.8906,275.1563 266.5156,275.1563 Q266.1719,275.1563 265.9688,274.9531 Q265.7656,274.7656 265.6563,274.25 Q265.6094,273.8906 265.4219,273.7031 Q265.0938,273.3281 264.4844,273.1094 Q263.875,272.8906 263.25,272.8906 Q262.4844,272.8906 261.8438,273.2188 Q261.2188,273.5469 260.7188,274.2969 Q260.2344,275.0469 260.2344,276.0781 L260.2344,277.1719 Q260.2344,278.4063 261.125,279.2344 Q262.0156,280.0469 263.6094,280.0469 Q264.5469,280.0469 265.2031,279.7969 Q265.5938,279.6406 266.0156,279.2031 Q266.2813,278.9375 266.4219,278.8594 Q266.5781,278.7813 266.7813,278.7813 Q267.1094,278.7813 267.3594,279.0469 Q267.625,279.2969 267.625,279.6406 Q267.625,279.9844 267.2813,280.3906 Q266.7813,280.9688 265.9844,281.2969 Q264.9063,281.75 263.6094,281.75 Q262.0938,281.75 260.8906,281.125 Q259.9063,280.625 259.2188,279.5625 Q258.5313,278.4844 258.5313,277.2031 L258.5313,276.0469 Q258.5313,274.7188 259.1406,273.5781 Q259.7656,272.4219 260.8594,271.8125 Q261.9531,271.1875 263.1875,271.1875 Q263.9219,271.1875 264.5625,271.3594 Q265.2188,271.5156 265.7656,271.875 Z " fill="#000000"/><text fill="#000000" font-family="sans-serif" font-size="14" lengthAdjust="spacing" textLength="106" x="277" y="282.1558">review_hashtags</text><line style="stroke:#181818;stroke-width:0.5;" x1="249" x2="385" y1="292" y2="292"/><line style="stroke:#181818;stroke-width:0.5;" x1="249" x2="385" y1="300" y2="300"/></g><!--class ai_review_analysis--><g id="elem_ai_review_analysis"><rect codeLine="9" fill="#F1F1F1" height="48" id="ai_review_analysis" rx="2.5" ry="2.5" style="stroke:#181818;stroke-width:0.5;" width="150" x="444" y="152"/><ellipse cx="459" cy="168" fill="#ADD1B2" rx="11" ry="11" style="stroke:#181818;stroke-width:1.0;"/><path d="M461.7656,163.875 Q461.9219,163.6563 462.1094,163.5469 Q462.2969,163.4375 462.5156,163.4375 Q462.8906,163.4375 463.125,163.7031 Q463.3594,163.9531 463.3594,164.5625 L463.3594,166.0156 Q463.3594,166.625 463.125,166.8906 Q462.8906,167.1563 462.5156,167.1563 Q462.1719,167.1563 461.9688,166.9531 Q461.7656,166.7656 461.6563,166.25 Q461.6094,165.8906 461.4219,165.7031 Q461.0938,165.3281 460.4844,165.1094 Q459.875,164.8906 459.25,164.8906 Q458.4844,164.8906 457.8438,165.2188 Q457.2188,165.5469 456.7188,166.2969 Q456.2344,167.0469 456.2344,168.0781 L456.2344,169.1719 Q456.2344,170.4063 457.125,171.2344 Q458.0156,172.0469 459.6094,172.0469 Q460.5469,172.0469 461.2031,171.7969 Q461.5938,171.6406 462.0156,171.2031 Q462.2813,170.9375 462.4219,170.8594 Q462.5781,170.7813 462.7813,170.7813 Q463.1094,170.7813 463.3594,171.0469 Q463.625,171.2969 463.625,171.6406 Q463.625,171.9844 463.2813,172.3906 Q462.7813,172.9688 461.9844,173.2969 Q460.9063,173.75 459.6094,173.75 Q458.0938,173.75 456.8906,173.125 Q455.9063,172.625 455.2188,171.5625 Q454.5313,170.4844 454.5313,169.2031 L454.5313,168.0469 Q454.5313,166.7188 455.1406,165.5781 Q455.7656,164.4219 456.8594,163.8125 Q457.9531,163.1875 459.1875,163.1875 Q459.9219,163.1875 460.5625,163.3594 Q461.2188,163.5156 461.7656,163.875 Z " fill="#000000"/><text fill="#000000" font-family="sans-serif" font-size="14" lengthAdjust="spacing" textLength="118" x="473" y="174.1558">ai_review_analysis</text><line style="stroke:#181818;stroke-width:0.5;" x1="445" x2="593" y1="184" y2="184"/><line style="stroke:#181818;stroke-width:0.5;" x1="445" x2="593" y1="192" y2="192"/></g><!--class ai_review_styles--><g id="elem_ai_review_styles"><rect codeLine="10" fill="#F1F1F1" height="48" id="ai_review_styles" rx="2.5" ry="2.5" style="stroke:#181818;stroke-width:0.5;" width="135" x="421.5" y="260"/><ellipse cx="436.5" cy="276" fill="#ADD1B2" rx="11" ry="11" style="stroke:#181818;stroke-width:1.0;"/><path d="M439.2656,271.875 Q439.4219,271.6563 439.6094,271.5469 Q439.7969,271.4375 440.0156,271.4375 Q440.3906,271.4375 440.625,271.7031 Q440.8594,271.9531 440.8594,272.5625 L440.8594,274.0156 Q440.8594,274.625 440.625,274.8906 Q440.3906,275.1563 440.0156,275.1563 Q439.6719,275.1563 439.4688,274.9531 Q439.2656,274.7656 439.1563,274.25 Q439.1094,273.8906 438.9219,273.7031 Q438.5938,273.3281 437.9844,273.1094 Q437.375,272.8906 436.75,272.8906 Q435.9844,272.8906 435.3438,273.2188 Q434.7188,273.5469 434.2188,274.2969 Q433.7344,275.0469 433.7344,276.0781 L433.7344,277.1719 Q433.7344,278.4063 434.625,279.2344 Q435.5156,280.0469 437.1094,280.0469 Q438.0469,280.0469 438.7031,279.7969 Q439.0938,279.6406 439.5156,279.2031 Q439.7813,278.9375 439.9219,278.8594 Q440.0781,278.7813 440.2813,278.7813 Q440.6094,278.7813 440.8594,279.0469 Q441.125,279.2969 441.125,279.6406 Q441.125,279.9844 440.7813,280.3906 Q440.2813,280.9688 439.4844,281.2969 Q438.4063,281.75 437.1094,281.75 Q435.5938,281.75 434.3906,281.125 Q433.4063,280.625 432.7188,279.5625 Q432.0313,278.4844 432.0313,277.2031 L432.0313,276.0469 Q432.0313,274.7188 432.6406,273.5781 Q433.2656,272.4219 434.3594,271.8125 Q435.4531,271.1875 436.6875,271.1875 Q437.4219,271.1875 438.0625,271.3594 Q438.7188,271.5156 439.2656,271.875 Z " fill="#000000"/><text fill="#000000" font-family="sans-serif" font-size="14" lengthAdjust="spacing" textLength="103" x="450.5" y="282.1558">ai_review_styles</text><line style="stroke:#181818;stroke-width:0.5;" x1="422.5" x2="555.5" y1="292" y2="292"/><line style="stroke:#181818;stroke-width:0.5;" x1="422.5" x2="555.5" y1="300" y2="300"/></g><!--class ai_review_hashtags--><g id="elem_ai_review_hashtags"><rect codeLine="11" fill="#F1F1F1" height="48" id="ai_review_hashtags" rx="2.5" ry="2.5" style="stroke:#181818;stroke-width:0.5;" width="157" x="423.5" y="368"/><ellipse cx="438.5" cy="384" fill="#ADD1B2" rx="11" ry="11" style="stroke:#181818;stroke-width:1.0;"/><path d="M441.2656,379.875 Q441.4219,379.6563 441.6094,379.5469 Q441.7969,379.4375 442.0156,379.4375 Q442.3906,379.4375 442.625,379.7031 Q442.8594,379.9531 442.8594,380.5625 L442.8594,382.0156 Q442.8594,382.625 442.625,382.8906 Q442.3906,383.1563 442.0156,383.1563 Q441.6719,383.1563 441.4688,382.9531 Q441.2656,382.7656 441.1563,382.25 Q441.1094,381.8906 440.9219,381.7031 Q440.5938,381.3281 439.9844,381.1094 Q439.375,380.8906 438.75,380.8906 Q437.9844,380.8906 437.3438,381.2188 Q436.7188,381.5469 436.2188,382.2969 Q435.7344,383.0469 435.7344,384.0781 L435.7344,385.1719 Q435.7344,386.4063 436.625,387.2344 Q437.5156,388.0469 439.1094,388.0469 Q440.0469,388.0469 440.7031,387.7969 Q441.0938,387.6406 441.5156,387.2031 Q441.7813,386.9375 441.9219,386.8594 Q442.0781,386.7813 442.2813,386.7813 Q442.6094,386.7813 442.8594,387.0469 Q443.125,387.2969 443.125,387.6406 Q443.125,387.9844 442.7813,388.3906 Q442.2813,388.9688 441.4844,389.2969 Q440.4063,389.75 439.1094,389.75 Q437.5938,389.75 436.3906,389.125 Q435.4063,388.625 434.7188,387.5625 Q434.0313,386.4844 434.0313,385.2031 L434.0313,384.0469 Q434.0313,382.7188 434.6406,381.5781 Q435.2656,380.4219 436.3594,379.8125 Q437.4531,379.1875 438.6875,379.1875 Q439.4219,379.1875 440.0625,379.3594 Q440.7188,379.5156 441.2656,379.875 Z " fill="#000000"/><text fill="#000000" font-family="sans-serif" font-size="14" lengthAdjust="spacing" textLength="125" x="452.5" y="390.1558">ai_review_hashtags</text><line style="stroke:#181818;stroke-width:0.5;" x1="424.5" x2="579.5" y1="400" y2="400"/><line style="stroke:#181818;stroke-width:0.5;" x1="424.5" x2="579.5" y1="408" y2="408"/></g><!--link review_posts to review_photo_groups--><g id="link_review_posts_review_photo_groups"><path codeLine="13" d="M264.0715,95.5915 C228.8015,113.3115 203.4851,126.031 168.1451,143.781 " fill="none" id="review_posts-review_photo_groups" style="stroke:#181818;stroke-width:1.0;"/><line style="stroke:#181818;stroke-width:1.0;" x1="265.85" x2="269.4415" y1="90.2215" y2="97.37"/><line style="stroke:#181818;stroke-width:1.0;" x1="263.1693" x2="266.7608" y1="91.5683" y2="98.7168"/><line style="stroke:#181818;stroke-width:1.0;" x1="264.0715" x2="271.22" y1="95.5915" y2="92"/><line style="stroke:#181818;stroke-width:1.0;" x1="159.2089" x2="154.753" y1="148.2694" y2="157.2217"/><line style="stroke:#181818;stroke-width:1.0;" x1="159.2089" x2="149.367" y1="148.2694" y2="146.4983"/><line style="stroke:#181818;stroke-width:1.0;" x1="159.2089" x2="152.06" y1="148.2694" y2="151.86"/><ellipse cx="164.5706" cy="145.5764" fill="none" rx="4" ry="4" style="stroke:#181818;stroke-width:1.0;"/></g><!--link review_photo_groups to review_photos--><g id="link_review_photo_groups_review_photos"><path codeLine="14" d="M106,208 C106,225.66 106,223.94 106,241.68 " fill="none" id="review_photo_groups-review_photos" style="stroke:#181818;stroke-width:1.0;"/><line style="stroke:#181818;stroke-width:1.0;" x1="102" x2="110" y1="204" y2="204"/><line style="stroke:#181818;stroke-width:1.0;" x1="102" x2="110" y1="207" y2="207"/><line style="stroke:#181818;stroke-width:1.0;" x1="106" x2="106" y1="208" y2="200"/><line style="stroke:#181818;stroke-width:1.0;" x1="106" x2="112" y1="251.68" y2="259.68"/><line style="stroke:#181818;stroke-width:1.0;" x1="106" x2="100" y1="251.68" y2="259.68"/><line style="stroke:#181818;stroke-width:1.0;" x1="106" x2="106" y1="251.68" y2="259.68"/><ellipse cx="106" cy="245.68" fill="none" rx="4" ry="4" style="stroke:#181818;stroke-width:1.0;"/></g><!--link review_posts to review_hashtag_groups--><g id="link_review_posts_review_hashtag_groups"><path codeLine="15" d="M317,100 C317,117.66 317,115.94 317,133.68 " fill="none" id="review_posts-review_hashtag_groups" style="stroke:#181818;stroke-width:1.0;"/><line style="stroke:#181818;stroke-width:1.0;" x1="313" x2="321" y1="96" y2="96"/><line style="stroke:#181818;stroke-width:1.0;" x1="313" x2="321" y1="99" y2="99"/><line style="stroke:#181818;stroke-width:1.0;" x1="317" x2="317" y1="100" y2="92"/><line style="stroke:#181818;stroke-width:1.0;" x1="317" x2="323" y1="143.68" y2="151.68"/><line style="stroke:#181818;stroke-width:1.0;" x1="317" x2="311" y1="143.68" y2="151.68"/><line style="stroke:#181818;stroke-width:1.0;" x1="317" x2="317" y1="143.68" y2="151.68"/><ellipse cx="317" cy="137.68" fill="none" rx="4" ry="4" style="stroke:#181818;stroke-width:1.0;"/></g><!--link review_hashtag_groups to review_hashtags--><g id="link_review_hashtag_groups_review_hashtags"><path codeLine="16" d="M317,208 C317,225.66 317,223.94 317,241.68 " fill="none" id="review_hashtag_groups-review_hashtags" style="stroke:#181818;stroke-width:1.0;"/><line style="stroke:#181818;stroke-width:1.0;" x1="313" x2="321" y1="204" y2="204"/><line style="stroke:#181818;stroke-width:1.0;" x1="313" x2="321" y1="207" y2="207"/><line style="stroke:#181818;stroke-width:1.0;" x1="317" x2="317" y1="208" y2="200"/><line style="stroke:#181818;stroke-width:1.0;" x1="317" x2="323" y1="251.68" y2="259.68"/><line style="stroke:#181818;stroke-width:1.0;" x1="317" x2="311" y1="251.68" y2="259.68"/><line style="stroke:#181818;stroke-width:1.0;" x1="317" x2="317" y1="251.68" y2="259.68"/><ellipse cx="317" cy="245.68" fill="none" rx="4" ry="4" style="stroke:#181818;stroke-width:1.0;"/></g><!--link review_posts to ai_review_analysis--><g id="link_review_posts_ai_review_analysis"><path codeLine="18" d="M367.914,95.7171 C401.684,113.4371 425.1297,125.7489 458.9697,143.4989 " fill="none" id="review_posts-ai_review_analysis" style="stroke:#181818;stroke-width:1.0;"/><line style="stroke:#181818;stroke-width:1.0;" x1="362.5134" x2="366.2306" y1="97.4006" y2="90.3166"/><line style="stroke:#181818;stroke-width:1.0;" x1="365.1699" x2="368.8871" y1="98.7945" y2="91.7105"/><line style="stroke:#181818;stroke-width:1.0;" x1="367.914" x2="360.83" y1="95.7171" y2="92"/><line style="stroke:#181818;stroke-width:1.0;" x1="467.8254" x2="477.697" y1="148.144" y2="146.5466"/><line style="stroke:#181818;stroke-width:1.0;" x1="467.8254" x2="472.123" y1="148.144" y2="157.1734"/><line style="stroke:#181818;stroke-width:1.0;" x1="467.8254" x2="474.91" y1="148.144" y2="151.86"/><ellipse cx="462.512" cy="145.3569" fill="none" rx="4" ry="4" style="stroke:#181818;stroke-width:1.0;"/></g><!--link ai_review_analysis to ai_review_styles--><g id="link_ai_review_analysis_ai_review_styles"><path codeLine="19" d="M510.3107,207.6974 C505.3107,225.3574 505.5211,224.6201 500.5011,242.3601 " fill="none" id="ai_review_analysis-ai_review_styles" style="stroke:#181818;stroke-width:1.0;"/><line style="stroke:#181818;stroke-width:1.0;" x1="507.5516" x2="515.249" y1="202.759" y2="204.9384"/><line style="stroke:#181818;stroke-width:1.0;" x1="506.7344" x2="514.4318" y1="205.6456" y2="207.8249"/><line style="stroke:#181818;stroke-width:1.0;" x1="510.3107" x2="512.49" y1="207.6974" y2="200"/><line style="stroke:#181818;stroke-width:1.0;" x1="497.7783" x2="501.3733" y1="251.9823" y2="261.3137"/><line style="stroke:#181818;stroke-width:1.0;" x1="497.7783" x2="489.8267" y1="251.9823" y2="258.0463"/><line style="stroke:#181818;stroke-width:1.0;" x1="497.7783" x2="495.6" y1="251.9823" y2="259.68"/><ellipse cx="499.412" cy="246.209" fill="none" rx="4" ry="4" style="stroke:#181818;stroke-width:1.0;"/></g><!--link ai_review_analysis to ai_review_hashtags--><g id="link_ai_review_analysis_ai_review_hashtags"><path codeLine="20" d="M544.7435,206.3541 C557.3535,222.0341 567.27,237.66 574,260 C580.15,280.43 581.46,288.01 574,308 C565.26,331.41 559.7506,340.2985 543.6206,355.3985 " fill="none" id="ai_review_analysis-ai_review_hashtags" style="stroke:#181818;stroke-width:1.0;"/><line style="stroke:#181818;stroke-width:1.0;" x1="539.1197" x2="545.3538" y1="205.7438" y2="200.7303"/><line style="stroke:#181818;stroke-width:1.0;" x1="540.9998" x2="547.2339" y1="208.0816" y2="203.0681"/><line style="stroke:#181818;stroke-width:1.0;" x1="544.7435" x2="539.73" y1="206.3541" y2="200.12"/><line style="stroke:#181818;stroke-width:1.0;" x1="536.3202" x2="534.5805" y1="362.2327" y2="372.0802"/><line style="stroke:#181818;stroke-width:1.0;" x1="536.3202" x2="526.3795" y1="362.2327" y2="363.3198"/><line style="stroke:#181818;stroke-width:1.0;" x1="536.3202" x2="530.48" y1="362.2327" y2="367.7"/><ellipse cx="540.7004" cy="358.1322" fill="none" rx="4" ry="4" style="stroke:#181818;stroke-width:1.0;"/></g><!--link ai_review_styles to ai_review_hashtags--><g id="link_ai_review_styles_ai_review_hashtags"><path codeLine="21" d="M492.7957,315.9403 C494.9657,333.6003 494.7646,332.0744 496.9446,349.8144 " fill="none" id="ai_review_styles-ai_review_hashtags" style="stroke:#181818;stroke-width:1.0;"/><line style="stroke:#181818;stroke-width:1.0;" x1="488.3377" x2="496.278" y1="312.458" y2="311.4823"/><line style="stroke:#181818;stroke-width:1.0;" x1="488.7036" x2="496.6439" y1="315.4356" y2="314.4599"/><line style="stroke:#181818;stroke-width:1.0;" x1="492.7957" x2="491.82" y1="315.9403" y2="308"/><line style="stroke:#181818;stroke-width:1.0;" x1="498.1643" x2="505.0952" y1="359.7397" y2="366.9482"/><line style="stroke:#181818;stroke-width:1.0;" x1="498.1643" x2="493.1848" y1="359.7397" y2="368.4118"/><line style="stroke:#181818;stroke-width:1.0;" x1="498.1643" x2="499.14" y1="359.7397" y2="367.68"/><ellipse cx="497.4324" cy="353.7845" fill="none" rx="4" ry="4" style="stroke:#181818;stroke-width:1.0;"/></g><!--SRC=[ZP5D2eCm48Ntdc9mqPs7SDcj5mY3X2GOEi59MqIzUqiHAvs9TFkz7_8c2Vi1dOMwiuzWdt21zbh3N07q4PbX_62JY3CBw2cJSIFTawu9wf5zHbV8REgNOp2RX3UC4mTDuZn5gmbxtLixpe1bQHgQ2oiKgWNul5GCLRaUAZvOFOU4qhwVw1_puHT-6qxCQ_K2]--></g></svg>