<?xml version="1.0" encoding="us-ascii" standalone="no"?><svg xmlns="http://www.w3.org/2000/svg" xmlns:xlink="http://www.w3.org/1999/xlink" contentStyleType="text/css" height="439px" preserveAspectRatio="none" style="width:310px;height:439px;background:#FFFFFF;" version="1.1" viewBox="0 0 310 439" width="310px" zoomAndPan="magnify"><defs/><g><!--cluster Travel & Plans--><g id="cluster_Travel &amp; Plans"><path d="M8.5,6 L109.5,6 A3.75,3.75 0 0 1 112,8.5 L119,31.0791 L300.5,31.0791 A2.5,2.5 0 0 1 303,33.5791 L303,429.5 A2.5,2.5 0 0 1 300.5,432 L8.5,432 A2.5,2.5 0 0 1 6,429.5 L6,8.5 A2.5,2.5 0 0 1 8.5,6 " fill="none" style="stroke:#000000;stroke-width:1.5;"/><line style="stroke:#000000;stroke-width:1.5;" x1="6" x2="119" y1="31.0791" y2="31.0791"/><text fill="#000000" font-family="sans-serif" font-size="14" font-weight="bold" lengthAdjust="spacing" textLength="100" x="10" y="23.6953">Travel &amp; Plans</text></g><!--class plans--><g id="elem_plans"><rect codeLine="4" fill="#F1F1F1" height="48" id="plans" rx="2.5" ry="2.5" style="stroke:#181818;stroke-width:0.5;" width="66" x="113" y="44"/><ellipse cx="128" cy="60" fill="#ADD1B2" rx="11" ry="11" style="stroke:#181818;stroke-width:1.0;"/><path d="M130.7656,55.875 Q130.9219,55.6563 131.1094,55.5469 Q131.2969,55.4375 131.5156,55.4375 Q131.8906,55.4375 132.125,55.7031 Q132.3594,55.9531 132.3594,56.5625 L132.3594,58.0156 Q132.3594,58.625 132.125,58.8906 Q131.8906,59.1563 131.5156,59.1563 Q131.1719,59.1563 130.9688,58.9531 Q130.7656,58.7656 130.6563,58.25 Q130.6094,57.8906 130.4219,57.7031 Q130.0938,57.3281 129.4844,57.1094 Q128.875,56.8906 128.25,56.8906 Q127.4844,56.8906 126.8438,57.2188 Q126.2188,57.5469 125.7188,58.2969 Q125.2344,59.0469 125.2344,60.0781 L125.2344,61.1719 Q125.2344,62.4063 126.125,63.2344 Q127.0156,64.0469 128.6094,64.0469 Q129.5469,64.0469 130.2031,63.7969 Q130.5938,63.6406 131.0156,63.2031 Q131.2813,62.9375 131.4219,62.8594 Q131.5781,62.7813 131.7813,62.7813 Q132.1094,62.7813 132.3594,63.0469 Q132.625,63.2969 132.625,63.6406 Q132.625,63.9844 132.2813,64.3906 Q131.7813,64.9688 130.9844,65.2969 Q129.9063,65.75 128.6094,65.75 Q127.0938,65.75 125.8906,65.125 Q124.9063,64.625 124.2188,63.5625 Q123.5313,62.4844 123.5313,61.2031 L123.5313,60.0469 Q123.5313,58.7188 124.1406,57.5781 Q124.7656,56.4219 125.8594,55.8125 Q126.9531,55.1875 128.1875,55.1875 Q128.9219,55.1875 129.5625,55.3594 Q130.2188,55.5156 130.7656,55.875 Z " fill="#000000"/><text fill="#000000" font-family="sans-serif" font-size="14" lengthAdjust="spacing" textLength="34" x="142" y="66.1558">plans</text><line style="stroke:#181818;stroke-width:0.5;" x1="114" x2="178" y1="76" y2="76"/><line style="stroke:#181818;stroke-width:0.5;" x1="114" x2="178" y1="84" y2="84"/></g><!--class plan_days--><g id="elem_plan_days"><rect codeLine="5" fill="#F1F1F1" height="48" id="plan_days" rx="2.5" ry="2.5" style="stroke:#181818;stroke-width:0.5;" width="97" x="22.5" y="152"/><ellipse cx="37.5" cy="168" fill="#ADD1B2" rx="11" ry="11" style="stroke:#181818;stroke-width:1.0;"/><path d="M40.2656,163.875 Q40.4219,163.6563 40.6094,163.5469 Q40.7969,163.4375 41.0156,163.4375 Q41.3906,163.4375 41.625,163.7031 Q41.8594,163.9531 41.8594,164.5625 L41.8594,166.0156 Q41.8594,166.625 41.625,166.8906 Q41.3906,167.1563 41.0156,167.1563 Q40.6719,167.1563 40.4688,166.9531 Q40.2656,166.7656 40.1563,166.25 Q40.1094,165.8906 39.9219,165.7031 Q39.5938,165.3281 38.9844,165.1094 Q38.375,164.8906 37.75,164.8906 Q36.9844,164.8906 36.3438,165.2188 Q35.7188,165.5469 35.2188,166.2969 Q34.7344,167.0469 34.7344,168.0781 L34.7344,169.1719 Q34.7344,170.4063 35.625,171.2344 Q36.5156,172.0469 38.1094,172.0469 Q39.0469,172.0469 39.7031,171.7969 Q40.0938,171.6406 40.5156,171.2031 Q40.7813,170.9375 40.9219,170.8594 Q41.0781,170.7813 41.2813,170.7813 Q41.6094,170.7813 41.8594,171.0469 Q42.125,171.2969 42.125,171.6406 Q42.125,171.9844 41.7813,172.3906 Q41.2813,172.9688 40.4844,173.2969 Q39.4063,173.75 38.1094,173.75 Q36.5938,173.75 35.3906,173.125 Q34.4063,172.625 33.7188,171.5625 Q33.0313,170.4844 33.0313,169.2031 L33.0313,168.0469 Q33.0313,166.7188 33.6406,165.5781 Q34.2656,164.4219 35.3594,163.8125 Q36.4531,163.1875 37.6875,163.1875 Q38.4219,163.1875 39.0625,163.3594 Q39.7188,163.5156 40.2656,163.875 Z " fill="#000000"/><text fill="#000000" font-family="sans-serif" font-size="14" lengthAdjust="spacing" textLength="65" x="51.5" y="174.1558">plan_days</text><line style="stroke:#181818;stroke-width:0.5;" x1="23.5" x2="118.5" y1="184" y2="184"/><line style="stroke:#181818;stroke-width:0.5;" x1="23.5" x2="118.5" y1="192" y2="192"/></g><!--class plan_places--><g id="elem_plan_places"><rect codeLine="6" fill="#F1F1F1" height="48" id="plan_places" rx="2.5" ry="2.5" style="stroke:#181818;stroke-width:0.5;" width="108" x="30" y="260"/><ellipse cx="45" cy="276" fill="#ADD1B2" rx="11" ry="11" style="stroke:#181818;stroke-width:1.0;"/><path d="M47.7656,271.875 Q47.9219,271.6563 48.1094,271.5469 Q48.2969,271.4375 48.5156,271.4375 Q48.8906,271.4375 49.125,271.7031 Q49.3594,271.9531 49.3594,272.5625 L49.3594,274.0156 Q49.3594,274.625 49.125,274.8906 Q48.8906,275.1563 48.5156,275.1563 Q48.1719,275.1563 47.9688,274.9531 Q47.7656,274.7656 47.6563,274.25 Q47.6094,273.8906 47.4219,273.7031 Q47.0938,273.3281 46.4844,273.1094 Q45.875,272.8906 45.25,272.8906 Q44.4844,272.8906 43.8438,273.2188 Q43.2188,273.5469 42.7188,274.2969 Q42.2344,275.0469 42.2344,276.0781 L42.2344,277.1719 Q42.2344,278.4063 43.125,279.2344 Q44.0156,280.0469 45.6094,280.0469 Q46.5469,280.0469 47.2031,279.7969 Q47.5938,279.6406 48.0156,279.2031 Q48.2813,278.9375 48.4219,278.8594 Q48.5781,278.7813 48.7813,278.7813 Q49.1094,278.7813 49.3594,279.0469 Q49.625,279.2969 49.625,279.6406 Q49.625,279.9844 49.2813,280.3906 Q48.7813,280.9688 47.9844,281.2969 Q46.9063,281.75 45.6094,281.75 Q44.0938,281.75 42.8906,281.125 Q41.9063,280.625 41.2188,279.5625 Q40.5313,278.4844 40.5313,277.2031 L40.5313,276.0469 Q40.5313,274.7188 41.1406,273.5781 Q41.7656,272.4219 42.8594,271.8125 Q43.9531,271.1875 45.1875,271.1875 Q45.9219,271.1875 46.5625,271.3594 Q47.2188,271.5156 47.7656,271.875 Z " fill="#000000"/><text fill="#000000" font-family="sans-serif" font-size="14" lengthAdjust="spacing" textLength="76" x="59" y="282.1558">plan_places</text><line style="stroke:#181818;stroke-width:0.5;" x1="31" x2="137" y1="292" y2="292"/><line style="stroke:#181818;stroke-width:0.5;" x1="31" x2="137" y1="300" y2="300"/></g><!--class current_activities--><g id="elem_current_activities"><rect codeLine="7" fill="#F1F1F1" height="48" id="current_activities" rx="2.5" ry="2.5" style="stroke:#181818;stroke-width:0.5;" width="139" x="22.5" y="368"/><ellipse cx="37.5" cy="384" fill="#ADD1B2" rx="11" ry="11" style="stroke:#181818;stroke-width:1.0;"/><path d="M40.2656,379.875 Q40.4219,379.6563 40.6094,379.5469 Q40.7969,379.4375 41.0156,379.4375 Q41.3906,379.4375 41.625,379.7031 Q41.8594,379.9531 41.8594,380.5625 L41.8594,382.0156 Q41.8594,382.625 41.625,382.8906 Q41.3906,383.1563 41.0156,383.1563 Q40.6719,383.1563 40.4688,382.9531 Q40.2656,382.7656 40.1563,382.25 Q40.1094,381.8906 39.9219,381.7031 Q39.5938,381.3281 38.9844,381.1094 Q38.375,380.8906 37.75,380.8906 Q36.9844,380.8906 36.3438,381.2188 Q35.7188,381.5469 35.2188,382.2969 Q34.7344,383.0469 34.7344,384.0781 L34.7344,385.1719 Q34.7344,386.4063 35.625,387.2344 Q36.5156,388.0469 38.1094,388.0469 Q39.0469,388.0469 39.7031,387.7969 Q40.0938,387.6406 40.5156,387.2031 Q40.7813,386.9375 40.9219,386.8594 Q41.0781,386.7813 41.2813,386.7813 Q41.6094,386.7813 41.8594,387.0469 Q42.125,387.2969 42.125,387.6406 Q42.125,387.9844 41.7813,388.3906 Q41.2813,388.9688 40.4844,389.2969 Q39.4063,389.75 38.1094,389.75 Q36.5938,389.75 35.3906,389.125 Q34.4063,388.625 33.7188,387.5625 Q33.0313,386.4844 33.0313,385.2031 L33.0313,384.0469 Q33.0313,382.7188 33.6406,381.5781 Q34.2656,380.4219 35.3594,379.8125 Q36.4531,379.1875 37.6875,379.1875 Q38.4219,379.1875 39.0625,379.3594 Q39.7188,379.5156 40.2656,379.875 Z " fill="#000000"/><text fill="#000000" font-family="sans-serif" font-size="14" lengthAdjust="spacing" textLength="107" x="51.5" y="390.1558">current_activities</text><line style="stroke:#181818;stroke-width:0.5;" x1="23.5" x2="160.5" y1="400" y2="400"/><line style="stroke:#181818;stroke-width:0.5;" x1="23.5" x2="160.5" y1="408" y2="408"/></g><!--class plan_snapshots--><g id="elem_plan_snapshots"><rect codeLine="8" fill="#F1F1F1" height="48" id="plan_snapshots" rx="2.5" ry="2.5" style="stroke:#181818;stroke-width:0.5;" width="132" x="155" y="152"/><ellipse cx="170" cy="168" fill="#ADD1B2" rx="11" ry="11" style="stroke:#181818;stroke-width:1.0;"/><path d="M172.7656,163.875 Q172.9219,163.6563 173.1094,163.5469 Q173.2969,163.4375 173.5156,163.4375 Q173.8906,163.4375 174.125,163.7031 Q174.3594,163.9531 174.3594,164.5625 L174.3594,166.0156 Q174.3594,166.625 174.125,166.8906 Q173.8906,167.1563 173.5156,167.1563 Q173.1719,167.1563 172.9688,166.9531 Q172.7656,166.7656 172.6563,166.25 Q172.6094,165.8906 172.4219,165.7031 Q172.0938,165.3281 171.4844,165.1094 Q170.875,164.8906 170.25,164.8906 Q169.4844,164.8906 168.8438,165.2188 Q168.2188,165.5469 167.7188,166.2969 Q167.2344,167.0469 167.2344,168.0781 L167.2344,169.1719 Q167.2344,170.4063 168.125,171.2344 Q169.0156,172.0469 170.6094,172.0469 Q171.5469,172.0469 172.2031,171.7969 Q172.5938,171.6406 173.0156,171.2031 Q173.2813,170.9375 173.4219,170.8594 Q173.5781,170.7813 173.7813,170.7813 Q174.1094,170.7813 174.3594,171.0469 Q174.625,171.2969 174.625,171.6406 Q174.625,171.9844 174.2813,172.3906 Q173.7813,172.9688 172.9844,173.2969 Q171.9063,173.75 170.6094,173.75 Q169.0938,173.75 167.8906,173.125 Q166.9063,172.625 166.2188,171.5625 Q165.5313,170.4844 165.5313,169.2031 L165.5313,168.0469 Q165.5313,166.7188 166.1406,165.5781 Q166.7656,164.4219 167.8594,163.8125 Q168.9531,163.1875 170.1875,163.1875 Q170.9219,163.1875 171.5625,163.3594 Q172.2188,163.5156 172.7656,163.875 Z " fill="#000000"/><text fill="#000000" font-family="sans-serif" font-size="14" lengthAdjust="spacing" textLength="100" x="184" y="174.1558">plan_snapshots</text><line style="stroke:#181818;stroke-width:0.5;" x1="156" x2="286" y1="184" y2="184"/><line style="stroke:#181818;stroke-width:0.5;" x1="156" x2="286" y1="192" y2="192"/></g><!--link plans to plan_days--><g id="link_plans_plan_days"><path codeLine="10" d="M125.1081,98.5298 C112.6081,116.1898 110.4456,119.2454 97.8956,136.9854 " fill="none" id="plans-plan_days" style="stroke:#181818;stroke-width:1.0;"/><line style="stroke:#181818;stroke-width:1.0;" x1="124.1542" x2="130.684" y1="92.954" y2="97.5758"/><line style="stroke:#181818;stroke-width:1.0;" x1="122.421" x2="128.9508" y1="95.4026" y2="100.0245"/><line style="stroke:#181818;stroke-width:1.0;" x1="125.1081" x2="129.73" y1="98.5298" y2="92"/><line style="stroke:#181818;stroke-width:1.0;" x1="92.1203" x2="92.3982" y1="145.1491" y2="155.1452"/><line style="stroke:#181818;stroke-width:1.0;" x1="92.1203" x2="82.6018" y1="145.1491" y2="148.2148"/><line style="stroke:#181818;stroke-width:1.0;" x1="92.1203" x2="87.5" y1="145.1491" y2="151.68"/><ellipse cx="95.5854" cy="140.2508" fill="none" rx="4" ry="4" style="stroke:#181818;stroke-width:1.0;"/></g><!--link plan_days to plan_places--><g id="link_plan_days_plan_places"><path codeLine="11" d="M74.7957,207.9403 C76.9657,225.6003 76.7646,224.0744 78.9446,241.8144 " fill="none" id="plan_days-plan_places" style="stroke:#181818;stroke-width:1.0;"/><line style="stroke:#181818;stroke-width:1.0;" x1="70.3377" x2="78.278" y1="204.458" y2="203.4823"/><line style="stroke:#181818;stroke-width:1.0;" x1="70.7036" x2="78.6439" y1="207.4356" y2="206.4599"/><line style="stroke:#181818;stroke-width:1.0;" x1="74.7957" x2="73.82" y1="207.9403" y2="200"/><line style="stroke:#181818;stroke-width:1.0;" x1="80.1643" x2="87.0952" y1="251.7397" y2="258.9482"/><line style="stroke:#181818;stroke-width:1.0;" x1="80.1643" x2="75.1848" y1="251.7397" y2="260.4118"/><line style="stroke:#181818;stroke-width:1.0;" x1="80.1643" x2="81.14" y1="251.7397" y2="259.68"/><ellipse cx="79.4324" cy="245.7845" fill="none" rx="4" ry="4" style="stroke:#181818;stroke-width:1.0;"/></g><!--link plan_places to current_activities--><g id="link_plan_places_current_activities"><path codeLine="12" d="M86.3408,315.9774 C87.6708,333.6374 88.2974,341.9627 89.6374,359.7027 " fill="none" id="plan_places-current_activities" style="stroke:#181818;stroke-width:1.0;"/><line style="stroke:#181818;stroke-width:1.0;" x1="82.0517" x2="90.0291" y1="312.2891" y2="311.6883"/><line style="stroke:#181818;stroke-width:1.0;" x1="82.277" x2="90.2544" y1="315.2806" y2="314.6798"/><line style="stroke:#181818;stroke-width:1.0;" x1="86.3408" x2="85.74" y1="315.9774" y2="308"/><line style="stroke:#181818;stroke-width:1.0;" x1="93.9274" x2="85.9501" y1="363.3901" y2="363.9926"/><line style="stroke:#181818;stroke-width:1.0;" x1="93.7014" x2="85.7241" y1="360.3986" y2="361.0012"/><line style="stroke:#181818;stroke-width:1.0;" x1="89.6374" x2="90.24" y1="359.7027" y2="367.68"/></g><!--link plans to plan_snapshots--><g id="link_plans_plan_snapshots"><path codeLine="13" d="M166.8919,98.5298 C179.3919,116.1898 181.5544,119.2454 194.1044,136.9854 " fill="none" id="plans-plan_snapshots" style="stroke:#181818;stroke-width:1.0;"/><line style="stroke:#181818;stroke-width:1.0;" x1="161.316" x2="167.8458" y1="97.5758" y2="92.954"/><line style="stroke:#181818;stroke-width:1.0;" x1="163.0492" x2="169.579" y1="100.0245" y2="95.4026"/><line style="stroke:#181818;stroke-width:1.0;" x1="166.8919" x2="162.27" y1="98.5298" y2="92"/><line style="stroke:#181818;stroke-width:1.0;" x1="199.8797" x2="209.3982" y1="145.1491" y2="148.2148"/><line style="stroke:#181818;stroke-width:1.0;" x1="199.8797" x2="199.6018" y1="145.1491" y2="155.1452"/><line style="stroke:#181818;stroke-width:1.0;" x1="199.8797" x2="204.5" y1="145.1491" y2="151.68"/><ellipse cx="196.4146" cy="140.2508" fill="none" rx="4" ry="4" style="stroke:#181818;stroke-width:1.0;"/></g><!--SRC=[ROsx2e0m34NtVaLmSFDV7DmbnA35KajJ1R7-kuz1hRg4t9DBZaFgiMN8AeyJ6yYXD6WbWqK1a44HS0T8KjtW_2Bx8BuPZTwp3JLIq9CEcbzriUYa6uAedPy2YB4eXYNvV-t9yL8zqbc8yT_x_N_hLxK1]--></g></svg>