<?xml version="1.0" encoding="us-ascii" standalone="no"?><svg xmlns="http://www.w3.org/2000/svg" xmlns:xlink="http://www.w3.org/1999/xlink" contentStyleType="text/css" height="223px" preserveAspectRatio="none" style="width:678px;height:223px;background:#FFFFFF;" version="1.1" viewBox="0 0 678 223" width="678px" zoomAndPan="magnify"><defs/><g><!--cluster User & Auth--><g id="cluster_User &amp; Auth"><path d="M8.5,6 L92.5,6 A3.75,3.75 0 0 1 95,8.5 L102,31.0791 L668.5,31.0791 A2.5,2.5 0 0 1 671,33.5791 L671,213.5 A2.5,2.5 0 0 1 668.5,216 L8.5,216 A2.5,2.5 0 0 1 6,213.5 L6,8.5 A2.5,2.5 0 0 1 8.5,6 " fill="none" style="stroke:#000000;stroke-width:1.5;"/><line style="stroke:#000000;stroke-width:1.5;" x1="6" x2="102" y1="31.0791" y2="31.0791"/><text fill="#000000" font-family="sans-serif" font-size="14" font-weight="bold" lengthAdjust="spacing" textLength="83" x="10" y="23.6953">User &amp; Auth</text></g><!--class users--><g id="elem_users"><rect codeLine="5" fill="#F1F1F1" height="48" id="users" rx="2.5" ry="2.5" style="stroke:#181818;stroke-width:0.5;" width="67" x="274.5" y="44"/><ellipse cx="289.5" cy="60" fill="#ADD1B2" rx="11" ry="11" style="stroke:#181818;stroke-width:1.0;"/><path d="M292.2656,55.875 Q292.4219,55.6563 292.6094,55.5469 Q292.7969,55.4375 293.0156,55.4375 Q293.3906,55.4375 293.625,55.7031 Q293.8594,55.9531 293.8594,56.5625 L293.8594,58.0156 Q293.8594,58.625 293.625,58.8906 Q293.3906,59.1563 293.0156,59.1563 Q292.6719,59.1563 292.4688,58.9531 Q292.2656,58.7656 292.1563,58.25 Q292.1094,57.8906 291.9219,57.7031 Q291.5938,57.3281 290.9844,57.1094 Q290.375,56.8906 289.75,56.8906 Q288.9844,56.8906 288.3438,57.2188 Q287.7188,57.5469 287.2188,58.2969 Q286.7344,59.0469 286.7344,60.0781 L286.7344,61.1719 Q286.7344,62.4063 287.625,63.2344 Q288.5156,64.0469 290.1094,64.0469 Q291.0469,64.0469 291.7031,63.7969 Q292.0938,63.6406 292.5156,63.2031 Q292.7813,62.9375 292.9219,62.8594 Q293.0781,62.7813 293.2813,62.7813 Q293.6094,62.7813 293.8594,63.0469 Q294.125,63.2969 294.125,63.6406 Q294.125,63.9844 293.7813,64.3906 Q293.2813,64.9688 292.4844,65.2969 Q291.4063,65.75 290.1094,65.75 Q288.5938,65.75 287.3906,65.125 Q286.4063,64.625 285.7188,63.5625 Q285.0313,62.4844 285.0313,61.2031 L285.0313,60.0469 Q285.0313,58.7188 285.6406,57.5781 Q286.2656,56.4219 287.3594,55.8125 Q288.4531,55.1875 289.6875,55.1875 Q290.4219,55.1875 291.0625,55.3594 Q291.7188,55.5156 292.2656,55.875 Z " fill="#000000"/><text fill="#000000" font-family="sans-serif" font-size="14" lengthAdjust="spacing" textLength="35" x="303.5" y="66.1558">users</text><line style="stroke:#181818;stroke-width:0.5;" x1="275.5" x2="340.5" y1="76" y2="76"/><line style="stroke:#181818;stroke-width:0.5;" x1="275.5" x2="340.5" y1="84" y2="84"/></g><!--class user_identities--><g id="elem_user_identities"><rect codeLine="6" fill="#F1F1F1" height="48" id="user_identities" rx="2.5" ry="2.5" style="stroke:#181818;stroke-width:0.5;" width="124" x="22" y="152"/><ellipse cx="37" cy="168" fill="#ADD1B2" rx="11" ry="11" style="stroke:#181818;stroke-width:1.0;"/><path d="M39.7656,163.875 Q39.9219,163.6563 40.1094,163.5469 Q40.2969,163.4375 40.5156,163.4375 Q40.8906,163.4375 41.125,163.7031 Q41.3594,163.9531 41.3594,164.5625 L41.3594,166.0156 Q41.3594,166.625 41.125,166.8906 Q40.8906,167.1563 40.5156,167.1563 Q40.1719,167.1563 39.9688,166.9531 Q39.7656,166.7656 39.6563,166.25 Q39.6094,165.8906 39.4219,165.7031 Q39.0938,165.3281 38.4844,165.1094 Q37.875,164.8906 37.25,164.8906 Q36.4844,164.8906 35.8438,165.2188 Q35.2188,165.5469 34.7188,166.2969 Q34.2344,167.0469 34.2344,168.0781 L34.2344,169.1719 Q34.2344,170.4063 35.125,171.2344 Q36.0156,172.0469 37.6094,172.0469 Q38.5469,172.0469 39.2031,171.7969 Q39.5938,171.6406 40.0156,171.2031 Q40.2813,170.9375 40.4219,170.8594 Q40.5781,170.7813 40.7813,170.7813 Q41.1094,170.7813 41.3594,171.0469 Q41.625,171.2969 41.625,171.6406 Q41.625,171.9844 41.2813,172.3906 Q40.7813,172.9688 39.9844,173.2969 Q38.9063,173.75 37.6094,173.75 Q36.0938,173.75 34.8906,173.125 Q33.9063,172.625 33.2188,171.5625 Q32.5313,170.4844 32.5313,169.2031 L32.5313,168.0469 Q32.5313,166.7188 33.1406,165.5781 Q33.7656,164.4219 34.8594,163.8125 Q35.9531,163.1875 37.1875,163.1875 Q37.9219,163.1875 38.5625,163.3594 Q39.2188,163.5156 39.7656,163.875 Z " fill="#000000"/><text fill="#000000" font-family="sans-serif" font-size="14" lengthAdjust="spacing" textLength="92" x="51" y="174.1558">user_identities</text><line style="stroke:#181818;stroke-width:0.5;" x1="23" x2="145" y1="184" y2="184"/><line style="stroke:#181818;stroke-width:0.5;" x1="23" x2="145" y1="192" y2="192"/></g><!--class sns_tokens--><g id="elem_sns_tokens"><rect codeLine="7" fill="#F1F1F1" height="48" id="sns_tokens" rx="2.5" ry="2.5" style="stroke:#181818;stroke-width:0.5;" width="104" x="181" y="152"/><ellipse cx="196" cy="168" fill="#ADD1B2" rx="11" ry="11" style="stroke:#181818;stroke-width:1.0;"/><path d="M198.7656,163.875 Q198.9219,163.6563 199.1094,163.5469 Q199.2969,163.4375 199.5156,163.4375 Q199.8906,163.4375 200.125,163.7031 Q200.3594,163.9531 200.3594,164.5625 L200.3594,166.0156 Q200.3594,166.625 200.125,166.8906 Q199.8906,167.1563 199.5156,167.1563 Q199.1719,167.1563 198.9688,166.9531 Q198.7656,166.7656 198.6563,166.25 Q198.6094,165.8906 198.4219,165.7031 Q198.0938,165.3281 197.4844,165.1094 Q196.875,164.8906 196.25,164.8906 Q195.4844,164.8906 194.8438,165.2188 Q194.2188,165.5469 193.7188,166.2969 Q193.2344,167.0469 193.2344,168.0781 L193.2344,169.1719 Q193.2344,170.4063 194.125,171.2344 Q195.0156,172.0469 196.6094,172.0469 Q197.5469,172.0469 198.2031,171.7969 Q198.5938,171.6406 199.0156,171.2031 Q199.2813,170.9375 199.4219,170.8594 Q199.5781,170.7813 199.7813,170.7813 Q200.1094,170.7813 200.3594,171.0469 Q200.625,171.2969 200.625,171.6406 Q200.625,171.9844 200.2813,172.3906 Q199.7813,172.9688 198.9844,173.2969 Q197.9063,173.75 196.6094,173.75 Q195.0938,173.75 193.8906,173.125 Q192.9063,172.625 192.2188,171.5625 Q191.5313,170.4844 191.5313,169.2031 L191.5313,168.0469 Q191.5313,166.7188 192.1406,165.5781 Q192.7656,164.4219 193.8594,163.8125 Q194.9531,163.1875 196.1875,163.1875 Q196.9219,163.1875 197.5625,163.3594 Q198.2188,163.5156 198.7656,163.875 Z " fill="#000000"/><text fill="#000000" font-family="sans-serif" font-size="14" lengthAdjust="spacing" textLength="72" x="210" y="174.1558">sns_tokens</text><line style="stroke:#181818;stroke-width:0.5;" x1="182" x2="284" y1="184" y2="184"/><line style="stroke:#181818;stroke-width:0.5;" x1="182" x2="284" y1="192" y2="192"/></g><!--class chat_memories--><g id="elem_chat_memories"><rect codeLine="8" fill="#F1F1F1" height="48" id="chat_memories" rx="2.5" ry="2.5" style="stroke:#181818;stroke-width:0.5;" width="128" x="320" y="152"/><ellipse cx="335" cy="168" fill="#ADD1B2" rx="11" ry="11" style="stroke:#181818;stroke-width:1.0;"/><path d="M337.7656,163.875 Q337.9219,163.6563 338.1094,163.5469 Q338.2969,163.4375 338.5156,163.4375 Q338.8906,163.4375 339.125,163.7031 Q339.3594,163.9531 339.3594,164.5625 L339.3594,166.0156 Q339.3594,166.625 339.125,166.8906 Q338.8906,167.1563 338.5156,167.1563 Q338.1719,167.1563 337.9688,166.9531 Q337.7656,166.7656 337.6563,166.25 Q337.6094,165.8906 337.4219,165.7031 Q337.0938,165.3281 336.4844,165.1094 Q335.875,164.8906 335.25,164.8906 Q334.4844,164.8906 333.8438,165.2188 Q333.2188,165.5469 332.7188,166.2969 Q332.2344,167.0469 332.2344,168.0781 L332.2344,169.1719 Q332.2344,170.4063 333.125,171.2344 Q334.0156,172.0469 335.6094,172.0469 Q336.5469,172.0469 337.2031,171.7969 Q337.5938,171.6406 338.0156,171.2031 Q338.2813,170.9375 338.4219,170.8594 Q338.5781,170.7813 338.7813,170.7813 Q339.1094,170.7813 339.3594,171.0469 Q339.625,171.2969 339.625,171.6406 Q339.625,171.9844 339.2813,172.3906 Q338.7813,172.9688 337.9844,173.2969 Q336.9063,173.75 335.6094,173.75 Q334.0938,173.75 332.8906,173.125 Q331.9063,172.625 331.2188,171.5625 Q330.5313,170.4844 330.5313,169.2031 L330.5313,168.0469 Q330.5313,166.7188 331.1406,165.5781 Q331.7656,164.4219 332.8594,163.8125 Q333.9531,163.1875 335.1875,163.1875 Q335.9219,163.1875 336.5625,163.3594 Q337.2188,163.5156 337.7656,163.875 Z " fill="#000000"/><text fill="#000000" font-family="sans-serif" font-size="14" lengthAdjust="spacing" textLength="96" x="349" y="174.1558">chat_memories</text><line style="stroke:#181818;stroke-width:0.5;" x1="321" x2="447" y1="184" y2="184"/><line style="stroke:#181818;stroke-width:0.5;" x1="321" x2="447" y1="192" y2="192"/></g><!--class chat_memory_vectors--><g id="elem_chat_memory_vectors"><rect codeLine="9" fill="#F1F1F1" height="48" id="chat_memory_vectors" rx="2.5" ry="2.5" style="stroke:#181818;stroke-width:0.5;" width="171" x="483.5" y="152"/><ellipse cx="498.5" cy="168" fill="#ADD1B2" rx="11" ry="11" style="stroke:#181818;stroke-width:1.0;"/><path d="M501.2656,163.875 Q501.4219,163.6563 501.6094,163.5469 Q501.7969,163.4375 502.0156,163.4375 Q502.3906,163.4375 502.625,163.7031 Q502.8594,163.9531 502.8594,164.5625 L502.8594,166.0156 Q502.8594,166.625 502.625,166.8906 Q502.3906,167.1563 502.0156,167.1563 Q501.6719,167.1563 501.4688,166.9531 Q501.2656,166.7656 501.1563,166.25 Q501.1094,165.8906 500.9219,165.7031 Q500.5938,165.3281 499.9844,165.1094 Q499.375,164.8906 498.75,164.8906 Q497.9844,164.8906 497.3438,165.2188 Q496.7188,165.5469 496.2188,166.2969 Q495.7344,167.0469 495.7344,168.0781 L495.7344,169.1719 Q495.7344,170.4063 496.625,171.2344 Q497.5156,172.0469 499.1094,172.0469 Q500.0469,172.0469 500.7031,171.7969 Q501.0938,171.6406 501.5156,171.2031 Q501.7813,170.9375 501.9219,170.8594 Q502.0781,170.7813 502.2813,170.7813 Q502.6094,170.7813 502.8594,171.0469 Q503.125,171.2969 503.125,171.6406 Q503.125,171.9844 502.7813,172.3906 Q502.2813,172.9688 501.4844,173.2969 Q500.4063,173.75 499.1094,173.75 Q497.5938,173.75 496.3906,173.125 Q495.4063,172.625 494.7188,171.5625 Q494.0313,170.4844 494.0313,169.2031 L494.0313,168.0469 Q494.0313,166.7188 494.6406,165.5781 Q495.2656,164.4219 496.3594,163.8125 Q497.4531,163.1875 498.6875,163.1875 Q499.4219,163.1875 500.0625,163.3594 Q500.7188,163.5156 501.2656,163.875 Z " fill="#000000"/><text fill="#000000" font-family="sans-serif" font-size="14" lengthAdjust="spacing" textLength="139" x="512.5" y="174.1558">chat_memory_vectors</text><line style="stroke:#181818;stroke-width:0.5;" x1="484.5" x2="653.5" y1="184" y2="184"/><line style="stroke:#181818;stroke-width:0.5;" x1="484.5" x2="653.5" y1="192" y2="192"/></g><!--link users to user_identities--><g id="link_users_user_identities"><path codeLine="11" d="M267.2289,88.2922 C229.6389,106.0822 191.8498,123.9597 148.9798,144.2497 " fill="none" id="users-user_identities" style="stroke:#181818;stroke-width:1.0;"/><line style="stroke:#181818;stroke-width:1.0;" x1="269.1334" x2="272.5556" y1="82.9656" y2="90.1966"/><line style="stroke:#181818;stroke-width:1.0;" x1="266.4217" x2="269.8439" y1="84.2489" y2="91.48"/><line style="stroke:#181818;stroke-width:1.0;" x1="267.2289" x2="274.46" y1="88.2922" y2="84.87"/><line style="stroke:#181818;stroke-width:1.0;" x1="139.941" x2="135.2768" y1="148.5276" y2="157.3733"/><line style="stroke:#181818;stroke-width:1.0;" x1="139.941" x2="130.1432" y1="148.5276" y2="146.5267"/><line style="stroke:#181818;stroke-width:1.0;" x1="139.941" x2="132.71" y1="148.5276" y2="151.95"/><ellipse cx="145.3643" cy="145.9609" fill="none" rx="4" ry="4" style="stroke:#181818;stroke-width:1.0;"/></g><!--link users to sns_tokens--><g id="link_users_sns_tokens"><path codeLine="12" d="M287.1081,98.5298 C274.6081,116.1898 272.4456,119.2454 259.8956,136.9854 " fill="none" id="users-sns_tokens" style="stroke:#181818;stroke-width:1.0;"/><line style="stroke:#181818;stroke-width:1.0;" x1="286.1542" x2="292.684" y1="92.954" y2="97.5758"/><line style="stroke:#181818;stroke-width:1.0;" x1="284.421" x2="290.9508" y1="95.4026" y2="100.0245"/><line style="stroke:#181818;stroke-width:1.0;" x1="287.1081" x2="291.73" y1="98.5298" y2="92"/><line style="stroke:#181818;stroke-width:1.0;" x1="254.1203" x2="254.3982" y1="145.1491" y2="155.1452"/><line style="stroke:#181818;stroke-width:1.0;" x1="254.1203" x2="244.6018" y1="145.1491" y2="148.2148"/><line style="stroke:#181818;stroke-width:1.0;" x1="254.1203" x2="249.5" y1="145.1491" y2="151.68"/><ellipse cx="257.5854" cy="140.2508" fill="none" rx="4" ry="4" style="stroke:#181818;stroke-width:1.0;"/></g><!--link users to chat_memories--><g id="link_users_chat_memories"><path codeLine="13" d="M329.151,98.5019 C341.811,116.1619 344.0712,119.3118 356.7912,137.0518 " fill="none" id="users-chat_memories" style="stroke:#181818;stroke-width:1.0;"/><line style="stroke:#181818;stroke-width:1.0;" x1="323.5696" x2="330.0715" y1="97.5815" y2="92.9204"/><line style="stroke:#181818;stroke-width:1.0;" x1="325.3175" x2="331.8194" y1="100.0197" y2="95.3586"/><line style="stroke:#181818;stroke-width:1.0;" x1="329.151" x2="324.49" y1="98.5019" y2="92"/><line style="stroke:#181818;stroke-width:1.0;" x1="362.6183" x2="372.1561" y1="145.1786" y2="148.1837"/><line style="stroke:#181818;stroke-width:1.0;" x1="362.6183" x2="362.4039" y1="145.1786" y2="155.1763"/><line style="stroke:#181818;stroke-width:1.0;" x1="362.6183" x2="367.28" y1="145.1786" y2="151.68"/><ellipse cx="359.1221" cy="140.3025" fill="none" rx="4" ry="4" style="stroke:#181818;stroke-width:1.0;"/></g><!--link users to chat_memory_vectors--><g id="link_users_chat_memory_vectors"><path codeLine="14" d="M349.0021,85.6502 C392.0921,103.1502 443.393,123.9868 495.493,145.1468 " fill="none" id="users-chat_memory_vectors" style="stroke:#181818;stroke-width:1.0;"/><line style="stroke:#181818;stroke-width:1.0;" x1="343.7909" x2="346.8011" y1="87.8511" y2="80.4391"/><line style="stroke:#181818;stroke-width:1.0;" x1="346.5704" x2="349.5807" y1="88.98" y2="81.5679"/><line style="stroke:#181818;stroke-width:1.0;" x1="349.0021" x2="341.59" y1="85.6502" y2="82.64"/><line style="stroke:#181818;stroke-width:1.0;" x1="504.758" x2="514.4277" y1="148.9097" y2="146.361"/><line style="stroke:#181818;stroke-width:1.0;" x1="504.758" x2="509.9123" y1="148.9097" y2="157.479"/><line style="stroke:#181818;stroke-width:1.0;" x1="504.758" x2="512.17" y1="148.9097" y2="151.92"/><ellipse cx="499.199" cy="146.6519" fill="none" rx="4" ry="4" style="stroke:#181818;stroke-width:1.0;"/></g><!--SRC=[TOqn3e0W34LtJj4uk7483-5C23PAK32qcXZrxX8NnEZOztxwPcsSxX6gbZ123St2GmMx401cr4Im94x5fMo7dYrRp9myAGuEVKPcqAmcd49y3ZFTr8g6GtgUv5s1uv0ox1-HGXUjmhoJFpANJt41]--></g></svg>